<?xml version="1.0" encoding="UTF-8"?>
<svg viewBox="0 0 1600 900" preserveAspectRatio="xMidYMid slice" xmlns="http://www.w3.org/2000/svg" xmlns:xlink="http://www.w3.org/1999/xlink">
  <defs>
    <!-- Sky Gradient -->
    <linearGradient id="skyGrad" x1="0" y1="0" x2="0" y2="1">
      <stop offset="0%" stop-color="#0A1530" id="skyStop1"/>
      <stop offset="50%" stop-color="#2D2A4F" id="skyStop2"/>
      <stop offset="100%" stop-color="#0A1530" id="skyStop3"/>
      <animate xlink:href="#skyStop1" attributeName="stop-color" values="#0A1530;#1a2540;#0A1530" dur="25s" repeatCount="indefinite" />
      <animate xlink:href="#skyStop3" attributeName="stop-color" values="#0A1530;#1f2a40;#0A1530" dur="30s" repeatCount="indefinite" />
    </linearGradient>

    <!-- Ember Gradient -->
    <radialGradient id="emberGrad" cx="0.5" cy="0.5" r="0.5">
      <stop offset="0%" stop-color="#FFE082" />
      <stop offset="40%" stop-color="#FF6B00" />
      <stop offset="100%" stop-color="#FF6B00" stop-opacity="0" />
    </radialGradient>

    <!-- Rim Light Gradient -->
    <linearGradient id="rimGrad" x1="0.5" y1="0" x2="0.5" y2="1">
      <stop offset="0%" stop-color="#FFE082" stop-opacity="0.9" />
      <stop offset="100%" stop-color="#FF6B00" stop-opacity="0" />
    </linearGradient>

    <!-- Glow Filters -->
    <filter id="glowWeak" x="-50%" y="-50%" width="200%" height="200%">
      <feGaussianBlur stdDeviation="4" result="blur" />
      <feComposite in="SourceGraphic" in2="blur" operator="over" />
    </filter>

    <filter id="glowMed" x="-50%" y="-50%" width="200%" height="200%">
      <feGaussianBlur stdDeviation="12" result="blur" />
      <feComposite in="SourceGraphic" in2="blur" operator="over" />
    </filter>

    <filter id="glowStrong" x="-50%" y="-50%" width="200%" height="200%">
      <feGaussianBlur stdDeviation="25" result="blur" />
      <feComposite in="SourceGraphic" in2="blur" operator="over" />
    </filter>

    <filter id="blur40">
      <feGaussianBlur stdDeviation="40" />
    </filter>
    <filter id="blur80">
      <feGaussianBlur stdDeviation="80" />
    </filter>
    <filter id="blur120">
      <feGaussianBlur stdDeviation="120" />
    </filter>
    <filter id="blur160">
      <feGaussianBlur stdDeviation="160" />
    </filter>

    <!-- Organic grain -->
    <filter id="grain">
      <feTurbulence type="fractalNoise" baseFrequency="0.65" numOctaves="3" stitchTiles="stitch" result="noise" />
      <feColorMatrix type="matrix" values="0 0 0 0 0  0 0 0 0 0  0 0 0 0 0  0 0 0 0.04 0" in="noise" result="coloredNoise" />
      <feComposite operator="in" in="coloredNoise" in2="SourceGraphic" result="composite" />
      <feBlend mode="overlay" in="composite" in2="SourceGraphic" />
    </filter>

    <!-- Sparkle Star Shape -->
    <g id="star">
      <circle cx="0" cy="0" r="1.5" fill="#FFF" />
      <circle cx="0" cy="0" r="3" fill="#FFF" opacity="0.3" filter="url(#glowWeak)" />
    </g>

    <!-- Ember Particle -->
    <g id="ember">
      <circle cx="0" cy="0" r="2" fill="url(#emberGrad)" />
    </g>
  </defs>

  <!-- 0. Canvas Base -->
  <rect width="1600" height="900" fill="#0A1530" />

  <!-- 1. Sky Base Gradient -->
  <rect width="1600" height="900" fill="url(#skyGrad)" />

  <!-- 2. Deep Atmospheric Mist -->
  <rect x="0" y="0" width="1600" height="900" fill="#0A1530" opacity="0.4" filter="url(#blur160)">
    <animate attributeName="opacity" values="0.4;0.5;0.4" dur="20s" repeatCount="indefinite" />
  </rect>

  <!-- 3. Starfield Base -->
  <g fill="#FFF" opacity="0.6">
    <!-- Static faint stars -->
    <circle cx="150" cy="120" r="1" />
    <circle cx="320" cy="80" r="0.8" />
    <circle cx="500" cy="150" r="1.2" />
    <circle cx="750" cy="60" r="1" />
    <circle cx="900" cy="180" r="0.9" />
    <circle cx="1150" cy="100" r="1.1" />
    <circle cx="1300" cy="140" r="0.8" />
    <circle cx="1450" cy="90" r="1.3" />
    <circle cx="1550" cy="200" r="1" />
    <!-- Twinkling stars -->
    <use href="#star" x="220" y="220">
      <animate attributeName="opacity" values="0.2;1;0.2" dur="4s" repeatCount="indefinite" />
    </use>
    <use href="#star" x="420" y="250" opacity="0.8">
      <animate attributeName="opacity" values="0.4;1;0.4" dur="5.5s" repeatCount="indefinite" />
    </use>
    <use href="#star" x="650" y="140" opacity="0.6">
      <animate attributeName="opacity" values="0.1;0.9;0.1" dur="3s" repeatCount="indefinite" />
    </use>
    <use href="#star" x="880" y="280" opacity="0.5">
      <animate attributeName="opacity" values="0.3;1;0.3" dur="7s" repeatCount="indefinite" />
    </use>
    <use href="#star" x="1050" y="180" opacity="0.9">
      <animate attributeName="opacity" values="0.5;1;0.5" dur="4.5s" repeatCount="indefinite" />
    </use>
    <use href="#star" x="1280" y="260" opacity="0.7">
      <animate attributeName="opacity" values="0.2;1;0.2" dur="6s" repeatCount="indefinite" />
    </use>
    <use href="#star" x="1420" y="150" opacity="0.8">
      <animate attributeName="opacity" values="0.4;1;0.4" dur="5s" repeatCount="indefinite" />
    </use>
    <!-- Shooting Star -->
    <line x1="-200" y1="100" x2="100" y2="200" stroke="#FFF" stroke-width="1.5" stroke-linecap="round" opacity="0">
      <animate attributeName="opacity" values="0;1;0" dur="1.5s" begin="3s" repeatCount="indefinite" />
      <animateTransform attributeName="transform" type="translate" from="0 0" to="600 200" dur="1.5s" begin="3s" repeatCount="indefinite" />
    </line>
  </g>

  <!-- 4. Far Distant Nebula/Light Pollution (Blurred) -->
  <circle cx="1100" cy="400" r="250" fill="#2D2A4F" opacity="0.6" filter="url(#blur120)" />
  <circle cx="200" cy="500" r="200" fill="#0A1530" opacity="0.5" filter="url(#blur160)" />

  <!-- 5. Distant Mountain Ranges -->
  <path d="M0 600 L0 500 L150 450 L300 480 L450 420 L600 460 L800 410 L1000 450 L1300 390 L1600 430 L1600 600 Z" fill="#0F1530" opacity="0.9" filter="url(#blur80)" />
  <animate attributeName="opacity" values="0.9;0.85;0.9" dur="25s" repeatCount="indefinite" />

  <!-- 6. Mid-Ground Village Silhouette -->
  <g fill="#151540" opacity="0.8" filter="url(#blur40)">
    <!-- Church -->
    <rect x="480" y="490" width="20" height="40" />
    <polygon points="470,490 490,470 510,490" />
    <rect x="488" y="500" width="4" height="8" fill="#2D2A4F" opacity="0.5" />
    <!-- Houses -->
    <rect x="520" y="500" width="25" height="25" />
    <polygon points="515,500 532,485 550,500" />
    <rect x="560" y="510" width="30" height="15" />
    <polygon points="555,510 575,495 595,510" />
    <rect x="610" y="505" width="20" height="20" />
    <polygon points="605,505 620,490 635,505" />
    <!-- Tiny warm windows -->
    <rect x="525" y="510" width="4" height="6" fill="#FF6B00" opacity="0.6" />
    <rect x="565" y="515" width="4" height="4" fill="#FF6B00" opacity="0.5" />
  </g>

  <!-- 7. Mid-Ground Foreground Hills -->
  <path d="M0 650 Q 400 550, 900 600 T 1600 550 L 1600 900 L 0 900 Z" fill="#0A0F25" />

  <!-- 8. Ground Base for Blacksmith -->
  <path d="M0 900 L 0 750 Q 400 700, 850 780 Q 1200 850, 1600 800 L 1600 900 Z" fill="#080C18" />

  <!-- 9. Forge Glow Base (Behind Hero) -->
  <circle cx="1120" cy="760" r="150" fill="#FF6B00" opacity="0.6" filter="url(#blur160)" />
  <circle cx="1120" cy="760" r="80" fill="#FF6B00" opacity="0.8" filter="url(#blur80)" />

  <!-- 10. The Anvil -->
  <path d="M1040 740 L 1080 740 L 1070 730 L 1050 730 Z M 1055 740 L 1065 740 L 1070 780 L 1050 780 Z" fill="#111" />
  <rect x="1050" y="780" width="20" height="30" fill="#0A0A0A" />

  <!-- 11. The Hero: Blacksmith Silhouette -->
  <g id="heroGroup" transform="translate(1050, 480)">
    <!-- Breathing animation -->
    <animateTransform attributeName="transform" type="translate" values="1050 480; 1050 482; 1050 480" dur="6s" repeatCount="indefinite" />

    <g fill="#030408" stroke="none">
      <!-- Torso block -->
      <rect x="0" y="150" width="90" height="220" rx="5" />
      <!-- Apron -->
      <path d="M 10 270 L 80 270 L 95 400 L -5 400 Z" />
      <!-- Head -->
      <circle cx="45" cy="100" r="35" />
      <!-- Neck -->
      <rect x="30" y="130" width="30" height="30" />
      <!-- Arm raised holding hammer -->
      <path d="M 60 160 L 160 80 L 170 95 L 70 180 Z" />
      <circle cx="165" cy="87" r="12" />
      <!-- Hammer shaft -->
      <rect x="155" y="60" width="120" height="12" transform="rotate(-45 215 66)" fill="#151515" />
      <!-- Hammer head -->
      <rect x="260" y="10" width="40" height="70" transform="rotate(-45 280 45)" fill="#151515" />
      <!-- Arm on anvil -->
      <path d="M 0 180 L -20 250 L -10 260 L 10 190 Z" />
      <circle cx="-15" cy="255" r="10" />
      <!-- Legs -->
      <rect x="10" y="380" width="25" height="120" />
      <rect x="55" y="380" width="25" height="120" />
      <!-- Boots -->
      <path d="M 5 490 L 35 490 L 40 510 L 5 510 Z" />
      <path d="M 50 490 L 80 490 L 80 510 L 45 510 Z" />
    </g>

    <!-- Rim Light on the blacksmith from forge light (left side/back) -->
    <g fill="none" stroke="url(#rimGrad)" stroke-width="2" filter="url(#glowWeak)" opacity="0.8">
      <path d="M 0 150 L 0 370" />
      <path d="M -5 380 L -5 490" />
      <path d="M 10 490 L 10 510" />
      <path d="M 50 490 L 50 510" />
      <path d="M 10 150 L 10 270" />
      <path d="M -20 250 L -10 260" />
    </g>
  </g>

  <!-- 12. Forge Anvil Impact Glow -->
  <ellipse cx="1065" cy="740" rx="40" ry="15" fill="#FFE082" opacity="0.8" filter="url(#glowMed)" />
  <ellipse cx="1065" cy="740" rx="10" ry="5" fill="#FFF" opacity="0.9" filter="url(#glowWeak)" />

  <!-- 13. Embers / Sparks (Flying Upwards from Anvil) -->
  <g id="sparkSystem">
    <!-- Spark 1 -->
    <use href="#ember" x="1065" y="735" filter="url(#glowWeak)">
      <animateMotion path="M 0 0 C 20 -100, -30 -200, 10 -350" dur="3.2s" repeatCount="indefinite" begin="0s" />
      <animate attributeName="opacity" values="1;0.5;0" dur="3.2s" repeatCount="indefinite" begin="0s" />
      <animateTransform attributeName="transform" type="scale" values="1;0.2" dur="3.2s" repeatCount="indefinite" begin="0s" />
    </use>
    <!-- Spark 2 -->
    <use href="#ember" x="1060" y="740" filter="url(#glowWeak)">
      <animateMotion path="M 0 0 C -40 -80, 10 -220, -20 -400" dur="4.1s" repeatCount="indefinite" begin="0.5s" />
      <animate attributeName="opacity" values="1;0" dur="4.1s" repeatCount="indefinite" begin="0.5s" />
      <animateTransform attributeName="transform" type="scale" values="1;0.1" dur="4.1s" repeatCount="indefinite" begin="0.5s" />
    </use>
    <!-- Spark 3 -->
    <use href="#ember" x="1070" y="730" filter="url(#glowWeak)">
      <animateMotion path="M 0 0 C 10 -120, 50 -250, 30 -450" dur="2.8s" repeatCount="indefinite" begin="1.2s" />
      <animate attributeName="opacity" values="1;0" dur="2.8s" repeatCount="indefinite" begin="1.2s" />
    </use>
    <!-- Spark 4 -->
    <use href="#ember" x="1065" y="745" filter="url(#glowWeak)">
      <animateMotion path="M 0 0 C -20 -90, -60 -180, -40 -320" dur="3.6s" repeatCount="indefinite" begin="0.8s" />
      <animate attributeName="opacity" values="1;0" dur="3.6s" repeatCount="indefinite" begin="0.8s" />
    </use>
    <!-- Spark 5 -->
    <use href="#ember" x="1065" y="735" filter="url(#glowWeak)">
      <animateMotion path="M 0 0 C 30 -60, -10 -150, 20 -280" dur="2.4s" repeatCount="indefinite" begin="1.8s" />
      <animate attributeName="opacity" values="1;0" dur="2.4s" repeatCount="indefinite" begin="1.8s" />
    </use>
    <!-- Spark 6 -->
    <use href="#ember" x="1065" y="740" filter="url(#glowWeak)">
      <animateMotion path="M 0 0 C -10 -100, -40 -200, -15 -380" dur="3.9s" repeatCount="indefinite" begin="2.5s" />
      <animate attributeName="opacity" values="1;0" dur="3.9s" repeatCount="indefinite" begin="2.5s" />
    </use>
    <!-- Spark 7 (Larger lingering spark) -->
    <circle cx="0" cy="0" r="3" fill="#FFE082" filter="url(#glowWeak)">
      <animateMotion path="M 1065 740 C 1100 600, 1050 500, 1080 300" dur="5s" repeatCount="indefinite" begin="0s" />
      <animate attributeName="opacity" values="0.8;0" dur="5s" repeatCount="indefinite" begin="0s" />
      <animate attributeName="r" values="3;1" dur="5s" repeatCount="indefinite" begin="0s" />
    </circle>
    <!-- Spark 8 -->
    <circle cx="0" cy="0" r="2" fill="#FF6B00" filter="url(#glowWeak)">
      <animateMotion path="M 1065 740 C 1020 650, 1090 550, 1040 400" dur="4.2s" repeatCount="indefinite" begin="1.5s" />
      <animate attributeName="opacity" values="1;0" dur="4.2s" repeatCount="indefinite" begin="1.5s" />
    </circle>
    <!-- Spark 9 -->
    <circle cx="0" cy="0" r="2" fill="#FFE082" filter="url(#glowWeak)">
      <animateMotion path="M 1065 740 C 1080 650, 1100 500, 1120 350" dur="3.5s" repeatCount="indefinite" begin="2.2s" />
      <animate attributeName="opacity" values="1;0" dur="3.5s" repeatCount="indefinite" begin="2.2s" />
    </circle>
    <!-- Spark 10 -->
    <circle cx="0" cy="0" r="1.5" fill="#FFF" filter="url(#glowWeak)">
      <animateMotion path="M 1065 740 C 1050 680, 1030 600, 1010 500" dur="4s" repeatCount="indefinite" begin="3s" />
      <animate attributeName="opacity" values="1;0" dur="4s" repeatCount="indefinite" begin="3s" />
    </circle>
  </g>

  <!-- 14. Ambient Mist/Smoke -->
  <g opacity="0.2" filter="url(#blur80)">
    <ellipse cx="1100" cy="500" rx="300" ry="100" fill="#2D2A4F">
      <animate attributeName="cx" values="1100;1050;1150;1100" dur="20s" repeatCount="indefinite" />
      <animate attributeName="cy" values="500;480;520;500" dur="18s" repeatCount="indefinite" />
    </ellipse>
    <ellipse cx="900" cy="300" rx="400" ry="80" fill="#0A1530">
      <animate attributeName="cx" values="900;950;850;900" dur="25s" repeatCount="indefinite" />
    </ellipse>
  </g>

  <!-- 15. Foreground Rock / Tree Framing -->
  <path d="M 0 900 L 0 650 L 80 680 L 120 800 L 60 900 Z" fill="#05080F" />
  <path d="M 1500 900 L 1600 850 L 1600 900 Z" fill="#05080F" />
  <!-- Tree branches framing top right -->
  <path d="M 1600 0 L 1600 200 L 1450 150 L 1500 100 L 1600 50 Z" fill="#060A15" />

  <!-- 16. Foreground Particles / Dust -->
  <g fill="#FFF" opacity="0.3">
    <circle cx="200" cy="800" r="1.5" filter="url(#glowWeak)">
      <animate attributeName="cy" values="800;780;800" dur="12s" repeatCount="indefinite" />
      <animate attributeName="cx" values="200;210;200" dur="15s" repeatCount="indefinite" />
    </circle>
    <circle cx="1400" cy="600" r="1" opacity="0.4">
      <animate attributeName="cy" values="600;580;600" dur="14s" repeatCount="indefinite" />
    </circle>
    <circle cx="400" cy="500" r="2" opacity="0.2" filter="url(#glowWeak)">
      <animate attributeName="cy" values="500;450;500" dur="18s" repeatCount="indefinite" />
      <animate attributeName="cx" values="400;430;400" dur="20s" repeatCount="indefinite" />
    </circle>
    <circle cx="1200" cy="200" r="1" opacity="0.3">
      <animate attributeName="cy" values="200;180;200" dur="16s" repeatCount="indefinite" />
    </circle>
  </g>

  <!-- 17. Massive Foreground Atmosphere Blur -->
  <rect x="0" y="700" width="1600" height="200" fill="#0A1530" opacity="0.4" filter="url(#blur120)" />

  <!-- 18. Film Grain Overlay -->
  <rect width="1600" height="900" fill="transparent" filter="url(#grain)" opacity="0.4" pointer-events="none" />

  <!-- 19. Vignette -->
  <radialGradient id="vignette" cx="0.5" cy="0.5" r="0.75">
    <stop offset="60%" stop-color="#000" stop-opacity="0" />
    <stop offset="100%" stop-color="#000" stop-opacity="0.7" />
  </radialGradient>
  <rect width="1600" height="900" fill="url(#vignette)" pointer-events="none" />

</svg>