<?xml version="1.0" encoding="UTF-8"?>
<svg xmlns="http://www.w3.org/2000/svg" viewBox="0 0 1600 900" preserveAspectRatio="xMidYMid slice">
  <defs>
    <filter id="shadow" x="-50%" y="-50%" width="200%" height="200%">
      <feGaussianBlur in="SourceAlpha" stdDeviation="10" result="blur"/>
      <feOffset in="blur" dx="0" dy="14" result="offset"/>
      <feComponentTransfer><feFuncA type="linear" slope="0.32"/></feComponentTransfer>
      <feMerge><feMergeNode/><feMergeNode in="SourceGraphic"/></feMerge>
    </filter>
    <filter id="softGlow" x="-50%" y="-50%" width="200%" height="200%">
      <feGaussianBlur stdDeviation="4" result="blur"/>
      <feMerge><feMergeNode/><feMergeNode in="SourceGraphic"/></feMerge>
    </filter>
    <filter id="bgBlur" x="-30%" y="-30%" width="160%" height="160%">
      <feGaussianBlur stdDeviation="6"/>
    </filter>
    <radialGradient id="bgGrad" cx="50%" cy="35%" r="85%">
      <stop offset="0%" stop-color="#1d4d66"/>
      <stop offset="100%" stop-color="#112B3C"/>
    </radialGradient>
    <linearGradient id="chartGrad" x1="15%" y1="0%" x2="85%" y2="100%">
      <stop offset="0%" stop-color="#d4b06d" stop-opacity="0.95"/>
      <stop offset="45%" stop-color="#C5A059" stop-opacity="0.9"/>
      <stop offset="100%" stop-color="#a88342" stop-opacity="0.85"/>
    </linearGradient>
    <radialGradient id="brassGrad" cx="32%" cy="32%" r="75%">
      <stop offset="0%" stop-color="#f0d58a"/>
      <stop offset="35%" stop-color="#C5A059"/>
      <stop offset="80%" stop-color="#8a6a35"/>
      <stop offset="100%" stop-color="#061421"/>
    </radialGradient>
    <linearGradient id="quillGrad" x1="20%" y1="0%" x2="80%" y2="100%">
      <stop offset="0%" stop-color="#FFFFFF" stop-opacity="0.95"/>
      <stop offset="60%" stop-color="#f5e6c8" stop-opacity="0.85"/>
      <stop offset="100%" stop-color="#C5A059" stop-opacity="0.75"/>
    </linearGradient>
  </defs>
  
  <rect width="1600" height="900" fill="#112B3C"/>
  <rect width="1600" height="900" fill="url(#bgGrad)" opacity="0.7"/>
  
  <g fill="#FFFFFF">
    <circle cx="220" cy="140" r="2.2" opacity="0.85"><animate attributeName="opacity" values="0.75;0.95;0.75" dur="3.2s" repeatCount="indefinite"/></circle>
    <circle cx="1380" cy="180" r="2.5" opacity="0.8"><animate attributeName="opacity" values="0.7;0.95;0.7" dur="4.1s" repeatCount="indefinite"/></circle>
    <circle cx="180" cy="720" r="2" opacity="0.75"><animate attributeName="opacity" values="0.65;0.9;0.65" dur="5.3s" repeatCount="indefinite"/></circle>
    <circle cx="1420" cy="760" r="2.3" opacity="0.8"><animate attributeName="opacity" values="0.7;1;0.7" dur="3.8s" repeatCount="indefinite"/></circle>
    <circle cx="820" cy="90" r="3" opacity="0.85"><animate attributeName="opacity" values="0.75;0.95;0.75" dur="6.2s" repeatCount="indefinite"/></circle>
    <circle cx="110" cy="420" r="1.8" opacity="0.7"><animate attributeName="opacity" values="0.6;0.85;0.6" dur="2.9s" repeatCount="indefinite"/></circle>
    <circle cx="1480" cy="480" r="2" opacity="0.75"><animate attributeName="opacity" values="0.65;0.95;0.65" dur="4.7s" repeatCount="indefinite"/></circle>
    <circle cx="520" cy="110" r="1.5" opacity="0.7"><animate attributeName="opacity" values="0.6;0.8;0.6" dur="3.5s" repeatCount="indefinite"/></circle>
    <circle cx="1250" cy="650" r="1.7" opacity="0.7"><animate attributeName="opacity" values="0.65;0.85;0.65" dur="5.8s" repeatCount="indefinite"/></circle>
  </g>
  
  <g stroke="#FFFFFF" stroke-width="1" fill="none" stroke-opacity="0.25">
    <path d="M220 140 L350 170 L300 270 L180 220 Z">
      <animate attributeName="stroke-opacity" values="0.2;0.42;0.2" dur="6s" repeatCount="indefinite"/>
    </path>
    <path d="M1380 180 L1250 290 L1360 380 L1430 270 Z">
      <animate attributeName="stroke-opacity" values="0.2;0.42;0.2" dur="7.5s" repeatCount="indefinite"/>
    </path>
    <path d="M820 90 L880 200 L760 220 Z">
      <animate attributeName="stroke-opacity" values="0.15;0.35;0.15" dur="5s" repeatCount="indefinite"/>
    </path>
  </g>
  
  <g transform="translate(800, 490)">
    <ellipse cx="0" cy="190" rx="430" ry="230" fill="#061421" opacity="0.38" filter="url(#bgBlur)">
      <animate attributeName="rx" values="430;445;430" dur="7s" repeatCount="indefinite"/>
      <animate attributeName="ry" values="230;238;230" dur="7s" repeatCount="indefinite"/>
      <animate attributeName="opacity" values="0.38;0.45;0.38" dur="7s" repeatCount="indefinite"/>
    </ellipse>
    
    <g>
      <animateTransform attributeName="transform" type="translate" values="0,0; 0,-7; 0,0" dur="8s" repeatCount="indefinite"/>
      <path d="M-420 -260 L420 -260 L480 210 L-360 210 Z" fill="url(#chartGrad)" stroke="#C5A059" stroke-width="2"/>
      <path d="M-400 -240 L400 -240 L450 190 L-340 190 Z" fill="none" stroke="#061421" stroke-width="3" stroke-opacity="0.55"/>
      <g stroke="#061421" stroke-width="1" stroke-opacity="0.32">
        <line x1="-400" y1="-160" x2="450" y2="-160"/>
        <line x1="-400" y1="-60" x2="450" y2="-60"/>
        <line x1="-400" y1="40" x2="450" y2="40"/>
        <line x1="-400" y1="120" x2="450" y2="120"/>
        <line x1="-280" y1="-240" x2="-230" y2="190"/>
        <line x1="-120" y1="-240" x2="-70" y2="190"/>
        <line x1="40" y1="-240" x2="90" y2="190"/>
        <line x1="200" y1="-240" x2="250" y2="190"/>
        <line x1="320" y1="-240" x2="360" y2="190"/>
      </g>
      <g transform="translate(300, -130)">
        <animateTransform attributeName="transform" type="rotate" from="0" to="360" dur="50s" repeatCount="indefinite" additive="sum"/>
        <circle r="55" fill="none" stroke="#061421" stroke-width="2" stroke-opacity="0.45"/>
        <path d="M0 -55 L14 0 L0 55 L-14 0 Z" fill="#061421" opacity="0.35"/>
        <path d="M-55 0 L0 14 L55 0 L0 -14 Z" fill="#061421" opacity="0.35"/>
        <circle r="10" fill="#C5A059"/>
        <circle r="5" fill="#061421"/>
      </g>
      <g fill="#061421" opacity="0.65">
        <circle cx="-210" cy="-90" r="4"/>
        <circle cx="-160" cy="-130" r="3"/>
        <circle cx="-110" cy="-100" r="4"/>
        <circle cx="-130" cy="-50" r="3"/>
        <circle cx="-190" cy="-40" r="3"/>
      </g>
      <path d="M-210 -90 L-160 -130 L-110 -100 L-130 -50 L-190 -40 Z" fill="none" stroke="#061421" stroke-width="1.5" stroke-opacity="0.45"/>
      <g fill="#061421" opacity="0.5" font-family="Georgia, serif" font-size="14" font-style="italic">
        <text x="-370" y="-205">Septentrio</text>
        <text x="360" y="-205">Oriens</text>
        <text x="-370" y="165">Occidens</text>
        <text x="370" y="165">Meridies</text>
      </g>
      <path d="M-320 60 L-280 30 L-240 70 L-200 40" fill="none" stroke="#FFFFFF" stroke-width="1.5" stroke-opacity="0.5"/>
      <circle cx="-320" cy="60" r="2.5" fill="#FFFFFF" opacity="0.8"/>
      <circle cx="-280" cy="30" r="2" fill="#FFFFFF" opacity="0.8"/>
      <circle cx="-240" cy="70" r="2.5" fill="#FFFFFF" opacity="0.8"/>
      <circle cx="-200" cy="40" r="2" fill="#FFFFFF" opacity="0.8"/>
    </g>
    
    <ellipse cx="-70" cy="90" rx="175" ry="175" fill="#061421" opacity="0.35" filter="url(#bgBlur)">
      <animate attributeName="rx" values="175;182;175" dur="5.5s" repeatCount="indefinite"/>
      <animate attributeName="ry" values="175;182;175" dur="5.5s" repeatCount="indefinite"/>
      <animate attributeName="cx" values="-70;-65;-70" dur="5.5s" repeatCount="indefinite"/>
    </ellipse>
    
    <g transform="translate(-70, -40)">
      <animateTransform attributeName="transform" type="rotate" values="0; 2.5; 0; -2.5; 0" dur="10s" repeatCount="indefinite" additive="sum"/>
      <animateTransform attributeName="transform" type="translate" values="-70,-40; -70,-46; -70,-40" dur="6s" repeatCount="indefinite" additive="sum"/>
      <circle r="165" fill="url(#brassGrad)" stroke="#C5A059" stroke-width="4"/>
      <circle r="155" fill="none" stroke="#061421" stroke-width="2" stroke-opacity="0.45"/>
      <circle r="135" fill="none" stroke="#C5A059" stroke-width="2" stroke-opacity="0.8"/>
      <circle r="115" fill="none" stroke="#061421" stroke-width="1.5" stroke-opacity="0.35"/>
      <g fill="none" stroke="#061421" stroke-width="2" stroke-opacity="0.5">
        <path d="M0 -135 Q65 -65 0 0 Q-65 -65 0 -135"/>
        <path d="M0 135 Q65 65 0 0 Q-65 65 0 135"/>
        <path d="M-135 0 Q-65 65 0 0 Q-65 -65 -135 0"/>
        <path d="M135 0 Q65 65 0 0 Q65 -65 135 0"/>
      </g>
      <g fill="#FFFFFF" opacity="0.9">
        <circle cx="0" cy="-95" r="5"/>
        <circle cx="82" cy="-48" r="4"/>
        <circle cx="82" cy="48" r="4"/>
        <circle cx="0" cy="95" r="5"/>
        <circle cx="-82" cy="48" r="4"/>
        <circle cx="-82" cy="-48" r="4"/>
      </g>
      <circle r="28" fill="#C5A059" stroke="#061421" stroke-width="2"/>
      <circle r="20" fill="#061421"/>
      <circle r="14" fill="#C5A059"/>
      <circle r="8" fill="#061421"/>
      <circle cx="-45" cy="-45" r="6" fill="#FFFFFF" opacity="0.85"/>
      <g stroke="#061421" stroke-width="1.5" stroke-opacity="0.45">
        <line y1="-165" y2="-155" transform="rotate(0)"/>
        <line y1="-165" y2="-155" transform="rotate(30)"/>
        <line y1="-165" y2="-155" transform="rotate(60)"/>
        <line y1="-165" y2="-155" transform="rotate(90)"/>
        <line y1="-165" y2="-155" transform="rotate(120)"/>
        <line y1="-165" y2="-155" transform="rotate(150)"/>
        <line y1="-165" y2="-155" transform="rotate(180)"/>
        <line y1="-165" y2="-155" transform="rotate(210)"/>
        <line y1="-165" y2="-155" transform="rotate(240)"/>
        <line y1="-165" y2="-155" transform="rotate(270)"/>
        <line y1="-165" y2="-155" transform="rotate(300)"/>
        <line y1="-165" y2="-155" transform="rotate(330)"/>
      </g>
      <g>
        <animateTransform attributeName="transform" type="rotate" from="0" to="360" dur="28s" repeatCount="indefinite"/>
        <line x1="0" y1="-155" x2="0" y2="155" stroke="#061421" stroke-width="3" stroke-opacity="0.55"/>
        <line x1="-155" y1="0" x2="155" y2="0" stroke="#061421" stroke-width="2" stroke-opacity="0.4"/>
        <circle r="7" fill="#061421"/>
      </g>
    </g>
    
    <ellipse cx="270" cy="150" rx="75" ry="32" fill="#061421" opacity="0.32" filter="url(#bgBlur)">
      <animate attributeName="rx" values="75;82;75" dur="4s" repeatCount="indefinite"/>
      <animate attributeName="cx" values="270;275;270" dur="4s" repeatCount="indefinite"/>
    </ellipse>
    
    <g transform="translate(270, 90) rotate(-12)">
      <animateTransform attributeName="transform" type="translate" values="270,90; 270,78; 270,90" dur="4s" repeatCount="indefinite" additive="sum"/>
      <animateTransform attributeName="transform" type="rotate" values="-12;-9;-12" dur="4s" repeatCount="indefinite" additive="sum"/>
      <path d="M0 0 Q-32 -85 -22 -170 Q0 -210 34 -170 Q55 -85 22 0 Z" fill="url(#quillGrad)" stroke="#C5A059" stroke-width="1"/>
      <path d="M0 0 Q-6 -85 0 -170" fill="none" stroke="#C5A059" stroke-width="2.5" stroke-opacity="0.5"/>
      <path d="M0 -45 L-20 -62 M0 -78 L-24 -95 M0 -112 L-22 -128 M0 -146 L-16 -162" stroke="#C5A059" stroke-width="1.5" stroke-opacity="0.4"/>
      <path d="M0 -45 L20 -62 M0 -78 L24 -95 M0 -112 L22 -128 M0 -146 L16 -162" stroke="#C5A059" stroke-width="1.5" stroke-opacity="0.4"/>
      <path d="M-9 0 L9 0 L0 38 Z" fill="#C5A059" stroke="#061421" stroke-width="1"/>
      <line x1="0" y1="0" x2="0" y2="28" stroke="#061421" stroke-width="1"/>
      <path d="M0 40 Q-5 48 0 56 Q5 48 0 40" fill="#061421" opacity="0.9">
        <animateTransform attributeName="transform" type="translate" values="0,0; 0,18; 0,0" dur="3s" repeatCount="indefinite"/>
        <animate attributeName="opacity" values="0.9;0;0.9" dur="3s" repeatCount="indefinite"/>
      </path>
    </g>
    
    <g transform="translate(360, 170)">
      <animateTransform attributeName="transform" type="translate" values="360,170; 360,164; 360,170" dur="5.5s" repeatCount="indefinite"/>
      <ellipse cx="0" cy="28" rx="38" ry="13" fill="#061421" opacity="0.32" filter="url(#bgBlur)"/>
      <path d="M-28 -32 L28 -32 L34 22 L0 32 L-34 22 Z" fill="#061421" opacity="0.9" stroke="#C5A059" stroke-width="2"/>
      <ellipse cx="0" cy="-32" rx="28" ry="9" fill="#C5A059" opacity="0.85"/>
      <ellipse cx="0" cy="-32" rx="20" ry="6" fill="#112B3C"/>
      <path d="M-18 -12 Q0 4 18 -12" fill="none" stroke="#FFFFFF" stroke-width="2" stroke-opacity="0.35"/>
      <ellipse cx="12" cy="-6" rx="5" ry="3" fill="#FFFFFF" opacity="0.5"/>
    </g>
  </g>
  
  <rect width="1600" height="900" fill="#112B3C" opacity="0.08">
    <animate attributeName="opacity" values="0.05;0.14;0.05" dur="10s" repeatCount="indefinite"/>
  </rect>
</svg>