<svg xmlns="http://www.w3.org/2000/svg" viewBox="0 0 800 600">
  <defs>
    <pattern id="half" width="8" height="8" patternUnits="userSpaceOnUse">
      <circle cx="4" cy="4" r="2" fill="#000000"/>
    </pattern>
    <g id="b">
      <line x1="400" y1="300" x2="400" y2="0" stroke="#000000" stroke-width="30" stroke-linecap="square"/>
      <line x1="400" y1="300" x2="400" y2="0" stroke="#FFFFFF" stroke-width="14" stroke-linecap="square"/>
    </g>
  </defs>

  <rect width="100%" height="100%" fill="#FFFFFF" />
  <rect x="12" y="12" width="776" height="576" fill="none" stroke="#000000" stroke-width="24" />
  <rect x="24" y="24" width="752" height="552" fill="none" stroke="#FFFFFF" stroke-width="8" />

  <g id="base">
    <polygon points="400,0 420,100 480,20 460,120 580,40 500,140 640,80 540,180 680,140 560,220 720,200 580,260 740,280 580,300 740,320 580,340 720,400 560,380 680,460 540,420 640,520 500,460 580,560 460,480 480,580 420,500 400,600 380,500 320,580 340,480 220,560 300,460 160,520 260,420 120,460 240,380 80,400 220,340 60,320 220,300 60,280 220,260 80,200 240,220 120,140 260,180 160,80 300,140 220,40 340,120 320,20 380,100" fill="none" stroke="#000000" stroke-width="24" stroke-linejoin="miter" stroke-miterlimit="1">
      <animateTransform attributeName="transform" type="scale" values="0;1.1;1" keyTimes="0;0.25;1" dur="4s" begin="0s" fill="freeze" calcMode="spline" keySplines="0.16 1 0.3 1; 0.33 1 0.68 1" />
      <animate attributeName="opacity" values="0;1" keyTimes="0;0.1" dur="4s" begin="0s" fill="freeze" />
    </polygon>
  </g>

  <g id="layer1">
    <polygon points="400,0 420,100 480,20 460,120 580,40 500,140 640,80 540,180 680,140 560,220 720,200 580,260 740,280 580,300 740,320 580,340 720,400 560,380 680,460 540,420 640,520 500,460 580,560 460,480 480,580 420,500 400,600 380,500 320,580 340,480 220,560 300,460 160,520 260,420 120,460 240,380 80,400 220,340 60,320 220,300 60,280 220,260 80,200 240,220 120,140 260,180 160,80 300,140 220,40 340,120 320,20 380,100" fill="#E60000" stroke="#000000" stroke-width="12" stroke-linejoin="miter" stroke-miterlimit="1">
      <animateTransform attributeName="transform" type="scale" values="0;1.1;1" keyTimes="0;0.2;1" dur="4s" begin="0.06s" fill="freeze" calcMode="spline" keySplines="0.16 1 0.3 1; 0.33 1 0.68 1" />
      <animate attributeName="opacity" values="0;1" keyTimes="0;0.1" dur="4s" begin="0.06s" fill="freeze" />
    </polygon>
  </g>

  <g id="layer2">
    <polygon points="400,0 420,100 480,20 460,120 580,40 500,140 640,80 540,180 680,140 560,220 720,200 580,260 740,280 580,300 740,320 580,340 720,400 560,380 680,460 540,420 640,520 500,460 580,560 460,480 480,580 420,500 400,600 380,500 320,580 340,480 220,560 300,460 160,520 260,420 120,460 240,380 80,400 220,340 60,320 220,300 60,280 220,260 80,200 240,220 120,140 260,180 160,80 300,140 220,40 340,120 320,20 380,100" fill="#000000" stroke="#FFFFFF" stroke-width="4" stroke-linejoin="miter" stroke-miterlimit="1">
      <animateTransform attributeName="transform" type="scale" values="0;1.2;1" keyTimes="0;0.15;1" dur="4s" begin="0.12s" fill="freeze" calcMode="spline" keySplines="0.16 1 0.3 1; 0.33 1 0.68 1" />
      <animate attributeName="opacity" values="0;1" keyTimes="0;0.1" dur="4s" begin="0.12s" fill="freeze" />
    </polygon>
  </g>

  <circle cx="400" cy="300" r="280" fill="none" stroke="#000000" stroke-width="30" stroke-dasharray="30, 30">
    <animate attributeName="r" values="0;300;280" keyTimes="0;0.2;1" dur="4s" begin="0.2s" fill="freeze" calcMode="spline" keySplines="0.16 1 0.3 1; 0.33 1 0.68 1" />
    <animate attributeName="opacity" values="0;1" keyTimes="0;0.1" dur="4s" begin="0.2s" fill="freeze" />
    <animateTransform attributeName="transform" type="rotate" from="0 400 300" to="30 400 300" dur="4s" begin="0.2s" fill="freeze" />
  </circle>

  <circle cx="400" cy="300" r="220" fill="none" stroke="#E60000" stroke-width="20" stroke-dasharray="20, 20">
    <animate attributeName="r" values="0;240;220" keyTimes="0;0.2;1" dur="4s" begin="0.3s" fill="freeze" calcMode="spline" keySplines="0.16 1 0.3 1; 0.33 1 0.68 1" />
    <animate attributeName="opacity" values="0;1" keyTimes="0;0.1" dur="4s" begin="0.3s" fill="freeze" />
    <animateTransform attributeName="transform" type="rotate" from="0 400 300" to="-20 400 300" dur="4s" begin="0.3s" fill="freeze" />
  </circle>

  <circle cx="400" cy="300" r="160" fill="#E60000">
    <animate attributeName="r" values="0;170;160" keyTimes="0;0.2;1" dur="4s" begin="0.4s" fill="freeze" calcMode="spline" keySplines="0.16 1 0.3 1; 0.33 1 0.68 1" />
    <animate attributeName="opacity" values="0;1" keyTimes="0;0.1" dur="4s" begin="0.4s" fill="freeze" />
  </circle>

  <circle cx="400" cy="300" r="100" fill="#FFFFFF">
    <animate attributeName="r" values="0;110;100" keyTimes="0;0.2;1" dur="4s" begin="0.5s" fill="freeze" calcMode="spline" keySplines="0.16 1 0.3 1; 0.33 1 0.68 1" />
    <animate attributeName="opacity" values="0;1" keyTimes="0;0.1" dur="4s" begin="0.5s" fill="freeze" />
  </circle>

  <g opacity="0">
    <use href="#b" />
    <use href="#b" transform="rotate(22.5 400 300)" />
    <use href="#b" transform="rotate(45 400 300)" />
    <use href="#b" transform="rotate(67.5 400 300)" />
    <use href="#b" transform="rotate(90 400 300)" />
    <use href="#b" transform="rotate(112.5 400 300)" />
    <use href="#b" transform="rotate(135 400 300)" />
    <use href="#b" transform="rotate(157.5 400 300)" />
    <use href="#b" transform="rotate(180 400 300)" />
    <use href="#b" transform="rotate(202.5 400 300)" />
    <use href="#b" transform="rotate(225 400 300)" />
    <use href="#b" transform="rotate(247.5 400 300)" />
    <use href="#b" transform="rotate(270 400 300)" />
    <use href="#b" transform="rotate(292.5 400 300)" />
    <use href="#b" transform="rotate(315 400 300)" />
    <use href="#b" transform="rotate(337.5 400 300)" />
    <animate attributeName="opacity" values="0;1" keyTimes="0;0.1" dur="4s" begin="0.1s" fill="freeze" />
    <animateTransform attributeName="transform" type="scale" values="0;1.05;1" keyTimes="0;0.25;1" dur="4s" begin="0.1s" fill="freeze" calcMode="spline" keySplines="0.16 1 0.3 1; 0.33 1 0.68 1" />
  </g>

  <path d="M 100 100 L 250 120 L 180 250 L 320 200 L 300 380" fill="none" stroke="#000000" stroke-width="18" stroke-linejoin="miter" stroke-miterlimit="15">
    <animate attributeName="stroke-dasharray" values="0 1500;1500 1500" dur="1s" begin="0.6s" fill="freeze" />
    <animate attributeName="stroke-dashoffset" values="1500;0" dur="1s" begin="0.6s" fill="freeze" />
  </path>

  <path d="M 700 100 L 550 120 L 620 250 L 480 200 L 500 380" fill="none" stroke="#000000" stroke-width="18" stroke-linejoin="miter" stroke-miterlimit="15">
    <animate attributeName="stroke-dasharray" values="0 1500;1500 1500" dur="1s" begin="0.6s" fill="freeze" />
    <animate attributeName="stroke-dashoffset" values="1500;0" dur="1s" begin="0.6s" fill="freeze" />
  </path>

  <path d="M 100 500 L 250 480 L 180 350 L 320 400 L 300 220" fill="none" stroke="#000000" stroke-width="18" stroke-linejoin="miter" stroke-miterlimit="15">
    <animate attributeName="stroke-dasharray" values="0 1500;1500 1500" dur="1s" begin="0.6s" fill="freeze" />
    <animate attributeName="stroke-dashoffset" values="1500;0" dur="1s" begin="0.6s" fill="freeze" />
  </path>

  <path d="M 700 500 L 550 480 L 620 350 L 480 400 L 500 220" fill="none" stroke="#000000" stroke-width="18" stroke-linejoin="miter" stroke-miterlimit="15">
    <animate attributeName="stroke-dasharray" values="0 1500;1500 1500" dur="1s" begin="0.6s" fill="freeze" />
    <animate attributeName="stroke-dashoffset" values="1500;0" dur="1s" begin="0.6s" fill="freeze" />
  </path>

  <polygon points="50,50 160,70 70,160" fill="#E60000" stroke="#000000" stroke-width="10" stroke-linejoin="miter">
    <animateTransform attributeName="transform" type="scale" values="0;1.1;1" keyTimes="0;0.2;1" dur="4s" begin="0.7s" fill="freeze" calcMode="spline" keySplines="0.16 1 0.3 1; 0.33 1 0.68 1" />
    <animate attributeName="opacity" values="0;1" keyTimes="0;0.1" dur="4s" begin="0.7s" fill="freeze" />
  </polygon>

  <polygon points="750,50 640,70 730,160" fill="#E60000" stroke="#000000" stroke-width="10" stroke-linejoin="miter">
    <animateTransform attributeName="transform" type="scale" values="0;1.1;1" keyTimes="0;0.2;1" dur="4s" begin="0.75s" fill="freeze" calcMode="spline" keySplines="0.16 1 0.3 1; 0.33 1 0.68 1" />
    <animate attributeName="opacity" values="0;1" keyTimes="0;0.1" dur="4s" begin="0.75s" fill="freeze" />
  </polygon>

  <polygon points="50,550 160,530 70,440" fill="#E60000" stroke="#000000" stroke-width="10" stroke-linejoin="miter">
    <animateTransform attributeName="transform" type="scale" values="0;1.1;1" keyTimes="0;0.2;1" dur="4s" begin="0.8s" fill="freeze" calcMode="spline" keySplines="0.16 1 0.3 1; 0.33 1 0.68 1" />
    <animate attributeName="opacity" values="0;1" keyTimes="0;0.1" dur="4s" begin="0.8s" fill="freeze" />
  </polygon>

  <polygon points="750,550 640,530 730,440" fill="#E60000" stroke="#000000" stroke-width="10" stroke-linejoin="miter">
    <animateTransform attributeName="transform" type="scale" values="0;1.1;1" keyTimes="0;0.2;1" dur="4s" begin="0.85s" fill="freeze" calcMode="spline" keySplines="0.16 1 0.3 1; 0.33 1 0.68 1" />
    <animate attributeName="opacity" values="0;1" keyTimes="0;0.1" dur="4s" begin="0.85s" fill="freeze" />
  </polygon>
</svg>