<svg xmlns="http://www.w3.org/2000/svg" viewBox="0 0 800 600">
  <defs>
    <linearGradient id="bgGrad" x1="0" y1="0" x2="0" y2="1">
      <stop offset="0%" stop-color="#0a0514" />
      <stop offset="100%" stop-color="#110a22" />
    </linearGradient>
    <linearGradient id="barGrad" x1="0" y1="0" x2="1" y2="0">
      <stop offset="0%" stop-color="#00f3ff" />
      <stop offset="50%" stop-color="#7000ff" />
      <stop offset="100%" stop-color="#ff00cc" />
    </linearGradient>
    <pattern id="energyFlow" width="40" height="40" patternUnits="userSpaceOnUse" patternTransform="translate(0, 0)">
      <rect x="0" y="14" width="20" height="12" fill="#ffffff" opacity="0.35">
        <animateTransform attributeName="patternTransform" type="translate" from="0 0" to="40 0" dur="0.5s" repeatCount="indefinite" />
      </rect>
      <rect x="25" y="4" width="8" height="8" fill="#ffffff" opacity="0.5">
        <animateTransform attributeName="patternTransform" type="translate" from="0 0" to="40 0" dur="0.5s" repeatCount="indefinite" />
      </rect>
      <rect x="30" y="28" width="6" height="10" fill="#ffffff" opacity="0.2">
        <animateTransform attributeName="patternTransform" type="translate" from="0 0" to="40 0" dur="0.5s" repeatCount="indefinite" />
      </rect>
    </pattern>
    <linearGradient id="tipGrad" x1="0" y1="0" x2="1" y2="0">
      <stop offset="0%" stop-color="#ffffff" stop-opacity="1" />
      <stop offset="40%" stop-color="#ff00cc" stop-opacity="0.8" />
      <stop offset="100%" stop-color="#ff00cc" stop-opacity="0" />
    </linearGradient>
    <filter id="neonGlow" x="-50%" y="-50%" width="200%" height="200%">
      <feGaussianBlur stdDeviation="6" result="blur" />
      <feMerge>
        <feMergeNode in="blur" />
        <feMergeNode in="blur" />
        <feMergeNode in="SourceGraphic" />
      </feMerge>
    </filter>
    <filter id="intenseGlow" x="-100%" y="-200%" width="300%" height="500%">
      <feGaussianBlur stdDeviation="15" result="blur" />
      <feColorMatrix type="matrix" values="0 0 0 0 1  0 0 0 0 0  0 0 0 0 1  0 0 0 1 0"/>
      <feMerge>
        <feMergeNode in="blur" />
        <feMergeNode in="SourceGraphic" />
      </feMerge>
    </filter>
    <clipPath id="barClip">
      <rect x="100" y="285" width="600" height="30" rx="2" />
    </clipPath>
    <mask id="flowMask">
      <rect x="100" y="285" width="0" height="30" fill="white">
        <animate attributeName="width" values="0;600;600;0;0" keyTimes="0;0.3;0.7;0.800001;1" dur="4s" repeatCount="indefinite" />
      </rect>
    </mask>
    <mask id="tipMask">
      <rect x="680" y="260" width="80" height="80" fill="white">
        <animate attributeName="x" values="100;680;680;100;100" keyTimes="0;0.3;0.7;0.800001;1" dur="4s" repeatCount="indefinite" />
      </rect>
    </mask>
  </defs>

  <rect width="800" height="600" fill="url(#bgGrad)" />

  <g stroke="#00f3ff" stroke-width="1.5" opacity="0.3">
    <line x1="0" y1="100" x2="800" y2="100" />
    <line x1="0" y1="500" x2="800" y2="500" />
    <line x1="0" y1="200" x2="800" y2="200" stroke-dasharray="10 20" />
    <line x1="0" y1="400" x2="800" y2="400" stroke-dasharray="10 20" />
    <line x1="200" y1="0" x2="200" y2="600" />
    <line x1="600" y1="0" x2="600" y2="600" />
    <line x1="400" y1="0" x2="400" y2="600" stroke-dasharray="20 40" />
    <rect x="50" y="50" width="700" height="500" fill="none" />
  </g>

  <polygon points="50,50 100,50 80,70 30,70" fill="none" stroke="#7000ff" stroke-width="2" opacity="0.6" />
  <polygon points="750,550 700,550 720,530 770,530" fill="none" stroke="#7000ff" stroke-width="2" opacity="0.6" />
  <line x1="100" y1="50" x2="130" y2="80" stroke="#ff00cc" stroke-width="4" stroke-linecap="round" />
  <line x1="700" y1="550" x2="670" y2="520" stroke="#ff00cc" stroke-width="4" stroke-linecap="round" />

  <g>
    <rect x="150" y="190" width="500" height="2" fill="#00f3ff" opacity="0.4">
      <animate attributeName="width" values="0;500;500;0;0" keyTimes="0;0.3;0.7;0.800001;1" dur="4s" repeatCount="indefinite" />
    </rect>
    <text x="650" y="185" font-family="monospace" font-size="14" fill="#00f3ff" text-anchor="end" letter-spacing="4" opacity="0.8">LOADING ENERGY</text>
  </g>

  <g transform="translate(0, 20)">
    <rect x="100" y="285" width="600" height="30" fill="#110a22" stroke="#00f3ff" stroke-width="1.5" opacity="0.8" filter="url(#neonGlow)" />
    <rect x="100" y="285" width="600" height="30" fill="#00f3ff" opacity="0.05" clip-path="url(#barClip)" />
    
    <rect x="100" y="285" width="0" height="30" fill="url(#barGrad)" filter="url(#neonGlow)" clip-path="url(#barClip)">
      <animate attributeName="width" values="0;600;600;0;0" keyTimes="0;0.3;0.7;0.800001;1" dur="4s" repeatCount="indefinite" />
    </rect>
    
    <rect x="100" y="285" width="0" height="30" fill="url(#energyFlow)" mask="url(#flowMask)" clip-path="url(#barClip)" />
    
    <rect x="100" y="285" width="0" height="30" fill="url(#tipGrad)" filter="url(#intenseGlow)">
      <animate attributeName="width" values="0;80;80;0;0" keyTimes="0;0.3;0.7;0.800001;1" dur="4s" repeatCount="indefinite" />
    </rect>

    <rect x="100" y="285" width="0" height="30" fill="white" filter="url(#intenseGlow)">
      <animate attributeName="width" values="0;2;2;0;0" keyTimes="0;0.3;0.7;0.800001;1" dur="4s" repeatCount="indefinite" />
    </rect>
  </g>

  <g stroke="#ff00cc" stroke-width="2" fill="none" opacity="0.7" filter="url(#neonGlow)">
    <line x1="100" y1="275" x2="100" y2="325" />
    <line x1="100" y1="300" x2="90" y2="300" />
    <line x1="100" y1="285" x2="95" y2="285" />
    <line x1="100" y1="315" x2="95" y2="315" />
    
    <line x1="700" y1="275" x2="700" y2="325" />
    <line x1="700" y1="300" x2="710" y2="300" />
    <line x1="700" y1="285" x2="705" y2="285" />
    <line x1="700" y1="315" x2="705" y2="315" />
  </g>

  <g stroke="#00f3ff" stroke-width="1.5" fill="none" opacity="0.6" filter="url(#neonGlow)">
    <polygon points="60,250 70,255 60,260" id="tri1" />
    <use href="#tri1">
      <animate attributeName="opacity" values="0;1;0" dur="2s" begin="0s" repeatCount="indefinite" />
    </use>
    <polygon points="740,350 730,345 740,340" id="tri2" />
    <use href="#tri2">
      <animate attributeName="opacity" values="0;1;0" dur="2s" begin="1s" repeatCount="indefinite" />
    </use>
  </g>

  <g stroke="#00f3ff" stroke-width="1" opacity="0.3">
    <line x1="100" y1="235" x2="200" y2="235">
      <animate attributeName="opacity" values="0.3;1;0.3" dur="3s" repeatCount="indefinite" />
    </line>
    <line x1="700" y1="365" x2="600" y2="365">
      <animate attributeName="opacity" values="0.3;1;0.3" dur="3s" begin="1.5s" repeatCount="indefinite" />
    </line>
    <circle cx="200" cy="235" r="2" fill="#00f3ff" />
    <circle cx="600" cy="365" r="2" fill="#00f3ff" />
  </g>

  <line x1="100" y1="350" x2="700" y2="350" stroke="#ff00cc" stroke-width="2" stroke-dasharray="5 10" opacity="0.5" mask="url(#tipMask)" />

  <g font-family="monospace" font-size="10" fill="#00f3ff" letter-spacing="1">
    <text x="100" y="255" opacity="0.6">XP: 0000</text>
    <text x="100" y="355" opacity="0.6">LVL: 99</text>
    <text x="650" y="255" opacity="0.6" text-anchor="end">PWR: MAX</text>
    <text x="650" y="355" opacity="0.6" text-anchor="end">UPGRADE</text>
  </g>

  <g fill="#00f3ff" opacity="0.4">
    <circle cx="100" cy="300" r="4" />
    <circle cx="700" cy="300" r="4" />
    <animate attributeName="opacity" values="0.4;0.8;0.4" dur="2s" repeatCount="indefinite" />
  </g>

  <rect x="0" y="0" width="800" height="600" fill="url(#bgGrad)" opacity="0.1" style="mix-blend-mode: overlay;" pointer-events="none">
    <animate attributeName="opacity" values="0.1;0.15;0.1" dur="5s" repeatCount="indefinite" />
  </rect>
</svg>