<svg xmlns="http://www.w3.org/2000/svg" viewBox="0 0 800 600">
  <defs>
    <radialGradient id="bgGrad" cx="50%" cy="45%" r="75%">
      <stop offset="0%" stop-color="#4B0082"/>
      <stop offset="45%" stop-color="#1E0030"/>
      <stop offset="100%" stop-color="#0A0015"/>
    </radialGradient>
    
    <linearGradient id="caveGrad" x1="0%" y1="0%" x2="0%" y2="100%">
      <stop offset="0%" stop-color="#05000A"/>
      <stop offset="100%" stop-color="#1A0B2E"/>
    </linearGradient>

    <filter id="glow" x="-50%" y="-50%" width="200%" height="200%">
      <feGaussianBlur in="SourceGraphic" stdDeviation="3" result="blur1"/>
      <feGaussianBlur in="SourceGraphic" stdDeviation="8" result="blur2"/>
      <feMerge>
        <feMergeNode in="blur2"/>
        <feMergeNode in="blur1"/>
        <feMergeNode in="SourceGraphic"/>
      </feMerge>
    </filter>

    <filter id="intenseGlow" x="-100%" y="-100%" width="300%" height="300%">
      <feGaussianBlur in="SourceGraphic" stdDeviation="6" result="blur1"/>
      <feGaussianBlur in="SourceGraphic" stdDeviation="15" result="blur2"/>
      <feGaussianBlur in="SourceGraphic" stdDeviation="30" result="blur3"/>
      <feMerge>
        <feMergeNode in="blur3"/>
        <feMergeNode in="blur2"/>
        <feMergeNode in="blur1"/>
        <feMergeNode in="SourceGraphic"/>
      </feMerge>
    </filter>

    <filter id="moonGlow" x="-50%" y="-50%" width="200%" height="200%">
      <feGaussianBlur in="SourceGraphic" stdDeviation="5"/>
    </filter>

    <g id="sparkle">
      <path d="M 0 -12 Q 0 0 12 0 Q 0 0 0 12 Q 0 0 -12 0 Q 0 0 0 -12 Z" fill="#FFFFFF">
        <animate attributeName="opacity" values="0;1;0" dur="1.5s" begin="0s" repeatCount="indefinite"/>
        <animateTransform attributeName="transform" type="rotate" from="0 0 0" to="180 0 0" dur="3s" begin="0s" repeatCount="indefinite"/>
      </path>
    </g>

    <g id="chatBubble">
      <circle cx="0" cy="0" r="4" fill="#00FFFF" opacity="0.8"/>
      <text x="0" y="1.5" text-anchor="middle" font-size="5" fill="#000000" font-family="monospace" font-weight="bold">
        <animate attributeName="opacity" values="0;1;0" dur="2.5s" begin="0s" repeatCount="indefinite"/>
      </text>
    </g>
  </defs>

  <rect width="800" height="600" fill="url(#bgGrad)"/>

  <g opacity="0.6">
    <circle cx="120" cy="80" r="1.5" fill="#FFFFFF">
      <animate attributeName="opacity" values="0;1;0" dur="4s" repeatCount="indefinite"/>
    </circle>
    <circle cx="350" cy="40" r="1" fill="#FFFFFF">
      <animate attributeName="opacity" values="0;1;0" dur="6s" begin="1s" repeatCount="indefinite"/>
    </circle>
    <circle cx="600" cy="100" r="2" fill="#FFFFFF">
      <animate attributeName="opacity" values="0;1;0" dur="5s" begin="2s" repeatCount="indefinite"/>
    </circle>
    <circle cx="750" cy="60" r="1" fill="#FFFFFF">
      <animate attributeName="opacity" values="0;1;0" dur="7s" begin="0.5s" repeatCount="indefinite"/>
    </circle>
    <circle cx="50" cy="180" r="1.5" fill="#FFFFFF">
      <animate attributeName="opacity" values="0;1;0" dur="5.5s" begin="3s" repeatCount="indefinite"/>
    </circle>
    <circle cx="450" cy="120" r="1" fill="#FFFFFF">
      <animate attributeName="opacity" values="0;1;0" dur="4.5s" begin="1.5s" repeatCount="indefinite"/>
    </circle>
  </g>

  <g transform="translate(400, 250)">
    <circle cx="0" cy="0" r="120" fill="#FFD700" opacity="0.1" filter="url(#moonGlow)">
      <animate attributeName="r" values="120;140;120" dur="5s" repeatCount="indefinite"/>
    </circle>
    <circle cx="0" cy="0" r="90" fill="#FFA500" opacity="0.05" filter="url(#moonGlow)"/>
  </g>

  <use href="#sparkle" x="150" y="150">
    <animateTransform attributeName="transform" type="translate" values="150,150; 155,140; 150,150" dur="4s" repeatCount="indefinite"/>
  </use>
  <use href="#sparkle" x="650" y="200">
    <animateTransform attributeName="transform" type="translate" values="650,200; 645,210; 650,200" dur="5s" repeatCount="indefinite"/>
  </use>
  <use href="#sparkle" x="300" y="100">
    <animateTransform attributeName="transform" type="translate" values="300,100; 310,105; 300,100" dur="3s" repeatCount="indefinite"/>
  </use>
  <use href="#sparkle" x="550" y="80">
    <animateTransform attributeName="transform" type="translate" values="550,80; 540,85; 550,80" dur="6s" repeatCount="indefinite"/>
  </use>

  <path d="M -20,0 Q 400,180 820,0 L 820,-20 L -20,-20 Z" fill="#120022"/>
  <path d="M -20,0 Q 400,180 820,0" fill="none" stroke="#2A0044" stroke-width="3"/>

  <path d="M -20,60 Q 200,220 420,60 T 820,100" fill="none" stroke="#1A0030" stroke-width="2"/>
  <path d="M -20,60 Q 200,220 420,60 T 820,100" fill="none" stroke="#00FFFF" stroke-width="2" filter="url(#glow)">
    <animate attributeName="stroke-opacity" values="0.4;1;0.4" dur="3s" repeatCount="indefinite"/>
  </path>
  
  <g>
    <circle cx="120" cy="140" r="12" fill="#FF0055" filter="url(#glow)">
      <animate attributeName="fill-opacity" values="0.3;1;0.3" dur="2.1s" repeatCount="indefinite"/>
    </circle>
    <circle cx="120" cy="140" r="5" fill="#FFFFFF"/>
  </g>
  <g>
    <circle cx="240" cy="172" r="12" fill="#00FF99" filter="url(#glow)">
      <animate attributeName="fill-opacity" values="1;0.3;1" dur="2.8s" repeatCount="indefinite"/>
    </circle>
    <circle cx="240" cy="172" r="5" fill="#FFFFFF"/>
  </g>
  <g>
    <circle cx="360" cy="145" r="12" fill="#FFD700" filter="url(#glow)">
      <animate attributeName="fill-opacity" values="0.3;1;0.3" dur="1.9s" repeatCount="indefinite"/>
    </circle>
    <circle cx="360" cy="145" r="5" fill="#FFFFFF"/>
  </g>
  <g>
    <circle cx="480" cy="80" r="12" fill="#FF6600" filter="url(#glow)">
      <animate attributeName="fill-opacity" values="1;0.3;1" dur="2.5s" repeatCount="indefinite"/>
    </circle>
    <circle cx="480" cy="80" r="5" fill="#FFFFFF"/>
  </g>
  <g>
    <circle cx="600" cy="65" r="12" fill="#00FFFF" filter="url(#glow)">
      <animate attributeName="fill-opacity" values="0.3;1;0.3" dur="3.2s" repeatCount="indefinite"/>
    </circle>
    <circle cx="600" cy="65" r="5" fill="#FFFFFF"/>
  </g>
  <g>
    <circle cx="720" cy="92" r="12" fill="#FF00FF" filter="url(#glow)">
      <animate attributeName="fill-opacity" values="1;0.3;1" dur="2.3s" repeatCount="indefinite"/>
    </circle>
    <circle cx="720" cy="92" r="5" fill="#FFFFFF"/>
  </g>

  <path d="M -20,150 Q 250,320 500,120 T 820,180" fill="none" stroke="#1A0030" stroke-width="2"/>
  <path d="M -20,150 Q 250,320 500,120 T 820,180" fill="none" stroke="#FF00FF" stroke-width="2" filter="url(#glow)">
    <animate attributeName="stroke-opacity" values="0.5;1;0.5" dur="4s" repeatCount="indefinite"/>
  </path>

  <g>
    <circle cx="100" cy="257" r="14" fill="#00FFFF" filter="url(#glow)">
      <animate attributeName="fill-opacity" values="1;0.3;1" dur="2.6s" repeatCount="indefinite"/>
    </circle>
    <circle cx="100" cy="257" r="6" fill="#FFFFFF"/>
  </g>
  <g>
    <circle cx="220" cy="320" r="14" fill="#FF0055" filter="url(#glow)">
      <animate attributeName="fill-opacity" values="0.3;1;0.3" dur="3.1s" repeatCount="indefinite"/>
    </circle>
    <circle cx="220" cy="320" r="6" fill="#FFFFFF"/>
  </g>
  <g>
    <circle cx="340" cy="298" r="14" fill="#00FF99" filter="url(#glow)">
      <animate attributeName="fill-opacity" values="1;0.3;1" dur="1.7s" repeatCount="indefinite"/>
    </circle>
    <circle cx="340" cy="298" r="6" fill="#FFFFFF"/>
  </g>
  <g>
    <circle cx="460" cy="195" r="14" fill="#FFD700" filter="url(#glow)">
      <animate attributeName="fill-opacity" values="0.3;1;0.3" dur="2.9s" repeatCount="indefinite"/>
    </circle>
    <circle cx="460" cy="195" r="6" fill="#FFFFFF"/>
  </g>
  <g>
    <circle cx="580" cy="148" r="14" fill="#FF6600" filter="url(#glow)">
      <animate attributeName="fill-opacity" values="1;0.3;1" dur="2.2s" repeatCount="indefinite"/>
    </circle>
    <circle cx="580" cy="148" r="6" fill="#FFFFFF"/>
  </g>
  <g>
    <circle cx="700" cy="164" r="14" fill="#00FFFF" filter="url(#glow)">
      <animate attributeName="fill-opacity" values="0.3;1;0.3" dur="3.5s" repeatCount="indefinite"/>
    </circle>
    <circle cx="700" cy="164" r="6" fill="#FFFFFF"/>
  </g>

  <path d="M -20,220 Q 300,420 550,200 T 820,250" fill="none" stroke="#1A0030" stroke-width="2"/>
  <path d="M -20,220 Q 300,420 550,200 T 820,250" fill="none" stroke="#00FF99" stroke-width="2" filter="url(#glow)">
    <animate attributeName="stroke-opacity" values="1;0.4;1" dur="3.5s" repeatCount="indefinite"/>
  </path>

  <g>
    <circle cx="80" cy="360" r="18" fill="#FF6600" filter="url(#glow)">
      <animate attributeName="fill-opacity" values="0.3;1;0.3" dur="2.4s" repeatCount="indefinite"/>
    </circle>
    <circle cx="80" cy="360" r="7" fill="#FFFFFF"/>
  </g>
  <g>
    <circle cx="200" cy="440" r="18" fill="#00FFFF" filter="url(#glow)">
      <animate attributeName="fill-opacity" values="1;0.3;1" dur="3.3s" repeatCount="indefinite"/>
    </circle>
    <circle cx="200" cy="440" r="7" fill="#FFFFFF"/>
  </g>
  <g>
    <circle cx="320" cy="420" r="18" fill="#FF0055" filter="url(#glow)">
      <animate attributeName="fill-opacity" values="0.3;1;0.3" dur="2.0s" repeatCount="indefinite"/>
    </circle>
    <circle cx="320" cy="420" r="7" fill="#FFFFFF"/>
  </g>
  <g>
    <circle cx="440" cy="310" r="18" fill="#00FF99" filter="url(#glow)">
      <animate attributeName="fill-opacity" values="1;0.3;1" dur="2.7s" repeatCount="indefinite"/>
    </circle>
    <circle cx="440" cy="310" r="7" fill="#FFFFFF"/>
  </g>
  <g>
    <circle cx="560" cy="245" r="18" fill="#FFD700" filter="url(#glow)">
      <animate attributeName="fill-opacity" values="0.3;1;0.3" dur="3.8s" repeatCount="indefinite"/>
    </circle>
    <circle cx="560" cy="245" r="7" fill="#FFFFFF"/>
  </g>
  <g>
    <circle cx="680" cy="272" r="18" fill="#FF00FF" filter="url(#glow)">
      <animate attributeName="fill-opacity" values="1;0.3;1" dur="2.9s" repeatCount="indefinite"/>
    </circle>
    <circle cx="680" cy="272" r="7" fill="#FFFFFF"/>
  </g>

  <path d="M -20,300 Q 350,520 600,280 T 820,320" fill="none" stroke="#1A0030" stroke-width="2"/>
  <path d="M -20,300 Q 350,520 600,280 T 820,320" fill="none" stroke="#FFD700" stroke-width="2" filter="url(#glow)">
    <animate attributeName="stroke-opacity" values="0.4;1;0.4" dur="5s" repeatCount="indefinite"/>
  </path>

  <g>
    <circle cx="60" cy="480" r="22" fill="#00FF99" filter="url(#glow)">
      <animate attributeName="fill-opacity" values="1;0.3;1" dur="3.6s" repeatCount="indefinite"/>
    </circle>
    <circle cx="60" cy="480" r="8" fill="#FFFFFF"/>
  </g>
  <g>
    <circle cx="180" cy="565" r="22" fill="#FF0055" filter="url(#glow)">
      <animate attributeName="fill-opacity" values="0.3;1;0.3" dur="2.3s" repeatCount="indefinite"/>
    </circle>
    <circle cx="180" cy="565" r="8" fill="#FFFFFF"/>
  </g>
  <g>
    <circle cx="300" cy="540" r="22" fill="#00FFFF" filter="url(#glow)">
      <animate attributeName="fill-opacity" values="1;0.3;1" dur="4.1s" repeatCount="indefinite"/>
    </circle>
    <circle cx="300" cy="540" r="8" fill="#FFFFFF"/>
  </g>
  <g>
    <circle cx="420" cy="420" r="22" fill="#FF6600" filter="url(#glow)">
      <animate attributeName="fill-opacity" values="0.3;1;0.3" dur="2.8s" repeatCount="indefinite"/>
    </circle>
    <circle cx="420" cy="420" r="8" fill="#FFFFFF"/>
  </g>
  <g>
    <circle cx="540" cy="340" r="22" fill="#FFD700" filter="url(#glow)">
      <animate attributeName="fill-opacity" values="1;0.3;1" dur="3.4s" repeatCount="indefinite"/>
    </circle>
    <circle cx="540" cy="340" r="8" fill="#FFFFFF"/>
  </g>
  <g>
    <circle cx="660" cy="358" r="22" fill="#FF00FF" filter="url(#glow)">
      <animate attributeName="fill-opacity" values="0.3;1;0.3" dur="2.1s" repeatCount="indefinite"/>
    </circle>
    <circle cx="660" cy="358" r="8" fill="#FFFFFF"/>
  </g>

  <path d="M 0,600 L 0,450 C 80,420 150,390 220,430 C 300,480 350,420 420,470 C 500,530 550,460 620,490 C 680,520 750,480 800,460 L 800,600 Z" fill="url(#caveGrad)"/>
  <path d="M 0,600 L 0,450 C 80,420 150,390 220,430 C 300,480 350,420 420,470 C 500,530 550,460 620,490 C 680,520 750,480 800,460 L 800,600 Z" fill="none" stroke="#FF00FF" stroke-width="3" opacity="0.4" filter="url(#glow)"/>

  <g opacity="0.8">
    <polygon points="180,580 220,580 200,540" fill="#00FFFF">
      <animate attributeName="fill-opacity" values="0.5;1;0.5" dur="3s" repeatCount="indefinite"/>
    </polygon>
    <polygon points="220,580 260,580 240,540" fill="#FF0055">
      <animate attributeName="fill-opacity" values="1;0.5;1" dur="2.5s" repeatCount="indefinite"/>
    </polygon>
    <polygon points="200,540 240,540 220,500" fill="#FFD700">
      <animate attributeName="fill-opacity" values="0.5;1;0.5" dur="4s" repeatCount="indefinite"/>
    </polygon>
  </g>

  <ellipse cx="200" cy="580" rx="45" ry="15" fill="#000000" opacity="0.6" filter="url(#glow)"/>

  <g opacity="0.6">
    <polygon points="580,600 640,600 610,550" fill="#FF6600">
      <animate attributeName="fill-opacity" values="0.4;1;0.4" dur="2.8s" repeatCount="indefinite"/>
    </polygon>
    <polygon points="610,550 640,600 660,560" fill="#00FF99">
      <animate attributeName="fill-opacity" values="1;0.4;1" dur="3.2s" repeatCount="indefinite"/>
    </polygon>
  </g>

  <ellipse cx="610" cy="600" rx="40" ry="12" fill="#000000" opacity="0.6" filter="url(#glow)"/>

  <path d="M 450,520 Q 460,450 480,400" fill="none" stroke="#00FF99" stroke-width="4" stroke-linecap="round">
    <animate attributeName="stroke-opacity" values="0.4;0.8;0.4" dur="4s" repeatCount="indefinite"/>
  </path>
  <circle cx="480" cy="400" r="18" fill="#00FF99" filter="url(#glow)">
    <animate attributeName="r" values="18;22;18" dur="2s" repeatCount="indefinite"/>
  </circle>
  <path d="M 460,395 Q 480,380 500,395" fill="none" stroke="#FFFFFF" stroke-width="2" stroke-linecap="round"/>

  <path d="M 700,560 Q 710,500 730,450" fill="none" stroke="#FF0055" stroke-width="4" stroke-linecap="round">
    <animate attributeName="stroke-opacity" values="0.4;0.8;0.4" dur="3.5s" repeatCount="indefinite"/>
  </path>
  <circle cx="730" cy="450" r="18" fill="#FF0055" filter="url(#glow)">
    <animate attributeName="r" values="18;22;18" dur="2.5s" repeatCount="indefinite"/>
  </circle>
  <path d="M 710,445 Q 730,430 750,445" fill="none" stroke="#FFFFFF" stroke-width="2" stroke-linecap="round"/>

  <circle cx="400" cy="600" r="350" fill="none" stroke="#FF00FF" stroke-width="15" opacity="0.05" filter="url(#intenseGlow)">
    <animate attributeName="r" values="350;360;350" dur="6s" repeatCount="indefinite"/>
  </circle>
  <circle cx="400" cy="600" r="300" fill="none" stroke="#00FFFF" stroke-width="10" opacity="0.08" filter="url(#intenseGlow)">
    <animate attributeName="r" values="300;310;300" dur="5s" repeatCount="indefinite"/>
  </circle>

  <g>
    <use href="#chatBubble" x="250" y="150">
      <animateTransform attributeName="transform" type="translate" values="0,0; 0,-30; 0,0" dur="4s" begin="0.5s" repeatCount="indefinite"/>
      <animate attributeName="opacity" values="0;1;0" dur="4s" begin="0.5s" repeatCount="indefinite"/>
    </use>
    <use href="#chatBubble" x="350" y="220">
      <animateTransform attributeName="transform" type="translate" values="0,0; 0,-25; 0,0" dur="5s" begin="1s" repeatCount="indefinite"/>
      <animate attributeName="opacity" values="0;1;0" dur="5s" begin="1s" repeatCount="indefinite"/>
    </use>
    <use href="#chatBubble" x="150" y="300">
      <animateTransform attributeName="transform" type="translate" values="0,0; 0,-35; 0,0" dur="3.5s" begin="1.5s" repeatCount="indefinite"/>
      <animate attributeName="opacity" values="0;1;0" dur="3.5s" begin="1.5s" repeatCount="indefinite"/>
    </use>
    <use href="#chatBubble" x="550" y="180">
      <animateTransform attributeName="transform" type="translate" values="0,0; 0,-20; 0,0" dur="4.5s" begin="2s" repeatCount="indefinite"/>
      <animate attributeName="opacity" values="0;1;0" dur="4.5s" begin="2s" repeatCount="indefinite"/>
    </use>
    <use href="#chatBubble" x="650" y="350">
      <animateTransform attributeName="transform" type="translate" values="0,0; 0,-40; 0,0" dur="6s" begin="0s" repeatCount="indefinite"/>
      <animate attributeName="opacity" values="0;1;0" dur="6s" begin="0s" repeatCount="indefinite"/>
    </use>
    <use href="#chatBubble" x="280" y="400">
      <animateTransform attributeName="transform" type="translate" values="0,0; 0,-15; 0,0" dur="5.5s" begin="2.5s" repeatCount="indefinite"/>
      <animate attributeName="opacity" values="0;1;0" dur="5.5s" begin="2.5s" repeatCount="indefinite"/>
    </use>
  </g>

  <g>
    <circle cx="100" cy="550" r="3" fill="#00FFFF" filter="url(#glow)">
      <animateTransform attributeName="transform" type="translate" values="0,0; 20,-50; 0,0" dur="3s" repeatCount="indefinite"/>
      <animate attributeName="opacity" values="0;1;0" dur="3s" repeatCount="indefinite"/>
    </circle>
    <circle cx="700" cy="500" r="4" fill="#FF0055" filter="url(#glow)">
      <animateTransform attributeName="transform" type="translate" values="0,0; -30,-60; 0,0" dur="4s" repeatCount="indefinite"/>
      <animate attributeName="opacity" values="0;1;0" dur="4s" repeatCount="indefinite"/>
    </circle>
    <circle cx="400" cy="450" r="2.5" fill="#FFD700" filter="url(#glow)">
      <animateTransform attributeName="transform" type="translate" values="0,0; 10,-40; 0,0" dur="2.5s" repeatCount="indefinite"/>
      <animate attributeName="opacity" values="0;1;0" dur="2.5s" repeatCount="indefinite"/>
    </circle>
    <circle cx="200" cy="200" r="3" fill="#00FF99" filter="url(#glow)">
      <animateTransform attributeName="transform" type="translate" values="0,0; 25,-30; 0,0" dur="3.5s" repeatCount="indefinite"/>
      <animate attributeName="opacity" values="0;1;0" dur="3.5s" repeatCount="indefinite"/>
    </circle>
    <circle cx="600" cy="150" r="4" fill="#FF6600" filter="url(#glow)">
      <animateTransform attributeName="transform" type="translate" values="0,0; -15,-45; 0,0" dur="4.5s" repeatCount="indefinite"/>
      <animate attributeName="opacity" values="0;1;0" dur="4.5s" repeatCount="indefinite"/>
    </circle>
  </g>

  <rect x="0" y="0" width="800" height="600" fill="none" stroke="#FF00FF" stroke-width="2" opacity="0.1" filter="url(#glow)"/>
</svg>