<?xml version="1.0" encoding="UTF-8"?>
<svg viewBox="0 0 1600 900" preserveAspectRatio="xMidYMid slice" xmlns="http://www.w3.org/2000/svg">
  <defs>
    <filter id="glow" x="-50%" y="-50%" width="200%" height="200%">
      <feGaussianBlur stdDeviation="50"/>
    </filter>
    <filter id="frost" x="-20%" y="-20%" width="140%" height="140%">
      <feGaussianBlur stdDeviation="25"/>
    </filter>
    <filter id="grain">
      <feTurbulence baseFrequency="0.8" numOctaves="3" result="n"/>
      <feColorMatrix in="n" values="0 0 0 0 0 0 0 0 0 0 0 0 0 0 0 0 0 0 0.03 0"/>
    </filter>
    <linearGradient id="g1" x1="0%" y1="100%" x2="100%" y2="0%">
      <stop offset="0%" stop-color="#525252" stop-opacity="0.9"/>
      <stop offset="100%" stop-color="#2a2a2a" stop-opacity="0.8"/>
    </linearGradient>
    <linearGradient id="g2" x1="0%" y1="0%" x2="100%" y2="100%">
      <stop offset="0%" stop-color="#A8A8A8" stop-opacity="0.85"/>
      <stop offset="100%" stop-color="#707070" stop-opacity="0.75"/>
    </linearGradient>
  </defs>
  
  <rect width="1600" height="900" fill="#F5F5F5"/>
  <rect width="1600" height="900" filter="url(#grain)"/>
  
  <path d="M-200 1000 L500 300 L700 500 L0 1200 Z" fill="url(#g1)" opacity="0.85">
    <animateTransform attributeName="transform" type="translate" values="0,60;0,-40;0,60" dur="12s" repeatCount="indefinite"/>
  </path>
  
  <path d="M300 1100 L1000 400 L1200 600 L500 1300 Z" fill="url(#g2)" opacity="0.8">
    <animateTransform attributeName="transform" type="translate" values="0,50;0,-30;0,50" dur="10s" repeatCount="indefinite"/>
  </path>
  
  <rect x="150" y="250" width="350" height="450" fill="#fff" opacity="0.18" filter="url(#frost)">
    <animateTransform attributeName="transform" type="translate" values="0,0;0,-35;0,0" dur="8s" repeatCount="indefinite"/>
  </rect>
  
  <path d="M600 1050 L1300 350 L1500 550 L800 1250 Z" fill="#525252" opacity="0.75">
    <animateTransform attributeName="transform" type="translate" values="0,40;0,-50;0,40" dur="9s" repeatCount="indefinite"/>
  </path>
  
  <path d="M900 950 L1500 350 L1600 450 L1000 1050 Z" fill="#FF6B35" opacity="0.9">
    <animateTransform attributeName="transform" type="translate" values="0,80;0,-60;0,80" dur="6s" repeatCount="indefinite"/>
  </path>
  
  <path d="M1200 1000 L1700 500 L1750 550 L1250 1050 Z" fill="#A8A8A8" opacity="0.8">
    <animateTransform attributeName="transform" type="translate" values="0,30;0,-45;0,30" dur="11s" repeatCount="indefinite"/>
  </path>
  
  <g opacity="0.95">
    <polygon points="350,550 500,350 650,550 590,550 590,750 410,750 410,550" fill="#FF6B35"/>
    <animateTransform attributeName="transform" type="translate" values="0,0;180,-130;0,0" dur="5s" repeatCount="indefinite"/>
    <animateTransform attributeName="transform" type="scale" values="1;1.1;1" dur="5s" additive="sum" repeatCount="indefinite"/>
  </g>
  
  <g opacity="0.85">
    <polygon points="650,650 800,450 950,650 890,650 890,850 710,850 710,650" fill="#525252"/>
    <animateTransform attributeName="transform" type="translate" values="0,0;130,-90;0,0" dur="7s" repeatCount="indefinite"/>
    <animate attributeName="opacity" values="0.85;0.5;0.85" dur="4s" repeatCount="indefinite"/>
  </g>
  
  <g opacity="0.8">
    <polygon points="950,750 1100,550 1250,750 1190,750 1190,900 1010,900 1010,750" fill="#A8A8A8"/>
    <animateTransform attributeName="transform" type="translate" values="0,0;100,-80;0,0" dur="6s" repeatCount="indefinite"/>
  </g>
  
  <rect x="1000" y="150" width="400" height="250" fill="#fff" opacity="0.2" filter="url(#frost)">
    <animateTransform attributeName="transform" type="translate" values="0,0;0,25;0,0" dur="10s" repeatCount="indefinite"/>
  </rect>
  
  <circle cx="1350" cy="400" r="120" fill="#FF6B35" opacity="0.35" filter="url(#glow)">
    <animate attributeName="r" values="120;160;120" dur="8s" repeatCount="indefinite"/>
    <animate attributeName="opacity" values="0.35;0.55;0.35" dur="8s" repeatCount="indefinite"/>
  </circle>
  
  <line x1="0" y1="800" x2="1600" y2="200" stroke="#525252" stroke-width="4" opacity="0.7">
    <animate attributeName="x1" values="0;-100;0" dur="12s" repeatCount="indefinite"/>
    <animate attributeName="x2" values="1600;1500;1600" dur="12s" repeatCount="indefinite"/>
  </line>
  
  <line x1="400" y1="900" x2="1600" y2="300" stroke="#A8A8A8" stroke-width="2" opacity="0.6">
    <animate attributeName="y1" values="900;850;900" dur="10s" repeatCount="indefinite"/>
  </line>
  
  <circle cx="300" cy="300" r="6" fill="#525252" opacity="0.7">
    <animate attributeName="cy" values="300;260;300" dur="5s" repeatCount="indefinite"/>
  </circle>
  
  <circle cx="1100" cy="600" r="10" fill="#FF6B35" opacity="0.75">
    <animate attributeName="cy" values="600;560;600" dur="6s" repeatCount="indefinite"/>
    <animate attributeName="r" values="10;14;10" dur="6s" repeatCount="indefinite"/>
  </circle>
  
  <circle cx="1400" cy="200" r="5" fill="#A8A8A8" opacity="0.8">
    <animate attributeName="cy" values="200;170;200" dur="7s" repeatCount="indefinite"/>
  </circle>
</svg>