<?xml version="1.0" encoding="UTF-8"?>
<svg xmlns="http://www.w3.org/2000/svg" width="1600" height="900" viewBox="0 0 1600 900" preserveAspectRatio="xMidYMid slice">
<defs>
<filter id="b1" x="-50%" y="-50%" width="200%" height="200%">
<feGaussianBlur stdDeviation="35"/>
</filter>
<filter id="b2" x="-50%" y="-50%" width="200%" height="200%">
<feGaussianBlur stdDeviation="75"/>
</filter>
<filter id="turb">
<feTurbulence type="fractalNoise" baseFrequency="0.008" numOctaves="2"/>
<feColorMatrix type="matrix" values="1 0 0 0 0 0 1 0 0 0 0 0 1 0 0 0 0 0 0.08 0"/>
</filter>
<path id="p" d="M0,0C40-70 110-70 140 0C110 60 40 60 0 0Z"/>
</defs>
<rect width="1600" height="900" fill="#FFF5EB"/>
<g transform="translate(300,400)" opacity="0.8">
<use href="#p" fill="#B85440" filter="url(#b2)" transform="scale(4)">
<animateTransform attributeName="transform" type="rotate" from="0" to="360" dur="10s" repeatCount="indefinite" additive="sum"/>
</use>
<animateTransform attributeName="transform" type="translate" values="300,400;400,350;300,400" dur="8s" repeatCount="indefinite"/>
</g>
<g transform="translate(1300,500)" opacity="0.9">
<use href="#p" fill="#FA8072" filter="url(#b2)" transform="scale(3.5)">
<animateTransform attributeName="transform" type="rotate" from="0" to="-360" dur="9s" repeatCount="indefinite" additive="sum"/>
</use>
<animateTransform attributeName="transform" type="translate" values="1300,500;1200,450;1300,500" dur="10s" repeatCount="indefinite"/>
</g>
<g transform="translate(200,800)" opacity="0.95">
<use href="#p" fill="#FF7F00" filter="url(#b1)" transform="scale(2.5)">
<animateTransform attributeName="transform" type="rotate" from="0" to="360" dur="7s" repeatCount="indefinite" additive="sum"/>
</use>
<animate attributeName="opacity" values="0.95;0.85;0.95" dur="5s" repeatCount="indefinite"/>
</g>
<g transform="translate(800,200)" opacity="0.9">
<path fill="#FA8072" d="M0,0C35-60 95-60 120 0C95 50 35 50 0 0Z" transform="translate(-60,0)">
<animateTransform attributeName="transform" type="rotate" from="0" to="360" dur="6s" repeatCount="indefinite" additive="sum"/>
</path>
<animateTransform attributeName="transform" type="translate" values="800,200;900,250;800,200" dur="8s" repeatCount="indefinite"/>
</g>
<g transform="translate(1400,150)" opacity="0.85">
<path fill="#FFB088" d="M0,0C30-50 80-50 100 0C80 45 30 45 0 0Z" transform="translate(-50,0)">
<animateTransform attributeName="transform" type="rotate" from="0" to="-360" dur="8s" repeatCount="indefinite" additive="sum"/>
</path>
<animateTransform attributeName="transform" type="translate" values="1400,150;1320,220;1400,150" dur="9s" repeatCount="indefinite"/>
</g>
<g transform="translate(600,600)" opacity="1">
<path fill="#FF7F00" d="M0,0C40-65 100-65 130 0C100 55 40 55 0 0Z" transform="translate(-65,0)">
<animateTransform attributeName="transform" type="rotate" from="0" to="360" dur="5s" repeatCount="indefinite" additive="sum"/>
</path>
<animate attributeName="opacity" values="1;0.9;1" dur="4s" repeatCount="indefinite"/>
</g>
<g transform="translate(1100,750)" opacity="0.75">
<use href="#p" fill="#B85440" filter="url(#b1)" transform="scale(2)">
<animateTransform attributeName="transform" type="rotate" from="0" to="360" dur="10s" repeatCount="indefinite"/>
</use>
</g>
<g>
<g>
<path fill="#FFB088" opacity="0.9" d="M0,0C25-40 65-40 80 0C65 35 25 35 0 0Z" transform="translate(-40,0)">
<animateTransform attributeName="transform" type="rotate" from="0" to="360" dur="6s" repeatCount="indefinite" additive="sum"/>
</path>
<animateTransform attributeName="transform" type="translate" values="400,300;600,500;400,300" dur="10s" repeatCount="indefinite"/>
</g>
<circle fill="#FFB088" opacity="0" r="10">
<animate attributeName="opacity" values="0;0.6;0" dur="10s" repeatCount="indefinite"/>
<animate attributeName="cx" values="400;600;400" dur="10s" repeatCount="indefinite"/>
<animate attributeName="cy" values="300;500;300" dur="10s" repeatCount="indefinite"/>
</circle>
<circle fill="#FFB088" opacity="0" r="6">
<animate attributeName="opacity" values="0;0.5;0" dur="10s" begin="0.5s" repeatCount="indefinite"/>
<animate attributeName="cx" values="400;600;400" dur="10s" begin="0.5s" repeatCount="indefinite"/>
<animate attributeName="cy" values="300;500;300" dur="10s" begin="0.5s" repeatCount="indefinite"/>
</circle>
</g>
<g>
<g>
<path fill="#FF7F00" opacity="0.95" d="M0,0C30-50 75-50 90 0C75 40 30 40 0 0Z" transform="translate(-45,0)">
<animateTransform attributeName="transform" type="rotate" from="0" to="-360" dur="7s" repeatCount="indefinite" additive="sum"/>
</path>
<animateTransform attributeName="transform" type="translate" values="1500,700;1300,600;1500,700" dur="10s" repeatCount="indefinite"/>
</g>
<circle fill="#FF7F00" opacity="0" r="8">
<animate attributeName="opacity" values="0;0.7;0" dur="10s" repeatCount="indefinite"/>
<animate attributeName="cx" values="1500;1300;1500" dur="10s" repeatCount="indefinite"/>
<animate attributeName="cy" values="700;600;700" dur="10s" repeatCount="indefinite"/>
</circle>
</g>
<g transform="translate(100,100)" opacity="0.88">
<path fill="#FA8072" d="M0,0C20-35 55-35 70 0C55 30 20 30 0 0Z" transform="translate(-35,0)">
<animateTransform attributeName="transform" type="rotate" from="0" to="360" dur="9s" repeatCount="indefinite" additive="sum"/>
</path>
<animateTransform attributeName="transform" type="translate" values="100,100;180,150;100,100" dur="7s" repeatCount="indefinite"/>
</g>
<g transform="translate(900,850)" opacity="0.7">
<path fill="#B85440" d="M0,0C18-30 50-30 62 0C50 25 18 25 0 0Z" transform="translate(-31,0)">
<animateTransform attributeName="transform" type="rotate" from="0" to="-360" dur="8s" repeatCount="indefinite" additive="sum"/>
</path>
</g>
<rect width="1600" height="900" filter="url(#turb)" opacity="0.08"/>
</svg>