<svg xmlns="http://www.w3.org/2000/svg" viewBox="0 0 800 600" width="100%" height="100%">
<defs>
<radialGradient id="bgGrad" cx="50%" cy="50%" r="80%">
<stop offset="0%" stop-color="#3A86FF">
<animate attributeName="stop-color" values="#3A86FF;#8338EC;#FF006E;#3A86FF" dur="10s" repeatCount="indefinite"/>
</stop>
<stop offset="100%" stop-color="#0f0518"/>
</radialGradient>
<filter id="glow" x="-50%" y="-50%" width="200%" height="200%">
<feGaussianBlur stdDeviation="6" result="blur"/>
<feMerge>
<feMergeNode in="blur"/>
<feMergeNode in="SourceGraphic"/>
</feMerge>
</filter>
<filter id="softGlow" x="-50%" y="-50%" width="200%" height="200%">
<feGaussianBlur stdDeviation="14" result="blur"/>
<feMerge>
<feMergeNode in="blur"/>
<feMergeNode in="SourceGraphic"/>
</feMerge>
</filter>
<pattern id="grid" width="40" height="40" patternUnits="userSpaceOnUse">
<path d="M 40 0 L 0 0 0 40" fill="none" stroke="#ffffff" stroke-width="0.5" opacity="0.06"/>
</pattern>
</defs>
<rect width="800" height="600" fill="url(#bgGrad)"/>
<rect width="800" height="600" fill="url(#grid)"/>
<g transform="translate(400,300)" opacity="0.12">
<path d="M0,0 L-500,-700 L500,-700 Z" fill="#FF006E">
<animateTransform attributeName="transform" type="rotate" from="0" to="360" dur="24s" repeatCount="indefinite"/>
</path>
<path d="M0,0 L-500,-700 L500,-700 Z" fill="#3A86FF">
<animateTransform attributeName="transform" type="rotate" from="120" to="480" dur="24s" repeatCount="indefinite"/>
</path>
<path d="M0,0 L-500,-700 L500,-700 Z" fill="#06FFA5">
<animateTransform attributeName="transform" type="rotate" from="240" to="600" dur="24s" repeatCount="indefinite"/>
</path>
</g>
<g transform="translate(120,100)">
<path d="M0,-8 L1.5,-1.5 L8,0 L1.5,1.5 L0,8 L-1.5,1.5 L-8,0 L-1.5,-1.5 Z" fill="#FFBE0B" filter="url(#glow)">
<animateTransform attributeName="transform" type="scale" values="0;1.5;0" dur="3s" repeatCount="indefinite"/>
<animate attributeName="opacity" values="0;1;0" dur="3s" repeatCount="indefinite"/>
</path>
</g>
<g transform="translate(680,150)">
<path d="M0,-10 L2,-2 L10,0 L2,2 L0,10 L-2,2 L-10,0 L-2,-2 Z" fill="#FF006E" filter="url(#glow)">
<animateTransform attributeName="transform" type="scale" values="0;1.2;0" dur="4s" repeatCount="indefinite" begin="1s"/>
<animate attributeName="opacity" values="0;1;0" dur="4s" repeatCount="indefinite" begin="1s"/>
</path>
</g>
<g transform="translate(200,520)">
<path d="M0,-8 L1.5,-1.5 L8,0 L1.5,1.5 L0,8 L-1.5,1.5 L-8,0 L-1.5,-1.5 Z" fill="#06FFA5" filter="url(#glow)">
<animateTransform attributeName="transform" type="scale" values="0;1.3;0" dur="3.5s" repeatCount="indefinite" begin="0.5s"/>
<animate attributeName="opacity" values="0;1;0" dur="3.5s" repeatCount="indefinite" begin="0.5s"/>
</path>
</g>
<g transform="translate(700,480)">
<path d="M0,-10 L2,-2 L10,0 L2,2 L0,10 L-2,2 L-10,0 L-2,-2 Z" fill="#3A86FF" filter="url(#glow)">
<animateTransform attributeName="transform" type="scale" values="0;1.4;0" dur="5s" repeatCount="indefinite" begin="2s"/>
<animate attributeName="opacity" values="0;1;0" dur="5s" repeatCount="indefinite" begin="2s"/>
</path>
</g>
<circle cx="50" cy="-20" r="4" fill="#FF006E">
<animate attributeName="cy" values="-20;620" dur="6s" repeatCount="indefinite" begin="0s"/>
<animate attributeName="opacity" values="1;0.3;1" dur="2s" repeatCount="indefinite"/>
</circle>
<circle cx="150" cy="-20" r="3" fill="#FB5607">
<animate attributeName="cy" values="-20;620" dur="5s" repeatCount="indefinite" begin="1.2s"/>
<animate attributeName="opacity" values="1;0.3;1" dur="2.4s" repeatCount="indefinite"/>
</circle>
<circle cx="250" cy="-20" r="5" fill="#FFBE0B">
<animate attributeName="cy" values="-20;620" dur="7s" repeatCount="indefinite" begin="0.4s"/>
<animate attributeName="opacity" values="1;0.3;1" dur="3s" repeatCount="indefinite"/>
</circle>
<circle cx="350" cy="-20" r="3.5" fill="#06FFA5">
<animate attributeName="cy" values="-20;620" dur="4.5s" repeatCount="indefinite" begin="2s"/>
<animate attributeName="opacity" values="1;0.3;1" dur="1.8s" repeatCount="indefinite"/>
</circle>
<circle cx="450" cy="-20" r="4" fill="#3A86FF">
<animate attributeName="cy" values="-20;620" dur="6.5s" repeatCount="indefinite" begin="0.8s"/>
<animate attributeName="opacity" values="1;0.3;1" dur="2.2s" repeatCount="indefinite"/>
</circle>
<circle cx="550" cy="-20" r="3" fill="#8338EC">
<animate attributeName="cy" values="-20;620" dur="5.5s" repeatCount="indefinite" begin="1.5s"/>
<animate attributeName="opacity" values="1;0.3;1" dur="2.6s" repeatCount="indefinite"/>
</circle>
<circle cx="650" cy="-20" r="4.5" fill="#FF006E">
<animate attributeName="cy" values="-20;620" dur="4s" repeatCount="indefinite" begin="3s"/>
<animate attributeName="opacity" values="1;0.3;1" dur="1.5s" repeatCount="indefinite"/>
</circle>
<circle cx="750" cy="-20" r="3" fill="#FFBE0B">
<animate attributeName="cy" values="-20;620" dur="8s" repeatCount="indefinite" begin="0.2s"/>
<animate attributeName="opacity" values="1;0.3;1" dur="3.5s" repeatCount="indefinite"/>
</circle>
<g>
<rect x="-3" y="-3" width="6" height="6" rx="1" fill="#FB5607">
<animateTransform attributeName="transform" type="rotate" from="0" to="360" dur="3s" repeatCount="indefinite"/>
</rect>
<animateTransform attributeName="transform" type="translate" values="80,-20; 80,620" dur="5s" repeatCount="indefinite" begin="0.6s"/>
</g>
<g>
<rect x="-4" y="-4" width="8" height="8" rx="2" fill="#FF006E">
<animateTransform attributeName="transform" type="rotate" from="0" to="360" dur="4s" repeatCount="indefinite"/>
</rect>
<animateTransform attributeName="transform" type="translate" values="180,-20; 180,620" dur="6s" repeatCount="indefinite" begin="2.1s"/>
</g>
<g>
<rect x="-3" y="-3" width="6" height="6" rx="1" fill="#06FFA5">
<animateTransform attributeName="transform" type="rotate" from="0" to="360" dur="2.5s" repeatCount="indefinite"/>
</rect>
<animateTransform attributeName="transform" type="translate" values="280,-20; 280,620" dur="4.5s" repeatCount="indefinite" begin="1.3s"/>
</g>
<g>
<rect x="-4" y="-4" width="8" height="8" rx="2" fill="#3A86FF">
<animateTransform attributeName="transform" type="rotate" from="0" to="360" dur="5s" repeatCount="indefinite"/>
</rect>
<animateTransform attributeName="transform" type="translate" values="380,-20; 380,620" dur="7s" repeatCount="indefinite" begin="0.9s"/>
</g>
<g>
<rect x="-3" y="-3" width="6" height="6" rx="1" fill="#8338EC">
<animateTransform attributeName="transform" type="rotate" from="0" to="360" dur="3.5s" repeatCount="indefinite"/>
</rect>
<animateTransform attributeName="transform" type="translate" values="480,-20; 480,620" dur="5.5s" repeatCount="indefinite" begin="2.8s"/>
</g>
<g>
<rect x="-4" y="-4" width="8" height="8" rx="2" fill="#FFBE0B">
<animateTransform attributeName="transform" type="rotate" from="0" to="360" dur="4.5s" repeatCount="indefinite"/>
</rect>
<animateTransform attributeName="transform" type="translate" values="580,-20; 580,620" dur="6.5s" repeatCount="indefinite" begin="1.7s"/>
</g>
<g>
<rect x="-3" y="-3" width="6" height="6" rx="1" fill="#FF006E">
<animateTransform attributeName="transform" type="rotate" from="0" to="360" dur="2.8s" repeatCount="indefinite"/>
</rect>
<animateTransform attributeName="transform" type="translate" values="680,-20; 680,620" dur="4s" repeatCount="indefinite" begin="0.3s"/>
</g>
<g>
<rect x="-4" y="-4" width="8" height="8" rx="2" fill="#FB5607">
<animateTransform attributeName="transform" type="rotate" from="0" to="360" dur="5.5s" repeatCount="indefinite"/>
</rect>
<animateTransform attributeName="transform" type="translate" values="760,-20; 760,620" dur="7.5s" repeatCount="indefinite" begin="3.2s"/>
</g>
<g>
<rect x="60" y="186" width="680" height="10" rx="5" fill="#8338EC" filter="url(#softGlow)" opacity="0.4">
<animate attributeName="opacity" values="0.2;0.7;0.2" dur="4s" repeatCount="indefinite"/>
</rect>
<rect x="60" y="170" width="680" height="16" rx="4" fill="#141026" stroke="#8338EC" stroke-width="3"/>
</g>
<g transform="translate(160,145)">
<ellipse cx="0" cy="3" rx="56" ry="30" fill="#FF006E" filter="url(#softGlow)" opacity="0.4">
<animate attributeName="opacity" values="0.2;0.6;0.2" dur="3s" repeatCount="indefinite"/>
</ellipse>
<circle cx="-44" cy="0" r="20" fill="#FF006E"/>
<circle cx="-44" cy="0" r="15" fill="#ffffff" opacity="0.2"/>
<rect x="-44" y="-20" width="88" height="40" rx="20" fill="#FF006E"/>
<circle cx="44" cy="0" r="20" fill="#FF006E"/>
<circle cx="44" cy="0" r="15" fill="#ffffff" opacity="0.2"/>
<g fill="#ffffff" opacity="0.85">
<rect x="-34" y="-11" width="5" height="5" rx="1"/>
<rect x="-23" y="-11" width="5" height="5" rx="1"/>
<rect x="-12" y="-11" width="5" height="5" rx="1"/>
<rect x="-1" y="-11" width="5" height="5" rx="1"/>
<rect x="10" y="-11" width="5" height="5" rx="1"/>
<rect x="21" y="-11" width="5" height="5" rx="1"/>
<rect x="-34" y="6" width="5" height="5" rx="1"/>
<rect x="-23" y="6" width="5" height="5" rx="1"/>
<rect x="-12" y="6" width="5" height="5" rx="1"/>
<rect x="-1" y="6" width="5" height="5" rx="1"/>
<rect x="10" y="6" width="5" height="5" rx="1"/>
<rect x="21" y="6" width="5" height="5" rx="1"/>
</g>
<rect x="-32" y="-3" width="26" height="6" rx="3" fill="#ffffff" opacity="0.9" filter="url(#glow)">
<animateTransform attributeName="transform" type="translate" values="-22,0; 44,0" dur="2.5s" repeatCount="indefinite"/>
</rect>
<animateTransform attributeName="transform" type="translate" values="0,0; 0,-12; 0,0" dur="3.5s" repeatCount="indefinite" additive="sum" begin="0s"/>
</g>
<g transform="translate(320,145)">
<ellipse cx="0" cy="3" rx="56" ry="30" fill="#FB5607" filter="url(#softGlow)" opacity="0.4">
<animate attributeName="opacity" values="0.2;0.6;0.2" dur="3.5s" repeatCount="indefinite"/>
</ellipse>
<circle cx="-44" cy="0" r="20" fill="#FB5607"/>
<circle cx="-44" cy="0" r="15" fill="#ffffff" opacity="0.2"/>
<rect x="-44" y="-20" width="88" height="40" rx="20" fill="#FB5607"/>
<circle cx="44" cy="0" r="20" fill="#FB5607"/>
<circle cx="44" cy="0" r="15" fill="#ffffff" opacity="0.2"/>
<g fill="#ffffff" opacity="0.85">
<rect x="-34" y="-11" width="5" height="5" rx="1"/>
<rect x="-23" y="-11" width="5" height="5" rx="1"/>
<rect x="-12" y="-11" width="5" height="5" rx="1"/>
<rect x="-1" y="-11" width="5" height="5" rx="1"/>
<rect x="10" y="-11" width="5" height="5" rx="1"/>
<rect x="21" y="-11" width="5" height="5" rx="1"/>
<rect x="-34" y="6" width="5" height="5" rx="1"/>
<rect x="-23" y="6" width="5" height="5" rx="1"/>
<rect x="-12" y="6" width="5" height="5" rx="1"/>
<rect x="-1" y="6" width="5" height="5" rx="1"/>
<rect x="10" y="6" width="5" height="5" rx="1"/>
<rect x="21" y="6" width="5" height="5" rx="1"/>
</g>
<rect x="-32" y="-3" width="26" height="6" rx="3" fill="#ffffff" opacity="0.9" filter="url(#glow)">
<animateTransform attributeName="transform" type="translate" values="-22,0; 44,0" dur="3s" repeatCount="indefinite" begin="0.4s"/>
</rect>
<animateTransform attributeName="transform" type="translate" values="0,0; 0,-10; 0,0" dur="4.2s" repeatCount="indefinite" additive="sum" begin="0.7s"/>
</g>
<g transform="translate(480,145)">
<ellipse cx="0" cy="3" rx="56" ry="30" fill="#FFBE0B" filter="url(#softGlow)" opacity="0.4">
<animate attributeName="opacity" values="0.2;0.6;0.2" dur="4s" repeatCount="indefinite"/>
</ellipse>
<circle cx="-44" cy="0" r="20" fill="#FFBE0B"/>
<circle cx="-44" cy="0" r="15" fill="#ffffff" opacity="0.2"/>
<rect x="-44" y="-20" width="88" height="40" rx="20" fill="#FFBE0B"/>
<circle cx="44" cy="0" r="20" fill="#FFBE0B"/>
<circle cx="44" cy="0" r="15" fill="#ffffff" opacity="0.2"/>
<g fill="#ffffff" opacity="0.85">
<rect x="-34" y="-11" width="5" height="5" rx="1"/>
<rect x="-23" y="-11" width="5" height="5" rx="1"/>
<rect x="-12" y="-11" width="5" height="5" rx="1"/>
<rect x="-1" y="-11" width="5" height="5" rx="1"/>
<rect x="10" y="-11" width="5" height="5" rx="1"/>
<rect x="21" y="-11" width="5" height="5" rx="1"/>
<rect x="-34" y="6" width="5" height="5" rx="1"/>
<rect x="-23" y="6" width="5" height="5" rx="1"/>
<rect x="-12" y="6" width="5" height="5" rx="1"/>
<rect x="-1" y="6" width="5" height="5" rx="1"/>
<rect x="10" y="6" width="5" height="5" rx="1"/>
<rect x="21" y="6" width="5" height="5" rx="1"/>
</g>
<rect x="-32" y="-3" width="26" height="6" rx="3" fill="#ffffff" opacity="0.9" filter="url(#glow)">
<animateTransform attributeName="transform" type="translate" values="-22,0; 44,0" dur="2.8s" repeatCount="indefinite" begin="0.8s"/>
</rect>
<animateTransform attributeName="transform" type="translate" values="0,0; 0,-14; 0,0" dur="5s" repeatCount="indefinite" additive="sum" begin="1.4s"/>
</g>
<g transform="translate(640,145)">
<ellipse cx="0" cy="3" rx="56" ry="30" fill="#06FFA5" filter="url(#softGlow)" opacity="0.4">
<animate attributeName="opacity" values="0.2;0.6;0.2" dur="3.2s" repeatCount="indefinite"/>
</ellipse>
<circle cx="-44" cy="0" r="20" fill="#06FFA5"/>
<circle cx="-44" cy="0" r="15" fill="#ffffff" opacity="0.2"/>
<rect x="-44" y="-20" width="88" height="40" rx="20" fill="#06FFA5"/>
<circle cx="44" cy="0" r="20" fill="#06FFA5"/>
<circle cx="44" cy="0" r="15" fill="#ffffff" opacity="0.2"/>
<g fill="#ffffff" opacity="0.85">
<rect x="-34" y="-11" width="5" height="5" rx="1"/>
<rect x="-23" y="-11" width="5" height="5" rx="1"/>
<rect x="-12" y="-11" width="5" height="5" rx="1"/>
<rect x="-1" y="-11" width="5" height="5" rx="1"/>
<rect x="10" y="-11" width="5" height="5" rx="1"/>
<rect x="21" y="-11" width="5" height="5" rx="1"/>
<rect x="-34" y="6" width="5" height="5" rx="1"/>
<rect x="-23" y="6" width="5" height="5" rx="1"/>
<rect x="-12" y="6" width="5" height="5" rx="1"/>
<rect x="-1" y="6" width="5" height="5" rx="1"/>
<rect x="10" y="6" width="5" height="5" rx="1"/>
<rect x="21" y="6" width="5" height="5" rx="1"/>
</g>
<rect x="-32" y="-3" width="26" height="6" rx="3" fill="#ffffff" opacity="0.9" filter="url(#glow)">
<animateTransform attributeName="transform" type="translate" values="-22,0; 44,0" dur="3.2s" repeatCount="indefinite" begin="1.2s"/>
</rect>
<animateTransform attributeName="transform" type="translate" values="0,0; 0,-11; 0,0" dur="3.8s" repeatCount="indefinite" additive="sum" begin="2.1s"/>
</g>
<g>
<rect x="60" y="336" width="680" height="10" rx="5" fill="#3A86FF" filter="url(#softGlow)" opacity="0.4">
<animate attributeName="opacity" values="0.2;0.7;0.2" dur="4.5s" repeatCount="indefinite"/>
</rect>
<rect x="60" y="320" width="680" height="16" rx="4" fill="#141026" stroke="#3A86FF" stroke-width="3"/>
</g>
<g transform="translate(160,295)">
<ellipse cx="0" cy="3" rx="56" ry="30" fill="#3A86FF" filter="url(#softGlow)" opacity="0.4">
<animate attributeName="opacity" values="0.2;0.6;0.2" dur="3.8s" repeatCount="indefinite"/>
</ellipse>
<circle cx="-44" cy="0" r="20" fill="#3A86FF"/>
<circle cx="-44" cy="0" r="15" fill="#ffffff" opacity="0.2"/>
<rect x="-44" y="-20" width="88" height="40" rx="20" fill="#3A86FF"/>
<circle cx="44" cy="0" r="20" fill="#3A86FF"/>
<circle cx="44" cy="0" r="15" fill="#ffffff" opacity="0.2"/>
<g fill="#ffffff" opacity="0.85">
<rect x="-34" y="-11" width="5" height="5" rx="1"/>
<rect x="-23" y="-11" width="5" height="5" rx="1"/>
<rect x="-12" y="-11" width="5" height="5" rx="1"/>
<rect x="-1" y="-11" width="5" height="5" rx="1"/>
<rect x="10" y="-11" width="5" height="5" rx="1"/>
<rect x="21" y="-11" width="5" height="5" rx="1"/>
<rect x="-34" y="6" width="5" height="5" rx="1"/>
<rect x="-23" y="6" width="5" height="5" rx="1"/>
<rect x="-12" y="6" width="5" height="5" rx="1"/>
<rect x="-1" y="6" width="5" height="5" rx="1"/>
<rect x="10" y="6" width="5" height="5" rx="1"/>
<rect x="21" y="6" width="5" height="5" rx="1"/>
</g>
<rect x="-32" y="-3" width="26" height="6" rx="3" fill="#ffffff" opacity="0.9" filter="url(#glow)">
<animateTransform attributeName="transform" type="translate" values="-22,0; 44,0" dur="2.6s" repeatCount="indefinite" begin="0.2s"/>
</rect>
<animateTransform attributeName="transform" type="translate" values="0,0; 0,-13; 0,0" dur="4.5s" repeatCount="indefinite" additive="sum" begin="2s"/>
</g>
<g transform="translate(320,295)">
<ellipse cx="0" cy="3" rx="56" ry="30" fill="#8338EC" filter="url(#softGlow)" opacity="0.4">
<animate attributeName="opacity" values="0.2;0.6;0.2" dur="4.2s" repeatCount="indefinite"/>
</ellipse>
<circle cx="-44" cy="0" r="20" fill="#8338EC"/>
<circle cx="-44" cy="0" r="15" fill="#ffffff" opacity="0.2"/>
<rect x="-44" y="-20" width="88" height="40" rx="20" fill="#8338EC"/>
<circle cx="44" cy="0" r="20" fill="#8338EC"/>
<circle cx="44" cy="0" r="15" fill="#ffffff" opacity="0.2"/>
<g fill="#ffffff" opacity="0.85">
<rect x="-34" y="-11" width="5" height="5" rx="1"/>
<rect x="-23" y="-11" width="5" height="5" rx="1"/>
<rect x="-12" y="-11" width="5" height="5" rx="1"/>
<rect x="-1" y="-11" width="5" height="5" rx="1"/>
<rect x="10" y="-11" width="5" height="5" rx="1"/>
<rect x="21" y="-11" width="5" height="5" rx="1"/>
<rect x="-34" y="6" width="5" height="5" rx="1"/>
<rect x="-23" y="6" width="5" height="5" rx="1"/>
<rect x="-12" y="6" width="5" height="5" rx="1"/>
<rect x="-1" y="6" width="5" height="5" rx="1"/>
<rect x="10" y="6" width="5" height="5" rx="1"/>
<rect x="21" y="6" width="5" height="5" rx="1"/>
</g>
<rect x="-32" y="-3" width="26" height="6" rx="3" fill="#ffffff" opacity="0.9" filter="url(#glow)">
<animateTransform attributeName="transform" type="translate" values="-22,0; 44,0" dur="3.4s" repeatCount="indefinite" begin="1.6s"/>
</rect>
<animateTransform attributeName="transform" type="translate" values="0,0; 0,-9; 0,0" dur="4s" repeatCount="indefinite" additive="sum" begin="0.3s"/>
</g>
<g transform="translate(480,295)">
<ellipse cx="0" cy="3" rx="56" ry="30" fill="#FF006E" filter="url(#softGlow)" opacity="0.4">
<animate attributeName="opacity" values="0.2;0.6;0.2" dur="3.4s" repeatCount="indefinite"/>
</ellipse>
<circle cx="-44" cy="0" r="20" fill="#FF006E"/>
<circle cx="-44" cy="0" r="15" fill="#ffffff" opacity="0.2"/>
<rect x="-44" y="-20" width="88" height="40" rx="20" fill="#FF006E"/>
<circle cx="44" cy="0" r="20" fill="#FF006E"/>
<circle cx="44" cy="0" r="15" fill="#ffffff" opacity="0.2"/>
<g fill="#ffffff" opacity="0.85">
<rect x="-34" y="-11" width="5" height="5" rx="1"/>
<rect x="-23" y="-11" width="5" height="5" rx="1"/>
<rect x="-12" y="-11" width="5" height="5" rx="1"/>
<rect x="-1" y="-11" width="5" height="5" rx="1"/>
<rect x="10" y="-11" width="5" height="5" rx="1"/>
<rect x="21" y="-11" width="5" height="5" rx="1"/>
<rect x="-34" y="6" width="5" height="5" rx="1"/>
<rect x="-23" y="6" width="5" height="5" rx="1"/>
<rect x="-12" y="6" width="5" height="5" rx="1"/>
<rect x="-1" y="6" width="5" height="5" rx="1"/>
<rect x="10" y="6" width="5" height="5" rx="1"/>
<rect x="21" y="6" width="5" height="5" rx="1"/>
</g>
<rect x="-32" y="-3" width="26" height="6" rx="3" fill="#ffffff" opacity="0.9" filter="url(#glow)">
<animateTransform attributeName="transform" type="translate" values="-22,0; 44,0" dur="2.2s" repeatCount="indefinite" begin="0.9s"/>
</rect>
<animateTransform attributeName="transform" type="translate" values="0,0; 0,-12; 0,0" dur="5.2s" repeatCount="indefinite" additive="sum" begin="0.8s"/>
</g>
<g transform="translate(640,295)">
<ellipse cx="0" cy="3" rx="56" ry="30" fill="#FB5607" filter="url(#softGlow)" opacity="0.4">
<animate attributeName="opacity" values="0.2;0.6;0.2" dur="4.5s" repeatCount="indefinite"/>
</ellipse>
<circle cx="-44" cy="0" r="20" fill="#FB5607"/>
<circle cx="-44" cy="0" r="15" fill="#ffffff" opacity="0.2"/>
<rect x="-44" y="-20" width="88" height="40" rx="20" fill="#FB5607"/>
<circle cx="44" cy="0" r="20" fill="#FB5607"/>
<circle cx="44" cy="0" r="15" fill="#ffffff" opacity="0.2"/>
<g fill="#ffffff" opacity="0.85">
<rect x="-34" y="-11" width="5" height="5" rx="1"/>
<rect x="-23" y="-11" width="5" height="5" rx="1"/>
<rect x="-12" y="-11" width="5" height="5" rx="1"/>
<rect x="-1" y="-11" width="5" height="5" rx="1"/>
<rect x="10" y="-11" width="5" height="5" rx="1"/>
<rect x="21" y="-11" width="5" height="5" rx="1"/>
<rect x="-34" y="6" width="5" height="5" rx="1"/>
<rect x="-23" y="6" width="5" height="5" rx="1"/>
<rect x="-12" y="6" width="5" height="5" rx="1"/>
<rect x="-1" y="6" width="5" height="5" rx="1"/>
<rect x="10" y="6" width="5" height="5" rx="1"/>
<rect x="21" y="6" width="5" height="5" rx="1"/>
</g>
<rect x="-32" y="-3" width="26" height="6" rx="3" fill="#ffffff" opacity="0.9" filter="url(#glow)">
<animateTransform attributeName="transform" type="translate" values="-22,0; 44,0" dur="3s" repeatCount="indefinite" begin="1.8s"/>
</rect>
<animateTransform attributeName="transform" type="translate" values="0,0; 0,-10; 0,0" dur="4.8s" repeatCount="indefinite" additive="sum" begin="1.3s"/>
</g>
<g>
<rect x="60" y="486" width="680" height="10" rx="5" fill="#FF006E" filter="url(#softGlow)" opacity="0.4">
<animate attributeName="opacity" values="0.2;0.7;0.2" dur="3.8s" repeatCount="indefinite"/>
</rect>
<rect x="60" y="470" width="680" height="16" rx="4" fill="#141026" stroke="#FF006E" stroke-width="3"/>
</g>
<g transform="translate(160,445)">
<ellipse cx="0" cy="3" rx="56" ry="30" fill="#FFBE0B" filter="url(#softGlow)" opacity="0.4">
<animate attributeName="opacity" values="0.2;0.6;0.2" dur="3.6s" repeatCount="indefinite"/>
</ellipse>
<circle cx="-44" cy="0" r="20" fill="#FFBE0B"/>
<circle cx="-44" cy="0" r="15" fill="#ffffff" opacity="0.2"/>
<rect x="-44" y="-20" width="88" height="40" rx="20" fill="#FFBE0B"/>
<circle cx="44" cy="0" r="20" fill="#FFBE0B"/>
<circle cx="44" cy="0" r="15" fill="#ffffff" opacity="0.2"/>
<g fill="#ffffff" opacity="0.85">
<rect x="-34" y="-11" width="5" height="5" rx="1"/>
<rect x="-23" y="-11" width="5" height="5" rx="1"/>
<rect x="-12" y="-11" width="5" height="5" rx="1"/>
<rect x="-1" y="-11" width="5" height="5" rx="1"/>
<rect x="10" y="-11" width="5" height="5" rx="1"/>
<rect x="21" y="-11" width="5" height="5" rx="1"/>
<rect x="-34" y="6" width="5" height="5" rx="1"/>
<rect x="-23" y="6" width="5" height="5" rx="1"/>
<rect x="-12" y="6" width="5" height="5" rx="1"/>
<rect x="-1" y="6" width="5" height="5" rx="1"/>
<rect x="10" y="6" width="5" height="5" rx="1"/>
<rect x="21" y="6" width="5" height="5" rx="1"/>
</g>
<rect x="-32" y="-3" width="26" height="6" rx="3" fill="#ffffff" opacity="0.9" filter="url(#glow)">
<animateTransform attributeName="transform" type="translate" values="-22,0; 44,0" dur="2.9s" repeatCount="indefinite" begin="0.5s"/>
</rect>
<animateTransform attributeName="transform" type="translate" values="0,0; 0,-11; 0,0" dur="4.3s" repeatCount="indefinite" additive="sum" begin="1.1s"/>
</g>
<g transform="translate(320,445)">
<ellipse cx="0" cy="3" rx="56" ry="30" fill="#06FFA5" filter="url(#softGlow)" opacity="0.4">
<animate attributeName="opacity" values="0.2;0.6;0.2" dur="4.8s" repeatCount="indefinite"/>
</ellipse>
<circle cx="-44" cy="0" r="20" fill="#06FFA5"/>
<circle cx="-44" cy="0" r="15" fill="#ffffff" opacity="0.2"/>
<rect x="-44" y="-20" width="88" height="40" rx="20" fill="#06FFA5"/>
<circle cx="44" cy="0" r="20" fill="#06FFA5"/>
<circle cx="44" cy="0" r="15" fill="#ffffff" opacity="0.2"/>
<g fill="#ffffff" opacity="0.85">
<rect x="-34" y="-11" width="5" height="5" rx="1"/>
<rect x="-23" y="-11" width="5" height="5" rx="1"/>
<rect x="-12" y="-11" width="5" height="5" rx="1"/>
<rect x="-1" y="-11" width="5" height="5" rx="1"/>
<rect x="10" y="-11" width="5" height="5" rx="1"/>
<rect x="21" y="-11" width="5" height="5" rx="1"/>
<rect x="-34" y="6" width="5" height="5" rx="1"/>
<rect x="-23" y="6" width="5" height="5" rx="1"/>
<rect x="-12" y="6" width="5" height="5" rx="1"/>
<rect x="-1" y="6" width="5" height="5" rx="1"/>
<rect x="10" y="6" width="5" height="5" rx="1"/>
<rect x="21" y="6" width="5" height="5" rx="1"/>
</g>
<rect x="-32" y="-3" width="26" height="6" rx="3" fill="#ffffff" opacity="0.9" filter="url(#glow)">
<animateTransform attributeName="transform" type="translate" values="-22,0; 44,0" dur="3.6s" repeatCount="indefinite" begin="1.1s"/>
</rect>
<animateTransform attributeName="transform" type="translate" values="0,0; 0,-13; 0,0" dur="3.6s" repeatCount="indefinite" additive="sum" begin="1.6s"/>
</g>
<g transform="translate(480,445)">
<ellipse cx="0" cy="3" rx="56" ry="30" fill="#3A86FF" filter="url(#softGlow)" opacity="0.4">
<animate attributeName="opacity" values="0.2;0.6;0.2" dur="3.9s" repeatCount="indefinite"/>
</ellipse>
<circle cx="-44" cy="0" r="20" fill="#3A86FF"/>
<circle cx="-44" cy="0" r="15" fill="#ffffff" opacity="0.2"/>
<rect x="-44" y="-20" width="88" height="40" rx="20" fill="#3A86FF"/>
<circle cx="44" cy="0" r="20" fill="#3A86FF"/>
<circle cx="44" cy="0" r="15" fill="#ffffff" opacity="0.2"/>
<g fill="#ffffff" opacity="0.85">
<rect x="-34" y="-11" width="5" height="5" rx="1"/>
<rect x="-23" y="-11" width="5" height="5" rx="1"/>
<rect x="-12" y="-11" width="5" height="5" rx="1"/>
<rect x="-1" y="-11" width="5" height="5" rx="1"/>
<rect x="10" y="-11" width="5" height="5" rx="1"/>
<rect x="21" y="-11" width="5" height="5" rx="1"/>
<rect x="-34" y="6" width="5" height="5" rx="1"/>
<rect x="-23" y="6" width="5" height="5" rx="1"/>
<rect x="-12" y="6" width="5" height="5" rx="1"/>
<rect x="-1" y="6" width="5" height="5" rx="1"/>
<rect x="10" y="6" width="5" height="5" rx="1"/>
<rect x="21" y="6" width="5" height="5" rx="1"/>
</g>
<rect x="-32" y="-3" width="26" height="6" rx="3" fill="#ffffff" opacity="0.9" filter="url(#glow)">
<animateTransform attributeName="transform" type="translate" values="-22,0; 44,0" dur="2.4s" repeatCount="indefinite" begin="2s"/>
</rect>
<animateTransform attributeName="transform" type="translate" values="0,0; 0,-10; 0,0" dur="5.5s" repeatCount="indefinite" additive="sum" begin="0.2s"/>
</g>
<g transform="translate(640,445)">
<ellipse cx="0" cy="3" rx="56" ry="30" fill="#8338EC" filter="url(#softGlow)" opacity="0.4">
<animate attributeName="opacity" values="0.2;0.6;0.2" dur="4.1s" repeatCount="indefinite"/>
</ellipse>
<circle cx="-44" cy="0" r="20" fill="#8338EC"/>
<circle cx="-44" cy="0" r="15" fill="#ffffff" opacity="0.2"/>
<rect x="-44" y="-20" width="88" height="40" rx="20" fill="#8338EC"/>
<circle cx="44" cy="0" r="20" fill="#8338EC"/>
<circle cx="44" cy="0" r="15" fill="#ffffff" opacity="0.2"/>
<g fill="#ffffff" opacity="0.85">
<rect x="-34" y="-11" width="5" height="5" rx="1"/>
<rect x="-23" y="-11" width="5" height="5" rx="1"/>
<rect x="-12" y="-11" width="5" height="5" rx="1"/>
<rect x="-1" y="-11" width="5" height="5" rx="1"/>
<rect x="10" y="-11" width="5" height="5" rx="1"/>
<rect x="21" y="-11" width="5" height="5" rx="1"/>
<rect x="-34" y="6" width="5" height="5" rx="1"/>
<rect x="-23" y="6" width="5" height="5" rx="1"/>
<rect x="-12" y="6" width="5" height="5" rx="1"/>
<rect x="-1" y="6" width="5" height="5" rx="1"/>
<rect x="10" y="6" width="5" height="5" rx="1"/>
<rect x="21" y="6" width="5" height="5" rx="1"/>
</g>
<rect x="-32" y="-3" width="26" height="6" rx="3" fill="#ffffff" opacity="0.9" filter="url(#glow)">
<animateTransform attributeName="transform" type="translate" values="-22,0; 44,0" dur="3.1s" repeatCount="indefinite" begin="0.7s"/>
</rect>
<animateTransform attributeName="transform" type="translate" values="0,0; 0,-12; 0,0" dur="4.6s" repeatCount="indefinite" additive="sum" begin="0.7s"/>
</g>
<circle cx="100" cy="-20" r="3.5" fill="#06FFA5">
<animate attributeName="cy" values="-20;620" dur="5.5s" repeatCount="indefinite" begin="4s"/>
<animate attributeName="opacity" values="1;0.2;1" dur="2.1s" repeatCount="indefinite"/>
</circle>
<circle cx="700" cy="-20" r="4" fill="#FB5607">
<animate attributeName="cy" values="-20;620" dur="6.5s" repeatCount="indefinite" begin="2.5s"/>
<animate attributeName="opacity" values="1;0.2;1" dur="2.8s" repeatCount="indefinite"/>
</circle>
<circle cx="400" cy="-20" r="3" fill="#8338EC">
<animate attributeName="cy" values="-20;620" dur="5s" repeatCount="indefinite" begin="3.5s"/>
<animate attributeName="opacity" values="1;0.2;1" dur="1.9s" repeatCount="indefinite"/>
</circle>
</svg>