<?xml version="1.0" encoding="UTF-8"?>
<svg xmlns="http://www.w3.org/2000/svg" viewBox="0 0 1600 900" preserveAspectRatio="xMidYMid slice">
  <defs>
    <!-- Pop Art Halftone Dot Filters -->
    <filter id="dot-yellow" x="0" y="0" width="1" height="1" color-interpolation-filters="sRGB">
      <feFlood flood-color="#FFD60A" result="flood"/>
      <feTurbulence type="fractalNoise" baseFrequency="1.2" numOctaves="3" result="noise"/>
      <feColorMatrix type="matrix" values="0 0 0 0 0  0 0 0 0 0  0 0 0 0 0  0 0 0 25 -10" in="noise" result="dots"/>
      <feComposite operator="in" in="flood" in2="dots" result="coloredDots"/>
    </filter>

    <filter id="dot-cyan" x="0" y="0" width="1" height="1" color-interpolation-filters="sRGB">
      <feFlood flood-color="#00F0FF" result="flood"/>
      <feTurbulence type="fractalNoise" baseFrequency="1.2" numOctaves="3" result="noise"/>
      <feColorMatrix type="matrix" values="0 0 0 0 0  0 0 0 0 0  0 0 0 0 0  0 0 0 25 -10" in="noise" result="dots"/>
      <feComposite operator="in" in="flood" in2="dots" result="coloredDots"/>
    </filter>

    <filter id="dot-magenta" x="0" y="0" width="1" height="1" color-interpolation-filters="sRGB">
      <feFlood flood-color="#FF007F" result="flood"/>
      <feTurbulence type="fractalNoise" baseFrequency="1.2" numOctaves="3" result="noise"/>
      <feColorMatrix type="matrix" values="0 0 0 0 0  0 0 0 0 0  0 0 0 0 0  0 0 0 25 -10" in="noise" result="dots"/>
      <feComposite operator="in" in="flood" in2="dots" result="coloredDots"/>
    </filter>

    <filter id="dot-red" x="0" y="0" width="1" height="1" color-interpolation-filters="sRGB">
      <feFlood flood-color="#FF2E00" result="flood"/>
      <feTurbulence type="fractalNoise" baseFrequency="1.2" numOctaves="3" result="noise"/>
      <feColorMatrix type="matrix" values="0 0 0 0 0  0 0 0 0 0  0 0 0 0 0  0 0 0 25 -10" in="noise" result="dots"/>
      <feComposite operator="in" in="flood" in2="dots" result="coloredDots"/>
    </filter>

    <filter id="dot-lime" x="0" y="0" width="1" height="1" color-interpolation-filters="sRGB">
      <feFlood flood-color="#39FF14" result="flood"/>
      <feTurbulence type="fractalNoise" baseFrequency="1.2" numOctaves="3" result="noise"/>
      <feColorMatrix type="matrix" values="0 0 0 0 0  0 0 0 0 0  0 0 0 0 0  0 0 0 25 -10" in="noise" result="dots"/>
      <feComposite operator="in" in="flood" in2="dots" result="coloredDots"/>
    </filter>

    <!-- Halftone Overlay Pattern -->
    <pattern id="halftone-overlay" width="12" height="12" patternUnits="userSpaceOnUse">
      <circle cx="6" cy="6" r="2.5" fill="#000000" opacity="0.15"/>
    </pattern>

    <!-- Comic Action Lines -->
    <g id="action-lines">
      <line x1="0" y1="0" x2="80" y2="0" stroke="#000" stroke-width="6"/>
      <line x1="0" y1="15" x2="60" y2="15" stroke="#000" stroke-width="6"/>
      <line x1="0" y1="30" x2="40" y2="30" stroke="#000" stroke-width="6"/>
    </g>
  </defs>

  <!-- Background Layer -->
  <!-- Vibrant Red Base -->
  <rect width="1600" height="900" fill="#FF2E00" x="0" y="0"/>
  
  <!-- Large Background Halftone Circles -->
  <g opacity="0.3">
    <circle cx="200" cy="200" r="150" fill="none" stroke="#000" stroke-width="2" stroke-dasharray="4,6"/>
    <circle cx="1400" cy="700" r="200" fill="none" stroke="#000" stroke-width="2" stroke-dasharray="4,6"/>
    <circle cx="800" cy="450" r="300" fill="none" stroke="#000" stroke-width="3" stroke-dasharray="8,12"/>
  </g>

  <!-- Floating Halftone Dot Elements in Background -->
  <g>
    <circle cx="100" cy="100" r="40" fill="#00F0FF" opacity="0.8">
      <animate attributeName="cy" values="100;120;100" dur="4s" repeatCount="indefinite"/>
      <animate attributeName="opacity" values="0.8;0.4;0.8" dur="3s" repeatCount="indefinite"/>
    </circle>
    <circle cx="1500" cy="800" r="60" fill="#FFD60A" opacity="0.8">
      <animate attributeName="cy" values="800;770;800" dur="5s" repeatCount="indefinite"/>
      <animate attributeName="r" values="60;70;60" dur="4s" repeatCount="indefinite"/>
    </circle>
    <circle cx="300" cy="800" r="30" fill="#FF007F" opacity="0.9">
      <animate attributeName="cx" values="300;320;300" dur="3.5s" repeatCount="indefinite"/>
    </circle>
    <circle cx="1300" cy="150" r="50" fill="#39FF14" opacity="0.8">
      <animate attributeName="cy" values="150;180;150" dur="6s" repeatCount="indefinite"/>
    </circle>
  </g>

  <!-- Comic Action Lines scattered -->
  <g stroke="#000" stroke-width="6" stroke-linecap="round">
    <!-- Top Left -->
    <path d="M 50,50 L 150,50 M 50,70 L 130,70 M 50,90 L 110,90">
      <animate attributeName="opacity" values="1;0;1" dur="2s" repeatCount="indefinite"/>
    </path>
    <!-- Top Right -->
    <path d="M 1550,50 L 1450,50 M 1550,70 L 1470,70 M 1550,90 L 1490,90">
      <animate attributeName="opacity" values="0;1;0" dur="2.5s" repeatCount="indefinite"/>
    </path>
    <!-- Bottom Left -->
    <path d="M 50,850 L 150,850 M 50,830 L 130,830">
      <animate attributeName="opacity" values="1;0.5;1" dur="3s" repeatCount="indefinite"/>
    </path>
    <!-- Bottom Right -->
    <path d="M 1550,850 L 1450,850 M 1550,830 L 1470,830">
      <animate attributeName="opacity" values="0.5;1;0.5" dur="1.5s" repeatCount="indefinite"/>
    </path>
  </g>

  <!-- CENTRAL JELLY BEAN CLUSTER -->
  <!-- Each bean uses a thick black drop shadow offset by 12px, 12px -->
  <g id="bean-cluster" transform="translate(800, 450)">

    <!-- BEAN 1: Large Cyan Bean (Background/Left) -->
    <g id="bean-cyan">
      <!-- Black Drop Shadow -->
      <path d="M -180,20 C -260,-60 -260,-160 -180,-200 C -100,-240 20,-240 100,-180 C 180,-120 220,-20 180,60 C 140,140 40,180 -40,160 C -120,140 -180,80 -180,20 Z" 
            fill="#000000" transform="translate(12, 12)"/>
      <!-- Main Bean Body -->
      <path d="M -180,20 C -260,-60 -260,-160 -180,-200 C -100,-240 20,-240 100,-180 C 180,-120 220,-20 180,60 C 140,140 40,180 -40,160 C -120,140 -180,80 -180,20 Z" 
            fill="#00F0FF" stroke="#000000" stroke-width="8"/>
      <!-- Halftone Dot Overlay -->
      <path d="M -180,20 C -260,-60 -260,-160 -180,-200 C -100,-240 20,-240 100,-180 C 180,-120 220,-20 180,60 C 140,140 40,180 -40,160 C -120,140 -180,80 -180,20 Z" 
            fill="url(#halftone-overlay)"/>
      <!-- Specular Highlight -->
      <ellipse cx="-60" cy="-120" rx="50" ry="20" transform="rotate(-30 -60 -120)" fill="#FFFFFF" opacity="0.6"/>
      
      <!-- SMIL Animation: Float -->
      <animateTransform attributeName="transform" type="translate" values="0,0; 15,-25; 0,0" dur="5s" repeatCount="indefinite" additive="sum"/>
      <animateTransform attributeName="transform" type="rotate" values="-5;5;-5" dur="6s" repeatCount="indefinite" additive="sum"/>
    </g>

    <!-- BEAN 2: Large Magenta Bean (Background/Right) -->
    <g id="bean-magenta">
      <!-- Black Drop Shadow -->
      <path d="M 120,-40 C 40,-120 -60,-120 -120,-60 C -180,0 -180,100 -120,160 C -60,220 60,220 140,160 C 220,100 220,0 160,-60 C 140,-80 120,-40 120,-40 Z" 
            fill="#000000" transform="translate(12, 12)"/>
      <!-- Main Bean Body -->
      <path d="M 120,-40 C 40,-120 -60,-120 -120,-60 C -180,0 -180,100 -120,160 C -60,220 60,220 140,160 C 220,100 220,0 160,-60 C 140,-80 120,-40 120,-40 Z" 
            fill="#FF007F" stroke="#000000" stroke-width="8"/>
      <!-- Halftone Dot Overlay -->
      <path d="M 120,-40 C 40,-120 -60,-120 -120,-60 C -180,0 -180,100 -120,160 C -60,220 60,220 140,160 C 220,100 220,0 160,-60 C 140,-80 120,-40 120,-40 Z" 
            fill="url(#halftone-overlay)"/>
      <!-- Specular Highlight -->
      <ellipse cx="40" cy="80" rx="50" ry="20" transform="rotate(30 40 80)" fill="#FFFFFF" opacity="0.6"/>
      
      <!-- SMIL Animation: Float -->
      <animateTransform attributeName="transform" type="translate" values="0,0; -20,15; 0,0" dur="4.5s" repeatCount="indefinite" additive="sum"/>
      <animateTransform attributeName="transform" type="rotate" values="3;-3;3" dur="5.5s" repeatCount="indefinite" additive="sum"/>
    </g>

    <!-- BEAN 3: Massive Yellow Bean (Center) -->
    <g id="bean-yellow">
      <!-- Black Drop Shadow -->
      <path d="M -100,80 C -180,0 -180,-100 -100,-140 C -20,-180 80,-180 160,-120 C 240,-60 240,40 160,120 C 80,200 -20,200 -60,160 C -100,120 -100,80 -100,80 Z" 
            fill="#000000" transform="translate(12, 12)"/>
      <!-- Main Bean Body -->
      <path d="M -100,80 C -180,0 -180,-100 -100,-140 C -20,-180 80,-180 160,-120 C 240,-60 240,40 160,120 C 80,200 -20,200 -60,160 C -100,120 -100,80 -100,80 Z" 
            fill="#FFD60A" stroke="#000000" stroke-width="10"/>
      <!-- Halftone Dot Overlay -->
      <path d="M -100,80 C -180,0 -180,-100 -100,-140 C -20,-180 80,-180 160,-120 C 240,-60 240,40 160,120 C 80,200 -20,200 -60,160 C -100,120 -100,80 -100,80 Z" 
            fill="url(#halftone-overlay)"/>
      <!-- Specular Highlight -->
      <ellipse cx="20" cy="-60" rx="60" ry="25" transform="rotate(-15 20 -60)" fill="#FFFFFF" opacity="0.7"/>
      
      <!-- SMIL Animation: Float -->
      <animateTransform attributeName="transform" type="translate" values="0,0; 10,20; 0,0" dur="6s" repeatCount="indefinite" additive="sum"/>
      <animateTransform attributeName="transform" type="rotate" values="0;8;0" dur="7s" repeatCount="indefinite" additive="sum"/>
      <animateTransform attributeName="transform" type="scale" values="1;1.02;1" dur="4s" repeatCount="indefinite" additive="sum"/>
    </g>

    <!-- BEAN 4: Red Bean (Foreground/Left) -->
    <g id="bean-red">
      <!-- Black Drop Shadow -->
      <path d="M -220,100 C -300,20 -300,-80 -220,-120 C -140,-160 -40,-160 40,-100 C 120,-40 120,60 40,140 C -40,220 -140,220 -180,180 C -220,140 -220,100 -220,100 Z" 
            fill="#000000" transform="translate(12, 12)"/>
      <!-- Main Bean Body -->
      <path d="M -220,100 C -300,20 -300,-80 -220,-120 C -140,-160 -40,-160 40,-100 C 120,-40 120,60 40,140 C -40,220 -140,220 -180,180 C -220,140 -220,100 -220,100 Z" 
            fill="#FF2E00" stroke="#000000" stroke-width="8"/>
      <!-- Halftone Dot Overlay -->
      <path d="M -220,100 C -300,20 -300,-80 -220,-120 C -140,-160 -40,-160 40,-100 C 120,-40 120,60 40,140 C -40,220 -140,220 -180,180 C -220,140 -220,100 -220,100 Z" 
            fill="url(#halftone-overlay)"/>
      <!-- Specular Highlight -->
      <ellipse cx="-100" cy="-40" rx="50" ry="20" transform="rotate(-25 -100 -40)" fill="#FFFFFF" opacity="0.6"/>
      
      <!-- SMIL Animation: Float -->
      <animateTransform attributeName="transform" type="translate" values="0,0; 25,10; 0,0" dur="4s" repeatCount="indefinite" additive="sum"/>
      <animateTransform attributeName="transform" type="rotate" values="-3;6;-3" dur="5s" repeatCount="indefinite" additive="sum"/>
    </g>

    <!-- BEAN 5: Lime Green Bean (Foreground/Right) -->
    <g id="bean-lime">
      <!-- Black Drop Shadow -->
      <path d="M 180,120 C 100,40 100,-60 180,-100 C 260,-140 360,-140 440,-80 C 520,-20 520,80 440,160 C 360,240 260,240 220,200 C 180,160 180,120 180,120 Z" 
            fill="#000000" transform="translate(12, 12)"/>
      <!-- Main Bean Body -->
      <path d="M 180,120 C 100,40 100,-60 180,-100 C 260,-140 360,-140 440,-80 C 520,-20 520,80 440,160 C 360,240 260,240 220,200 C 180,160 180,120 180,120 Z" 
            fill="#39FF14" stroke="#000000" stroke-width="8"/>
      <!-- Halftone Dot Overlay -->
      <path d="M 180,120 C 100,40 100,-60 180,-100 C 260,-140 360,-140 440,-80 C 520,-20 520,80 440,160 C 360,240 260,240 220,200 C 180,160 180,120 180,120 Z" 
            fill="url(#halftone-overlay)"/>
      <!-- Specular Highlight -->
      <ellipse cx="300" cy="-20" rx="50" ry="20" transform="rotate(20 300 -20)" fill="#FFFFFF" opacity="0.6"/>
      
      <!-- SMIL Animation: Float -->
      <animateTransform attributeName="transform" type="translate" values="0,0; -15,-20; 0,0" dur="5.5s" repeatCount="indefinite" additive="sum"/>
      <animateTransform attributeName="transform" type="rotate" values="4;-4;4" dur="6.5s" repeatCount="indefinite" additive="sum"/>
    </g>

    <!-- BEAN 6: Smaller Cyan Bean (Top Foreground) -->
    <g id="bean-cyan-small">
      <!-- Black Drop Shadow -->
      <path d="M -60,-200 C -120,-260 -120,-340 -60,-380 C 0,-420 80,-420 140,-360 C 200,-300 200,-220 140,-160 C 80,-100 0,-100 -20,-120 C -40,-140 -60,-200 -60,-200 Z" 
            fill="#000000" transform="translate(12, 12)"/>
      <!-- Main Bean Body -->
      <path d="M -60,-200 C -120,-260 -120,-340 -60,-380 C 0,-420 80,-420 140,-360 C 200,-300 200,-220 140,-160 C 80,-100 0,-100 -20,-120 C -40,-140 -60,-200 -60,-200 Z" 
            fill="#00F0FF" stroke="#000000" stroke-width="7"/>
      <!-- Halftone Dot Overlay -->
      <path d="M -60,-200 C -120,-260 -120,-340 -60,-380 C 0,-420 80,-420 140,-360 C 200,-300 200,-220 140,-160 C 80,-100 0,-100 -20,-120 C -40,-140 -60,-200 -60,-200 Z" 
            fill="url(#halftone-overlay)"/>
      <!-- Specular Highlight -->
      <ellipse cx="30" cy="-300" rx="40" ry="15" transform="rotate(-10 30 -300)" fill="#FFFFFF" opacity="0.6"/>
      
      <!-- SMIL Animation: Float -->
      <animateTransform attributeName="transform" type="translate" values="0,0; 10,-15; 0,0" dur="3.5s" repeatCount="indefinite" additive="sum"/>
      <animateTransform attributeName="transform" type="rotate" values="-5;5;-5" dur="4.5s" repeatCount="indefinite" additive="sum"/>
    </g>

    <!-- BEAN 7: Smaller Magenta Bean (Bottom Foreground) -->
    <g id="bean-magenta-small">
      <!-- Black Drop Shadow -->
      <path d="M 40,220 C -20,160 -20,80 40,40 C 100,0 180,0 240,60 C 300,120 300,200 240,260 C 180,320 100,320 80,300 C 60,280 40,220 40,220 Z" 
            fill="#000000" transform="translate(12, 12)"/>
      <!-- Main Bean Body -->
      <path d="M 40,220 C -20,160 -20,80 40,40 C 100,0 180,0 240,60 C 300,120 300,200 240,260 C 180,320 100,320 80,300 C 60,280 40,220 40,220 Z" 
            fill="#FF007F" stroke="#000000" stroke-width="7"/>
      <!-- Halftone Dot Overlay -->
      <path d="M 40,220 C -20,160 -20,80 40,40 C 100,0 180,0 240,60 C 300,120 300,200 240,260 C 180,320 100,320 80,300 C 60,280 40,220 40,220 Z" 
            fill="url(#halftone-overlay)"/>
      <!-- Specular Highlight -->
      <ellipse cx="130" cy="120" rx="40" ry="15" transform="rotate(15 130 120)" fill="#FFFFFF" opacity="0.6"/>
      
      <!-- SMIL Animation: Float -->
      <animateTransform attributeName="transform" type="translate" values="0,0; -10,15; 0,0" dur="4s" repeatCount="indefinite" additive="sum"/>
      <animateTransform attributeName="transform" type="rotate" values="3;-3;3" dur="5s" repeatCount="indefinite" additive="sum"/>
    </g>

  </g>

  <!-- Foreground Pop Art Graphic Elements -->
  <!-- Comic "POP" Burst -->
  <g transform="translate(1300, 600)">
    <path d="M 0,-100 L 30,-30 L 100,-50 L 50,0 L 100,50 L 30,30 L 0,100 L -30,30 L -100,50 L -50,0 L -100,-50 L -30,-30 Z" 
          fill="#FFD60A" stroke="#000000" stroke-width="8"/>
    <text x="0" y="15" font-family="Arial Black, Impact, sans-serif" font-size="60" font-weight="900" text-anchor="middle" fill="#000000">POP!</text>
    <animateTransform attributeName="transform" type="scale" values="1;1.1;1" dur="0.8s" repeatCount="indefinite" additive="sum"/>
    <animateTransform attributeName="transform" type="rotate" values="0;10;0" dur="1.5s" repeatCount="indefinite" additive="sum"/>
  </g>

  <!-- Secondary "ZAP" Burst -->
  <g transform="translate(250, 250)">
    <path d="M 0,-80 L 20,-20 L 80,-40 L 40,0 L 80,40 L 20,20 L 0,80 L -20,20 L -80,40 L -40,0 L -80,-40 L -20,-20 Z" 
          fill="#00F0FF" stroke="#000000" stroke-width="6"/>
    <text x="0" y="10" font-family="Arial Black, Impact, sans-serif" font-size="40" font-weight="900" text-anchor="middle" fill="#000000">ZAP!</text>
    <animateTransform attributeName="transform" type="scale" values="1;1.15;1" dur="1s" repeatCount="indefinite" additive="sum"/>
  </g>

  <!-- Tertiary "WOW" Burst -->
  <g transform="translate(250, 650)">
    <path d="M 0,-60 L 15,-15 L 60,-30 L 30,0 L 60,30 L 15,15 L 0,60 L -15,15 L -60,30 L -30,0 L -60,-30 L -15,-15 Z" 
          fill="#FF007F" stroke="#000000" stroke-width="5"/>
    <text x="0" y="8" font-family="Arial Black, Impact, sans-serif" font-size="30" font-weight="900" text-anchor="middle" fill="#FFFFFF">WOW!</text>
    <animateTransform attributeName="transform" type="rotate" values="0;-15;0" dur="2s" repeatCount="indefinite" additive="sum"/>
  </g>

  <!-- Halftone Border Frames -->
  <!-- Top Border -->
  <rect x="0" y="0" width="1600" height="40" fill="url(#halftone-overlay)"/>
  <!-- Bottom Border -->
  <rect x="0" y="860" width="1600" height="40" fill="url(#halftone-overlay)"/>
  <!-- Left Border -->
  <rect x="0" y="0" width="40" height="900" fill="url(#halftone-overlay)"/>
  <!-- Right Border -->
  <rect x="1560" y="0" width="40" height="900" fill="url(#halftone-overlay)"/>

  <!-- Overlay Halftone Dots on specific beans for extra pop (using filters) -->
  <!-- Cyan Bean Dots -->
  <path d="M -180,20 C -260,-60 -260,-160 -180,-200 C -100,-240 20,-240 100,-180 C 180,-120 220,-20 180,60 C 140,140 40,180 -40,160 C -120,140 -180,80 -180,20 Z" 
        transform="translate(800, 450)" filter="url(#dot-cyan)" opacity="0.5" style="mix-blend-mode: multiply;">
    <animate attributeName="opacity" values="0.5;0.8;0.5" dur="3s" repeatCount="indefinite"/>
  </path>

  <!-- Magenta Bean Dots -->
  <path d="M 120,-40 C 40,-120 -60,-120 -120,-60 C -180,0 -180,100 -120,160 C -60,220 60,220 140,160 C 220,100 220,0 160,-60 C 140,-80 120,-40 120,-40 Z" 
        transform="translate(800, 450)" filter="url(#dot-magenta)" opacity="0.5" style="mix-blend-mode: multiply;">
    <animate attributeName="opacity" values="0.5;0.8;0.5" dur="3.5s" repeatCount="indefinite"/>
  </path>

  <!-- Yellow Bean Dots -->
  <path d="M -100,80 C -180,0 -180,-100 -100,-140 C -20,-180 80,-180 160,-120 C 240,-60 240,40 160,120 C 80,200 -20,200 -60,160 C -100,120 -100,80 -100,80 Z" 
        transform="translate(800, 450)" filter="url(#dot-yellow)" opacity="0.5" style="mix-blend-mode: multiply;">
    <animate attributeName="opacity" values="0.5;0.8;0.5" dur="4s" repeatCount="indefinite"/>
  </path>

  <!-- Red Bean Dots -->
  <path d="M -220,100 C -300,20 -300,-80 -220,-120 C -140,-160 -40,-160 40,-100 C 120,-40 120,60 40,140 C -40,220 -140,220 -180,180 C -220,140 -220,100 -220,100 Z" 
        transform="translate(800, 450)" filter="url(#dot-red)" opacity="0.5" style="mix-blend-mode: multiply;">
    <animate attributeName="opacity" values="0.5;0.8;0.5" dur="2.5s" repeatCount="indefinite"/>
  </path>

  <!-- Lime Bean Dots -->
  <path d="M 180,120 C 100,40 100,-60 180,-100 C 260,-140 360,-140 440,-80 C 520,-20 520,80 440,160 C 360,240 260,240 220,200 C 180,160 180,120 180,120 Z" 
        transform="translate(800, 450)" filter="url(#dot-lime)" opacity="0.5" style="mix-blend-mode: multiply;">
    <animate attributeName="opacity" values="0.5;0.8;0.5" dur="3.2s" repeatCount="indefinite"/>
  </path>

</svg>