<?xml version="1.0" encoding="UTF-8"?>
<svg xmlns="http://www.w3.org/2000/svg" viewBox="0 0 1600 900" preserveAspectRatio="xMidYMid slice">
<defs>
<filter id="b160"><feGaussianBlur stdDeviation="160"/></filter>
<filter id="b120"><feGaussianBlur stdDeviation="120"/></filter>
<filter id="b80"><feGaussianBlur stdDeviation="80"/></filter>
<filter id="b40"><feGaussianBlur stdDeviation="40"/></filter>
<filter id="b20"><feGaussianBlur stdDeviation="20"/></filter>
<filter id="glow"><feGaussianBlur stdDeviation="3" result="b"/><feMerge><feMergeNode in="b"/><feMergeNode in="SourceGraphic"/></feMerge></filter>
<filter id="grain"><feTurbulence type="fractalNoise" baseFrequency="0.9" numOctaves="3" result="n"/><feColorMatrix type="matrix" values="1 0 0 0 0 0 1 0 0 0 0 0 1 0 0 0 0 0 0.04 0"/></filter>
<linearGradient id="sky" x1="0" y1="0" x2="0" y2="1">
<stop offset="0%" stop-color="#1A1A1A">
<animate attributeName="stop-color" values="#1A1A1A;#252220;#1A1A1A" dur="20s" repeatCount="indefinite"/>
</stop>
<stop offset="55%" stop-color="#3D3D3D">
<animate attributeName="stop-color" values="#3D3D3D;#4A4540;#3D3D3D" dur="20s" repeatCount="indefinite"/>
</stop>
<stop offset="100%" stop-color="#C9C0A8">
<animate attributeName="stop-color" values="#C9C0A8;#E8622C;#C9C0A8" dur="20s" repeatCount="indefinite"/>
</stop>
</linearGradient>
<linearGradient id="beam" x1="0" y1="0" x2="1" y2="1">
<stop offset="0%" stop-color="#E8622C" stop-opacity="0.25"/>
<stop offset="100%" stop-color="#C9C0A8" stop-opacity="0"/>
</linearGradient>
<radialGradient id="vign" cx="50%" cy="50%" r="75%">
<stop offset="50%" stop-color="#1A1A1A" stop-opacity="0"/>
<stop offset="100%" stop-color="#1A1A1A" stop-opacity="0.85"/>
</radialGradient>
</defs>
<rect width="1600" height="900" fill="url(#sky)"/>
<circle cx="120" cy="180" r="350" fill="#E8622C" filter="url(#b160)" opacity="0.15">
<animate attributeName="opacity" values="0.1;0.2;0.1" dur="10s" repeatCount="indefinite"/>
</circle>
<circle cx="120" cy="180" r="140" fill="#E8622C" filter="url(#b80)" opacity="0.35">
<animate attributeName="r" values="140;160;140" dur="8s" repeatCount="indefinite"/>
</circle>
<path d="M0,400L150,360L300,390L450,340L650,380L850,330L1100,370L1300,320L1600,380L1600,900L0,900Z" fill="#1A1A1A" filter="url(#b120)" opacity="0.8"/>
<path d="M0,520L250,490L500,530L750,500L1000,540L1250,510L1600,550L1600,900L0,900Z" fill="#3D3D3D" filter="url(#b80)" opacity="0.9"/>
<rect y="620" width="1600" height="280" fill="#1A1A1A"/>
<path d="M0,650L200,630L350,660L500,640L700,670L900,650L1100,680L1300,660L1450,690L1600,670L1600,900L0,900Z" fill="#3D3D3D" opacity="0.6"/>
<path d="M0,0L350,0L850,900L450,900Z" fill="url(#beam)" opacity="0.2" filter="url(#b40)"/>
<g opacity="0.35" filter="url(#b120)">
<path d="M-200,800Q200,600 600,700T1000,650Q800,850 300,800T-200,800" fill="#3D3D3D">
<animateTransform attributeName="transform" type="translate" values="0,0;40,-20;0,0" dur="16s" repeatCount="indefinite"/>
<animate attributeName="opacity" values="0.25;0.45;0.25" dur="12s" repeatCount="indefinite"/>
</path>
</g>
<g opacity="0.3" filter="url(#b80)">
<path d="M200,850Q500,650 900,750T1400,700Q1200,900 700,850T200,850" fill="#C9C0A8">
<animateTransform attributeName="transform" type="translate" values="0,0;-30,-15;0,0" dur="20s" repeatCount="indefinite"/>
<animate attributeName="opacity" values="0.2;0.4;0.2" dur="14s" repeatCount="indefinite"/>
</path>
</g>
<line x1="280" y1="690" x2="1120" y2="715" stroke="#E8622C" stroke-width="2" filter="url(#glow)" opacity="0.8">
<animate attributeName="opacity" values="0.3;0.9;0.3" dur="2.5s" repeatCount="indefinite"/>
</line>
<path d="M1100,810L1380,805L1450,900L1150,900Z" fill="#1A1A1A" opacity="0.45" filter="url(#b40)">
<animate attributeName="opacity" values="0.35;0.55;0.35" dur="7s" repeatCount="indefinite"/>
</path>
<path d="M1050,620L1450,610L1480,800L1020,810Z" fill="#3D3D3D"/>
<path d="M1050,620L1450,610" stroke="#1A1A1A" stroke-width="8" opacity="0.9"/>
<g transform="rotate(-20 1310 590)">
<ellipse cx="1310" cy="590" rx="55" ry="120" fill="#E8622C" filter="url(#b40)" opacity="0">
<animate attributeName="opacity" values="0.25;0.55;0.25" dur="6s" repeatCount="indefinite"/>
</ellipse>
</g>
<path d="M1275,515C1270,500 1285,488 1305,492C1320,496 1318,512 1308,522L1318,552L1348,588L1338,648L1308,662L1288,622L1248,602L1188,587L1108,582L1080,587L1080,597L1108,602L1188,608L1248,625L1288,642L1308,682L1278,692L1248,652L1198,632L1148,622L1118,642L1168,662L1218,682L1248,722L1288,732L1328,702L1348,642L1332,578L1318,540Z" fill="#1A1A1A">
<animateTransform attributeName="transform" type="translate" values="0,0;0,-3;0,0" dur="4s" repeatCount="indefinite"/>
</path>
<g opacity="0.4" filter="url(#b40)">
<path d="M600,900Q900,750 1200,850T1600,800Q1500,950 1100,900T600,900" fill="#C9C0A8">
<animateTransform attributeName="transform" type="translate" values="0,0;20,-25;0,0" dur="14s" repeatCount="indefinite"/>
<animate attributeName="opacity" values="0.3;0.5;0.3" dur="10s" repeatCount="indefinite"/>
</path>
</g>
<g opacity="0.5" filter="url(#b20)">
<path d="M500,850Q650,800 800,850T1000,830Q900,880 700,860T500,850" fill="#C9C0A8">
<animateTransform attributeName="transform" type="translate" values="0,0;-15,-10;0,0" dur="9s" repeatCount="indefinite"/>
<animate attributeName="opacity" values="0.4;0.7;0.4" dur="6s" repeatCount="indefinite"/>
</path>
</g>
<g fill="#C9C0A8">
<circle r="1.5" opacity="0">
<animateMotion path="M400,600Q430,520 460,440" dur="11s" repeatCount="indefinite"/>
<animate attributeName="opacity" values="0;0.7;0" dur="11s" repeatCount="indefinite"/>
</circle>
<circle r="2" opacity="0">
<animateMotion path="M600,650Q640,560 680,470" dur="13s" repeatCount="indefinite"/>
<animate attributeName="opacity" values="0;0.8;0" dur="13s" repeatCount="indefinite"/>
</circle>
<circle r="1" opacity="0">
<animateMotion path="M800,700Q830,620 860,540" dur="10s" repeatCount="indefinite"/>
<animate attributeName="opacity" values="0;0.6;0" dur="10s" repeatCount="indefinite"/>
</circle>
<circle r="2.5" opacity="0">
<animateMotion path="M500,800Q540,720 580,640" dur="15s" repeatCount="indefinite"/>
<animate attributeName="opacity" values="0;0.9;0" dur="15s" repeatCount="indefinite"/>
</circle>
<circle r="1.5" opacity="0">
<animateMotion path="M700,750Q750,670 800,590" dur="12s" repeatCount="indefinite"/>
<animate attributeName="opacity" values="0;0.7;0" dur="12s" repeatCount="indefinite"/>
</circle>
<circle r="2" opacity="0">
<animateMotion path="M900,800Q940,720 980,640" dur="14s" repeatCount="indefinite"/>
<animate attributeName="opacity" values="0;0.8;0" dur="14s" repeatCount="indefinite"/>
</circle>
<circle r="1" opacity="0">
<animateMotion path="M300,700Q330,630 360,560" dur="9s" repeatCount="indefinite"/>
<animate attributeName="opacity" values="0;0.5;0" dur="9s" repeatCount="indefinite"/>
</circle>
<circle r="2" opacity="0">
<animateMotion path="M1000,750Q1040,670 1080,590" dur="16s" repeatCount="indefinite"/>
<animate attributeName="opacity" values="0;0.7;0" dur="16s" repeatCount="indefinite"/>
</circle>
<circle r="1.5" opacity="0">
<animateMotion path="M450,900Q480,820 510,740" dur="11s" repeatCount="indefinite"/>
<animate attributeName="opacity" values="0;0.6;0" dur="11s" repeatCount="indefinite"/>
</circle>
<circle r="2.5" opacity="0">
<animateMotion path="M650,900Q690,820 730,740" dur="18s" repeatCount="indefinite"/>
<animate attributeName="opacity" values="0;0.8;0" dur="18s" repeatCount="indefinite"/>
</circle>
</g>
<rect width="1600" height="900" fill="url(#vign)"/>
<rect width="1600" height="900" fill="#1A1A1A" opacity="0.3" filter="url(#grain)"/>
</svg>