<?xml version="1.0" encoding="UTF-8"?>
<svg xmlns="http://www.w3.org/2000/svg" viewBox="0 0 1600 900" preserveAspectRatio="xMidYMid slice">
<defs>
<filter id="bs" x="-50%" y="-50%" width="200%" height="200%"><feGaussianBlur in="SourceGraphic" stdDeviation="16"/></filter>
<filter id="sg" x="-50%" y="-50%" width="200%" height="200%"><feGaussianBlur in="SourceGraphic" stdDeviation="10"/></filter>
<filter id="bb" x="-50%" y="-50%" width="200%" height="200%"><feGaussianBlur in="SourceGraphic" stdDeviation="2"/></filter>
<linearGradient id="bg" x1="0" y1="0" x2="1" y2="1">
<stop offset="0" stop-color="#F48FB1" stop-opacity="0.95"/>
<stop offset="0.5" stop-color="#FF4081" stop-opacity="1"/>
<stop offset="1" stop-color="#F48FB1" stop-opacity="0.9"/>
</linearGradient>
<radialGradient id="cg" cx="0.5" cy="0.4" r="0.6">
<stop offset="0" stop-color="#F48FB1" stop-opacity="0.9"/>
<stop offset="0.7" stop-color="#FF4081" stop-opacity="0.85"/>
<stop offset="1" stop-color="#FF4081" stop-opacity="0.95"/>
</radialGradient>
<linearGradient id="mg" x1="0" y1="0" x2="0" y2="1">
<stop offset="0" stop-color="#E0E0E0" stop-opacity="0.95"/>
<stop offset="0.5" stop-color="#E0E0E0" stop-opacity="0.7"/>
<stop offset="1" stop-color="#E0E0E0" stop-opacity="0.95"/>
</linearGradient>
</defs>
<rect width="1600" height="900" fill="#4CAF50"/>
<g transform="translate(1350,150)">
<g stroke="#E0E0E0" stroke-width="6" stroke-linecap="round" opacity="0.7">
<line x1="0" y1="-95" x2="0" y2="-130"/>
<line x1="67" y1="-67" x2="92" y2="-92"/>
<line x1="95" y1="0" x2="130" y2="0"/>
<line x1="67" y1="67" x2="92" y2="92"/>
<line x1="0" y1="95" x2="0" y2="130"/>
<line x1="-67" y1="67" x2="-92" y2="92"/>
<line x1="-95" y1="0" x2="-130" y2="0"/>
<line x1="-67" y1="-67" x2="-92" y2="-92"/>
<animateTransform attributeName="transform" type="rotate" from="0 0 0" to="360 0 0" dur="10s" repeatCount="indefinite"/>
</g>
<circle r="70" fill="#E0E0E0" opacity="0.9">
<animate attributeName="r" values="70;78;70" dur="4s" repeatCount="indefinite"/>
<animate attributeName="opacity" values="0.9;0.75;0.9" dur="4s" repeatCount="indefinite"/>
</circle>
</g>
<g opacity="0.85" fill="#E0E0E0">
<g transform="translate(200,180)">
<ellipse cx="0" cy="0" rx="70" ry="35"/>
<ellipse cx="50" cy="-10" rx="55" ry="30"/>
<ellipse cx="-50" cy="-5" rx="50" ry="28"/>
<animateTransform attributeName="transform" type="translate" values="200 180;260 180;200 180" dur="8s" repeatCount="indefinite"/>
</g>
<g transform="translate(1100,140)">
<ellipse cx="0" cy="0" rx="80" ry="38"/>
<ellipse cx="60" cy="-12" rx="60" ry="32"/>
<ellipse cx="-55" cy="-8" rx="55" ry="30"/>
<animateTransform attributeName="transform" type="translate" values="1100 140;1040 140;1100 140" dur="10s" repeatCount="indefinite"/>
</g>
</g>
<ellipse cx="800" cy="690" rx="180" ry="28" fill="#E0E0E0" opacity="0.35" filter="url(#bs)">
<animate attributeName="rx" values="180;165;180" dur="3s" repeatCount="indefinite"/>
<animate attributeName="opacity" values="0.35;0.25;0.35" dur="3s" repeatCount="indefinite"/>
</ellipse>
<g transform="translate(800,540)">
<animateTransform attributeName="transform" type="translate" values="800 540;800 528;800 540" dur="3s" calcMode="ease-in-out" repeatCount="indefinite"/>
<path d="M-170,-20C-170,130,170,130,170,-20C170,-70,-170,-70,-170,-20Z" fill="url(#bg)"/>
<ellipse cx="0" cy="-20" rx="170" ry="40" fill="#FF4081" opacity="0.9"/>
<g>
<ellipse cx="0" cy="-25" rx="150" ry="50" fill="url(#cg)" filter="url(#sg)">
<animate attributeName="ry" values="50;58;50" dur="4s" repeatCount="indefinite"/>
<animate attributeName="opacity" values="0.85;0.95;0.85" dur="3s" repeatCount="indefinite"/>
</ellipse>
<ellipse cx="0" cy="-25" rx="150" ry="50" fill="url(#cg)" opacity="0.9"/>
</g>
<ellipse cx="-60" cy="-35" rx="50" ry="12" fill="#E0E0E0" opacity="0.75" transform="rotate(-10)">
<animate attributeName="opacity" values="0.75;0.95;0.75" dur="3s" repeatCount="indefinite"/>
</ellipse>
<ellipse cx="-90" cy="10" rx="40" ry="18" fill="#E0E0E0" opacity="0.75" transform="rotate(-20)">
<animate attributeName="opacity" values="0.75;0.95;0.75" dur="3s" repeatCount="indefinite"/>
</ellipse>
<g transform="rotate(-25)">
<animateTransform attributeName="transform" type="rotate" values="-25 0 0;-22 0 0;-25 0 0" dur="5s" repeatCount="indefinite" additive="sum"/>
<line x1="-130" y1="-110" x2="40" y2="-50" stroke="url(#mg)" stroke-width="18" stroke-linecap="round" opacity="0.95"/>
<ellipse cx="55" cy="-45" rx="34" ry="22" fill="url(#mg)" opacity="0.95" transform="rotate(10 55 -45)"/>
</g>
<g>
<circle cx="-60" cy="-20" r="10" fill="#F48FB1" opacity="0.9" filter="url(#bb)">
<animate attributeName="cy" values="-20;-120;-20" dur="4s" repeatCount="indefinite"/>
<animate attributeName="opacity" values="0.9;0.2;0.9" dur="4s" repeatCount="indefinite"/>
</circle>
<circle cx="30" cy="-30" r="7" fill="#FF4081" opacity="0.85">
<animate attributeName="cy" values="-30;-110;-30" dur="5s" repeatCount="indefinite"/>
<animate attributeName="opacity" values="0.85;0.15;0.85" dur="5s" repeatCount="indefinite"/>
</circle>
<circle cx="80" cy="-15" r="9" fill="#F48FB1" opacity="0.9">
<animate attributeName="cy" values="-15;-130;-15" dur="6s" repeatCount="indefinite"/>
<animate attributeName="opacity" values="0.9;0.2;0.9" dur="6s" repeatCount="indefinite"/>
</circle>
<circle cx="-20" cy="-40" r="6" fill="#FF4081" opacity="0.9">
<animate attributeName="cy" values="-40;-115;-40" dur="4.5s" repeatCount="indefinite"/>
<animate attributeName="opacity" values="0.9;0.1;0.9" dur="4.5s" repeatCount="indefinite"/>
</circle>
<circle cx="100" cy="-35" r="8" fill="#F48FB1" opacity="0.85">
<animate attributeName="cy" values="-35;-125;-35" dur="5.5s" repeatCount="indefinite"/>
<animate attributeName="opacity" values="0.85;0.15;0.85" dur="5.5s" repeatCount="indefinite"/>
</circle>
</g>
</g>
<g fill="#E0E0E0">
<g transform="translate(650,400)">
<path d="M0 -24L6 -6L24 0L6 6L0 24L-6 6L-24 0L-6 -6Z" opacity="0.9">
<animateTransform attributeName="transform" type="scale" values="0;1;0" dur="3s" repeatCount="indefinite" additive="sum"/>
<animate attributeName="opacity" values="0;0.9;0" dur="3s" repeatCount="indefinite"/>
</path>
</g>
<g transform="translate(950,380)">
<path d="M0 -24L6 -6L24 0L6 6L0 24L-6 6L-24 0L-6 -6Z" opacity="0.8">
<animateTransform attributeName="transform" type="scale" values="0;1.2;0" dur="4s" repeatCount="indefinite" additive="sum"/>
<animate attributeName="opacity" values="0;0.8;0" dur="4s" repeatCount="indefinite"/>
</path>
</g>
</g>
</svg>