<?xml version="1.0" encoding="UTF-8"?>
<svg viewBox="0 0 1600 900" preserveAspectRatio="xMidYMid slice" xmlns="http://www.w3.org/2000/svg">
  <defs>
    <linearGradient id="body3d" x1="30%" y1="0%" x2="70%" y2="100%">
      <stop offset="0%" stop-color="#3a3530" stop-opacity="0.95"/>
      <stop offset="50%" stop-color="#2B2620" stop-opacity="0.9"/>
      <stop offset="100%" stop-color="#1a1714" stop-opacity="1"/>
    </linearGradient>
    
    <linearGradient id="gold3d" x1="0%" y1="0%" x2="0%" y2="100%">
      <stop offset="0%" stop-color="#d4b76a" stop-opacity="0.95"/>
      <stop offset="40%" stop-color="#C9A85C" stop-opacity="0.9"/>
      <stop offset="100%" stop-color="#a08540" stop-opacity="1"/>
    </linearGradient>
    
    <radialGradient id="lensGlass" cx="40%" cy="40%" r="60%">
      <stop offset="0%" stop-color="#4a5568" stop-opacity="0.3"/>
      <stop offset="70%" stop-color="#1a202c" stop-opacity="0.8"/>
      <stop offset="100%" stop-color="#0d0f12" stop-opacity="0.95"/>
    </radialGradient>
    
    <linearGradient id="lensReflect" x1="0%" y1="0%" x2="100%" y2="100%">
      <stop offset="0%" stop-color="#ffffff" stop-opacity="0"/>
      <stop offset="45%" stop-color="#ffffff" stop-opacity="0"/>
      <stop offset="50%" stop-color="#ffffff" stop-opacity="0.6"/>
      <stop offset="55%" stop-color="#ffffff" stop-opacity="0"/>
      <stop offset="100%" stop-color="#ffffff" stop-opacity="0"/>
    </linearGradient>
    
    <filter id="softShadow" x="-50%" y="-50%" width="200%" height="200%">
      <feGaussianBlur in="SourceAlpha" stdDeviation="20"/>
      <feColorMatrix type="matrix" values="0 0 0 0 0.17 0 0 0 0 0.15 0 0 0 0 0.13 0 0 0 0.4 0"/>
    </filter>
    
    <filter id="flashGlow" x="-100%" y="-100%" width="300%" height="300%">
      <feGaussianBlur stdDeviation="8"/>
      <feColorMatrix type="matrix" values="0 0 0 0 1 0 0 0 0 0.97 0 0 0 0 0.93 0 0 0 0.8 0"/>
    </filter>
    
    <filter id="lensBlur" x="-20%" y="-20%" width="140%" height="140%">
      <feGaussianBlur stdDeviation="2"/>
    </filter>
  </defs>
  
  <rect fill="#FBF7EE" width="1600" height="900"/>
  
  <g transform="translate(800, 450)">
    <ellipse cx="0" cy="220" rx="280" ry="40" fill="#2B2620" opacity="0.2" filter="url(#softShadow)">
      <animate attributeName="rx" values="280;260;280" dur="6s" repeatCount="indefinite" calcMode="easeInOut"/>
      <animate attributeName="opacity" values="0.2;0.15;0.2" dur="6s" repeatCount="indefinite" calcMode="easeInOut"/>
    </ellipse>
    
    <g>
      <animateTransform attributeName="transform" type="translate" values="0,0; 0,-15; 0,0" dur="6s" repeatCount="indefinite" calcMode="easeInOut"/>
      
      <path d="M-220,-120 L220,-120 L240,80 L-240,80 Z" fill="url(#body3d)" stroke="#1a1714" stroke-width="2"/>
      <path d="M-220,-120 L-200,-160 L200,-160 L220,-120 Z" fill="#3a3530" opacity="0.9"/>
      <path d="M-200,-160 L200,-160 L200,-120 L-200,-120 Z" fill="#4a4540" opacity="0.6"/>
      
      <path d="M-80,-160 L-60,-200 L60,-200 L80,-160 Z" fill="url(#body3d)"/>
      <rect x="-70" y="-200" width="140" height="40" fill="url(#body3d)" opacity="0.95"/>
      
      <rect x="-180" y="-140" width="40" height="20" rx="4" fill="url(#gold3d)"/>
      <rect x="140" y="-140" width="40" height="20" rx="4" fill="url(#gold3d)"/>
      
      <circle cx="180" cy="-100" r="25" fill="#2B2620" stroke="url(#gold3d)" stroke-width="4"/>
      <rect x="160" y="-105" width="40" height="10" rx="3" fill="url(#gold3d)">
        <animateTransform attributeName="transform" type="scale" values="1,1; 0.9,0.9; 1,1" dur="3s" repeatCount="indefinite"/>
      </rect>
      
      <g transform="translate(-140, -180)">
        <rect x="-30" y="0" width="60" height="50" rx="4" fill="url(#gold3d)"/>
        <rect x="-25" y="-15" width="50" height="20" rx="10" fill="#FBF7EE" opacity="0.9"/>
        <circle cx="0" cy="25" r="18" fill="#FBF7EE" opacity="0.8">
          <animate attributeName="opacity" values="0.8;1;0.8" dur="0.4s" repeatCount="indefinite" calcMode="discrete" keyTimes="0;0.1;1"/>
        </circle>
        <circle cx="0" cy="25" r="18" fill="url(#flashGlow)" opacity="0.4">
          <animate attributeName="opacity" values="0.4;0.8;0.4;0" dur="3s" repeatCount="indefinite" keyTimes="0;0.1;0.2;1"/>
        </circle>
        
        <g opacity="0">
          <path d="M0,-40 L4,-28 L16,-28 L6,-20 L10,-8 L0,-16 L-10,-8 L-6,-20 L-16,-28 L-4,-28 Z" fill="#FBF7EE">
            <animate attributeName="opacity" values="0;1;0" dur="3s" begin="0s" repeatCount="indefinite"/>
            <animateTransform attributeName="transform" type="scale" values="0.5;1.2;0.5" dur="3s" begin="0s" repeatCount="indefinite"/>
          </path>
          <animateTransform attributeName="transform" type="translate" values="0,0; 0,-30" dur="3s" begin="0s" repeatCount="indefinite"/>
        </g>
        
        <g opacity="0">
          <path d="M20,-30 L23,-22 L31,-22 L25,-17 L27,-9 L20,-14 L13,-9 L15,-17 L9,-22 L17,-22 Z" fill="#C9A85C">
            <animate attributeName="opacity" values="0;1;0" dur="3s" begin="1s" repeatCount="indefinite"/>
            <animateTransform attributeName="transform" type="scale" values="0.3;1;0.3" dur="3s" begin="1s" repeatCount="indefinite"/>
          </path>
          <animateTransform attributeName="transform" type="translate" values="0,0; 15,-25" dur="3s" begin="1s" repeatCount="indefinite"/>
        </g>
        
        <g opacity="0" transform="translate(-25, -10)">
          <circle r="3" fill="#FBF7EE">
            <animate attributeName="opacity" values="0;1;0" dur="4s" begin="2s" repeatCount="indefinite"/>
            <animateTransform attributeName="transform" type="translate" values="0,0; -10,-20" dur="4s" begin="2s" repeatCount="indefinite"/>
          </circle>
        </g>
      </g>
      
      <g transform="translate(0, -20)">
        <circle r="130" fill="#1a1714" opacity="0.9"/>
        <circle r="125" fill="url(#gold3d)"/>
        <circle r="115" fill="#2B2620"/>
        <circle r="110" fill="url(#lensGlass)"/>
        
        <g mask="url(#apertureMask)">
          <defs>
            <mask id="apertureMask">
              <rect x="-150" y="-150" width="300" height="300" fill="white"/>
              <g fill="black">
                <path d="M0,-60 L15,-30 L0,0 L-15,-30 Z" transform="rotate(0)">
                  <animateTransform attributeName="transform" type="rotate" values="0; -25; 0" dur="4s" repeatCount="indefinite" calcMode="easeInOut"/>
                </path>
                <path d="M0,-60 L15,-30 L0,0 L-15,-30 Z" transform="rotate(60)">
                  <animateTransform attributeName="transform" type="rotate" values="60; 35; 60" dur="4s" repeatCount="indefinite" calcMode="easeInOut"/>
                </path>
                <path d="M0,-60 L15,-30 L0,0 L-15,-30 Z" transform="rotate(120)">
                  <animateTransform attributeName="transform" type="rotate" values="120; 95; 120" dur="4s" repeatCount="indefinite" calcMode="easeInOut"/>
                </path>
                <path d="M0,-60 L15,-30 L0,0 L-15,-30 Z" transform="rotate(180)">
                  <animateTransform attributeName="transform" type="rotate" values="180; 155; 180" dur="4s" repeatCount="indefinite" calcMode="easeInOut"/>
                </path>
                <path d="M0,-60 L15,-30 L0,0 L-15,-30 Z" transform="rotate(240)">
                  <animateTransform attributeName="transform" type="rotate" values="240; 215; 240" dur="4s" repeatCount="indefinite" calcMode="easeInOut"/>
                </path>
                <path d="M0,-60 L15,-30 L0,0 L-15,-30 Z" transform="rotate(300)">
                  <animateTransform attributeName="transform" type="rotate" values="300; 275; 300" dur="4s" repeatCount="indefinite" calcMode="easeInOut"/>
                </path>
              </g>
            </mask>
          </defs>
          <circle r="110" fill="#0d0f12" opacity="0.95"/>
        </g>
        
        <circle r="110" fill="url(#lensReflect)" opacity="0.6">
          <animateTransform attributeName="transform" type="rotate" from="0" to="360" dur="8s" repeatCount="indefinite"/>
        </circle>
        
        <ellipse cx="-40" cy="-40" rx="25" ry="15" fill="#ffffff" opacity="0.3" filter="url(#lensBlur)">
          <animateTransform attributeName="transform" type="translate" values="0,0; 80,80; 0,0" dur="5s" repeatCount="indefinite" calcMode="easeInOut"/>
        </ellipse>
        
        <circle cx="35" cy="35" r="8" fill="#ffffff" opacity="0.5" filter="url(#lensBlur)">
          <animate attributeName="opacity" values="0.5;0.8;0.5" dur="3s" repeatCount="indefinite"/>
        </circle>
      </g>
      
      <circle cx="120" cy="20" r="12" fill="#E63946" opacity="0.85">
        <animate attributeName="opacity" values="0.85;0.3;0.85" dur="2s" repeatCount="indefinite" calcMode="easeInOut"/>
        <animate attributeName="r" values="12;11;12" dur="2s" repeatCount="indefinite" calcMode="easeInOut"/>
      </circle>
      
      <rect x="100" y="-180" width="60" height="25" rx="4" fill="url(#gold3d)"/>
      <rect x="110" y="-188" width="40" height="8" rx="2" fill="#C9A85C" opacity="0.9"/>
      
      <text x="0" y="-100" text-anchor="middle" font-family="sans-serif" font-size="14" fill="#C9A85C" opacity="0.7" font-weight="bold">35mm</text>
      
      <path d="M-60,80 L-40,60 L40,60 L60,80" fill="none" stroke="#C9A85C" stroke-width="3" opacity="0.6"/>
      <circle cx="0" cy="70" r="15" fill="#2B2620" stroke="#C9A85C" stroke-width="2"/>
    </g>
  </g>
</svg>