<?xml version="1.0" encoding="UTF-8"?>
<svg xmlns="http://www.w3.org/2000/svg" viewBox="0 0 1920 1080">
<defs>
<radialGradient id="bg" cx="50%" cy="50%" r="80%">
<stop offset="0%" stop-color="#251446"/>
<stop offset="60%" stop-color="#0e0626"/>
<stop offset="100%" stop-color="#02010a"/>
</radialGradient>
<radialGradient id="glow" cx="50%" cy="50%" r="50%">
<stop offset="0%" stop-color="#ffeb3b" stop-opacity=".25"/>
<stop offset="100%" stop-color="#ffeb3b" stop-opacity="0"/>
</radialGradient>
<radialGradient id="goldRadial" cx="35%" cy="30%" r="75%">
<stop offset="0%" stop-color="#fffce6"/>
<stop offset="20%" stop-color="#f3d56b"/>
<stop offset="45%" stop-color="#c79f28"/>
<stop offset="75%" stop-color="#7a5c22"/>
<stop offset="100%" stop-color="#3d2808"/>
</radialGradient>
<linearGradient id="gold" x1="0%" y1="0%" x2="100%" y2="100%">
<stop offset="0%" stop-color="#7a5c22"/>
<stop offset="25%" stop-color="#eac75d"/>
<stop offset="45%" stop-color="#fff8d6"/>
<stop offset="65%" stop-color="#c79f28"/>
<stop offset="85%" stop-color="#8f6b1d"/>
<stop offset="100%" stop-color="#f3d56b"/>
</linearGradient>
<linearGradient id="goldDark" x1="0%" y1="0%" x2="100%" y2="0%">
<stop offset="0%" stop-color="#4a3210"/>
<stop offset="40%" stop-color="#a67c28"/>
<stop offset="100%" stop-color="#4a3210"/>
</linearGradient>
<linearGradient id="beam" x1="0%" y1="0%" x2="0%" y2="100%">
<stop offset="0%" stop-color="#fff" stop-opacity=".35"/>
<stop offset="100%" stop-color="#fff" stop-opacity="0"/>
</linearGradient>
</defs>
<rect width="1920" height="1080" fill="url(#bg)"/>
<ellipse cx="960" cy="540" rx="420" ry="320" fill="url(#glow)" opacity=".6">
<animate attributeName="opacity" values=".4;.7;.4" dur="4s" repeatCount="indefinite"/>
</ellipse>
<g>
<g fill="#fffde6">
<circle cx="180" cy="140" r="28"/>
<circle cx="270" cy="140" r="28"/>
<circle cx="360" cy="140" r="28"/>
<circle cx="140" cy="220" r="24"/>
<circle cx="230" cy="220" r="24"/>
<circle cx="320" cy="220" r="24"/>
<circle cx="410" cy="220" r="24"/>
</g>
<animate attributeName="opacity" values=".7;1;.7" dur="3s" repeatCount="indefinite"/>
</g>
<g>
<g fill="#fffde6">
<circle cx="1540" cy="140" r="28"/>
<circle cx="1630" cy="140" r="28"/>
<circle cx="1720" cy="140" r="28"/>
<circle cx="1500" cy="220" r="24"/>
<circle cx="1590" cy="220" r="24"/>
<circle cx="1680" cy="220" r="24"/>
<circle cx="1770" cy="220" r="24"/>
</g>
<animate attributeName="opacity" values=".7;1;.7" dur="3.6s" repeatCount="indefinite"/>
</g>
<polygon points="180,170 960,950 410,170" fill="url(#beam)" opacity=".15">
<animate attributeName="opacity" values=".08;.22;.08" dur="5s" repeatCount="indefinite"/>
</polygon>
<polygon points="1740,170 960,950 1510,170" fill="url(#beam)" opacity=".15">
<animate attributeName="opacity" values=".08;.22;.08" dur="5.5s" repeatCount="indefinite"/>
</polygon>
<g transform="translate(0,40)">
<path d="M700 450 C590 450 590 620 700 620" fill="none" stroke="url(#gold)" stroke-width="26" stroke-linecap="round"/>
<path d="M1220 450 C1330 450 1330 620 1220 620" fill="none" stroke="url(#gold)" stroke-width="26" stroke-linecap="round"/>
<rect x="780" y="860" width="360" height="50" rx="8" fill="url(#goldDark)"/>
<rect x="820" y="830" width="280" height="30" rx="6" fill="url(#gold)"/>
<rect x="860" y="800" width="200" height="30" rx="5" fill="url(#goldDark)"/>
<path d="M920 700 L1000 700 L1010 800 L910 800 Z" fill="url(#gold)"/>
<path d="M700 400 C700 740 1220 740 1220 400 L1180 400 C1180 700 740 700 740 400 Z" fill="url(#goldRadial)"/>
<ellipse cx="960" cy="400" rx="260" ry="28" fill="url(#gold)"/>
<ellipse cx="960" cy="410" rx="240" ry="20" fill="#2a1a05"/>
<path d="M720 400 Q960 220 1200 400 Z" fill="url(#goldRadial)"/>
<line x1="960" y1="220" x2="960" y2="160" stroke="url(#gold)" stroke-width="14" stroke-linecap="round"/>
<circle cx="960" cy="150" r="26" fill="url(#gold)"/>
<circle cx="960" cy="150" r="10" fill="#fffce6" opacity=".8"/>
<g opacity=".3">
<path d="M820 440 L860 440 L800 640 L760 640 Z" fill="#fff"/>
<path d="M1020 280 L1040 280 L1000 380 L980 380 Z" fill="#fff"/>
<animateTransform attributeName="transform" type="translate" values="-30 0;30 0;-30 0" dur="6s" repeatCount="indefinite"/>
</g>
</g>
<g fill="#fff">
<path d="M600 300 l8 18 18 8-18 8-8 18-8-18-18-8 18-8z">
<animate attributeName="opacity" values="0;1;0" dur="2.5s" repeatCount="indefinite"/>
</path>
<path d="M1320 320 l6 14 14 6-14 6-6 14-6-14-14-6 14-6z">
<animate attributeName="opacity" values="0;.8;0" dur="3s" begin="1s" repeatCount="indefinite"/>
</path>
<path d="M500 500 l10 22 22 10-22 10-10 22-10-22-22-10 22-10z">
<animate attributeName="opacity" values="0;1;0" dur="2.8s" begin=".5s" repeatCount="indefinite"/>
</path>
<path d="M1420 520 l10 22 22 10-22 10-10 22-10-22-22-10 22-10z">
<animate attributeName="opacity" values="0;1;0" dur="3.2s" begin="1.5s" repeatCount="indefinite"/>
</path>
<path d="M960 120 l7 16 16 7-16 7-7 16-7-16-16-7 16-7z">
<animate attributeName="opacity" values=".3;1;.3" dur="2s" repeatCount="indefinite"/>
</path>
</g>
</svg>