<?xml version="1.0" encoding="UTF-8"?>
<svg xmlns="http://www.w3.org/2000/svg" viewBox="0 0 1600 900" preserveAspectRatio="xMidYMid slice" width="1600" height="900">
  <defs>
    <!-- Gradients -->
    <linearGradient id="skyGrad" x1="0" y1="0" x2="1" y2="1">
      <stop offset="0%" stop-color="#1A3A2A" />
      <stop offset="45%" stop-color="#2D5A3F" />
      <stop offset="85%" stop-color="#C9A574" />
      <stop offset="100%" stop-color="#E8DCC0" />
    </linearGradient>
    
    <linearGradient id="skyGrad2" x1="0" y1="0" x2="1" y2="1">
      <stop offset="0%" stop-color="#1A3A2A">
        <animate attributeName="stop-color" values="#1A3A2A;#2D5A3F;#1A3A2A" dur="20s" repeatCount="indefinite" />
      </stop>
      <stop offset="35%" stop-color="#2D5A3F" />
      <stop offset="75%" stop-color="#6B8E5C" />
      <stop offset="100%" stop-color="#C9A574" />
    </linearGradient>
    
    <radialGradient id="sunGrad" cx="50%" cy="50%" r="50%">
      <stop offset="0%" stop-color="#E8DCC0" />
      <stop offset="50%" stop-color="#C9A574" />
      <stop offset="100%" stop-color="#C9A574" stop-opacity="0" />
    </radialGradient>
    
    <linearGradient id="mistGrad" x1="0" y1="0" x2="1" y2="0">
      <stop offset="0%" stop-color="#1A3A2A" stop-opacity="0.3" />
      <stop offset="50%" stop-color="#6B8E5C" stop-opacity="0.6" />
      <stop offset="100%" stop-color="#C9A574" stop-opacity="0.2" />
    </linearGradient>

    <!-- Filters: Atmospheric Blurs -->
    <filter id="blur40" x="-50%" y="-50%" width="200%" height="200%">
      <feGaussianBlur stdDeviation="40" />
    </filter>
    <filter id="blur80" x="-50%" y="-50%" width="200%" height="200%">
      <feGaussianBlur stdDeviation="80" />
    </filter>
    <filter id="blur120" x="-50%" y="-50%" width="200%" height="200%">
      <feGaussianBlur stdDeviation="120" />
    </filter>
    <filter id="blur160" x="-50%" y="-50%" width="200%" height="200%">
      <feGaussianBlur stdDeviation="160" />
    </filter>

    <!-- Glow Filter -->
    <filter id="glow" x="-50%" y="-50%" width="200%" height="200%">
      <feGaussianBlur in="SourceGraphic" stdDeviation="15" result="blur" />
      <feMerge>
        <feMergeNode in="blur" />
        <feMergeNode in="SourceGraphic" />
      </feMerge>
    </filter>

    <!-- Drop Shadow -->
    <filter id="shadow" x="-20%" y="-20%" width="150%" height="150%">
      <feDropShadow dx="15" dy="15" stdDeviation="20" flood-color="#1A3A2A" flood-opacity="0.4"/>
    </filter>

    <!-- Tree Glow -->
    <filter id="treeGlow" x="-30%" y="-30%" width="160%" height="160%">
      <feGaussianBlur in="SourceAlpha" stdDeviation="25" result="blur" />
      <feFlood flood-color="#C9A574" flood-opacity="0.35" result="color" />
      <feComposite in="color" in2="blur" operator="in" result="glow" />
      <feMerge>
        <feMergeNode in="glow" />
        <feMergeNode in="SourceGraphic" />
      </feMerge>
    </filter>

    <!-- Organic Grain -->
    <filter id="grain">
      <feTurbulence type="fractalNoise" baseFrequency="0.65" numOctaves="3" result="noise" />
      <feColorMatrix type="matrix" values="0 0 0 0 0  0 0 0 0 0  0 0 0 0 0  0 0 0 0.04 0" in="noise" result="coloredNoise" />
      <feComposite operator="in" in="coloredNoise" in2="SourceGraphic" />
    </filter>

    <!-- Bird Silhouette -->
    <path id="bird" d="M0,0 C3,-2 6,-5 8,-3 C10,-1 12,0 14,-2 C12,1 10,3 7,2 C4,3 2,1 0,0 Z" fill="#1A3A2A" />

    <!-- Tree Trunk Path -->
    <path id="trunk" d="M 1050 900 C 1030 850, 1000 780, 980 700 C 960 620, 970 550, 990 480 C 1010 410, 1050 350, 1080 300 C 1090 280, 1100 260, 1095 240 C 1090 220, 1075 210, 1060 200 C 1030 180, 1000 170, 960 160 C 950 155, 940 150, 950 145 C 960 140, 970 145, 980 150 C 1020 165, 1050 185, 1080 210 C 1095 225, 1105 245, 1110 265 C 1115 285, 1110 305, 1100 325 C 1075 375, 1040 430, 1025 490 C 1010 550, 1005 610, 1025 680 C 1045 750, 1070 820, 1100 900 Z" fill="#1A3A2A" />
  </defs>

  <!-- Layer 1: Base Sky -->
  <rect width="1600" height="900" fill="#1A3A2A" />
  
  <!-- Layer 2: Gradient Sky Base -->
  <rect width="1600" height="900" fill="url(#skyGrad)" />
  
  <!-- Layer 3: Animated Shift Sky Gradient -->
  <rect width="1600" height="900" fill="url(#skyGrad2)" opacity="0.7">
    <animate attributeName="opacity" values="0.7;0.9;0.7" dur="18s" repeatCount="indefinite" />
  </rect>

  <!-- Layer 4: Distant Sun Glow -->
  <g filter="url(#blur160)">
    <circle cx="1200" cy="150" r="400" fill="#C9A574" opacity="0.4">
      <animate attributeName="r" values="400;500;400" dur="22s" repeatCount="indefinite" />
      <animate attributeName="opacity" values="0.4;0.5;0.4" dur="14s" repeatCount="indefinite" />
    </circle>
  </g>

  <!-- Layer 5: Mid Glow -->
  <g filter="url(#blur120)">
    <circle cx="1200" cy="150" r="250" fill="#E8DCC0" opacity="0.5">
      <animate attributeName="r" values="250;320;250" dur="20s" repeatCount="indefinite" />
    </circle>
  </g>

  <!-- Layer 6: Sun Core -->
  <circle cx="1200" cy="150" r="60" fill="url(#sunGrad)" filter="url(#glow)" opacity="0.9">
    <animate attributeName="r" values="60;75;60" dur="12s" repeatCount="indefinite" />
    <animate attributeName="opacity" values="0.9;1;0.9" dur="10s" repeatCount="indefinite" />
  </circle>

  <!-- Layer 7: Left Atmosphere Haze -->
  <rect x="0" y="200" width="1000" height="700" fill="#2D5A3F" opacity="0.3" filter="url(#blur80)">
    <animate attributeName="opacity" values="0.3;0.4;0.3" dur="15s" repeatCount="indefinite" />
  </rect>

  <!-- Layer 8: Distant Mountains Left -->
  <path d="M -100 850 L 100 600 L 350 750 L 600 550 L 900 850 Z" fill="#2D5A3F" opacity="0.6" filter="url(#blur120)" />

  <!-- Layer 9: Distant Mountains Right -->
  <path d="M 500 850 L 700 650 L 950 780 L 1200 600 L 1500 800 L 1700 850 Z" fill="#1A3A2A" opacity="0.7" filter="url(#blur120)">
    <animate attributeName="opacity" values="0.7;0.8;0.7" dur="25s" repeatCount="indefinite" />
  </path>

  <!-- Layer 10: Misty Horizon Line -->
  <rect x="0" y="700" width="1600" height="200" fill="url(#mistGrad)" filter="url(#blur80)" opacity="0.6">
    <animate attributeName="opacity" values="0.6;0.8;0.6" dur="16s" repeatCount="indefinite" />
  </rect>

  <!-- Layer 11: Meadow Base -->
  <rect x="0" y="750" width="1600" height="150" fill="#2D5A3F" />
  
  <!-- Layer 12: Meadow Warm Light -->
  <rect x="0" y="750" width="1600" height="150" fill="#6B8E5C" opacity="0.4" filter="url(#blur40)">
    <animate attributeName="opacity" values="0.4;0.6;0.4" dur="14s" repeatCount="indefinite" />
  </rect>

  <!-- Layer 13: Meadow Fog Overlay -->
  <rect x="0" y="780" width="1600" height="120" fill="#E8DCC0" opacity="0.15" filter="url(#blur80)">
    <animate attributeName="opacity" values="0.15;0.25;0.15" dur="11s" repeatCount="indefinite" />
  </rect>

  <!-- Layer 14: Tree Silhouette -->
  <g filter="url(#treeGlow)">
    <!-- Trunk/Canopy Silhouette -->
    <path d="M 980 900 C 960 850 930 780 910 700 C 890 620 900 550 920 480 C 940 410 980 350 1010 300 C 1020 280 1030 260 1025 240 C 1020 220 1005 210 990 200 C 960 180 930 170 890 160 C 880 155 870 150 880 145 C 890 140 900 145 910 150 C 950 165 980 185 1010 210 C 1025 225 1035 245 1040 265 C 1045 285 1040 305 1030 325 C 1005 375 970 430 955 490 C 940 550 935 610 955 680 C 975 750 1000 820 1030 900 Z" fill="#1A3A2A" filter="url(#shadow)" />
    
    <!-- Canopy Blobs (Blurred for atmosphere) -->
    <circle cx="930" cy="450" r="150" fill="#1A3A2A" opacity="0.85" filter="url(#blur40)" />
    <circle cx="1050" cy="380" r="120" fill="#1A3A2A" opacity="0.8" filter="url(#blur40)" />
    <circle cx="1100" cy="550" r="100" fill="#1A3A2A" opacity="0.75" filter="url(#blur40)" />
    <circle cx="850" cy="520" r="90" fill="#1A3A2A" opacity="0.7" filter="url(#blur40)" />
    <circle cx="980" cy="250" r="80" fill="#1A3A2A" opacity="0.7" filter="url(#blur40)" />
    <circle cx="1080" cy="480" r="70" fill="#1A3A2A" opacity="0.65" filter="url(#blur40)" />
    <circle cx="890" cy="650" r="60" fill="#1A3A2A" opacity="0.6" filter="url(#blur40)" />
  </g>

  <!-- Layer 15: Tree Rim Highlight -->
  <g filter="url(#glow)">
    <path d="M 980 900 C 960 850 930 780 910 700 C 890 620 900 550 920 480 C 940 410 980 350 1010 300 C 1020 280 1030 260 1025 240" fill="none" stroke="#C9A574" stroke-width="3" opacity="0.6" />
    <path d="M 1025 240 C 1020 220 1005 210 990 200 C 960 180 930 170 890 160" fill="none" stroke="#E8DCC0" stroke-width="2" opacity="0.5" />
    <path d="M 880 145 C 890 140 900 145 910 150 C 950 165 980 185 1010 210" fill="none" stroke="#C9A574" stroke-width="3" opacity="0.7" />
    <path d="M 1010 210 C 1025 225 1035 245 1040 265" fill="none" stroke="#E8DCC0" stroke-width="2" opacity="0.6" />
    <path d="M 1040 265 C 1045 285 1040 305 1030 325" fill="none" stroke="#C9A574" stroke-width="2" opacity="0.5" />
    <path d="M 1030 325 C 1005 375 970 430 955 490" fill="none" stroke="#C9A574" stroke-width="1.5" opacity="0.4" />
    <path d="M 955 490 C 940 550 935 610 955 680" fill="none" stroke="#E8DCC0" stroke-width="2" opacity="0.4" />
    <path d="M 955 680 C 975 750 1000 820 1030 900" fill="none" stroke="#C9A574" stroke-width="3" opacity="0.6" />
  </g>

  <!-- Layer 16: Foreground Grass Elements -->
  <g stroke="#1A3A2A" stroke-width="2" stroke-linecap="round" opacity="0.8" fill="none">
    <path d="M 1050 900 Q 1060 860 1085 840" />
    <path d="M 1060 900 Q 1075 870 1100 850" />
    <path d="M 1080 900 Q 1095 850 1120 830" />
    <path d="M 1100 900 Q 1110 880 1135 860" />
    <path d="M 1150 900 Q 1165 860 1185 835" />
    <path d="M 1200 900 Q 1215 870 1240 845" />
    <path d="M 1300 900 Q 1315 850 1340 830" />
    <path d="M 1350 900 Q 1365 880 1385 855" />
    <path d="M 1400 900 Q 1415 860 1435 840" />
    <path d="M 1450 900 Q 1465 870 1485 845" />
    <path d="M 1500 900 Q 1515 850 1535 830" />
    <path d="M 1550 900 Q 1565 880 1580 855" />
    <animate attributeName="opacity" values="0.8;0.9;0.8" dur="13s" repeatCount="indefinite" />
  </g>

  <!-- Layer 17: Foreground Warm Light Grass -->
  <g stroke="#C9A574" stroke-width="1.5" stroke-linecap="round" opacity="0.5" fill="none" filter="url(#blur40)">
    <path d="M 1065 900 Q 1075 865 1095 845" />
    <path d="M 1095 900 Q 1105 855 1130 835" />
    <path d="M 1125 900 Q 1135 875 1155 855" />
    <path d="M 1215 900 Q 1225 865 1250 845" />
    <path d="M 1315 900 Q 1325 855 1350 835" />
    <path d="M 1415 900 Q 1425 865 1445 845" />
    <path d="M 1515 900 Q 1525 855 1545 835" />
    <animate attributeName="opacity" values="0.5;0.7;0.5" dur="17s" repeatCount="indefinite" />
  </g>

  <!-- Layer 18: Glowing Fireflies/Particles -->
  <g filter="url(#glow)">
    <circle cx="900" cy="750" r="3" fill="#E8DCC0" opacity="0" filter="url(#blur40)">
      <animate attributeName="opacity" values="0;0.8;0" dur="9s" begin="0s" repeatCount="indefinite" />
      <animate attributeName="cy" values="750;730;750" dur="9s" begin="0s" repeatCount="indefinite" />
    </circle>
    <circle cx="1050" cy="800" r="4" fill="#C9A574" opacity="0" filter="url(#blur40)">
      <animate attributeName="opacity" values="0;0.7;0" dur="11s" begin="2s" repeatCount="indefinite" />
      <animate attributeName="cx" values="1050;1070;1050" dur="11s" begin="2s" repeatCount="indefinite" />
    </circle>
    <circle cx="1150" cy="780" r="2.5" fill="#E8DCC0" opacity="0" filter="url(#blur40)">
      <animate attributeName="opacity" values="0;0.9;0" dur="8s" begin="4s" repeatCount="indefinite" />
      <animate attributeName="cy" values="780;760;780" dur="8s" begin="4s" repeatCount="indefinite" />
    </circle>
    <circle cx="1250" cy="820" r="3.5" fill="#C9A574" opacity="0" filter="url(#blur40)">
      <animate attributeName="opacity" values="0;0.6;0" dur="13s" begin="1s" repeatCount="indefinite" />
      <animate attributeName="cx" values="1250;1230;1250" dur="13s" begin="1s" repeatCount="indefinite" />
    </circle>
    <circle cx="1350" cy="760" r="3" fill="#E8DCC0" opacity="0" filter="url(#blur40)">
      <animate attributeName="opacity" values="0;0.8;0" dur="10s" begin="3s" repeatCount="indefinite" />
      <animate attributeName="cy" values="760;740;760" dur="10s" begin="3s" repeatCount="indefinite" />
    </circle>
    <circle cx="950" cy="880" r="4" fill="#C9A574" opacity="0" filter="url(#blur40)">
      <animate attributeName="opacity" values="0;0.7;0" dur="12s" begin="5s" repeatCount="indefinite" />
      <animate attributeName="cx" values="950;970;950" dur="12s" begin="5s" repeatCount="indefinite" />
    </circle>
  </g>

  <!-- Layer 19: Floating Mist Particles -->
  <g filter="url(#blur80)">
    <circle cx="300" cy="600" r="100" fill="#E8DCC0" opacity="0.1">
      <animate attributeName="cx" values="300;500;300" dur="25s" repeatCount="indefinite" />
      <animate attributeName="opacity" values="0.1;0.2;0.1" dur="20s" repeatCount="indefinite" />
    </circle>
    <circle cx="700" cy="500" r="120" fill="#6B8E5C" opacity="0.15">
      <animate attributeName="cx" values="700;550;700" dur="22s" repeatCount="indefinite" />
      <animate attributeName="cy" values="500;480;500" dur="18s" repeatCount="indefinite" />
    </circle>
    <circle cx="150" cy="450" r="90" fill="#C9A574" opacity="0.1">
      <animate attributeName="cy" values="450;550;450" dur="28s" repeatCount="indefinite" />
      <animate attributeName="opacity" values="0.1;0.15;0.1" dur="15s" repeatCount="indefinite" />
    </circle>
  </g>

  <!-- Layer 20: Bird Silhouette -->
  <g opacity="0.8">
    <use href="#bird" transform="translate(0, -5) scale(1.2)">
      <animateTransform attributeName="transform" type="translate" values="200,200; 600,100; 1200,50; 1600,150" dur="20s" repeatCount="indefinite" />
      <animateTransform attributeName="transform" type="rotate" values="0;10;0;-5;0" dur="2s" repeatCount="indefinite" additive="sum" />
    </use>
  </g>
  
  <!-- Layer 21: Second Bird (Farther) -->
  <g opacity="0.5" filter="url(#blur40)">
    <use href="#bird" transform="scale(0.6)">
      <animateTransform attributeName="transform" type="translate" values="100,300; 500,250; 900,200; 1300,180" dur="25s" begin="3s" repeatCount="indefinite" />
    </use>
  </g>

  <!-- Layer 22: Top Left Negative Space Haze (for text integration) -->
  <rect x="0" y="0" width="700" height="400" fill="#1A3A2A" opacity="0.05" filter="url(#blur120)" />

  <!-- Layer 23: Overall Grain Overlay -->
  <rect width="1600" height="900" fill="#1A3A2A" opacity="0.03" filter="url(#grain)" pointer-events="none" />
  
  <!-- Layer 24: Warm Vignette Glow -->
  <rect width="1600" height="900" fill="url(#sunGrad)" opacity="0.05" pointer-events="none" style="mix-blend-mode: overlay;" />

  <!-- Layer 25: Final atmospheric veil -->
  <rect width="1600" height="900" fill="#E8DCC0" opacity="0.02" filter="url(#blur40)" pointer-events="none">
    <animate attributeName="opacity" values="0.02;0.04;0.02" dur="15s" repeatCount="indefinite" />
  </rect>
</svg>