<?xml version="1.0" encoding="UTF-8"?>
<svg xmlns="http://www.w3.org/2000/svg" viewBox="0 0 1600 900" preserveAspectRatio="xMidYMid slice">
  <defs>
    <linearGradient id="skyGrad" x1="0" y1="0" x2="0" y2="1">
      <stop offset="0%" stop-color="#0D1520">
        <animate attributeName="stop-color" values="#0D1520;#152233;#0D1520" dur="24s" repeatCount="indefinite"/>
      </stop>
      <stop offset="45%" stop-color="#1A2A3D">
        <animate attributeName="stop-color" values="#1A2A3D;#24354D;#1A2A3D" dur="24s" repeatCount="indefinite"/>
      </stop>
      <stop offset="75%" stop-color="#5E7A9E">
        <animate attributeName="stop-color" values="#5E7A9E;#7A9ABF;#5E7A9E" dur="24s" repeatCount="indefinite"/>
      </stop>
      <stop offset="100%" stop-color="#FF9F4D">
        <animate attributeName="stop-color" values="#FF9F4D;#FFC98A;#FF9F4D" dur="24s" repeatCount="indefinite"/>
      </stop>
    </linearGradient>

    <linearGradient id="heroRim" x1="0%" y1="0%" x2="100%" y2="100%">
      <stop offset="0%" stop-color="#FF9F4D" stop-opacity="0.9"/>
      <stop offset="60%" stop-color="#FF9F4D" stop-opacity="0.3"/>
      <stop offset="100%" stop-color="#1A2A3D" stop-opacity="0.0"/>
    </linearGradient>

    <radialGradient id="targetGlow" cx="50%" cy="50%" r="50%">
      <stop offset="0%" stop-color="#FF9F4D" stop-opacity="1">
        <animate attributeName="stop-opacity" values="1;0.6;1" dur="4s" repeatCount="indefinite"/>
      </stop>
      <stop offset="50%" stop-color="#FF9F4D" stop-opacity="0.4"/>
      <stop offset="100%" stop-color="#FF9F4D" stop-opacity="0"/>
    </radialGradient>

    <radialGradient id="rimGlow" cx="0%" cy="100%" r="80%">
      <stop offset="0%" stop-color="#FF9F4D" stop-opacity="0.8"/>
      <stop offset="60%" stop-color="#FF9F4D" stop-opacity="0.1"/>
      <stop offset="100%" stop-color="#1A2A3D" stop-opacity="0"/>
    </radialGradient>

    <filter id="blur40">
      <feGaussianBlur stdDeviation="40"/>
    </filter>
    <filter id="blur80">
      <feGaussianBlur stdDeviation="80"/>
    </filter>
    <filter id="blur120">
      <feGaussianBlur stdDeviation="120"/>
    </filter>
    <filter id="blur160">
      <feGaussianBlur stdDeviation="160"/>
    </filter>
    <filter id="grain">
      <feTurbulence type="fractalNoise" baseFrequency="0.8" numOctaves="3" result="noise"/>
      <feColorMatrix type="matrix" values="1 0 0 0 0  0 1 0 0 0  0 0 1 0 0  0 0 0 0.15 0" in="noise" result="coloredNoise"/>
      <feBlend mode="overlay" in="coloredNoise" in2="SourceGraphic"/>
    </filter>

    <path id="targetWindow" d="M 1110 565 h 8 v 14 h -8 z"/>

    <g id="rainStreak">
      <line x1="0" y1="0" x2="0" y2="60" stroke="#5E7A9E" stroke-width="1" opacity="0.3">
        <animate attributeName="y1" values="0;900" dur="0.6s" repeatCount="indefinite"/>
        <animate attributeName="y2" values="60;960" dur="0.6s" repeatCount="indefinite"/>
      </line>
    </g>

    <g id="ember">
      <circle r="1.5" fill="#FF9F4D" opacity="0.8">
        <animate attributeName="opacity" values="0.8;0;0.8" dur="3s" repeatCount="indefinite"/>
        <animate attributeName="r" values="1.5;0.5;1.5" dur="3s" repeatCount="indefinite"/>
      </circle>
    </g>
  </defs>

  <rect width="1600" height="900" fill="url(#skyGrad)"/>

  <g opacity="0.4">
    <circle cx="200" cy="250" r="150" fill="#FF9F4D" filter="url(#blur160)">
      <animate attributeName="cy" values="250;240;250" dur="20s" repeatCount="indefinite"/>
    </circle>
  </g>

  <g fill="#0F1A28" opacity="0.6" filter="url(#blur160)">
    <rect x="0" y="350" width="1600" height="550"/>
    <path d="M 200 350 L 200 120 L 450 120 L 450 350 Z"/>
    <path d="M 500 350 L 500 180 L 750 180 L 750 350 Z"/>
    <path d="M 900 350 L 900 90 L 1250 90 L 1250 350 Z"/>
    <path d="M 1300 350 L 1300 150 L 1500 150 L 1500 350 Z"/>
    <path d="M -50 350 L -50 200 L 150 200 L 150 350 Z"/>
  </g>

  <g fill="#101B2A" opacity="0.8" filter="url(#blur120)">
    <rect x="0" y="400" width="1600" height="500"/>
    <path d="M 300 400 L 300 220 L 550 220 L 550 400 Z"/>
    <path d="M 650 400 L 650 160 L 900 160 L 900 400 Z"/>
    <path d="M 950 400 L 950 280 L 1200 280 L 1200 400 Z"/>
    <path d="M 1250 400 L 1250 200 L 1450 200 L 1450 400 Z"/>
    <path d="M 100 400 L 100 250 L 280 250 L 280 400 Z"/>
  </g>

  <g fill="#121D2E" filter="url(#blur80)">
    <rect x="0" y="480" width="1600" height="420"/>
    <path d="M 150 480 L 150 320 L 380 320 L 380 480 Z"/>
    <path d="M 420 480 L 420 260 L 650 260 L 650 480 Z"/>
    <path d="M 700 480 L 700 340 L 950 340 L 950 480 Z"/>
    <path d="M 1000 480 L 1000 240 L 1300 240 L 1300 480 Z"/>
    <path d="M 1350 480 L 1350 310 L 1550 310 L 1550 480 Z"/>
    <path d="M -50 480 L -50 360 L 120 360 L 120 480 Z"/>
  </g>

  <g fill="#152133" filter="url(#blur40)">
    <rect x="0" y="550" width="1600" height="350"/>
    <path d="M 250 550 L 250 400 L 480 400 L 480 550 Z"/>
    <path d="M 520 550 L 520 320 L 750 320 L 750 550 Z"/>
    <path d="M 800 550 L 800 420 L 1050 420 L 1050 550 Z"/>
    <path d="M 1100 550 L 1100 340 L 1400 340 L 1400 550 Z"/>
    <path d="M 50 550 L 50 430 L 220 430 L 220 550 Z"/>
    <path d="M 1450 550 L 1450 390 L 1600 390 L 1600 550 Z"/>
  </g>

  <g fill="#0D1621">
    <rect x="0" y="620" width="1600" height="280"/>
    <path d="M 100 620 L 100 480 L 320 480 L 320 620 Z"/>
    <path d="M 380 620 L 380 410 L 600 410 L 600 620 Z"/>
    <path d="M 650 620 L 650 500 L 880 500 L 880 620 Z"/>
    <path d="M 920 620 L 920 460 L 1200 460 L 1200 620 Z"/>
    <path d="M 1250 620 L 1250 490 L 1480 490 L 1480 620 Z"/>
    <path d="M 1520 620 L 1520 450 L 1600 450 L 1600 620 Z"/>
    <path d="M -20 620 L -20 510 L 80 510 L 80 620 Z"/>
  </g>

  <rect x="0" y="620" width="1600" height="280" fill="url(#rimGlow)" opacity="0.4" pointer-events="none"/>

  <g fill="#FF9F4D" opacity="0.2">
    <rect x="120" y="495" width="6" height="10"/>
    <rect x="140" y="505" width="6" height="10"/>
    <rect x="160" y="490" width="6" height="10"/>
    <rect x="400" y="425" width="6" height="10"/>
    <rect x="410" y="435" width="6" height="10"/>
    <rect x="430" y="420" width="6" height="10"/>
    <rect x="670" y="515" width="6" height="10"/>
    <rect x="690" y="510" width="6" height="10"/>
    <rect x="710" y="525" width="6" height="10"/>
    <rect x="940" y="475" width="6" height="10"/>
    <rect x="960" y="485" width="6" height="10"/>
    <rect x="980" y="470" width="6" height="10"/>
    <rect x="1270" y="505" width="6" height="10"/>
    <rect x="1290" y="495" width="6" height="10"/>
    <rect x="1310" y="510" width="6" height="10"/>
  </g>

  <g>
    <use href="#targetWindow" fill="#FF9F4D" opacity="0.9">
      <animate attributeName="opacity" values="0.9;0.4;0.9" dur="5s" repeatCount="indefinite"/>
    </use>
    <circle cx="1114" cy="572" r="25" fill="url(#targetGlow)"/>
    <circle cx="1114" cy="572" r="60" fill="url(#targetGlow)" opacity="0.3">
      <animate attributeName="r" values="60;70;60" dur="5s" repeatCount="indefinite"/>
    </circle>
  </g>

  <path d="M 1100 900 Q 1114 750 1114 650" stroke="#1A2A3D" stroke-width="2" fill="none">
    <animate attributeName="d" values="M 1100 900 Q 1114 750 1114 650;M 1100 900 Q 1124 750 1114 650;M 1100 900 Q 1114 750 1114 650" dur="7s" repeatCount="indefinite"/>
  </path>
  <path d="M 1050 900 Q 1060 700 1050 580" stroke="#1A2A3D" stroke-width="1.5" fill="none">
    <animate attributeName="d" values="M 1050 900 Q 1060 700 1050 580;M 1050 900 Q 1070 700 1050 580;M 1050 900 Q 1060 700 1050 580" dur="9s" repeatCount="indefinite"/>
  </path>
  <path d="M 1150 900 Q 1165 720 1150 620" stroke="#1A2A3D" stroke-width="1" fill="none">
    <animate attributeName="d" values="M 1150 900 Q 1165 720 1150 620;M 1150 900 Q 1140 720 1150 620;M 1150 900 Q 1165 720 1150 620" dur="8s" repeatCount="indefinite"/>
  </path>

  <g id="heroGroup" transform="translate(0, 0)">
    <animateTransform attributeName="transform" type="translate" values="0,0; 0,-3; 0,0" dur="6s" repeatCount="indefinite"/>
    
    <path d="M 60 900 L 60 820 Q 65 810 80 810 L 190 810 Q 220 810 240 800 L 340 765 Q 360 760 370 770 L 400 775 Q 410 780 400 790 L 380 800 L 400 810 Q 420 815 410 830 L 390 840 L 410 850 Q 420 860 400 870 L 360 880 L 380 890 Q 390 900 370 900 Z" fill="#0D1520"/>
    
    <path d="M 400 775 L 550 780 Q 580 782 600 788 L 620 795 Q 630 800 610 802 L 580 800 Q 560 798 540 795 L 520 792 Q 500 790 480 788 L 460 785 Q 440 783 420 780 L 400 775 Z" fill="#0D1520"/>
    
    <path d="M 600 788 L 740 792 Q 760 793 770 795 L 780 798 Q 785 800 775 801 L 760 800 Q 740 798 720 796 L 700 794 Q 680 792 660 790 L 640 789 L 620 795 Z" fill="#0D1520"/>
    
    <path d="M 550 780 L 580 770 Q 600 765 620 768 L 640 772 Q 650 775 640 778 L 610 780 L 580 782 Z" fill="#0D1520"/>
    
    <path d="M 340 765 L 330 755 Q 325 750 335 750 L 360 755 Q 370 758 365 762 L 350 765 Z" fill="#0D1520"/>
    
    <path d="M 330 755 L 310 745 Q 305 743 310 740 L 335 748 Q 340 750 335 755 Z" fill="#0D1520"/>
    
    <path d="M 60 900 L 60 820 Q 65 810 80 810 L 190 810 Q 220 810 240 800 L 340 765 Q 360 760 370 770 L 400 775 L 410 780 L 420 775 L 430 785 L 410 790 L 400 790 L 380 800 L 400 810 Q 420 815 410 830 L 390 840 L 410 850 Q 420 860 400 870 L 360 880 L 380 890 Q 390 900 370 900 Z" fill="none" stroke="url(#heroRim)" stroke-width="3" opacity="0.8"/>
    
    <path d="M 400 775 L 550 780 Q 580 782 600 788 L 620 795" fill="none" stroke="url(#heroRim)" stroke-width="2" opacity="0.6"/>
    
    <path d="M 600 788 L 740 792 Q 760 793 770 795 L 780 798" fill="none" stroke="url(#heroRim)" stroke-width="1.5" opacity="0.5"/>
  </g>

  <rect x="0" y="0" width="1600" height="900" fill="url(#grain)" opacity="0.4" pointer-events="none"/>

  <g id="rainLayer1">
    <use href="#rainStreak" x="100" y="-100"/>
    <use href="#rainStreak" x="250" y="-300"/>
    <use href="#rainStreak" x="400" y="-50"/>
    <use href="#rainStreak" x="550" y="-200"/>
    <use href="#rainStreak" x="700" y="-400"/>
    <use href="#rainStreak" x="850" y="-150"/>
    <use href="#rainStreak" x="1000" y="-350"/>
    <use href="#rainStreak" x="1150" y="-80"/>
    <use href="#rainStreak" x="1300" y="-250"/>
    <use href="#rainStreak" x="1450" y="-450"/>
    <use href="#rainStreak" x="50" y="-500"/>
    <use href="#rainStreak" x="180" y="-180"/>
    <use href="#rainStreak" x="320" y="-420"/>
    <use href="#rainStreak" x="480" y="-120"/>
    <use href="#rainStreak" x="620" y="-280"/>
    <use href="#rainStreak" x="780" y="-60"/>
  </g>

  <g id="rainLayer2" opacity="0.5">
    <use href="#rainStreak" x="150" y="-220"/>
    <use href="#rainStreak" x="350" y="-80"/>
    <use href="#rainStreak" x="500" y="-360"/>
    <use href="#rainStreak" x="650" y="-140"/>
    <use href="#rainStreak" x="800" y="-300"/>
    <use href="#rainStreak" x="950" y="-40"/>
    <use href="#rainStreak" x="1100" y="-260"/>
    <use href="#rainStreak" x="1250" y="-120"/>
    <use href="#rainStreak" x="1400" y="-380"/>
    <use href="#rainStreak" x="1550" y="-180"/>
    <use href="#rainStreak" x="80" y="-340"/>
    <use href="#rainStreak" x="220" y="-100"/>
    <use href="#rainStreak" x="420" y="-260"/>
    <use href="#rainStreak" x="580" y="-420"/>
    <use href="#rainStreak" x="720" y="-180"/>
  </g>

  <g id="rainLayer3" opacity="0.3">
    <use href="#rainStreak" x="200" y="-150"/>
    <use href="#rainStreak" x="450" y="-320"/>
    <use href="#rainStreak" x="600" y="-50"/>
    <use href="#rainStreak" x="750" y="-220"/>
    <use href="#rainStreak" x="900" y="-400"/>
    <use href="#rainStreak" x="1050" y="-110"/>
    <use href="#rainStreak" x="1200" y="-280"/>
    <use href="#rainStreak" x="1350" y="-60"/>
    <use href="#rainStreak" x="1500" y="-200"/>
    <use href="#rainStreak" x="30" y="-360"/>
    <use href="#rainStreak" x="280" y="-80"/>
    <use href="#rainStreak" x="520" y="-240"/>
    <use href="#rainStreak" x="680" y="-100"/>
    <use href="#rainStreak" x="880" y="-350"/>
    <use href="#rainStreak" x="1020" y="-180"/>
  </g>

  <g id="embersLayer">
    <use href="#ember" x="300" y="800">
      <animateMotion path="M 0 0 Q 20 -100 -10 -200 T 30 -400" dur="12s" repeatCount="indefinite"/>
    </use>
    <use href="#ember" x="500" y="850">
      <animateMotion path="M 0 0 Q -15 -120 25 -250 T -20 -450" dur="15s" repeatCount="indefinite"/>
    </use>
    <use href="#ember" x="700" y="820">
      <animateMotion path="M 0 0 Q 30 -90 -20 -180 T 15 -350" dur="10s" repeatCount="indefinite"/>
    </use>
    <use href="#ember" x="900" y="880">
      <animateMotion path="M 0 0 Q -25 -110 10 -220 T -30 -400" dur="13s" repeatCount="indefinite"/>
    </use>
    <use href="#ember" x="1100" y="840">
      <animateMotion path="M 0 0 Q 15 -130 -15 -260 T 20 -420" dur="11s" repeatCount="indefinite"/>
    </use>
    <use href="#ember" x="1300" y="860">
      <animateMotion path="M 0 0 Q -20 -100 20 -200 T -10 -380" dur="14s" repeatCount="indefinite"/>
    </use>
    <use href="#ember" x="1500" y="810">
      <animateMotion path="M 0 0 Q 25 -140 -25 -280 T 25 -460" dur="16s" repeatCount="indefinite"/>
    </use>
    <use href="#ember" x="150" y="830">
      <animateMotion path="M 0 0 Q -10 -80 15 -160 T -5 -300" dur="9s" repeatCount="indefinite"/>
    </use>
    <use href="#ember" x="400" y="890">
      <animateMotion path="M 0 0 Q 20 -150 -20 -300 T 10 -500" dur="17s" repeatCount="indefinite"/>
    </use>
    <use href="#ember" x="600" y="810">
      <animateMotion path="M 0 0 Q -30 -110 20 -220 T -15 -400" dur="12s" repeatCount="indefinite"/>
    </use>
    <use href="#ember" x="800" y="870">
      <animateMotion path="M 0 0 Q 10 -120 -10 -240 T 20 -420" dur="14s" repeatCount="indefinite"/>
    </use>
    <use href="#ember" x="1000" y="820">
      <animateMotion path="M 0 0 Q -15 -90 25 -180 T -20 -350" dur="11s" repeatCount="indefinite"/>
    </use>
    <use href="#ember" x="1200" y="850">
      <animateMotion path="M 0 0 Q 30 -140 -10 -280 T 30 -450" dur="15s" repeatCount="indefinite"/>
    </use>
    <use href="#ember" x="1400" y="800">
      <animateMotion path="M 0 0 Q -20 -100 20 -200 T -15 -380" dur="10s" repeatCount="indefinite"/>
    </use>
    <use href="#ember" x="200" y="860">
      <animateMotion path="M 0 0 Q 15 -130 -25 -260 T 15 -420" dur="13s" repeatCount="indefinite"/>
    </use>
  </g>

  <g id="sweepingParticles" opacity="0.4">
    <circle r="1" fill="#5E7A9E">
      <animate attributeName="cx" values="1600;0" dur="18s" repeatCount="indefinite"/>
      <animate attributeName="cy" values="700;650" dur="18s" repeatCount="indefinite"/>
      <animate attributeName="opacity" values="0;1;0" dur="18s" repeatCount="indefinite"/>
    </circle>
    <circle r="1.5" fill="#5E7A9E">
      <animate attributeName="cx" values="1600;0" dur="22s" begin="3s" repeatCount="indefinite"/>
      <animate attributeName="cy" values="600;550" dur="22s" begin="3s" repeatCount="indefinite"/>
      <animate attributeName="opacity" values="0;0.8;0" dur="22s" begin="3s" repeatCount="indefinite"/>
    </circle>
    <circle r="1" fill="#5E7A9E">
      <animate attributeName="cx" values="1600;0" dur="15s" begin="6s" repeatCount="indefinite"/>
      <animate attributeName="cy" values="750;700" dur="15s" begin="6s" repeatCount="indefinite"/>
      <animate attributeName="opacity" values="0;0.6;0" dur="15s" begin="6s" repeatCount="indefinite"/>
    </circle>
    <circle r="2" fill="#5E7A9E">
      <animate attributeName="cx" values="1600;0" dur="20s" begin="2s" repeatCount="indefinite"/>
      <animate attributeName="cy" values="500;480" dur="20s" begin="2s" repeatCount="indefinite"/>
      <animate attributeName="opacity" values="0;0.5;0" dur="20s" begin="2s" repeatCount="indefinite"/>
    </circle>
    <circle r="1.5" fill="#5E7A9E">
      <animate attributeName="cx" values="1600;0" dur="25s" begin="8s" repeatCount="indefinite"/>
      <animate attributeName="cy" values="800;780" dur="25s" begin="8s" repeatCount="indefinite"/>
      <animate attributeName="opacity" values="0;0.7;0" dur="25s" begin="8s" repeatCount="indefinite"/>
    </circle>
    <circle r="1" fill="#FF9F4D" opacity="0.6">
      <animate attributeName="cx" values="1200;1100" dur="10s" repeatCount="indefinite"/>
      <animate attributeName="cy" values="570;520" dur="10s" repeatCount="indefinite"/>
      <animate attributeName="opacity" values="0.6;0;0.6" dur="10s" repeatCount="indefinite"/>
    </circle>
    <circle r="1.5" fill="#FF9F4D" opacity="0.5">
      <animate attributeName="cx" values="1150;1050" dur="12s" begin="4s" repeatCount="indefinite"/>
      <animate attributeName="cy" values="590;540" dur="12s" begin="4s" repeatCount="indefinite"/>
      <animate attributeName="opacity" values="0.5;0;0.5" dur="12s" begin="4s" repeatCount="indefinite"/>
    </circle>
  </g>

  <rect x="0" y="0" width="1600" height="900" fill="url(#grain)" opacity="0.15" pointer-events="none"/>
</svg>