<?xml version="1.0" encoding="UTF-8"?>
<svg xmlns="http://www.w3.org/2000/svg" viewBox="0 0 1600 900" preserveAspectRatio="xMidYMid slice">
  <defs>
    <linearGradient id="skyGrad" x1="0%" y1="0%" x2="100%" y2="100%">
      <stop offset="0%" stop-color="#BDB2FF"/>
      <stop offset="40%" stop-color="#FFC6FF"/>
      <stop offset="70%" stop-color="#A0C4FF"/>
      <stop offset="100%" stop-color="#CAFFBF"/>
    </linearGradient>

    <radialGradient id="sunburstGrad" cx="50%" cy="50%" r="50%">
      <stop offset="0%" stop-color="#FFD166"/>
      <stop offset="40%" stop-color="#FF99C8"/>
      <stop offset="100%" stop-color="#FF99C8" stop-opacity="0"/>
    </radialGradient>

    <linearGradient id="bubbleIrid" x1="0%" y1="0%" x2="100%" y2="100%">
      <stop offset="0%" stop-color="#FFD166"/>
      <stop offset="25%" stop-color="#FF99C8"/>
      <stop offset="50%" stop-color="#CAFFBF"/>
      <stop offset="75%" stop-color="#A0C4FF"/>
      <stop offset="100%" stop-color="#BDB2FF"/>
    </linearGradient>

    <linearGradient id="stripeGrad" x1="0%" y1="0%" x2="0%" y2="100%">
      <stop offset="0%" stop-color="#FF6B6B" stop-opacity="0.3">
        <animate attributeName="stop-color" values="#FF6B6B;#FFD166;#CAFFBF;#A0C4FF;#BDB2FF;#FF6B6B" dur="6s" repeatCount="indefinite"/>
      </stop>
      <stop offset="100%" stop-color="#FF6B6B" stop-opacity="0">
        <animate attributeName="stop-color" values="#FF6B6B;#FFD166;#CAFFBF;#A0C4FF;#BDB2FF;#FF6B6B" dur="6s" repeatCount="indefinite"/>
      </stop>
    </linearGradient>

    <radialGradient id="cloudGrad" cx="50%" cy="50%" r="50%">
      <stop offset="0%" stop-color="#FFFFFF" stop-opacity="0.9"/>
      <stop offset="70%" stop-color="#FFFFFF" stop-opacity="0.3"/>
      <stop offset="100%" stop-color="#FFFFFF" stop-opacity="0"/>
    </radialGradient>

    <filter id="glow" x="-50%" y="-50%" width="200%" height="200%">
      <feGaussianBlur in="SourceGraphic" stdDeviation="8" result="blur"/>
      <feMerge>
        <feMergeNode in="blur"/>
        <feMergeNode in="SourceGraphic"/>
      </feMerge>
    </filter>

    <filter id="softGlow" x="-30%" y="-30%" width="160%" height="160%">
      <feGaussianBlur in="SourceGraphic" stdDeviation="4" result="blur"/>
      <feMerge>
        <feMergeNode in="blur"/>
        <feMergeNode in="SourceGraphic"/>
      </feMerge>
    </filter>
    
    <pattern id="halftone" x="0" y="0" width="40" height="40" patternUnits="userSpaceOnUse" patternTransform="scale(1) rotate(0)">
      <circle cx="20" cy="20" r="6" fill="#FFFFFF" fill-opacity="0.25">
        <animate attributeName="r" values="6;8;6" dur="3s" repeatCount="indefinite"/>
      </circle>
    </pattern>
  </defs>

  <!-- 1. BASE SKY -->
  <rect width="1600" height="900" fill="url(#skyGrad)"/>
  
  <!-- 2. SUNBURST BASE -->
  <circle cx="1100" cy="450" r="600" fill="url(#sunburstGrad)" filter="url(#glow)">
    <animate attributeName="r" values="600;650;600" dur="5s" repeatCount="indefinite"/>
    <animate attributeName="opacity" values="0.8;1;0.8" dur="3s" repeatCount="indefinite"/>
  </circle>

  <!-- 3. RADIAL BURST LINES -->
  <g transform="translate(1100, 450)">
    <animateTransform attributeName="transform" type="rotate" from="0 1100 450" to="360 1100 450" dur="25s" repeatCount="indefinite" additive="sum"/>
    <g id="burstLines" stroke="#FFFFFF" stroke-width="2" opacity="0.4">
      <line x1="0" y1="-500" x2="0" y2="500"/>
      <line x1="0" y1="-500" x2="0" y2="500" transform="rotate(18)"/>
      <line x1="0" y1="-500" x2="0" y2="500" transform="rotate(36)"/>
      <line x1="0" y1="-500" x2="0" y2="500" transform="rotate(54)"/>
      <line x1="0" y1="-500" x2="0" y2="500" transform="rotate(72)"/>
      <line x1="0" y1="-500" x2="0" y2="500" transform="rotate(90)"/>
      <line x1="0" y1="-500" x2="0" y2="500" transform="rotate(108)"/>
      <line x1="0" y1="-500" x2="0" y2="500" transform="rotate(126)"/>
      <line x1="0" y1="-500" x2="0" y2="500" transform="rotate(144)"/>
      <line x1="0" y1="-500" x2="0" y2="500" transform="rotate(162)"/>
    </g>
  </g>

  <!-- 4. HALFTONE PATTERN OVERLAY -->
  <rect width="1600" height="900" fill="url(#halftone)" opacity="0.6"/>

  <!-- 5. FLOATING CLOUDS (LAYER 1) -->
  <g fill="url(#cloudGrad)">
    <path d="M 200,300 Q 250,250 300,300 Q 350,250 400,300 Q 450,250 500,300 Q 550,250 600,300 L 600,450 L 200,450 Z" opacity="0.5">
      <animateTransform attributeName="transform" type="translate" values="-50 0; 50 0; -50 0" dur="8s" repeatCount="indefinite"/>
    </path>
    <path d="M 1100,150 Q 1150,100 1200,150 Q 1250,100 1300,150 Q 1350,100 1400,150 L 1400,300 L 1100,300 Z" opacity="0.4" transform="scale(0.7) translate(400, 0)">
      <animateTransform attributeName="transform" type="translate" values="0 0; 30 0; 0 0" dur="10s" repeatCount="indefinite" additive="sum"/>
    </path>
  </g>

  <!-- 6. CHEVRON STRIPES BACKGROUND -->
  <g transform="translate(0, 500)" fill="url(#stripeGrad)">
    <path d="M 0,0 L 150,-50 L 300,0 L 450,-50 L 600,0 L 750,-50 L 900,0 L 1050,-50 L 1200,0 L 1350,-50 L 1500,0 L 1650,-50 L 1650,400 L 0,400 Z">
      <animateTransform attributeName="transform" type="translate" values="0 0; -150 0; 0 0" dur="4s" repeatCount="indefinite"/>
    </path>
  </g>

  <!-- 7. FLOATING CLOUDS (LAYER 2) -->
  <g fill="url(#cloudGrad)">
    <path d="M 50,600 Q 100,550 150,600 Q 200,550 250,600 Q 300,550 350,600 L 350,800 L 50,800 Z" opacity="0.3">
      <animateTransform attributeName="transform" type="translate" values="0 0; 80 0; 0 0" dur="12s" repeatCount="indefinite"/>
    </path>
    <path d="M 900,650 Q 950,600 1000,650 Q 1050,600 1100,650 Q 1150,600 1200,650 L 1200,900 L 900,900 Z" opacity="0.4">
      <animateTransform attributeName="transform" type="translate" values="0 0; -60 0; 0 0" dur="9s" repeatCount="indefinite"/>
    </path>
  </g>

  <!-- 8. GEOMETRIC ACCENTS (Left side for composition) -->
  <g transform="translate(250, 250)">
    <rect x="0" y="0" width="120" height="120" rx="20" fill="#FF6B6B" transform="rotate(15)">
      <animateTransform attributeName="transform" type="rotate" values="15 60 60; 35 60 60; 15 60 60" dur="4s" repeatCount="indefinite" additive="sum"/>
    </rect>
    <circle cx="60" cy="60" r="30" fill="#FFD166" opacity="0.9"/>
    
    <rect x="160" y="100" width="80" height="80" rx="15" fill="#A0C4FF" transform="rotate(-20)">
      <animateTransform attributeName="transform" type="rotate" values="-20 40 40; -5 40 40; -20 40 40" dur="3.5s" repeatCount="indefinite" additive="sum"/>
    </rect>
    <circle cx="200" cy="140" r="20" fill="#CAFFBF" opacity="0.9"/>
  </g>

  <!-- 9. SPARKLE ACCENTS -->
  <g fill="#FFD166" filter="url(#glow)">
    <path d="M 450 150 L 455 170 L 475 175 L 455 180 L 450 200 L 445 180 L 425 175 L 445 170 Z">
      <animate attributeName="opacity" values="0;1;0" dur="2s" repeatCount="indefinite"/>
      <animateTransform attributeName="transform" type="scale" values="1;1.5;1" dur="2s" repeatCount="indefinite" additive="sum"/>
    </path>
    <path d="M 700 200 L 705 215 L 720 220 L 705 225 L 700 240 L 695 225 L 680 220 L 695 215 Z">
      <animate attributeName="opacity" values="0;1;0" dur="2.5s" begin="0.5s" repeatCount="indefinite"/>
      <animateTransform attributeName="transform" type="scale" values="1;1.5;1" dur="2.5s" begin="0.5s" repeatCount="indefinite" additive="sum"/>
    </path>
    <path d="M 550 350 L 552 360 L 562 362 L 552 364 L 550 374 L 548 364 L 538 362 L 548 360 Z">
      <animate attributeName="opacity" values="0;1;0" dur="1.8s" begin="1s" repeatCount="indefinite"/>
      <animateTransform attributeName="transform" type="scale" values="1;1.3;1" dur="1.8s" begin="1s" repeatCount="indefinite" additive="sum"/>
    </path>
  </g>

  <!-- 10. HERO SILHOUETTE + GIANT BUBBLE (OFF-CENTER RIGHT) -->
  <g id="heroGroup" transform="translate(1050, 480)">
    <!-- BOUNCE ANIMATION -->
    <animateTransform attributeName="transform" type="translate" values="1050 480; 1050 460; 1050 480" dur="2.5s" repeatCount="indefinite" keyTimes="0;0.5;1" keySplines="0.45 0 0.55 1; 0.45 0 0.55 1"/>
    
    <animateTransform attributeName="transform" type="scale" values="1;1.02;1" dur="2.5s" repeatCount="indefinite" additive="sum"/>

    <!-- GIANT BUBBLE -->
    <circle cx="0" cy="0" r="200" fill="url(#bubbleIrid)" stroke="#FFFFFF" stroke-width="4" fill-opacity="0.3" filter="url(#softGlow)">
      <animate attributeName="r" values="200;210;200" dur="4s" repeatCount="indefinite"/>
      <animate attributeName="fill-opacity" values="0.3;0.4;0.3" dur="4s" repeatCount="indefinite"/>
    </circle>
    
    <!-- HIGHLIGHTS ON BUBBLE -->
    <path d="M -140 -80 Q -80 -140 0 -150 Q 80 -140 140 -80" stroke="#FFFFFF" stroke-width="12" fill="none" stroke-linecap="round" opacity="0.8"/>
    <circle cx="90" cy="-90" r="15" fill="#FFFFFF" opacity="0.6"/>
    <circle cx="-100" cy="80" r="8" fill="#FFFFFF" opacity="0.4"/>

    <!-- REFRACTION ARCS ON BUBBLE -->
    <path d="M -160 80 Q -100 160 0 170 Q 100 160 160 80" fill="none" stroke="#FF99C8" stroke-width="6" stroke-linecap="round" opacity="0.7">
      <animate attributeName="stroke" values="#FF99C8;#CAFFBF;#A0C4FF;#FF99C8" dur="5s" repeatCount="indefinite"/>
    </path>
    
    <!-- HERO SILHOUETTE -->
    <!-- Body -->
    <path d="M -25 140 C -35 155 -30 170 -15 170 L 15 170 C 30 170 35 155 25 140 Z" fill="#FF99C8"/>
    <!-- Legs -->
    <path d="M -15 170 L -20 185 C -25 190 -15 190 -10 185 L -5 170 Z" fill="#FF99C8"/>
    <path d="M 15 170 L 20 185 C 25 190 15 190 10 185 L 5 170 Z" fill="#FF99C8"/>
    <!-- Torso/Head blowing bubble -->
    <path d="M -30 140 C -50 120 -60 90 -40 80 C -20 70 20 70 40 90 C 55 105 45 130 25 140 Z" fill="#FF99C8"/>
    <circle cx="35" cy="95" r="8" fill="#FF99C8"/>
    <circle cx="32" cy="93" r="4" fill="#FFFFFF"/>
    
    <!-- Arms up in celebration/jumping -->
    <path d="M -40 90 C -60 70 -70 40 -50 30 C -30 20 -20 40 -30 60" fill="#FF99C8" stroke="#FF99C8" stroke-width="10" stroke-linecap="round"/>
    <path d="M 40 100 C 60 80 70 50 50 40 C 30 30 20 50 30 70" fill="#FF99C8" stroke="#FF99C8" stroke-width="10" stroke-linecap="round"/>
    
    <!-- Hair Tuft -->
    <path d="M -15 78 C -20 60 -5 50 10 65" fill="#FF99C8"/>
  </g>

  <!-- 11. FLOATING BUBBLES (SMALLER) -->
  <g stroke="#FFFFFF" stroke-width="2">
    <!-- Bubble 1 -->
    <circle cx="650" cy="200" r="35" fill="url(#bubbleIrid)" fill-opacity="0.2">
      <animate attributeName="cy" values="200;180;200" dur="3s" repeatCount="indefinite"/>
      <animate attributeName="cx" values="650;640;650" dur="4s" repeatCount="indefinite"/>
      <animate attributeName="r" values="35;38;35" dur="3s" repeatCount="indefinite"/>
    </circle>
    <ellipse cx="635" cy="185" rx="12" ry="6" fill="#FFFFFF" opacity="0.7" transform="rotate(-20 635 185)"/>

    <!-- Bubble 2 -->
    <circle cx="850" cy="550" r="50" fill="url(#bubbleIrid)" fill-opacity="0.2" stroke-width="3">
      <animate attributeName="cy" values="550;570;550" dur="4s" repeatCount="indefinite"/>
      <animate attributeName="cx" values="850;870;850" dur="5s" repeatCount="indefinite"/>
    </circle>
    <ellipse cx="830" cy="530" rx="18" ry="8" fill="#FFFFFF" opacity="0.8" transform="rotate(-15 830 530)"/>

    <!-- Bubble 3 -->
    <circle cx="450" cy="450" r="25" fill="url(#bubbleIrid)" fill-opacity="0.2">
      <animate attributeName="cy" values="450;430;450" dur="2.5s" repeatCount="indefinite"/>
      <animate attributeName="cx" values="450;460;450" dur="3s" repeatCount="indefinite"/>
    </circle>

    <!-- Bubble 4 -->
    <circle cx="1350" cy="250" r="40" fill="url(#bubbleIrid)" fill-opacity="0.2" stroke-width="2">
      <animate attributeName="cy" values="250;230;250" dur="3.5s" repeatCount="indefinite"/>
      <animate attributeName="r" values="40;43;40" dur="3.5s" repeatCount="indefinite"/>
    </circle>

    <!-- Bubble 5 -->
    <circle cx="1400" cy="650" r="30" fill="url(#bubbleIrid)" fill-opacity="0.2">
      <animate attributeName="cy" values="650;670;650" dur="2s" repeatCount="indefinite"/>
    </circle>
    
    <!-- Bubble 6 -->
    <circle cx="880" cy="120" r="20" fill="url(#bubbleIrid)" fill-opacity="0.2">
      <animate attributeName="cy" values="120;110;120" dur="2.2s" repeatCount="indefinite"/>
      <animate attributeName="cx" values="880;890;880" dur="3.2s" repeatCount="indefinite"/>
    </circle>

    <!-- Bubble 7 -->
    <circle cx="400" cy="700" r="45" fill="url(#bubbleIrid)" fill-opacity="0.15" stroke-width="2">
      <animate attributeName="cy" values="700;680;700" dur="4s" repeatCount="indefinite"/>
    </circle>
  </g>

  <!-- 12. MOTION LINES / WIND EFFECTS -->
  <g stroke="#FFFFFF" stroke-width="3" fill="none" stroke-linecap="round" opacity="0.6">
    <path d="M 900 300 Q 950 250 1050 280">
      <animate attributeName="d" values="M 900 300 Q 950 250 1050 280; M 920 290 Q 970 240 1070 270; M 900 300 Q 950 250 1050 280" dur="3s" repeatCount="indefinite"/>
      <animate attributeName="opacity" values="0.6;0.2;0.6" dur="3s" repeatCount="indefinite"/>
    </path>
    <path d="M 750 500 Q 800 450 900 480">
      <animate attributeName="d" values="M 750 500 Q 800 450 900 480; M 770 490 Q 820 440 920 470; M 750 500 Q 800 450 900 480" dur="4s" repeatCount="indefinite"/>
      <animate attributeName="opacity" values="0.5;0.1;0.5" dur="4s" repeatCount="indefinite"/>
    </path>
    <path d="M 1100 100 Q 1150 80 1250 110">
      <animate attributeName="d" values="M 1100 100 Q 1150 80 1250 110; M 1120 90 Q 1170 70 1270 100; M 1100 100 Q 1150 80 1250 110" dur="2.5s" repeatCount="indefinite"/>
      <animate attributeName="opacity" values="0.4;0.1;0.4" dur="2.5s" repeatCount="indefinite"/>
    </path>
  </g>

  <!-- 13. CONFETTI / PARTICLES -->
  <g>
    <!-- Confetti 1 -->
    <rect x="-10" y="-10" width="20" height="20" fill="#FF6B6B" opacity="0.9">
      <animateMotion path="M -50 -20 Q 400 300 1600 900" dur="6s" repeatCount="indefinite"/>
      <animateTransform attributeName="transform" type="rotate" values="0;360" dur="3s" repeatCount="indefinite" additive="sum"/>
    </rect>
    
    <!-- Confetti 2 -->
    <circle cx="0" cy="0" r="10" fill="#FFD166" opacity="0.9">
      <animateMotion path="M 1600 -50 Q 1200 200 800 950" dur="7s" repeatCount="indefinite"/>
    </circle>

    <!-- Confetti 3 -->
    <path d="M 0 -10 L 10 0 L 0 10 L -10 0 Z" fill="#CAFFBF" opacity="0.9">
      <animateMotion path="M 100 950 Q 500 600 1200 -50" dur="8s" repeatCount="indefinite"/>
      <animateTransform attributeName="transform" type="rotate" values="0;180;360" dur="4s" repeatCount="indefinite" additive="sum"/>
    </path>

    <!-- Confetti 4 -->
    <rect x="-12" y="-6" width="24" height="12" fill="#A0C4FF" opacity="0.9">
      <animateMotion path="M 500 -50 Q 800 400 1400 900" dur="5s" repeatCount="indefinite"/>
      <animateTransform attributeName="transform" type="rotate" values="0;90;180;270;360" dur="2s" repeatCount="indefinite" additive="sum"/>
    </rect>

    <!-- Confetti 5 -->
    <circle cx="0" cy="0" r="8" fill="#FF99C8" opacity="0.9">
      <animateMotion path="M 1300 -50 Q 1000 400 400 950" dur="9s" repeatCount="indefinite"/>
    </circle>

    <!-- Confetti 6 -->
    <path d="M -10 0 L 0 -15 L 10 0 Z" fill="#FFD166" opacity="0.9">
      <animateMotion path="M 200 950 Q 600 500 1100 -50" dur="6.5s" repeatCount="indefinite"/>
      <animateTransform attributeName="transform" type="rotate" values="0;360" dur="2.5s" repeatCount="indefinite" additive="sum"/>
    </path>

    <!-- Confetti 7 -->
    <rect x="-8" y="-8" width="16" height="16" fill="#BDB2FF" opacity="0.9">
      <animateMotion path="M 1500 950 Q 1100 500 600 -50" dur="7.5s" repeatCount="indefinite"/>
      <animateTransform attributeName="transform" type="rotate" values="0;-360" dur="3s" repeatCount="indefinite" additive="sum"/>
    </rect>

    <!-- Confetti 8 -->
    <circle cx="0" cy="0" r="14" fill="#CAFFBF" opacity="0.9">
      <animateMotion path="M -50 300 Q 400 100 900 950" dur="8.5s" repeatCount="indefinite"/>
      <animate attributeName="r" values="14;10;14" dur="2s" repeatCount="indefinite"/>
    </circle>

    <!-- Confetti 9 -->
    <path d="M 0 -12 L 8 -4 L 0 4 L -8 -4 Z" fill="#FF6B6B" opacity="0.9">
      <animateMotion path="M 1650 500 Q 1200 200 750 -50" dur="5.5s" repeatCount="indefinite"/>
      <animateTransform attributeName="transform" type="rotate" values="0;180;360" dur="1.5s" repeatCount="indefinite" additive="sum"/>
    </path>

    <!-- Confetti 10 -->
    <rect x="-10" y="-5" width="20" height="10" rx="5" fill="#A0C4FF" opacity="0.9">
      <animateMotion path="M 350 -50 Q 600 250 950 950" dur="6s" repeatCount="indefinite"/>
    </rect>
    
    <!-- Confetti 11 -->
    <circle cx="0" cy="0" r="6" fill="#FF99C8">
      <animateMotion path="M 900 -50 Q 1100 300 1300 950" dur="5s" repeatCount="indefinite"/>
    </circle>
    
    <!-- Confetti 12 -->
    <rect x="-8" y="-8" width="16" height="16" fill="#FFD166" transform="rotate(45)">
      <animateMotion path="M 650 950 Q 850 600 1050 -50" dur="7s" repeatCount="indefinite"/>
      <animateTransform attributeName="transform" type="rotate" values="45;135;225;315;405" dur="2s" repeatCount="indefinite" additive="sum"/>
    </rect>

    <!-- Confetti 13 -->
    <path d="M 0 0 L 12 8 L 0 16 L -12 8 Z" fill="#CAFFBF">
      <animateMotion path="M 1200 950 Q 1400 600 1600 -50" dur="6.5s" repeatCount="indefinite"/>
      <animateTransform attributeName="transform" type="rotate" values="0;360" dur="4s" repeatCount="indefinite" additive="sum"/>
    </path>

    <!-- Confetti 14 -->
    <circle cx="0" cy="0" r="12" fill="#BDB2FF">
      <animateMotion path="M -50 800 Q 300 500 600 -50" dur="9s" repeatCount="indefinite"/>
    </circle>

    <!-- Confetti 15 -->
    <rect x="-6" y="-12" width="12" height="24" fill="#FF6B6B">
      <animateMotion path="M 1450 950 Q 1200 600 950 -50" dur="5.5s" repeatCount="indefinite"/>
      <animateTransform attributeName="transform" type="rotate" values="0;-360" dur="2s" repeatCount="indefinite" additive="sum"/>
    </rect>
    
    <!-- Confetti 16 -->
    <path d="M 0 -8 L 10 0 L 0 8 Z" fill="#A0C4FF">
      <animateMotion path="M 800 950 Q 1000 550 1200 -50" dur="7.5s" repeatCount="indefinite"/>
    </path>
    
    <!-- Confetti 17 -->
    <circle cx="0" cy="0" r="10" fill="#FFD166">
      <animateMotion path="M 300 -50 Q 500 200 700 550 Q 900 800 1100 950" dur="10s" repeatCount="indefinite"/>
    </circle>

    <!-- Confetti 18 -->
    <rect x="-14" y="-7" width="28" height="14" fill="#FF99C8">
      <animateMotion path="M 1000 950 Q 1300 400 1600 -50" dur="6s" repeatCount="indefinite"/>
      <animateTransform attributeName="transform" type="rotate" values="0;90;180;270;360" dur="3s" repeatCount="indefinite" additive="sum"/>
    </rect>
  </g>

  <!-- 14. SMALL BUBBLE TRAILS / POPPING EFFECTS -->
  <g fill="#FFFFFF" opacity="0.8">
    <circle cx="750" cy="380" r="3" opacity="0">
      <animate attributeName="opacity" values="0;1;0" dur="2s" begin="0.5s" repeatCount="indefinite"/>
      <animate attributeName="cy" values="380;350;380" dur="2s" begin="0.5s" repeatCount="indefinite"/>
    </circle>
    <circle cx="760" cy="390" r="4" opacity="0">
      <animate attributeName="opacity" values="0;1;0" dur="2.2s" begin="0.8s" repeatCount="indefinite"/>
      <animate attributeName="cy" values="390;360;390" dur="2.2s" begin="0.8s" repeatCount="indefinite"/>
    </circle>
    <circle cx="740" cy="385" r="2" opacity="0">
      <animate attributeName="opacity" values="0;1;0" dur="1.8s" begin="1.2s" repeatCount="indefinite"/>
      <animate attributeName="cy" values="385;355;385" dur="1.8s" begin="1.2s" repeatCount="indefinite"/>
    </circle>
    <circle cx="770" cy="375" r="3" opacity="0">
      <animate attributeName="opacity" values="0;1;0" dur="2.5s" begin="1.5s" repeatCount="indefinite"/>
      <animate attributeName="cy" values="375;345;375" dur="2.5s" begin="1.5s" repeatCount="indefinite"/>
    </circle>
  </g>

  <!-- 15. GLOWING ORBS BACKGROUND -->
  <g fill="#FFFFFF" filter="url(#softGlow)">
    <circle cx="300" cy="100" r="15" opacity="0.5">
      <animate attributeName="opacity" values="0.5;0.8;0.5" dur="3s" repeatCount="indefinite"/>
      <animate attributeName="r" values="15;20;15" dur="3s" repeatCount="indefinite"/>
    </circle>
    <circle cx="1500" cy="400" r="20" opacity="0.4">
      <animate attributeName="opacity" values="0.4;0.7;0.4" dur="4s" repeatCount="indefinite"/>
      <animate attributeName="r" values="20;25;20" dur="4s" repeatCount="indefinite"/>
    </circle>
    <circle cx="100" cy="750" r="18" opacity="0.3">
      <animate attributeName="opacity" values="0.3;0.6;0.3" dur="2.5s" repeatCount="indefinite"/>
    </circle>
  </g>

  <!-- 16. FOREGROUND GEOMETRIC SHAPES -->
  <g>
    <path d="M -50 850 L 200 950 L 450 850 L 200 750 Z" fill="#FF99C8" opacity="0.3">
      <animateTransform attributeName="transform" type="translate" values="0 0; 0 -20; 0 0" dur="4s" repeatCount="indefinite"/>
    </path>
    <path d="M 1150 950 L 1400 850 L 1650 950 L 1400 1050 Z" fill="#A0C4FF" opacity="0.3">
      <animateTransform attributeName="transform" type="translate" values="0 0; 0 -15; 0 0" dur="5s" repeatCount="indefinite"/>
    </path>
    <path d="M 800 -50 L 950 100 L 800 250 L 650 100 Z" fill="#CAFFBF" opacity="0.3">
      <animateTransform attributeName="transform" type="translate" values="0 0; 0 20; 0 0" dur="6s" repeatCount="indefinite"/>
    </path>
  </g>

  <!-- 17. FOREGROUND MOTION LINES (Sweeping across) -->
  <g stroke="#FFFFFF" stroke-width="4" fill="none" opacity="0.3">
    <path d="M -100 800 Q 400 600 900 900" stroke-dasharray="50 150">
      <animate attributeName="stroke-dashoffset" values="0;200" dur="2s" repeatCount="indefinite"/>
    </path>
    <path d="M 700 -100 Q 900 300 1700 100" stroke-dasharray="30 120">
      <animate attributeName="stroke-dashoffset" values="150;0" dur="2.5s" repeatCount="indefinite"/>
    </path>
  </g>
</svg>