<?xml version="1.0" encoding="UTF-8"?>
<svg xmlns="http://www.w3.org/2000/svg" viewBox="0 0 1600 900" preserveAspectRatio="xMidYMid slice" width="1600" height="900">
  <defs>
    <radialGradient id="coreGlow" cx="50%" cy="45%" r="60%">
      <stop offset="0%" stop-color="#5E6AD2" stop-opacity="0.28">
        <animate attributeName="stop-opacity" values="0.28;0.42;0.28" dur="8s" repeatCount="indefinite"/>
      </stop>
      <stop offset="45%" stop-color="#4CC9FE" stop-opacity="0.10">
        <animate attributeName="stop-opacity" values="0.10;0.18;0.10" dur="8s" repeatCount="indefinite"/>
      </stop>
      <stop offset="100%" stop-color="#0F0A1E" stop-opacity="0"/>
    </radialGradient>
    <linearGradient id="horizonGrad" x1="0%" y1="0%" x2="0%" y2="100%">
      <stop offset="0%" stop-color="#5E6AD2" stop-opacity="0">
        <animate attributeName="stop-opacity" values="0;0.08;0" dur="12s" repeatCount="indefinite"/>
      </stop>
      <stop offset="50%" stop-color="#4CC9FE" stop-opacity="0.05"/>
      <stop offset="100%" stop-color="#0F0A1E" stop-opacity="0"/>
    </linearGradient>
    <radialGradient id="nodeGrad" cx="50%" cy="50%" r="50%">
      <stop offset="0%" stop-color="#4CC9FE" stop-opacity="1"/>
      <stop offset="55%" stop-color="#5E6AD2" stop-opacity="0.7"/>
      <stop offset="100%" stop-color="#5E6AD2" stop-opacity="0"/>
    </radialGradient>
    <linearGradient id="lineGrad" x1="0%" y1="0%" x2="100%" y2="100%">
      <stop offset="0%" stop-color="#5E6AD2" stop-opacity="0.85"/>
      <stop offset="50%" stop-color="#4CC9FE" stop-opacity="0.65"/>
      <stop offset="100%" stop-color="#B8B8CC" stop-opacity="0.55"/>
    </linearGradient>
    <filter id="blur30" x="-50%" y="-50%" width="200%" height="200%">
      <feGaussianBlur stdDeviation="30"/>
    </filter>
    <filter id="blur60" x="-50%" y="-50%" width="200%" height="200%">
      <feGaussianBlur stdDeviation="60"/>
    </filter>
    <filter id="blur90" x="-50%" y="-50%" width="200%" height="200%">
      <feGaussianBlur stdDeviation="90"/>
    </filter>
    <filter id="blur120" x="-50%" y="-50%" width="200%" height="200%">
      <feGaussianBlur stdDeviation="120"/>
    </filter>
    <filter id="grain">
      <feTurbulence type="fractalNoise" baseFrequency="0.85" numOctaves="3" stitchTiles="stitch"/>
      <feColorMatrix type="saturate" values="0"/>
      <feComponentTransfer>
        <feFuncA type="linear" slope="0.06"/>
      </feComponentTransfer>
    </filter>
  </defs>
  <rect width="1600" height="900" fill="#0F0A1E"/>
  <rect width="1600" height="900" fill="url(#coreGlow)"/>
  <rect width="1600" height="900" filter="url(#grain)" opacity="0.35"/>
  <ellipse cx="800" cy="420" rx="700" ry="380" fill="#5E6AD2" opacity="0.12" filter="url(#blur120)">
    <animate attributeName="opacity" values="0.12;0.20;0.12" dur="10s" repeatCount="indefinite"/>
  </ellipse>
  <ellipse cx="800" cy="420" rx="480" ry="260" fill="#4CC9FE" opacity="0.08" filter="url(#blur90)">
    <animate attributeName="opacity" values="0.08;0.15;0.08" dur="7s" repeatCount="indefinite"/>
  </ellipse>
  <g opacity="0.35">
    <path d="M-100 580 L1700 580" stroke="url(#lineGrad)" stroke-width="1" fill="none" filter="url(#blur60)">
      <animate attributeName="opacity" values="0.35;0.55;0.35" dur="9s" repeatCount="indefinite"/>
    </path>
    <path d="M-100 620 L1700 620" stroke="url(#lineGrad)" stroke-width="0.8" fill="none" filter="url(#blur60)">
      <animate attributeName="opacity" values="0.30;0.50;0.30" dur="11s" repeatCount="indefinite"/>
    </path>
    <path d="M-100 660 L1700 660" stroke="#5E6AD2" stroke-width="0.6" fill="none" opacity="0.25" filter="url(#blur60)"/>
  </g>
  <g transform="translate(800 520) scale(1 0.45)">
    <g opacity="0.18">
      <circle cx="0" cy="0" r="280" stroke="#5E6AD2" stroke-width="1.5" fill="none" filter="url(#blur30)">
        <animate attributeName="r" values="280;320;280" dur="14s" repeatCount="indefinite"/>
        <animate attributeName="opacity" values="0.18;0.30;0.18" dur="14s" repeatCount="indefinite"/>
      </circle>
      <circle cx="0" cy="0" r="420" stroke="#4CC9FE" stroke-width="1" fill="none" filter="url(#blur30)">
        <animate attributeName="r" values="420;460;420" dur="16s" repeatCount="indefinite"/>
      </circle>
      <circle cx="0" cy="0" r="560" stroke="#B8B8CC" stroke-width="0.8" fill="none" filter="url(#blur30)">
        <animate attributeName="r" values="560;600;560" dur="18s" repeatCount="indefinite"/>
      </circle>
    </g>
  </g>
  <g opacity="0.55">
    <path d="M200 760 L400 360 L600 760" stroke="#5E6AD2" stroke-width="0.6" fill="none" opacity="0.25"/>
    <path d="M1000 760 L1200 360 L1400 760" stroke="#5E6AD2" stroke-width="0.6" fill="none" opacity="0.25"/>
    <path d="M500 760 L800 260 L1100 760" stroke="#4CC9FE" stroke-width="0.7" fill="none" opacity="0.30"/>
    <path d="M300 760 L800 160 L1300 760" stroke="#B8B8CC" stroke-width="0.5" fill="none" opacity="0.20"/>
  </g>
  <g id="farGrid" opacity="0.22" filter="url(#blur30)">
    <path d="M520 400h560M560 430h480M600 460h400M640 490h320M680 520h240M720 550h160" stroke="#5E6AD2" stroke-width="1" fill="none" stroke-linecap="round">
      <animate attributeName="stroke-dasharray" values="0 1200;1200 0" dur="4s" repeatCount="indefinite"/>
    </path>
    <path d="M800 340v260M760 360v220M840 360v220M720 380v180M880 380v180M680 400v140M920 400v140" stroke="#4CC9FE" stroke-width="0.8" fill="none" stroke-linecap="round">
      <animate attributeName="stroke-dasharray" values="0 1200;1200 0" dur="5s" repeatCount="indefinite"/>
    </path>
  </g>
  <g id="midGrid" opacity="0.70">
    <path d="M100 760 L300 420 L500 760 M300 420 L500 80 M500 760 L700 420 L900 760 M700 420 L900 80 M900 760 L1100 420 L1300 760 M1100 420 L1300 80 M1300 760 L1500 420 L1700 760" stroke="url(#lineGrad)" stroke-width="1.2" fill="none" stroke-linecap="round">
      <animate attributeName="stroke-dasharray" values="0 2400;2400 0" dur="6s" repeatCount="indefinite"/>
      <animateTransform attributeName="transform" type="translate" values="0 0;0 -12;0 0" dur="12s" repeatCount="indefinite"/>
    </path>
    <path d="M-60 600 L300 420 L660 600 M300 420 L660 240 M660 600 L1100 420 L1540 600 M1100 420 L1540 240 M1540 600 L1900 420 L2260 600" stroke="url(#lineGrad)" stroke-width="0.9" fill="none" stroke-linecap="round" opacity="0.65">
      <animate attributeName="stroke-dasharray" values="0 2400;2400 0" dur="7s" repeatCount="indefinite"/>
      <animateTransform attributeName="transform" type="translate" values="0 0;0 10;0 0" dur="14s" repeatCount="indefinite"/>
    </path>
    <path d="M220 760 L300 420 L380 760 M620 760 L700 420 L780 760 M1020 760 L1100 420 L1180 760 M1420 760 L1500 420 L1580 760" stroke="#B8B8CC" stroke-width="0.7" fill="none" stroke-linecap="round" opacity="0.45">
      <animate attributeName="stroke-dasharray" values="0 1200;1200 0" dur="5.5s" repeatCount="indefinite"/>
    </path>
  </g>
  <g id="nearGrid" opacity="0.85">
    <path d="M-200 900 L200 500 L600 900 M200 500 L600 100 M600 900 L1000 500 L1400 900 M1000 500 L1400 100 M1400 900 L1800 500 L2200 900" stroke="#5E6AD2" stroke-width="1.4" fill="none" stroke-linecap="round" opacity="0.75">
      <animate attributeName="stroke-dasharray" values="0 3200;3200 0" dur="8s" repeatCount="indefinite"/>
      <animateTransform attributeName="transform" type="translate" values="0 0;0 -20;0 0" dur="16s" repeatCount="indefinite"/>
    </path>
    <path d="M-200 700 L200 500 L600 700 M600 700 L1000 500 L1400 700 M1400 700 L1800 500 L2200 700" stroke="#4CC9FE" stroke-width="1.1" fill="none" stroke-linecap="round" opacity="0.55">
      <animate attributeName="stroke-dasharray" values="0 3200;3200 0" dur="9s" repeatCount="indefinite"/>
    </path>
    <path d="M-200 820 L200 500 L600 820 M600 820 L1000 500 L1400 820 M1400 820 L1800 500 L2200 820" stroke="#B8B8CC" stroke-width="0.8" fill="none" stroke-linecap="round" opacity="0.35">
      <animate attributeName="stroke-dasharray" values="0 3200;3200 0" dur="10s" repeatCount="indefinite"/>
    </path>
  </g>
  <g id="verticalDataLines" opacity="0.50">
    <path d="M300 420 L300 160" stroke="#5E6AD2" stroke-width="1" fill="none" stroke-linecap="round">
      <animate attributeName="stroke-dasharray" values="0 300;300 0" dur="3s" repeatCount="indefinite"/>
      <animate attributeName="opacity" values="0.5;0.9;0.5" dur="4s" repeatCount="indefinite"/>
    </path>
    <path d="M700 420 L700 160" stroke="#4CC9FE" stroke-width="1" fill="none" stroke-linecap="round">
      <animate attributeName="stroke-dasharray" values="0 300;300 0" dur="3.5s" repeatCount="indefinite"/>
      <animate attributeName="opacity" values="0.5;0.85;0.5" dur="5s" repeatCount="indefinite"/>
    </path>
    <path d="M1100 420 L1100 160" stroke="#5E6AD2" stroke-width="1" fill="none" stroke-linecap="round">
      <animate attributeName="stroke-dasharray" values="0 300;300 0" dur="4s" repeatCount="indefinite"/>
      <animate attributeName="opacity" values="0.5;0.9;0.5" dur="6s" repeatCount="indefinite"/>
    </path>
    <path d="M1500 420 L1500 160" stroke="#B8B8CC" stroke-width="0.8" fill="none" stroke-linecap="round">
      <animate attributeName="stroke-dasharray" values="0 300;300 0" dur="4.5s" repeatCount="indefinite"/>
    </path>
    <path d="M500 760 L500 900" stroke="#4CC9FE" stroke-width="0.8" fill="none" stroke-linecap="round">
      <animate attributeName="stroke-dasharray" values="0 200;200 0" dur="3.2s" repeatCount="indefinite"/>
    </path>
    <path d="M900 760 L900 900" stroke="#5E6AD2" stroke-width="0.8" fill="none" stroke-linecap="round">
      <animate attributeName="stroke-dasharray" values="0 200;200 0" dur="3.8s" repeatCount="indefinite"/>
    </path>
    <path d="M1300 760 L1300 900" stroke="#B8B8CC" stroke-width="0.7" fill="none" stroke-linecap="round">
      <animate attributeName="stroke-dasharray" values="0 200;200 0" dur="4.2s" repeatCount="indefinite"/>
    </path>
  </g>
  <g id="nodes">
    <circle cx="300" cy="420" r="5" fill="url(#nodeGrad)" filter="url(#blur30)">
      <animate attributeName="r" values="5;10;5" dur="3s" repeatCount="indefinite"/>
      <animate attributeName="opacity" values="0.8;1;0.8" dur="3s" repeatCount="indefinite"/>
    </circle>
    <circle cx="300" cy="420" r="2.5" fill="#4CC9FE"/>
    <circle cx="700" cy="420" r="6" fill="url(#nodeGrad)" filter="url(#blur30)">
      <animate attributeName="r" values="6;12;6" dur="3.5s" repeatCount="indefinite"/>
      <animate attributeName="opacity" values="0.7;1;0.7" dur="3.5s" repeatCount="indefinite"/>
    </circle>
    <circle cx="700" cy="420" r="3" fill="#4CC9FE"/>
    <circle cx="1100" cy="420" r="5" fill="url(#nodeGrad)" filter="url(#blur30)">
      <animate attributeName="r" values="5;9;5" dur="4s" repeatCount="indefinite"/>
      <animate attributeName="opacity" values="0.8;1;0.8" dur="4s" repeatCount="indefinite"/>
    </circle>
    <circle cx="1100" cy="420" r="2.5" fill="#4CC9FE"/>
    <circle cx="1500" cy="420" r="4.5" fill="url(#nodeGrad)" filter="url(#blur30)">
      <animate attributeName="r" values="4.5;8;4.5" dur="3.2s" repeatCount="indefinite"/>
    </circle>
    <circle cx="1500" cy="420" r="2" fill="#B8B8CC"/>
    <circle cx="500" cy="760" r="5.5" fill="url(#nodeGrad)" filter="url(#blur30)">
      <animate attributeName="r" values="5.5;10;5.5" dur="3.8s" repeatCount="indefinite"/>
    </circle>
    <circle cx="500" cy="760" r="2.8" fill="#5E6AD2"/>
    <circle cx="900" cy="760" r="6.5" fill="url(#nodeGrad)" filter="url(#blur30)">
      <animate attributeName="r" values="6.5;12;6.5" dur="4.2s" repeatCount="indefinite"/>
      <animate attributeName="opacity" values="0.7;1;0.7" dur="4.2s" repeatCount="indefinite"/>
    </circle>
    <circle cx="900" cy="760" r="3.2" fill="#5E6AD2"/>
    <circle cx="1300" cy="760" r="5" fill="url(#nodeGrad)" filter="url(#blur30)">
      <animate attributeName="r" values="5;9;5" dur="3.6s" repeatCount="indefinite"/>
    </circle>
    <circle cx="1300" cy="760" r="2.5" fill="#B8B8CC"/>
    <circle cx="800" cy="260" r="4" fill="url(#nodeGrad)" filter="url(#blur30)">
      <animate attributeName="r" values="4;7;4" dur="3s" repeatCount="indefinite"/>
    </circle>
    <circle cx="800" cy="260" r="2" fill="#4CC9FE"/>
    <circle cx="200" cy="500" r="3.5" fill="url(#nodeGrad)" filter="url(#blur30)">
      <animate attributeName="r" values="3.5;6;3.5" dur="2.8s" repeatCount="indefinite"/>
    </circle>
    <circle cx="200" cy="500" r="1.8" fill="#5E6AD2"/>
    <circle cx="1400" cy="500" r="3.5" fill="url(#nodeGrad)" filter="url(#blur30)">
      <animate attributeName="r" values="3.5;6;3.5" dur="3.3s" repeatCount="indefinite"/>
    </circle>
    <circle cx="1400" cy="500" r="1.8" fill="#5E6AD2"/>
  </g>
  <g id="smallNodes" opacity="0.55">
    <circle cx="500" cy="580" r="2" fill="#4CC9FE">
      <animate attributeName="opacity" values="0.4;1;0.4" dur="2.5s" repeatCount="indefinite"/>
    </circle>
    <circle cx="600" cy="640" r="1.6" fill="#5E6AD2">
      <animate attributeName="opacity" values="0.4;1;0.4" dur="3s" repeatCount="indefinite"/>
    </circle>
    <circle cx="800" cy="580" r="2.2" fill="#4CC9FE">
      <animate attributeName="opacity" values="0.4;1;0.4" dur="2.2s" repeatCount="indefinite"/>
    </circle>
    <circle cx="1000" cy="640" r="1.8" fill="#5E6AD2">
      <animate attributeName="opacity" values="0.4;1;0.4" dur="2.7s" repeatCount="indefinite"/>
    </circle>
    <circle cx="1200" cy="580" r="2" fill="#4CC9FE">
      <animate attributeName="opacity" values="0.4;1;0.4" dur="2.4s" repeatCount="indefinite"/>
    </circle>
  </g>
  <g id="particles" opacity="0.6">
    <circle cx="260" cy="360" r="1.2" fill="#4CC9FE">
      <animateTransform attributeName="transform" type="translate" values="0 0;20 -40;0 0" dur="6s" repeatCount="indefinite"/>
      <animate attributeName="opacity" values="0.3;0.9;0.3" dur="6s" repeatCount="indefinite"/>
    </circle>
    <circle cx="560" cy="320" r="1" fill="#5E6AD2">
      <animateTransform attributeName="transform" type="translate" values="0 0;-15 -35;0 0" dur="7s" repeatCount="indefinite"/>
      <animate attributeName="opacity" values="0.3;0.9;0.3" dur="7s" repeatCount="indefinite"/>
    </circle>
    <circle cx="860" cy="300" r="1.3" fill="#4CC9FE">
      <animateTransform attributeName="transform" type="translate" values="0 0;10 -45;0 0" dur="5s" repeatCount="indefinite"/>
      <animate attributeName="opacity" values="0.3;0.9;0.3" dur="5s" repeatCount="indefinite"/>
    </circle>
    <circle cx="1160" cy="330" r="1.1" fill="#5E6AD2">
      <animateTransform attributeName="transform" type="translate" values="0 0;-20 -30;0 0" dur="6.5s" repeatCount="indefinite"/>
      <animate attributeName="opacity" values="0.3;0.9;0.3" dur="6.5s" repeatCount="indefinite"/>
    </circle>
    <circle cx="1460" cy="370" r="1.2" fill="#4CC9FE">
      <animateTransform attributeName="transform" type="translate" values="0 0;15 -40;0 0" dur="5.5s" repeatCount="indefinite"/>
      <animate attributeName="opacity" values="0.3;0.9;0.3" dur="5.5s" repeatCount="indefinite"/>
    </circle>
  </g>
  <g id="hexOutlines" opacity="0.18" stroke="#5E6AD2" stroke-width="0.6" fill="none">
    <path d="M300 420l30 17.3v34.6l-30 17.3-30-17.3v-34.6z">
      <animateTransform attributeName="transform" type="scale" values="1;1.15;1" dur="8s" repeatCount="indefinite"/>
      <animate attributeName="opacity" values="0.18;0.35;0.18" dur="8s" repeatCount="indefinite"/>
    </path>
    <path d="M1100 420l24 13.9v27.7l-24 13.9-24-13.9v-27.7z">
      <animateTransform attributeName="transform" type="scale" values="1;1.2;1" dur="9s" repeatCount="indefinite"/>
      <animate attributeName="opacity" values="0.18;0.30;0.18" dur="9s" repeatCount="indefinite"/>
    </path>
  </g>
  <rect width="1600" height="900" fill="url(#horizonGrad)" opacity="0.35" pointer-events="none"/>
  <g opacity="0.25" filter="url(#blur30)">
    <path d="M0 780 Q400 720 800 780 T1600 780" stroke="#4CC9FE" stroke-width="2" fill="none">
      <animate attributeName="d" values="M0 780 Q400 720 800 780 T1600 780;M0 780 Q400 840 800 780 T1600 780;M0 780 Q400 720 800 780 T1600 780" dur="12s" repeatCount="indefinite"/>
    </path>
  </g>
</svg>