<?xml version="1.0" encoding="UTF-8"?>
<svg xmlns="http://www.w3.org/2000/svg" viewBox="0 0 1600 900" preserveAspectRatio="xMidYMid slice">
<defs>
<radialGradient id="sunGrad" cx="0.8" cy="0.55" r="0.5" fx="0.75" fy="0.5">
<stop offset="0%" stop-color="#FF9F73" stop-opacity="1">
<animate attributeName="stop-color" values="#FF9F73;#FFC8A5;#FF9F73" dur="18s" repeatCount="indefinite"/>
</stop>
<stop offset="30%" stop-color="#E54B9C" stop-opacity="0.8">
<animate attributeName="stop-color" values="#E54B9C;#FF6FAA;#E54B9C" dur="18s" repeatCount="indefinite"/>
</stop>
<stop offset="70%" stop-color="#6B4FBB" stop-opacity="0.4"/>
<stop offset="100%" stop-color="#1A1A2E" stop-opacity="0"/>
</radialGradient>

<linearGradient id="skyGrad" x1="0" y1="0" x2="0" y2="1">
<stop offset="0%" stop-color="#1A1A2E">
<animate attributeName="stop-color" values="#1A1A2E;#2A1A40;#1A1A2E" dur="25s" repeatCount="indefinite"/>
</stop>
<stop offset="35%" stop-color="#6B4FBB">
<animate attributeName="stop-color" values="#6B4FBB;#8050C0;#6B4FBB" dur="25s" repeatCount="indefinite"/>
</stop>
<stop offset="65%" stop-color="#E54B9C">
<animate attributeName="stop-color" values="#E54B9C;#FF5A9C;#E54B9C" dur="25s" repeatCount="indefinite"/>
</stop>
<stop offset="100%" stop-color="#FF9F73">
<animate attributeName="stop-color" values="#FF9F73;#FFBF90;#FF9F73" dur="25s" repeatCount="indefinite"/>
</stop>
</linearGradient>

<linearGradient id="hillGrad" x1="0" y1="0" x2="0" y2="1">
<stop offset="0%" stop-color="#1A1A2E" stop-opacity="0.9"/>
<stop offset="100%" stop-color="#1A1A2E" stop-opacity="1"/>
</linearGradient>

<filter id="b20"><feGaussianBlur stdDeviation="20"/></filter>
<filter id="b60"><feGaussianBlur stdDeviation="60"/></filter>
<filter id="b90"><feGaussianBlur stdDeviation="90"/></filter>
<filter id="b120"><feGaussianBlur stdDeviation="120"/></filter>

<g id="particle">
<circle cx="0" cy="0" r="1.5" fill="#FF9F73" opacity="0.6"/>
</g>

<path id="cloakPath" d="M 0,0 C -15,-5 -35,10 -45,35 C -55,65 -50,100 -55,140 C -60,180 -65,230 -70,300 C -65,340 -50,375 -30,400 C -10,420 10,425 25,420 C 45,415 60,400 70,380 C 75,360 75,340 80,310 C 85,250 90,200 85,150 C 80,100 65,60 50,30 C 40,10 20,-5 0,0 Z"/>
</defs>

<rect width="100%" height="100%" fill="url(#skyGrad)"/>

<circle cx="1150" cy="450" r="350" fill="url(#sunGrad)" filter="url(#b120)">
<animate attributeName="r" values="350;370;350" dur="20s" repeatCount="indefinite"/>
</circle>

<circle cx="1150" cy="450" r="180" fill="#FF9F73" opacity="0.15" filter="url(#b90)">
<animate attributeName="opacity" values="0.15;0.25;0.15" dur="14s" repeatCount="indefinite"/>
</circle>

<path d="M 0,500 Q 200,450 400,520 T 900,480 T 1600,550 L 1600,900 L 0,900 Z" fill="#6B4FBB" opacity="0.15" filter="url(#b120)">
<animate attributeName="d" values="M 0,500 Q 200,450 400,520 T 900,480 T 1600,550 L 1600,900 L 0,900 Z;M 0,510 Q 200,460 400,510 T 900,490 T 1600,540 L 1600,900 L 0,900 Z;M 0,500 Q 200,450 400,520 T 900,480 T 1600,550 L 1600,900 L 0,900 Z" dur="22s" repeatCount="indefinite"/>
</path>

<path d="M 0,550 Q 300,480 600,560 T 1200,520 T 1600,600 L 1600,900 L 0,900 Z" fill="#E54B9C" opacity="0.1" filter="url(#b90)">
<animate attributeName="d" values="M 0,550 Q 300,480 600,560 T 1200,520 T 1600,600 L 1600,900 L 0,900 Z;M 0,560 Q 300,470 600,550 T 1200,530 T 1600,590 L 1600,900 L 0,900 Z;M 0,550 Q 300,480 600,560 T 1200,520 T 1600,600 L 1600,900 L 0,900 Z" dur="25s" repeatCount="indefinite"/>
</path>

<path d="M 0,600 Q 250,550 500,620 T 1000,580 T 1600,650 L 1600,900 L 0,900 Z" fill="#1A1A2E" opacity="0.25" filter="url(#b60)">
<animate attributeName="d" values="M 0,600 Q 250,550 500,620 T 1000,580 T 1600,650 L 1600,900 L 0,900 Z;M 0,610 Q 250,540 500,610 T 1000,590 T 1600,640 L 1600,900 L 0,900 Z;M 0,600 Q 250,550 500,620 T 1000,580 T 1600,650 L 1600,900 L 0,900 Z" dur="28s" repeatCount="indefinite"/>
</path>

<path d="M 0,650 Q 200,620 400,680 T 800,640 T 1600,700 L 1600,900 L 0,900 Z" fill="#1A1A2E" opacity="0.5" filter="url(#b60)">
<animate attributeName="d" values="M 0,650 Q 200,620 400,680 T 800,640 T 1600,700 L 1600,900 L 0,900 Z;M 0,660 Q 200,610 400,670 T 800,650 T 1600,690 L 1600,900 L 0,900 Z;M 0,650 Q 200,620 400,680 T 800,640 T 1600,700 L 1600,900 L 0,900 Z" dur="30s" repeatCount="indefinite"/>
</path>

<path d="M 0,700 Q 150,680 300,720 T 700,690 T 1600,750 L 1600,900 L 0,900 Z" fill="url(#hillGrad)" filter="url(#b20)">
<animate attributeName="d" values="M 0,700 Q 150,680 300,720 T 700,690 T 1600,750 L 1600,900 L 0,900 Z;M 0,710 Q 150,670 300,710 T 700,700 T 1600,740 L 1600,900 L 0,900 Z;M 0,700 Q 150,680 300,720 T 700,690 T 1600,750 L 1600,900 L 0,900 Z" dur="32s" repeatCount="indefinite"/>
</path>

<path d="M 0,750 Q 100,730 250,770 T 600,740 T 1600,800 L 1600,900 L 0,900 Z" fill="#1A1A2E" opacity="0.9"/>

<g transform="translate(1050, 420)">
<animateTransform attributeName="transform" type="translate" values="1050,420; 1048,422; 1050,420" dur="10s" repeatCount="indefinite" additive="replace"/>

<use href="#cloakPath" fill="#1A1A2E" transform="translate(0,10)">
<animateTransform attributeName="transform" type="rotate" values="0; 1.5; 0; -1; 0" dur="8s" repeatCount="indefinite" additive="sum"/>
</use>

<use href="#cloakPath" fill="#E54B9C" opacity="0.6" transform="translate(5,8)" filter="url(#b20)">
<animate attributeName="opacity" values="0.6;0.8;0.6" dur="6s" repeatCount="indefinite"/>
<animateTransform attributeName="transform" type="rotate" values="0; 2; 0; -1.5; 0" dur="7s" repeatCount="indefinite" additive="sum"/>
</use>

<path d="M 0,0 C -20,-15 -35,-30 -40,-55 C -42,-75 -35,-90 -20,-100 C -5,-108 15,-108 30,-100 C 45,-92 52,-75 50,-55 C 48,-35 35,-15 15,0 C 10,2 -5,2 0,0 Z" fill="#1A1A2E"/>
<path d="M 0,0 C -20,-15 -35,-30 -40,-55 C -42,-75 -35,-90 -20,-100 C -5,-108 15,-108 30,-100 C 45,-92 52,-75 50,-55 C 48,-35 35,-15 15,0 C 10,2 -5,2 0,0 Z" fill="#FF9F73" opacity="0.7" filter="url(#b20)">
<animate attributeName="opacity" values="0.7;0.9;0.7" dur="5s" repeatCount="indefinite"/>
</path>
</g>

<g>
<use href="#particle" x="200" y="300">
<animate attributeName="cy" values="300;280;300" dur="12s" repeatCount="indefinite"/>
<animate attributeName="cx" values="200;220;200" dur="15s" repeatCount="indefinite"/>
<animate attributeName="opacity" values="0.6;0;0.6" dur="12s" repeatCount="indefinite"/>
</use>
<use href="#particle" x="350" y="200">
<animate attributeName="cy" values="200;220;200" dur="14s" repeatCount="indefinite"/>
<animate attributeName="cx" values="350;330;350" dur="18s" repeatCount="indefinite"/>
<animate attributeName="opacity" values="0.6;0;0.6" dur="14s" repeatCount="indefinite"/>
</use>
<use href="#particle" x="500" y="400">
<animate attributeName="cy" values="400;380;400" dur="16s" repeatCount="indefinite"/>
<animate attributeName="cx" values="500;520;500" dur="20s" repeatCount="indefinite"/>
<animate attributeName="opacity" values="0.6;0;0.6" dur="16s" repeatCount="indefinite"/>
</use>
<use href="#particle" x="150" y="500">
<animate attributeName="cy" values="500;480;500" dur="13s" repeatCount="indefinite"/>
<animate attributeName="cx" values="150;170;150" dur="17s" repeatCount="indefinite"/>
<animate attributeName="opacity" values="0.6;0;0.6" dur="13s" repeatCount="indefinite"/>
</use>
<use href="#particle" x="600" y="150">
<animate attributeName="cy" values="150;170;150" dur="11s" repeatCount="indefinite"/>
<animate attributeName="cx" values="600;580;600" dur="19s" repeatCount="indefinite"/>
<animate attributeName="opacity" values="0.6;0;0.6" dur="11s" repeatCount="indefinite"/>
</use>
<use href="#particle" x="250" y="600">
<animate attributeName="cy" values="600;580;600" dur="15s" repeatCount="indefinite"/>
<animate attributeName="cx" values="250;270;250" dur="21s" repeatCount="indefinite"/>
<animate attributeName="opacity" values="0.6;0;0.6" dur="15s" repeatCount="indefinite"/>
</use>
<use href="#particle" x="450" y="350">
<animate attributeName="cy" values="350;330;350" dur="17s" repeatCount="indefinite"/>
<animate attributeName="cx" values="450;470;450" dur="23s" repeatCount="indefinite"/>
<animate attributeName="opacity" values="0.6;0;0.6" dur="17s" repeatCount="indefinite"/>
</use>
<use href="#particle" x="100" y="250">
<animate attributeName="cy" values="250;270;250" dur="14s" repeatCount="indefinite"/>
<animate attributeName="cx" values="100;120;100" dur="16s" repeatCount="indefinite"/>
<animate attributeName="opacity" values="0.6;0;0.6" dur="14s" repeatCount="indefinite"/>
</use>
<use href="#particle" x="700" y="280">
<animate attributeName="cy" values="280;300;280" dur="12s" repeatCount="indefinite"/>
<animate attributeName="cx" values="700;680;700" dur="18s" repeatCount="indefinite"/>
<animate attributeName="opacity" values="0.6;0;0.6" dur="12s" repeatCount="indefinite"/>
</use>
<use href="#particle" x="300" y="450">
<animate attributeName="cy" values="450;470;450" dur="19s" repeatCount="indefinite"/>
<animate attributeName="cx" values="300;320;300" dur="24s" repeatCount="indefinite"/>
<animate attributeName="opacity" values="0.6;0;0.6" dur="19s" repeatCount="indefinite"/>
</use>
<use href="#particle" x="550" y="500">
<animate attributeName="cy" values="500;520;500" dur="15s" repeatCount="indefinite"/>
<animate attributeName="cx" values="550;530;550" dur="20s" repeatCount="indefinite"/>
<animate attributeName="opacity" values="0.6;0;0.6" dur="15s" repeatCount="indefinite"/>
</use>
<use href="#particle" x="400" y="100">
<animate attributeName="cy" values="100;120;100" dur="10s" repeatCount="indefinite"/>
<animate attributeName="cx" values="400;420;400" dur="14s" repeatCount="indefinite"/>
<animate attributeName="opacity" values="0.6;0;0.6" dur="10s" repeatCount="indefinite"/>
</use>
<use href="#particle" x="50" y="400">
<animate attributeName="cy" values="400;380;400" dur="16s" repeatCount="indefinite"/>
<animate attributeName="cx" values="50;70;50" dur="22s" repeatCount="indefinite"/>
<animate attributeName="opacity" values="0.6;0;0.6" dur="16s" repeatCount="indefinite"/>
</use>
<use href="#particle" x="650" y="380">
<animate attributeName="cy" values="380;400;380" dur="13s" repeatCount="indefinite"/>
<animate attributeName="cx" values="650;630;650" dur="17s" repeatCount="indefinite"/>
<animate attributeName="opacity" values="0.6;0;0.6" dur="13s" repeatCount="indefinite"/>
</use>
<use href="#particle" x="800" y="200">
<animate attributeName="cy" values="200;220;200" dur="11s" repeatCount="indefinite"/>
<animate attributeName="cx" values="800;820;800" dur="15s" repeatCount="indefinite"/>
<animate attributeName="opacity" values="0.6;0;0.6" dur="11s" repeatCount="indefinite"/>
</use>
</g>

<g opacity="0.4">
<path d="M 1200,200 Q 1250,180 1300,220 T 1400,200" stroke="#FF9F73" stroke-width="2" fill="none" filter="url(#b20)">
<animate attributeName="d" values="M 1200,200 Q 1250,180 1300,220 T 1400,200;M 1200,210 Q 1250,190 1300,230 T 1400,210;M 1200,200 Q 1250,180 1300,220 T 1400,200" dur="20s" repeatCount="indefinite"/>
</path>
<path d="M 1250,250 Q 1300,230 1350,270 T 1450,250" stroke="#E54B9C" stroke-width="1.5" fill="none" filter="url(#b20)">
<animate attributeName="d" values="M 1250,250 Q 1300,230 1350,270 T 1450,250;M 1250,260 Q 1300,240 1350,280 T 1450,260;M 1250,250 Q 1300,230 1350,270 T 1450,250" dur="24s" repeatCount="indefinite"/>
</path>
</g>

<g opacity="0.3">
<circle cx="1150" cy="450" r="5" fill="#FF9F73" filter="url(#b20)">
<animate attributeName="r" values="5;7;5" dur="8s" repeatCount="indefinite"/>
<animate attributeName="opacity" values="0.3;0.6;0.3" dur="8s" repeatCount="indefinite"/>
</circle>
<circle cx="1150" cy="450" r="10" fill="#E54B9C" filter="url(#b60)">
<animate attributeName="r" values="10;15;10" dur="12s" repeatCount="indefinite"/>
<animate attributeName="opacity" values="0.2;0.4;0.2" dur="12s" repeatCount="indefinite"/>
</circle>
</g>

<rect width="100%" height="100%" fill="url(#skyGrad)" opacity="0.05" style="mix-blend-mode: overlay; pointer-events: none;">
<animate attributeName="opacity" values="0.05;0.1;0.05" dur="15s" repeatCount="indefinite"/>
</rect>
</svg>