<?xml version="1.0" encoding="UTF-8"?>
<svg xmlns="http://www.w3.org/2000/svg" viewBox="0 0 1600 900" preserveAspectRatio="xMidYMid slice">
  <defs>
    <linearGradient id="warmGrad" x1="0%" y1="0%" x2="0%" y2="100%">
      <stop offset="0%" stop-color="#F9EBD7"/>
      <stop offset="100%" stop-color="#F4B89A"/>
    </linearGradient>
    
    <filter id="blurHeavy" x="-50%" y="-50%" width="200%" height="200%">
      <feGaussianBlur in="SourceGraphic" stdDeviation="75"/>
    </filter>
    
    <filter id="blurModerate" x="-50%" y="-50%" width="200%" height="200%">
      <feGaussianBlur in="SourceGraphic" stdDeviation="30"/>
    </filter>
    
    <filter id="noise" x="0%" y="0%" width="100%" height="100%">
      <feTurbulence type="fractalNoise" baseFrequency="0.012" numOctaves="3" seed="1" result="noise"/>
      <feColorMatrix in="noise" type="matrix" values="1 0 0 0 0  0 1 0 0 0  0 0 1 0 0  0 0 0 0.06 0" result="coloredNoise"/>
      <feComposite in="coloredNoise" in2="SourceGraphic" operator="atop"/>
    </filter>
  </defs>

  <rect width="1600" height="900" fill="#F9EBD7"/>
  
  <ellipse cx="800" cy="450" rx="650" ry="420" fill="#F4B89A" opacity="0.9" filter="url(#blurHeavy)">
    <animate attributeName="rx" values="650;700;650" dur="7s" repeatCount="indefinite"/>
    <animate attributeName="ry" values="420;460;420" dur="7s" repeatCount="indefinite"/>
    <animate attributeName="opacity" values="0.9;0.85;0.9" dur="5s" repeatCount="indefinite"/>
  </ellipse>

  <ellipse cx="800" cy="450" rx="550" ry="340" fill="#E8A04F" opacity="0.75" filter="url(#blurModerate)">
    <animate attributeName="rx" values="550;580;550" dur="6s" repeatCount="indefinite"/>
    <animate attributeName="ry" values="340;370;340" dur="6s" repeatCount="indefinite"/>
  </ellipse>

  <rect width="1600" height="900" fill="transparent" filter="url(#noise)" opacity="0.05">
    <animate attributeName="opacity" values="0.05;0.09;0.05" dur="8s" repeatCount="indefinite"/>
  </rect>

  <path d="M 0,360 L 300,360 L 320,300 L 340,360 L 360,240 L 380,360 L 600,360 L 620,300 L 640,360 L 660,240 L 680,360 L 900,360 L 920,300 L 940,360 L 960,240 L 980,360 L 1200,360 L 1220,300 L 1240,360 L 1260,240 L 1280,360 L 1600,360" 
        fill="none" stroke="#D08770" stroke-width="14" stroke-linecap="round" stroke-linejoin="round" opacity="0.95">
    <animate attributeName="stroke-width" values="14;18;14" dur="1.4s" repeatCount="indefinite"/>
    <animate attributeName="d" 
             values="M 0,360 L 300,360 L 320,300 L 340,360 L 360,240 L 380,360 L 600,360 L 620,300 L 640,360 L 660,240 L 680,360 L 900,360 L 920,300 L 940,360 L 960,240 L 980,360 L 1200,360 L 1220,300 L 1240,360 L 1260,240 L 1280,360 L 1600,360;
                     M 0,360 L 300,360 L 320,280 L 340,360 L 360,220 L 380,360 L 600,360 L 620,280 L 640,360 L 660,220 L 680,360 L 900,360 L 920,280 L 940,360 L 960,220 L 980,360 L 1200,360 L 1220,280 L 1240,360 L 1260,220 L 1280,360 L 1600,360;
                     M 0,360 L 300,360 L 320,300 L 340,360 L 360,240 L 380,360 L 600,360 L 620,300 L 640,360 L 660,240 L 680,360 L 900,360 L 920,300 L 940,360 L 960,240 L 980,360 L 1200,360 L 1220,300 L 1240,360 L 1260,240 L 1280,360 L 1600,360" 
             dur="1.4s" repeatCount="indefinite"/>
  </path>

  <path d="M 0,360 L 300,360 L 320,300 L 340,360 L 360,240 L 380,360 L 600,360 L 620,300 L 640,360 L 660,240 L 680,360 L 900,360 L 920,300 L 940,360 L 960,240 L 980,360 L 1200,360 L 1220,300 L 1240,360 L 1260,240 L 1280,360 L 1600,360" 
        fill="none" stroke="#F4B89A" stroke-width="5" stroke-linecap="round" stroke-linejoin="round" opacity="0.9" filter="url(#blurModerate)">
    <animate attributeName="stroke-width" values="5;10;5" dur="1.4s" repeatCount="indefinite"/>
  </path>

  <g>
    <animateTransform attributeName="transform" type="translate" values="0,0; 0,-180; 0,0" keyTimes="0;0.6;1" dur="10s" repeatCount="indefinite" calcMode="spline" keySplines="0.4 0 0.2 1; 0.4 0 0.2 1"/>
    <path d="M 0,540 L 300,540 L 320,480 L 340,540 L 360,420 L 380,540 L 600,540 L 620,480 L 640,540 L 660,420 L 680,540 L 900,540 L 920,480 L 940,540 L 960,420 L 980,540 L 1200,540 L 1220,480 L 1240,540 L 1260,420 L 1280,540 L 1600,540" 
          fill="none" stroke="#E8A04F" stroke-width="14" stroke-linecap="round" stroke-linejoin="round" opacity="0.95">
      <animate attributeName="stroke-width" values="14;18;14" dur="1.4s" begin="0.2s" repeatCount="indefinite"/>
      <animate attributeName="d" 
               values="M 0,540 L 300,540 L 320,480 L 340,540 L 360,420 L 380,540 L 600,540 L 620,480 L 640,540 L 660,420 L 680,540 L 900,540 L 920,480 L 940,540 L 960,420 L 980,540 L 1200,540 L 1220,480 L 1240,540 L 1260,420 L 1280,540 L 1600,540;
                       M 0,540 L 300,540 L 320,460 L 340,540 L 360,400 L 380,540 L 600,540 L 620,460 L 640,540 L 660,400 L 680,540 L 900,540 L 920,460 L 940,540 L 960,400 L 980,540 L 1200,540 L 1220,460 L 1240,540 L 1260,400 L 1280,540 L 1600,540;
                       M 0,540 L 300,540 L 320,480 L 340,540 L 360,420 L 380,540 L 600,540 L 620,480 L 640,540 L 660,420 L 680,540 L 900,540 L 920,480 L 940,540 L 960,420 L 980,540 L 1200,540 L 1220,480 L 1240,540 L 1260,420 L 1280,540 L 1600,540" 
               dur="1.4s" begin="0.2s" repeatCount="indefinite"/>
    </path>
  </g>

  <circle cx="360" cy="360" r="25" fill="#5C2E1F" opacity="0.8" filter="url(#blurModerate)">
    <animate attributeName="r" values="25;40;25" dur="1.4s" repeatCount="indefinite"/>
    <animate attributeName="opacity" values="0.8;0.5;0.8" dur="1.4s" repeatCount="indefinite"/>
  </circle>
  
  <circle cx="660" cy="360" r="25" fill="#5C2E1F" opacity="0.8" filter="url(#blurModerate)">
    <animate attributeName="r" values="25;40;25" dur="1.4s" begin="0.35s" repeatCount="indefinite"/>
    <animate attributeName="opacity" values="0.8;0.5;0.8" dur="1.4s" begin="0.35s" repeatCount="indefinite"/>
  </circle>

  <circle cx="960" cy="360" r="25" fill="#5C2E1F" opacity="0.8" filter="url(#blurModerate)">
    <animate attributeName="r" values="25;40;25" dur="1.4s" begin="0.7s" repeatCount="indefinite"/>
    <animate attributeName="opacity" values="0.8;0.5;0.8" dur="1.4s" begin="0.7s" repeatCount="indefinite"/>
  </circle>

  <circle cx="1260" cy="360" r="25" fill="#5C2E1F" opacity="0.8" filter="url(#blurModerate)">
    <animate attributeName="r" values="25;40;25" dur="1.4s" begin="1.05s" repeatCount="indefinite"/>
    <animate attributeName="opacity" values="0.8;0.5;0.8" dur="1.4s" begin="1.05s" repeatCount="indefinite"/>
  </circle>

  <rect x="0" y="445" width="1600" height="25" fill="#D08770" opacity="0.5" filter="url(#blurHeavy)">
    <animate attributeName="opacity" values="0.5;0.7;0.5" dur="3s" repeatCount="indefinite"/>
  </rect>

  <path d="M 750,150 L 800,80 L 850,150" fill="none" stroke="#E8A04F" stroke-width="10" opacity="0.85" stroke-linecap="round" stroke-linejoin="round">
    <animate attributeName="stroke-width" values="10;14;10" dur="2s" repeatCount="indefinite"/>
    <animate attributeName="opacity" values="0.85;1;0.85" dur="2s" repeatCount="indefinite"/>
  </path>
</svg>