<?xml version="1.0" encoding="UTF-8"?>
<svg xmlns="http://www.w3.org/2000/svg" viewBox="0 0 1600 900" preserveAspectRatio="xMidYMid slice">
  <defs>
    <filter id="b" x="-50%" y="-50%" width="200%" height="200%">
      <feGaussianBlur stdDeviation="14"/>
    </filter>
    <filter id="g" x="-50%" y="-50%" width="200%" height="200%">
      <feGaussianBlur stdDeviation="6"/>
    </filter>
    <filter id="m" x="0" y="0" width="100%" height="100%">
      <feGaussianBlur stdDeviation="2.5"/>
    </filter>
  </defs>

  <rect width="1600" height="900" fill="#4CAF50"/>

  <g transform="translate(800,380)">
    <circle r="420" fill="#FFEB3B" fill-opacity="0.22" filter="url(#g)"/>
    <animateTransform attributeName="transform" type="scale" values="1;1.06;1" dur="10s" repeatCount="indefinite" calcMode="spline" keyTimes="0;0.5;1" keySplines="0.4 0 0.6 1;0.4 0 0.6 1" additive="sum"/>
  </g>

  <path d="M0,810 Q360,720 800,790 T1600,810 V900 H0 Z" fill="#8D6E63" fill-opacity="0.75"/>
  <path d="M0,850 Q520,780 1040,820 T1600,850 V900 H0 Z" fill="#8D6E63" fill-opacity="0.9"/>

  <g>
    <animateTransform attributeName="transform" type="rotate" values="0 800 900;1.5 800 900;0 800 900;-1 800 900;0 800 900" dur="5s" repeatCount="indefinite" calcMode="spline" keyTimes="0;0.25;0.5;0.75;1" keySplines="0.4 0 0.6 1;0.4 0 0.6 1;0.4 0 0.6 1;0.4 0 0.6 1"/>
    <path d="M30,900q-10,-40 0,-80q10,40 0,80z M80,900q-10,-50 0,-100q10,50 0,100z M130,900q-10,-35 0,-70q10,35 0,70z M180,900q-10,-55 0,-110q10,55 0,110z M230,900q-10,-45 0,-90q10,45 0,90z M280,900q-10,-60 0,-120q10,60 0,120z M330,900q-10,-40 0,-80q10,40 0,80z M380,900q-10,-50 0,-100q10,50 0,100z M430,900q-10,-65 0,-130q10,65 0,130z M480,900q-10,-45 0,-90q10,45 0,90z M530,900q-10,-55 0,-110q10,55 0,110z M580,900q-10,-40 0,-80q10,40 0,80z M630,900q-10,-50 0,-100q10,50 0,100z M680,900q-10,-60 0,-120q10,60 0,120z M730,900q-10,-45 0,-90q10,45 0,90z M780,900q-10,-55 0,-110q10,55 0,110z M830,900q-10,-40 0,-80q10,40 0,80z M880,900q-10,-50 0,-100q10,50 0,100z M930,900q-10,-65 0,-130q10,65 0,130z M980,900q-10,-45 0,-90q10,45 0,90z M1030,900q-10,-55 0,-110q10,55 0,110z M1080,900q-10,-40 0,-80q10,40 0,80z M1130,900q-10,-50 0,-100q10,50 0,100z M1180,900q-10,-60 0,-120q10,60 0,120z M1230,900q-10,-45 0,-90q10,45 0,90z M1280,900q-10,-55 0,-110q10,55 0,110z M1330,900q-10,-40 0,-80q10,40 0,80z M1380,900q-10,-50 0,-100q10,50 0,100z M1430,900q-10,-65 0,-130q10,65 0,130z M1480,900q-10,-45 0,-90q10,45 0,90z M1530,900q-10,-55 0,-110q10,55 0,110z M1580,900q-10,-40 0,-80q10,40 0,80z" fill="#4CAF50"/>
  </g>

  <ellipse cx="480" cy="830" rx="150" ry="32" fill="#8D6E63" fill-opacity="0.5" filter="url(#b)">
    <animate attributeName="rx" values="150;165;150" dur="6s" repeatCount="indefinite" calcMode="spline" keyTimes="0;0.5;1" keySplines="0.4 0 0.6 1;0.4 0 0.6 1"/>
  </ellipse>
  <g>
    <animateTransform attributeName="transform" type="rotate" values="0 480 830;2 480 830;0 480 830;-1.5 480 830;0 480 830" dur="6s" repeatCount="indefinite" calcMode="spline" keyTimes="0;0.25;0.5;0.75;1" keySplines="0.4 0 0.6 1;0.4 0 0.6 1;0.4 0 0.6 1;0.4 0 0.6 1"/>
    <path d="M480,830 Q470,560 480,260" stroke="#8D6E63" stroke-width="48" stroke-linecap="round" fill="none"/>
    <g transform="translate(480,260)">
      <animateTransform attributeName="transform" type="scale" values="1;1.05;1" dur="4s" repeatCount="indefinite" calcMode="spline" keyTimes="0;0.5;1" keySplines="0.4 0 0.6 1;0.4 0 0.6 1" additive="sum"/>
      <g fill="#F44336" fill-opacity="0.9">
        <ellipse rx="75" ry="170"/>
        <ellipse rx="75" ry="170" transform="rotate(60)"/>
        <ellipse rx="75" ry="170" transform="rotate(120)"/>
        <ellipse rx="75" ry="170" transform="rotate(180)"/>
        <ellipse rx="75" ry="170" transform="rotate(240)"/>
        <ellipse rx="75" ry="170" transform="rotate(300)"/>
      </g>
      <circle r="78" fill="#FFEB3B" fill-opacity="0.9"/>
      <circle r="36" fill="#F44336" fill-opacity="0.9">
        <animate attributeName="r" values="36;44;36" dur="3s" repeatCount="indefinite" calcMode="spline" keyTimes="0;0.5;1" keySplines="0.4 0 0.6 1;0.4 0 0.6 1"/>
      </circle>
    </g>
  </g>

  <ellipse cx="1150" cy="850" rx="120" ry="28" fill="#8D6E63" fill-opacity="0.5" filter="url(#b)">
    <animate attributeName="rx" values="120;132;120" dur="7s" repeatCount="indefinite" calcMode="spline" keyTimes="0;0.5;1" keySplines="0.4 0 0.6 1;0.4 0 0.6 1"/>
  </ellipse>
  <g>
    <animateTransform attributeName="transform" type="rotate" values="0 1150 850;-2 1150 850;0 1150 850;1.5 1150 850;0 1150 850" dur="7s" repeatCount="indefinite" calcMode="spline" keyTimes="0;0.25;0.5;0.75;1" keySplines="0.4 0 0.6 1;0.4 0 0.6 1;0.4 0 0.6 1;0.4 0 0.6 1"/>
    <path d="M1150,850 Q1160,610 1150,340" stroke="#8D6E63" stroke-width="40" stroke-linecap="round" fill="none"/>
    <g transform="translate(1150,340)">
      <animateTransform attributeName="transform" type="scale" values="1;1.06;1" dur="5s" repeatCount="indefinite" calcMode="spline" keyTimes="0;0.5;1" keySplines="0.4 0 0.6 1;0.4 0 0.6 1" additive="sum"/>
      <g fill="#FFEB3B" fill-opacity="0.9">
        <ellipse rx="65" ry="150"/>
        <ellipse rx="65" ry="150" transform="rotate(72)"/>
        <ellipse rx="65" ry="150" transform="rotate(144)"/>
        <ellipse rx="65" ry="150" transform="rotate(216)"/>
        <ellipse rx="65" ry="150" transform="rotate(288)"/>
      </g>
      <circle r="68" fill="#F44336" fill-opacity="0.9"/>
      <circle r="32" fill="#FFEB3B" fill-opacity="0.9">
        <animate attributeName="r" values="32;40;32" dur="3.5s" repeatCount="indefinite" calcMode="spline" keyTimes="0;0.5;1" keySplines="0.4 0 0.6 1;0.4 0 0.6 1"/>
      </circle>
    </g>
  </g>

  <ellipse cx="220" cy="830" rx="90" ry="22" fill="#8D6E63" fill-opacity="0.5" filter="url(#b)">
    <animate attributeName="rx" values="90;100;90" dur="8s" repeatCount="indefinite" calcMode="spline" keyTimes="0;0.5;1" keySplines="0.4 0 0.6 1;0.4 0 0.6 1"/>
  </ellipse>
  <g>
    <animateTransform attributeName="transform" type="rotate" values="0 220 830;1.5 220 830;0 220 830;-2 220 830;0 220 830" dur="8s" repeatCount="indefinite" calcMode="spline" keyTimes="0;0.25;0.5;0.75;1" keySplines="0.4 0 0.6 1;0.4 0 0.6 1;0.4 0 0.6 1;0.4 0 0.6 1"/>
    <path d="M220,830 Q210,660 220,500" stroke="#8D6E63" stroke-width="32" stroke-linecap="round" fill="none"/>
    <g transform="translate(220,500)">
      <animateTransform attributeName="transform" type="scale" values="1;1.07;1" dur="6s" repeatCount="indefinite" calcMode="spline" keyTimes="0;0.5;1" keySplines="0.4 0 0.6 1;0.4 0 0.6 1" additive="sum"/>
      <g fill="#F44336" fill-opacity="0.9">
        <ellipse rx="50" ry="110"/>
        <ellipse rx="50" ry="110" transform="rotate(60)"/>
        <ellipse rx="50" ry="110" transform="rotate(120)"/>
        <ellipse rx="50" ry="110" transform="rotate(180)"/>
        <ellipse rx="50" ry="110" transform="rotate(240)"/>
        <ellipse rx="50" ry="110" transform="rotate(300)"/>
      </g>
      <circle r="52" fill="#FFEB3B" fill-opacity="0.9"/>
      <circle r="24" fill="#F44336" fill-opacity="0.9">
        <animate attributeName="r" values="24;30;24" dur="4s" repeatCount="indefinite" calcMode="spline" keyTimes="0;0.5;1" keySplines="0.4 0 0.6 1;0.4 0 0.6 1"/>
      </circle>
    </g>
  </g>

  <ellipse cx="1320" cy="845" rx="55" ry="14" fill="#8D6E63" fill-opacity="0.5" filter="url(#b)">
    <animate attributeName="rx" values="55;60;55" dur="4s" repeatCount="indefinite" calcMode="spline" keyTimes="0;0.5;1" keySplines="0.4 0 0.6 1;0.4 0 0.6 1"/>
  </ellipse>
  <g transform="translate(1320,845)">
    <animateTransform attributeName="transform" type="scale" values="1,1;1,1.03;1,1" dur="4s" repeatCount="indefinite" calcMode="spline" keyTimes="0;0.5;1" keySplines="0.4 0 0.6 1;0.4 0 0.6 1" additive="sum"/>
    <ellipse cx="0" cy="10" rx="40" ry="48" fill="#8D6E63" fill-opacity="0.9"/>
    <ellipse cx="6" cy="-34" rx="26" ry="23" fill="#8D6E63" fill-opacity="0.9"/>
    <ellipse cx="-6" cy="-72" rx="10" ry="34" fill="#8D6E63" fill-opacity="0.9">
      <animateTransform attributeName="transform" type="rotate" values="-10 -6 -72;-4 -6 -72;-10 -6 -72" dur="3s" repeatCount="indefinite" calcMode="spline" keyTimes="0;0.5;1" keySplines="0.4 0 0.6 1;0.4 0 0.6 1"/>
    </ellipse>
    <ellipse cx="16" cy="-70" rx="9" ry="32" fill="#8D6E63" fill-opacity="0.9" transform="rotate(10 16 -70)"/>
    <circle cx="38" cy="28" r="13" fill="#8D6E63" fill-opacity="0.9"/>
  </g>

  <g fill="#FFEB3B" fill-opacity="0.9" filter="url(#g)">
    <circle r="9">
      <animateTransform attributeName="transform" type="translate" values="500,300;530,240;500,300" dur="6s" repeatCount="indefinite" calcMode="spline" keyTimes="0;0.5;1" keySplines="0.4 0 0.6 1;0.4 0 0.6 1"/>
    </circle>
    <circle r="7">
      <animateTransform attributeName="transform" type="translate" values="1150,360;1120,300;1150,360" dur="8s" repeatCount="indefinite" calcMode="spline" keyTimes="0;0.5;1" keySplines="0.4 0 0.6 1;0.4 0 0.6 1"/>
    </circle>
    <circle r="6">
      <animateTransform attributeName="transform" type="translate" values="220,500;250,440;220,500" dur="7s" repeatCount="indefinite" calcMode="spline" keyTimes="0;0.5;1" keySplines="0.4 0 0.6 1;0.4 0 0.6 1"/>
    </circle>
    <circle r="8">
      <animateTransform attributeName="transform" type="translate" values="800,250;840,200;800,250" dur="9s" repeatCount="indefinite" calcMode="spline" keyTimes="0;0.5;1" keySplines="0.4 0 0.6 1;0.4 0 0.6 1"/>
    </circle>
    <circle r="5">
      <animateTransform attributeName="transform" type="translate" values="650,400;620,340;650,400" dur="5s" repeatCount="indefinite" calcMode="spline" keyTimes="0;0.5;1" keySplines="0.4 0 0.6 1;0.4 0 0.6 1"/>
    </circle>
  </g>
</svg>