<svg xmlns="http://www.w3.org/2000/svg" viewBox="0 0 800 600">
  <defs>
    <filter id="g" x="-50%" y="-50%" width="200%" height="200%">
      <feGaussianBlur stdDeviation="2" result="b"/>
      <feMerge>
        <feMergeNode in="b"/>
        <feMergeNode in="SourceGraphic"/>
      </feMerge>
    </filter>
  </defs>

  <g filter="url(#g)">
    <g>
      <animateTransform attributeName="transform" type="translate" values="0,0; 0,-6; 0,0" dur="7s" repeatCount="indefinite" calcMode="spline" keySplines="0.4 0 0.2 1; 0.4 0 0.2 1"/>
      <path d="M260,250 Q330,235 400,245 L400,375 Q330,385 260,365 Z" fill="#E6E6FA" fill-opacity="0.08" stroke="#E6E6FA" stroke-width="1.5" stroke-linejoin="round"/>
      <path d="M540,250 Q470,235 400,245 L400,375 Q470,385 540,365 Z" fill="#E6E6FA" fill-opacity="0.08" stroke="#E6E6FA" stroke-width="1.5" stroke-linejoin="round"/>
      <line x1="280" y1="275" x2="385" y2="275" stroke="#FFF8E7" stroke-width="1" opacity="0.8"/>
      <line x1="275" y1="290" x2="390" y2="290" stroke="#FFF8E7" stroke-width="1" opacity="0.8"/>
      <line x1="285" y1="305" x2="380" y2="305" stroke="#FFF8E7" stroke-width="1" opacity="0.8"/>
      <line x1="278" y1="320" x2="388" y2="320" stroke="#FFF8E7" stroke-width="1" opacity="0.8"/>
      <line x1="282" y1="335" x2="385" y2="335" stroke="#FFF8E7" stroke-width="1" opacity="0.8"/>
      <line x1="415" y1="275" x2="520" y2="275" stroke="#FFF8E7" stroke-width="1" opacity="0.8"/>
      <line x1="410" y1="290" x2="525" y2="290" stroke="#FFF8E7" stroke-width="1" opacity="0.8"/>
      <line x1="420" y1="305" x2="515" y2="305" stroke="#FFF8E7" stroke-width="1" opacity="0.8"/>
      <line x1="412" y1="320" x2="522" y2="320" stroke="#FFF8E7" stroke-width="1" opacity="0.8"/>
      <line x1="415" y1="335" x2="518" y2="335" stroke="#FFF8E7" stroke-width="1" opacity="0.8"/>
    </g>
  </g>

  <g transform="translate(250,160)" filter="url(#g)">
    <g>
      <animateTransform attributeName="transform" type="translate" values="0,0; 0,-20; 0,0" dur="6s" repeatCount="indefinite" calcMode="spline" keySplines="0.4 0 0.2 1; 0.4 0 0.2 1"/>
      <animateTransform attributeName="transform" type="rotate" values="-6 0 0; 8 0 0; -6 0 0" dur="8s" repeatCount="indefinite" additive="sum" calcMode="spline" keySplines="0.4 0 0.2 1; 0.4 0 0.2 1"/>
      <path d="M-18,-28 L18,-28 L18,28 L-18,28 Z" fill="none" stroke="#F4C2C2" stroke-width="1" stroke-linejoin="round"/>
      <line x1="-12" y1="-15" x2="12" y2="-15" stroke="#F4C2C2" stroke-width="0.75" opacity="0.6"/>
      <line x1="-12" y1="-5" x2="12" y2="-5" stroke="#F4C2C2" stroke-width="0.75" opacity="0.6"/>
      <line x1="-12" y1="5" x2="12" y2="5" stroke="#F4C2C2" stroke-width="0.75" opacity="0.6"/>
      <line x1="-12" y1="15" x2="12" y2="15" stroke="#F4C2C2" stroke-width="0.75" opacity="0.6"/>
    </g>
  </g>

  <g transform="translate(560,170)" filter="url(#g)">
    <g>
      <animateTransform attributeName="transform" type="translate" values="0,0; 0,15; 0,0" dur="7s" repeatCount="indefinite" calcMode="spline" keySplines="0.4 0 0.2 1; 0.4 0 0.2 1"/>
      <animateTransform attributeName="transform" type="rotate" values="5 0 0; -7 0 0; 5 0 0" dur="9s" repeatCount="indefinite" additive="sum" calcMode="spline" keySplines="0.4 0 0.2 1; 0.4 0 0.2 1"/>
      <path d="M-15,-22 L15,-22 L15,8 L5,8 L5,22 L-15,22 Z" fill="none" stroke="#E6E6FA" stroke-width="1" stroke-linejoin="round"/>
      <line x1="-10" y1="-10" x2="10" y2="-10" stroke="#E6E6FA" stroke-width="0.75" opacity="0.6"/>
      <line x1="-10" y1="0" x2="10" y2="0" stroke="#E6E6FA" stroke-width="0.75" opacity="0.6"/>
      <line x1="-10" y1="10" x2="10" y2="10" stroke="#E6E6FA" stroke-width="0.75" opacity="0.6"/>
    </g>
  </g>

  <g transform="translate(180,320)" filter="url(#g)">
    <g>
      <animateTransform attributeName="transform" type="translate" values="0,0; -10,0; 0,0" dur="8s" repeatCount="indefinite" calcMode="spline" keySplines="0.4 0 0.2 1; 0.4 0 0.2 1"/>
      <animateTransform attributeName="transform" type="rotate" values="3 0 0; -5 0 0; 3 0 0" dur="6s" repeatCount="indefinite" additive="sum" calcMode="spline" keySplines="0.4 0 0.2 1; 0.4 0 0.2 1"/>
      <path d="M-20,-32 L20,-32 L20,32 L-20,32 Z" fill="none" stroke="#FFDAB9" stroke-width="1" stroke-linejoin="round"/>
      <line x1="-14" y1="-18" x2="14" y2="-18" stroke="#FFDAB9" stroke-width="0.75" opacity="0.6"/>
      <line x1="-14" y1="-6" x2="14" y2="-6" stroke="#FFDAB9" stroke-width="0.75" opacity="0.6"/>
      <line x1="-14" y1="6" x2="14" y2="6" stroke="#FFDAB9" stroke-width="0.75" opacity="0.6"/>
      <line x1="-14" y1="18" x2="14" y2="18" stroke="#FFDAB9" stroke-width="0.75" opacity="0.6"/>
    </g>
  </g>

  <g transform="translate(620,340)" filter="url(#g)">
    <g>
      <animateTransform attributeName="transform" type="translate" values="0,0; 0,-18; 0,0" dur="5s" repeatCount="indefinite" calcMode="spline" keySplines="0.4 0 0.2 1; 0.4 0 0.2 1"/>
      <animateTransform attributeName="transform" type="rotate" values="-8 0 0; 4 0 0; -8 0 0" dur="7s" repeatCount="indefinite" additive="sum" calcMode="spline" keySplines="0.4 0 0.2 1; 0.4 0 0.2 1"/>
      <path d="M-22,-30 L0,-30 L0,-45 L22,-45 L22,30 L-22,30 Z" fill="none" stroke="#B0E0E6" stroke-width="1" stroke-linejoin="round"/>
      <line x1="-16" y1="-20" x2="16" y2="-20" stroke="#B0E0E6" stroke-width="0.75" opacity="0.6"/>
      <line x1="-16" y1="-8" x2="16" y2="-8" stroke="#B0E0E6" stroke-width="0.75" opacity="0.6"/>
      <line x1="-16" y1="4" x2="16" y2="4" stroke="#B0E0E6" stroke-width="0.75" opacity="0.6"/>
      <line x1="-16" y1="16" x2="16" y2="16" stroke="#B0E0E6" stroke-width="0.75" opacity="0.6"/>
    </g>
  </g>

  <g transform="translate(280,480)" filter="url(#g)">
    <g>
      <animateTransform attributeName="transform" type="translate" values="0,0; 0,12; 0,0" dur="7s" repeatCount="indefinite" calcMode="spline" keySplines="0.4 0 0.2 1; 0.4 0 0.2 1"/>
      <animateTransform attributeName="transform" type="rotate" values="6 0 0; -4 0 0; 6 0 0" dur="10s" repeatCount="indefinite" additive="sum" calcMode="spline" keySplines="0.4 0 0.2 1; 0.4 0 0.2 1"/>
      <path d="M-16,-24 L16,-24 L16,12 L6,12 L6,24 L-16,24 Z" fill="none" stroke="#FFF8E7" stroke-width="1" stroke-linejoin="round"/>
      <line x1="-10" y1="-12" x2="10" y2="-12" stroke="#FFF8E7" stroke-width="0.75" opacity="0.5"/>
      <line x1="-10" y1="-2" x2="10" y2="-2" stroke="#FFF8E7" stroke-width="0.75" opacity="0.5"/>
      <line x1="-10" y1="8" x2="10" y2="8" stroke="#FFF8E7" stroke-width="0.75" opacity="0.5"/>
    </g>
  </g>

  <g transform="translate(530,460)" filter="url(#g)">
    <g>
      <animateTransform attributeName="transform" type="translate" values="0,0; -8,-8; 0,0" dur="8s" repeatCount="indefinite" calcMode="spline" keySplines="0.4 0 0.2 1; 0.4 0 0.2 1"/>
      <animateTransform attributeName="transform" type="rotate" values="-3 0 0; 7 0 0; -3 0 0" dur="6s" repeatCount="indefinite" additive="sum" calcMode="spline" keySplines="0.4 0 0.2 1; 0.4 0 0.2 1"/>
      <path d="M-18,-26 L18,-26 L18,26 L-18,26 Z" fill="none" stroke="#D8BFD8" stroke-width="1" stroke-linejoin="round"/>
      <line x1="-12" y1="-14" x2="12" y2="-14" stroke="#D8BFD8" stroke-width="0.75" opacity="0.6"/>
      <line x1="-12" y1="-4" x2="12" y2="-4" stroke="#D8BFD8" stroke-width="0.75" opacity="0.6"/>
      <line x1="-12" y1="6" x2="12" y2="6" stroke="#D8BFD8" stroke-width="0.75" opacity="0.6"/>
      <line x1="-12" y1="16" x2="12" y2="16" stroke="#D8BFD8" stroke-width="0.75" opacity="0.6"/>
    </g>
  </g>

  <circle cx="350" cy="200" r="1.5" fill="#FFF8E7" opacity="0.3" filter="url(#g)">
    <animate attributeName="cy" values="200;190;200" dur="9s" repeatCount="indefinite" calcMode="spline" keySplines="0.4 0 0.2 1; 0.4 0 0.2 1"/>
    <animate attributeName="opacity" values="0.3;0.6;0.3" dur="9s" repeatCount="indefinite" calcMode="spline" keySplines="0.4 0 0.2 1; 0.4 0 0.2 1"/>
  </circle>
  <circle cx="450" cy="420" r="2" fill="#E6E6FA" opacity="0.2" filter="url(#g)">
    <animate attributeName="cy" values="420;410;420" dur="11s" repeatCount="indefinite" calcMode="spline" keySplines="0.4 0 0.2 1; 0.4 0 0.2 1"/>
    <animate attributeName="opacity" values="0.2;0.5;0.2" dur="11s" repeatCount="indefinite" calcMode="spline" keySplines="0.4 0 0.2 1; 0.4 0 0.2 1"/>
  </circle>
  <circle cx="480" cy="280" r="1" fill="#FFDAB9" opacity="0.3" filter="url(#g)">
    <animate attributeName="cx" values="480;490;480" dur="12s" repeatCount="indefinite" calcMode="spline" keySplines="0.4 0 0.2 1; 0.4 0 0.2 1"/>
    <animate attributeName="opacity" values="0.3;0.5;0.3" dur="12s" repeatCount="indefinite" calcMode="spline" keySplines="0.4 0 0.2 1; 0.4 0 0.2 1"/>
  </circle>
</svg>