<?xml version="1.0" encoding="UTF-8"?>
<svg xmlns="http://www.w3.org/2000/svg" viewBox="0 0 1600 900" preserveAspectRatio="xMidYMid slice">
  <defs>
    <filter id="sh" x="-50%" y="-50%" width="200%" height="200%">
      <feGaussianBlur in="SourceGraphic" stdDeviation="14"/>
    </filter>
    <filter id="glow" x="-50%" y="-50%" width="200%" height="200%">
      <feGaussianBlur in="SourceGraphic" stdDeviation="28"/>
    </filter>
    <filter id="soft" x="-50%" y="-50%" width="200%" height="200%">
      <feGaussianBlur in="SourceGraphic" stdDeviation="5"/>
    </filter>
    <linearGradient id="btl" x1="0" y1="0" x2="1" y2="0">
      <stop offset="0%" stop-color="#5C1A1B"/>
      <stop offset="35%" stop-color="#F9F7F1" stop-opacity="0.22"/>
      <stop offset="65%" stop-color="#5C1A1B" stop-opacity="0.85"/>
      <stop offset="100%" stop-color="#5C1A1B"/>
    </linearGradient>
    <radialGradient id="grp" cx="0.35" cy="0.35" r="0.75">
      <stop offset="0%" stop-color="#F9F7F1" stop-opacity="0.55"/>
      <stop offset="45%" stop-color="#5C1A1B" stop-opacity="0.9"/>
      <stop offset="100%" stop-color="#5C1A1B"/>
    </radialGradient>
    <linearGradient id="gls" x1="0" y1="0" x2="0" y2="1">
      <stop offset="0%" stop-color="#48A9A6" stop-opacity="0.2"/>
      <stop offset="100%" stop-color="#48A9A6" stop-opacity="0.45"/>
    </linearGradient>
  </defs>

  <rect width="1600" height="900" fill="#F9F7F1"/>

  <g opacity="0.12">
    <circle cx="1300" cy="180" r="520" fill="#E2C044" opacity="0.9" filter="url(#glow)"/>
  </g>

  <g transform="translate(1300,180)">
    <g opacity="0.35">
      <circle r="150" fill="#E2C044" opacity="0.9" filter="url(#glow)">
        <animateTransform attributeName="transform" type="scale" values="1;1.18;1" keyTimes="0;0.5;1" keySplines="0.4 0 0.6 1;0.4 0 0.6 1" calcMode="spline" dur="8s" repeatCount="indefinite"/>
      </circle>
    </g>
    <circle r="95" fill="#E2C044" opacity="0.9"/>
    <g opacity="0.45">
      <animateTransform attributeName="transform" type="rotate" from="0" to="360" dur="28s" repeatCount="indefinite"/>
      <path d="M0,-115 L0,-175 M77,-77 L115,-115 M115,0 L175,0 M77,77 L115,115 M0,115 L0,175 M-77,77 L-115,115 M-115,0 L-175,0 M-77,-77 L-115,-115" stroke="#E2C044" stroke-width="4" stroke-linecap="round"/>
    </g>
  </g>

  <g transform="translate(0,635)" filter="url(#sh)" fill="#5C1A1B" opacity="0.9">
    <g opacity="0.18">
      <ellipse cx="800" cy="0" rx="95" ry="18">
        <animate attributeName="rx" values="95;108;95" dur="6s" repeatCount="indefinite"/>
        <animate attributeName="opacity" values="0.18;0.24;0.18" dur="6s" repeatCount="indefinite"/>
      </ellipse>
      <ellipse cx="560" cy="0" rx="55" ry="12">
        <animate attributeName="rx" values="55;62;55" dur="7s" repeatCount="indefinite"/>
      </ellipse>
      <ellipse cx="1040" cy="0" rx="55" ry="12">
        <animate attributeName="rx" values="55;62;55" dur="8s" repeatCount="indefinite"/>
      </ellipse>
      <ellipse cx="1150" cy="5" rx="72" ry="16">
        <animate attributeName="rx" values="72;80;72" dur="6s" repeatCount="indefinite"/>
      </ellipse>
    </g>
  </g>

  <g transform="translate(800,620)">
    <g>
      <animateTransform attributeName="transform" type="rotate" values="-1 0 -200;1 0 -200;-1 0 -200" keyTimes="0;0.5;1" keySplines="0.4 0 0.6 1;0.4 0 0.6 1" calcMode="spline" dur="6s" repeatCount="indefinite"/>
      <path d="M-70,0V-250Q-70,-290 -30,-310L-22,-380H22L30,-310Q70,-290 70,-250V0Z" fill="url(#btl)"/>
      <rect x="-22" y="-380" width="44" height="70" rx="2" fill="#5C1A1B"/>
      <ellipse cx="0" cy="-380" rx="22" ry="6" fill="#5C1A1B"/>
      <rect x="-50" y="-230" width="100" height="110" rx="3" fill="#E2C044" opacity="0.9"/>
      <text x="0" y="-175" text-anchor="middle" font-family="Georgia,serif" font-size="18" fill="#5C1A1B" opacity="0.9" font-weight="bold" letter-spacing="2">VINHO</text>
      <path d="M-55,-240V-90Q-45,-90 -45,-240Z" fill="#F9F7F1" opacity="0.18"/>
      <path d="M-45,-220L-20,-150H-5L-30,-220Z" fill="#F9F7F1" opacity="0.25">
        <animateTransform attributeName="transform" type="translate" values="-25,0;55,0;-25,0" keyTimes="0;0.5;1" keySplines="0.4 0 0.6 1;0.4 0 0.6 1" calcMode="spline" dur="5s" repeatCount="indefinite"/>
      </path>
    </g>
  </g>

  <g transform="translate(560,620)">
    <g>
      <animateTransform attributeName="transform" type="rotate" values="-2 0 -90;2 0 -90;-2 0 -90" keyTimes="0;0.5;1" keySplines="0.4 0 0.6 1;0.4 0 0.6 1" calcMode="spline" dur="7s" repeatCount="indefinite"/>
      <ellipse cx="0" cy="0" rx="45" ry="12" fill="#48A9A6" opacity="0.5"/>
      <rect x="-5" y="-75" width="10" height="75" fill="#48A9A6" opacity="0.6"/>
      <path d="M-50,-75Q-58,-130 0,-150Q58,-130 50,-75Q50,-55 0,-55Q-50,-55 -50,-75Z" fill="url(#gls)"/>
      <ellipse cx="0" cy="-150" rx="50" ry="12" fill="none" stroke="#48A9A6" stroke-width="3" opacity="0.7"/>
      <ellipse cx="0" cy="-95" rx="38" ry="18" fill="#5C1A1B" opacity="0.85">
        <animate attributeName="rx" values="38;41;38" dur="5s" repeatCount="indefinite"/>
      </ellipse>
      <path d="M-35,-130Q-25,-100 -35,-75" fill="none" stroke="#F9F7F1" stroke-width="4" stroke-linecap="round" opacity="0.35"/>
      <g transform="translate(28,-125)">
        <path d="M0,-10L1.5,-1.5L10,0L1.5,1.5L0,10L-1.5,1.5L-10,0L-1.5,-1.5Z" fill="#E2C044" opacity="0.9">
          <animateTransform attributeName="transform" type="scale" values="0;1;0" keyTimes="0;0.5;1" keySplines="0.4 0 0.6 1;0.4 0 0.6 1" calcMode="spline" dur="3s" repeatCount="indefinite"/>
          <animate attributeName="opacity" values="0;1;0" dur="3s" repeatCount="indefinite"/>
        </path>
      </g>
    </g>
  </g>

  <g transform="translate(1040,620)">
    <g>
      <animateTransform attributeName="transform" type="rotate" values="2 0 -90;-2 0 -90;2 0 -90" keyTimes="0;0.5;1" keySplines="0.4 0 0.6 1;0.4 0 0.6 1" calcMode="spline" dur="8s" repeatCount="indefinite"/>
      <ellipse cx="0" cy="0" rx="45" ry="12" fill="#48A9A6" opacity="0.5"/>
      <rect x="-5" y="-75" width="10" height="75" fill="#48A9A6" opacity="0.6"/>
      <path d="M-50,-75Q-58,-130 0,-150Q58,-130 50,-75Q50,-55 0,-55Q-50,-55 -50,-75Z" fill="url(#gls)"/>
      <ellipse cx="0" cy="-150" rx="50" ry="12" fill="none" stroke="#48A9A6" stroke-width="3" opacity="0.7"/>
      <ellipse cx="0" cy="-95" rx="38" ry="18" fill="#5C1A1B" opacity="0.85">
        <animate attributeName="rx" values="38;41;38" dur="5.5s" repeatCount="indefinite"/>
      </ellipse>
      <path d="M-35,-130Q-25,-100 -35,-75" fill="none" stroke="#F9F7F1" stroke-width="4" stroke-linecap="round" opacity="0.35"/>
      <g transform="translate(28,-125)">
        <path d="M0,-10L1.5,-1.5L10,0L1.5,1.5L0,10L-1.5,1.5L-10,0L-1.5,-1.5Z" fill="#E2C044" opacity="0.9">
          <animateTransform attributeName="transform" type="scale" values="0;1;0" keyTimes="0;0.5;1" keySplines="0.4 0 0.6 1;0.4 0 0.6 1" calcMode="spline" dur="4s" repeatCount="indefinite"/>
          <animate attributeName="opacity" values="0;1;0" dur="4s" repeatCount="indefinite"/>
        </path>
      </g>
    </g>
  </g>

  <g transform="translate(1150,620)">
    <g>
      <animateTransform attributeName="transform" type="rotate" values="-3 0 0;3 0 0;-3 0 0" keyTimes="0;0.5;1" keySplines="0.4 0 0.6 1;0.4 0 0.6 1" calcMode="spline" dur="6s" repeatCount="indefinite"/>
      <path d="M10,-70Q40,-105 75,-70Q40,-35 10,-70Z" fill="#48A9A6" opacity="0.85"/>
      <circle cx="0" cy="0" r="18" fill="url(#grp)">
        <animate attributeName="r" values="18;19.5;18" dur="3s" repeatCount="indefinite"/>
      </circle>
      <circle cx="26" cy="-12" r="16" fill="url(#grp)">
        <animate attributeName="r" values="16;17.5;16" dur="4s" repeatCount="indefinite"/>
      </circle>
      <circle cx="-22" cy="-16" r="17" fill="url(#grp)">
        <animate attributeName="r" values="17;18.5;17" dur="5s" repeatCount="indefinite"/>
      </circle>
      <circle cx="12" cy="-32" r="15" fill="url(#grp)">
        <animate attributeName="r" values="15;16.5;15" dur="3.5s" repeatCount="indefinite"/>
      </circle>
      <circle cx="38" cy="-36" r="14" fill="url(#grp)"/>
      <circle cx="-12" cy="-52" r="15" fill="url(#grp)"/>
      <circle cx="16" cy="-66" r="13" fill="url(#grp)"/>
      <circle cx="-32" cy="-42" r="14" fill="url(#grp)"/>
      <circle cx="45" cy="-10" r="13" fill="url(#grp)"/>
    </g>
  </g>

  <g>
    <path d="M0,-8L1.2,-1.2L8,0L1.2,1.2L0,8L-1.2,1.2L-8,0L-1.2,-1.2Z" fill="#E2C044" opacity="0.9">
      <animateMotion path="M560,490 Q800,400 1040,490" dur="9s" repeatCount="indefinite"/>
      <animate attributeName="opacity" values="0;1;1;0" keyTimes="0;0.2;0.8;1" dur="9s" repeatCount="indefinite"/>
    </path>
  </g>
</svg>