<?xml version="1.0" encoding="UTF-8"?>
<svg xmlns="http://www.w3.org/2000/svg" viewBox="0 0 1600 900" preserveAspectRatio="xMidYMid slice"><defs><linearGradient id="a" x1="0" y1="0" x2="0" y2="1"><stop offset="0%" stop-color="#7209B7"><animate attributeName="stop-color" values="#7209B7;#FF006E;#3A86FF;#7209B7" dur="8s" repeatCount="indefinite"/></stop><stop offset="100%" stop-color="#FF006E"><animate attributeName="stop-color" values="#FF006E;#FFBD59;#63E6BE;#FF006E" dur="8s" repeatCount="indefinite"/></stop></linearGradient><linearGradient id="b" x1="0" y1="0" x2="0" y2="1"><stop offset="0%" stop-color="#fff" stop-opacity="0.8"/><stop offset="100%" stop-color="#fff" stop-opacity="0"/></linearGradient><radialGradient id="c" cx="50%" cy="50%" r="60%"><stop offset="0%" stop-color="#FFBD59" stop-opacity="0.9"><animate attributeName="stop-color" values="#FFBD59;#FF5757;#FFBD59" dur="3s" repeatCount="indefinite"/></stop><stop offset="100%" stop-color="#FF5757" stop-opacity="0"/></radialGradient><filter id="f1" x="-50%" y="-50%" width="200%" height="200%"><feGaussianBlur stdDeviation="8"/></filter><filter id="f2" x="-50%" y="-50%" width="200%" height="200%"><feGaussianBlur stdDeviation="20"/></filter><filter id="f3" x="-50%" y="-50%" width="200%" height="200%"><feGaussianBlur stdDeviation="3"/></filter><pattern id="p1" width="50" height="50" patternUnits="userSpaceOnUse"><rect width="50" height="50" fill="#63E6BE" opacity="0.15"/><rect width="25" height="25" fill="#FF5757" opacity="0.25"/><rect x="25" y="25" width="25" height="25" fill="#FF5757" opacity="0.25"/><animateTransform attributeName="patternTransform" type="translate" values="0,0;50,0;0,0" dur="1s" repeatCount="indefinite"/></pattern></defs><rect width="1600" height="900" fill="url(#a)"/><g transform="translate(1100,400)"><animateTransform attributeName="transform" type="rotate" from="0 1100 400" to="360 1100 400" dur="15s" repeatCount="indefinite"/><path d="M0,-500L150,-150L500,0L150,150L0,500L-150,150L-500,0L-150,-150Z" fill="#FFBD59" opacity="0.3"/></g><circle cx="1100" cy="400" r="300" fill="url(#c)" filter="url(#f2)"/><path d="M0,720H1600V900H0Z" fill="url(#p1)"/><path d="M200,750L1400,750L1600,900L0,900Z" fill="#000" opacity="0.15"/><path d="M300,-100L500,900L700,900Z" fill="url(#b)" filter="url(#f1)" opacity="0.5"><animate attributeName="opacity" values="0.3;0.6;0.3" dur="4s" repeatCount="indefinite"/><animateTransform attributeName="transform" type="rotate" values="-15 300 -100;15 300 -100;-15 300 -100" dur="6s" repeatCount="indefinite"/></path><path d="M900,-100L1100,900L1300,900Z" fill="url(#b)" filter="url(#f1)" opacity="0.5"><animate attributeName="opacity" values="0.3;0.6;0.3" dur="5s" repeatCount="indefinite"/><animateTransform attributeName="transform" type="rotate" values="10 900 -100;-10 900 -100;10 900 -100" dur="7s" repeatCount="indefinite"/></path><circle cx="250" cy="350" r="120" fill="#63E6BE" opacity="0.3" filter="url(#f3)"><animateTransform attributeName="transform" type="scale" values="1;1.2;1" dur="3s" repeatCount="indefinite" additive="sum"/></circle><path d="M250,230L370,470H130Z" fill="#748FFC" opacity="0.25"><animateTransform attributeName="transform" type="rotate" values="0 250 350;15 250 350;0 250 350" dur="5s" repeatCount="indefinite"/></path><rect x="1200" y="150" width="180" height="180" fill="#FF00FF" opacity="0.2" transform="rotate(45 1290 240)"><animateTransform attributeName="transform" type="rotate" values="45 1290 240;135 1290 240;45 1290 240" dur="10s" repeatCount="indefinite" additive="sum"/><animate attributeName="opacity" values="0.2;0.4;0.2" dur="3s" repeatCount="indefinite"/></rect><path d="M100,500l50-50l50,50l50-50l50,50" stroke="#FF00FF" stroke-width="12" fill="none" opacity="0.4" stroke-linecap="round" stroke-dasharray="30,30"><animate attributeName="stroke-dashoffset" values="0;-120;0" dur="2s" repeatCount="indefinite"/></path><polygon points="600,100 650,150 600,200 550,150" fill="#FF5757" opacity="0.5" filter="url(#f3)"><animateTransform attributeName="transform" type="scale" values="1;1.3;1" dur="2.5s" repeatCount="indefinite" additive="sum"/></polygon><g stroke="#fff" stroke-width="3" opacity="0.5"><line x1="800" y1="650" x2="1000" y2="650"><animate attributeName="x2" values="1000;800;1000" dur="0.4s" repeatCount="indefinite"/></line><line x1="850" y1="700" x2="1050" y2="700"><animate attributeName="x2" values="1050;850;1050" dur="0.5s" repeatCount="indefinite"/></line></g><g transform="translate(1000,740)"><animateTransform attributeName="transform" type="translate" values="0,0;0,-50;0,0" dur="0.7s" repeatCount="indefinite" additive="sum"/><animateTransform attributeName="transform" type="rotate" values="-10;10;-10" dur="0.7s" repeatCount="indefinite" additive="sum"/><path d="M0,-35c-16,0-16,18-16,18v32c0,9,7,16,16,16s16-7,16-16v-32c0,0,0-18-16-18z" fill="#FF5757"/><path d="M-10,0l-20-30M10,0l20-30M-10,40l-15,25M10,40l15,25" stroke="#FF5757" stroke-width="10" stroke-linecap="round"/></g><g transform="translate(1150,780)"><animateTransform attributeName="transform" type="translate" values="0,0;0,-15;0,0" dur="0.9s" repeatCount="indefinite" additive="sum"/><animateTransform attributeName="transform" type="rotate" values="0;360" dur="1.2s" repeatCount="indefinite" additive="sum"/><path d="M0,-35c-16,0-16,18-16,18v32c0,9,7,16,16,16s16-7,16-16v-32c0,0,0-18-16-18z" fill="#FFBD59"/><path d="M-10,0l-15-20M10,0l15-20M-10,40l-10,15M10,40l10,15" stroke="#FFBD59" stroke-width="10" stroke-linecap="round"/></g><g transform="translate(1320,720)"><animateTransform attributeName="transform" type="translate" values="0,0;0,-30;0,0" dur="0.5s" repeatCount="indefinite" additive="sum"/><animateTransform attributeName="transform" type="rotate" values="0;15;0" dur="0.5s" repeatCount="indefinite" additive="sum"/><path d="M0,-35c-16,0-16,18-16,18v32c0,9,7,16,16,16s16-7,16-16v-32c0,0,0-18-16-18z" fill="#63E6BE"/><path d="M-10,0l-25,10M10,0l25-15M-10,40l-20,20M10,40l10,25" stroke="#63E6BE" stroke-width="10" stroke-linecap="round"/></g><g transform="translate(1470,760)"><animateTransform attributeName="transform" type="translate" values="0,0;0,-40;0,0" dur="0.8s" repeatCount="indefinite" additive="sum"/><animateTransform attributeName="transform" type="rotate" values="20;-20;20" dur="0.8s" repeatCount="indefinite" additive="sum"/><path d="M0,-35c-16,0-16,18-16,18v32c0,9,7,16,16,16s16-7,16-16v-32c0,0,0-18-16-18z" fill="#748FFC"/><path d="M-10,0l-25-20M10,0l25,20M-10,40l-10,25M10,40l-5,25" stroke="#748FFC" stroke-width="10" stroke-linecap="round"/></g><g filter="url(#f3)"><g transform="translate(900,300)"><animateTransform attributeName="transform" type="translate" values="900,300;920,280;900,300" dur="3s" repeatCount="indefinite"/><path d="M0,-20L5,-5L20,0L5,5L0,20L-5,5L-20,0L-5,-5Z" fill="#FFBD59" transform="scale(1.5)"><animateTransform attributeName="transform" type="rotate" values="0;360" dur="3s" repeatCount="indefinite"/></path></g><g transform="translate(1250,550)"><animateTransform attributeName="transform" type="translate" values="1250,550;1230,570;1250,550" dur="4s" repeatCount="indefinite"/><path d="M0,-20L5,-5L20,0L5,5L0,20L-5,5L-20,0L-5,-5Z" fill="#63E6BE"><animateTransform attributeName="transform" type="rotate" values="0;-360" dur="4s" repeatCount="indefinite"/></path></g><g transform="translate(800,500)"><animateTransform attributeName="transform" type="scale" values="1;1.5;1" dur="2s" repeatCount="indefinite" additive="sum"/><path d="M0,-20L5,-5L20,0L5,5L0,20L-5,5L-20,0L-5,-5Z" fill="#FF5757" transform="scale(2)"><animateTransform attributeName="transform" type="rotate" values="0;180;0" dur="2s" repeatCount="indefinite"/></path></g></g><g><g transform="translate(950,400)"><animateTransform attributeName="transform" type="scale" values="1;1.5;1" dur="0.6s" repeatCount="indefinite" additive="sum"/><path d="M-6,-30h12l-3,25h-6zM-6,5h12v12h-12z" fill="#FF5757"/></g><g transform="translate(1400,350)"><animateTransform attributeName="transform" type="scale" values="1;1.4;1" dur="0.8s" repeatCount="indefinite" additive="sum"/><path d="M-6,-30h12l-3,25h-6zM-6,5h12v12h-12z" fill="#748FFC"/></g><g transform="translate(850,600)"><animateTransform attributeName="transform" type="scale" values="1;1.8;1" dur="0.5s" repeatCount="indefinite" additive="sum"/><path d="M-6,-30h12l-3,25h-6zM-6,5h12v12h-12z" fill="#FFBD59" transform="scale(1.2)"/></g></g><g><rect x="-6" y="-3" width="12" height="6" fill="#FF5757" transform="translate(100,100)"><animateTransform attributeName="transform" type="translate" values="0,0;1600,600" dur="2.5s" repeatCount="indefinite" additive="sum"/><animateTransform attributeName="transform" type="rotate" values="0;720" dur="2.5s" repeatCount="indefinite" additive="sum"/></rect><rect x="-6" y="-3" width="12" height="6" fill="#FFBD59" transform="translate(200,50)"><animateTransform attributeName="transform" type="translate" values="0,0;1500,700" dur="3s" repeatCount="indefinite" additive="sum"/><animateTransform attributeName="transform" type="rotate" values="0;-720" dur="3s" repeatCount="indefinite" additive="sum"/></rect><rect x="-4" y="-4" width="8" height="8" fill="#63E6BE" transform="translate(50,300)"><animateTransform attributeName="transform" type="translate" values="0,0;1700,500" dur="3.5s" repeatCount="indefinite" additive="sum"/><animateTransform attributeName="transform" type="rotate" values="0;360" dur="3.5s" repeatCount="indefinite" additive="sum"/></rect><rect x="-6" y="-3" width="12" height="6" fill="#748FFC" transform="translate(400,200)"><animateTransform attributeName="transform" type="translate" values="0,0;1400,800" dur="2.8s" repeatCount="indefinite" additive="sum"/><animateTransform attributeName="transform" type="rotate" values="0;540" dur="2.8s" repeatCount="indefinite" additive="sum"/></rect><rect x="-5" y="-5" width="10" height="10" fill="#F72585" transform="translate(600,400)"><animateTransform attributeName="transform" type="translate" values="0,0;1200,-200" dur="4s" repeatCount="indefinite" additive="sum"/><animateTransform attributeName="transform" type="rotate" values="0;360" dur="4s" repeatCount="indefinite" additive="sum"/></rect><circle r="5" fill="#FFBD59" transform="translate(800,150)"><animateTransform attributeName="transform" type="translate" values="0,0;900,750" dur="3.2s" repeatCount="indefinite" additive="sum"/></circle><rect x="-6" y="-3" width="12" height="6" fill="#63E6BE" transform="translate(300,600)"><animateTransform attributeName="transform" type="translate" values="0,0;1300,-100" dur="5s" repeatCount="indefinite" additive="sum"/><animateTransform attributeName="transform" type="rotate" values="0;1080" dur="5s" repeatCount="indefinite" additive="sum"/></rect><circle r="4" fill="#FF5757" transform="translate(1100,100)"><animateTransform attributeName="transform" type="translate" values="0,0;600,800" dur="2.2s" repeatCount="indefinite" additive="sum"/></circle></g><path d="M0,0H400L0,400Z" fill="#fff" opacity="0.1"><animate attributeName="opacity" values="0.05;0.2;0.05" dur="3s" repeatCount="indefinite"/></path><path d="M1600,0V400L1200,0Z" fill="#fff" opacity="0.1"><animate attributeName="opacity" values="0.1;0.3;0.1" dur="4s" repeatCount="indefinite"/></path></svg>