<svg xmlns="http://www.w3.org/2000/svg" viewBox="0 0 800 600" width="100%" height="100%">
<rect width="800" height="600" fill="#FFEE00"/>
<g transform="translate(400,300)">
<path d="M 180 0 Q 120 -160 0 -190 Q -170 -120 -210 0 Q -140 170 0 200 Q 160 130 180 0 Z" fill="none" stroke="#000000" stroke-width="32" stroke-linejoin="miter">
<animateTransform attributeName="transform" type="scale" values="0;1.4" dur="2.5s" begin="0s" repeatCount="indefinite" calcMode="linear"/>
<animate attributeName="opacity" values="1;0" dur="2.5s" begin="0s" repeatCount="indefinite" calcMode="linear"/>
</path>
<path d="M 220 0 Q 180 -200 0 -240 Q -210 -180 -260 0 Q -190 210 0 250 Q 200 180 220 0 Z" fill="none" stroke="#000000" stroke-width="32" stroke-linejoin="miter">
<animateTransform attributeName="transform" type="scale" values="0;1.4" dur="2.5s" begin="0.42s" repeatCount="indefinite" calcMode="linear"/>
<animate attributeName="opacity" values="1;0" dur="2.5s" begin="0.42s" repeatCount="indefinite" calcMode="linear"/>
</path>
<path d="M 160 0 Q 100 -140 0 -170 Q -150 -110 -190 0 Q -130 150 0 180 Q 140 120 160 0 Z" fill="none" stroke="#000000" stroke-width="32" stroke-linejoin="miter">
<animateTransform attributeName="transform" type="scale" values="0;1.4" dur="2.5s" begin="0.84s" repeatCount="indefinite" calcMode="linear"/>
<animate attributeName="opacity" values="1;0" dur="2.5s" begin="0.84s" repeatCount="indefinite" calcMode="linear"/>
</path>
<path d="M 240 0 Q 200 -230 0 -260 Q -250 -190 -290 0 Q -200 240 0 270 Q 230 200 240 0 Z" fill="none" stroke="#000000" stroke-width="32" stroke-linejoin="miter">
<animateTransform attributeName="transform" type="scale" values="0;1.4" dur="2.5s" begin="1.26s" repeatCount="indefinite" calcMode="linear"/>
<animate attributeName="opacity" values="1;0" dur="2.5s" begin="1.26s" repeatCount="indefinite" calcMode="linear"/>
</path>
<path d="M 200 0 Q 140 -190 0 -220 Q -190 -150 -230 0 Q -160 200 0 230 Q 180 160 200 0 Z" fill="none" stroke="#000000" stroke-width="32" stroke-linejoin="miter">
<animateTransform attributeName="transform" type="scale" values="0;1.4" dur="2.5s" begin="1.68s" repeatCount="indefinite" calcMode="linear"/>
<animate attributeName="opacity" values="1;0" dur="2.5s" begin="1.68s" repeatCount="indefinite" calcMode="linear"/>
</path>
<path d="M 140 0 Q 90 -120 0 -150 Q -130 -90 -170 0 Q -110 130 0 160 Q 120 100 140 0 Z" fill="none" stroke="#000000" stroke-width="32" stroke-linejoin="miter">
<animateTransform attributeName="transform" type="scale" values="0;1.4" dur="2.5s" begin="2.1s" repeatCount="indefinite" calcMode="linear"/>
<animate attributeName="opacity" values="1;0" dur="2.5s" begin="2.1s" repeatCount="indefinite" calcMode="linear"/>
</path>
<circle r="18" fill="#FF0000">
<animate attributeName="r" values="18;28;18" dur="0.4s" repeatCount="indefinite" calcMode="linear"/>
</circle>
<path d="M -35 0 L 35 0 M 0 -35 L 0 35" stroke="#FF0000" stroke-width="10" stroke-linecap="square">
<animateTransform attributeName="transform" type="scale" values="1;1.4;1" dur="0.4s" repeatCount="indefinite" calcMode="linear"/>
</path>
</g>
</svg>