<?xml version="1.0" encoding="UTF-8"?>
<svg xmlns="http://www.w3.org/2000/svg" viewBox="0 0 1600 900" preserveAspectRatio="xMidYMid slice">
<defs>
<filter id="b160"><feGaussianBlur stdDeviation="160"/></filter>
<filter id="b120"><feGaussianBlur stdDeviation="120"/></filter>
<filter id="b80"><feGaussianBlur stdDeviation="80"/></filter>
<filter id="b40"><feGaussianBlur stdDeviation="40"/></filter>
<filter id="glow"><feGaussianBlur stdDeviation="25" result="a"/><feMerge><feMergeNode in="a"/><feMergeNode in="SourceGraphic"/></feMerge></filter>
<filter id="shadow"><feDropShadow dx="0" dy="20" stdDeviation="25" flood-color="#2D5A3F" flood-opacity="0.5"/></filter>
<filter id="grain"><feTurbulence type="fractalNoise" baseFrequency="0.7" numOctaves="3" result="n"/><feColorMatrix type="matrix" values="1 0 0 0 0 0 1 0 0 0 0 0 1 0 0 0 0 0 0.04 0" in="n"/></filter>
<linearGradient id="sky" x1="0" y1="0" x2="1" y2="1">
<stop offset="0" stop-color="#F5C97A"><animate attributeName="stop-color" values="#F5C97A;#C9A574;#F5C97A" dur="20s" repeatCount="indefinite"/></stop>
<stop offset="0.5" stop-color="#C9A574"><animate attributeName="stop-color" values="#C9A574;#F5C97A;#C9A574" dur="24s" repeatCount="indefinite"/></stop>
<stop offset="1" stop-color="#2D5A3F"/>
</linearGradient>
<radialGradient id="sun" cx="0.3" cy="0.25" r="0.6">
<stop offset="0" stop-color="#FF6B00" stop-opacity="0.7"><animate attributeName="stop-opacity" values="0.7;0.5;0.7" dur="15s" repeatCount="indefinite"/></stop>
<stop offset="0.4" stop-color="#F5C97A" stop-opacity="0.3"/>
<stop offset="1" stop-color="#F5C97A" stop-opacity="0"/>
</radialGradient>
<linearGradient id="leaf" x1="0" y1="0" x2="1" y2="0">
<stop offset="0" stop-color="#6B8E5C"/>
<stop offset="1" stop-color="#2D5A3F"/>
</linearGradient>
<linearGradient id="rim" x1="0" y1="0" x2="1" y2="0">
<stop offset="0" stop-color="#FF6B00" stop-opacity="0.5"/>
<stop offset="0.5" stop-color="#F5C97A" stop-opacity="0.2"/>
<stop offset="1" stop-color="#2D5A3F" stop-opacity="0"/>
</linearGradient>
</defs>

<rect width="1600" height="900" fill="url(#sky)"/>

<ellipse cx="400" cy="300" rx="600" ry="400" fill="#C9A574" opacity="0.4" filter="url(#b160)">
<animate attributeName="opacity" values="0.4;0.5;0.4" dur="18s" repeatCount="indefinite"/>
<animate attributeName="cx" values="400;420;400" dur="25s" repeatCount="indefinite"/>
</ellipse>

<ellipse cx="200" cy="150" rx="500" ry="300" fill="#FF6B00" opacity="0.08" filter="url(#b160)">
<animate attributeName="opacity" values="0.08;0.14;0.08" dur="22s" repeatCount="indefinite"/>
</ellipse>

<rect x="0" y="0" width="800" height="600" fill="#F5C97A" opacity="0.25" filter="url(#b120)">
<animate attributeName="opacity" values="0.25;0.35;0.25" dur="20s" repeatCount="indefinite"/>
</rect>

<g opacity="0.5" filter="url(#b80)">
<path d="M1200,900 L1250,400 L1300,900 Z" fill="#2D5A3F"/>
<path d="M1350,900 L1400,350 L1450,900 Z" fill="#2D5A3F"/>
<ellipse cx="1250" cy="400" rx="40" ry="120" fill="#2D5A3F"/>
<ellipse cx="1400" cy="350" rx="50" ry="140" fill="#2D5A3F"/>
<animateTransform attributeName="transform" type="translate" values="0,0;10,-5;0,0" dur="22s" repeatCount="indefinite"/>
</g>

<circle cx="450" cy="280" r="300" fill="url(#sun)" filter="url(#glow)">
<animate attributeName="r" values="300;320;300" dur="16s" repeatCount="indefinite"/>
</circle>

<path d="M450,280 L-100,900 L200,900 Z" fill="#F5C97A" opacity="0.08" filter="url(#b40)">
<animate attributeName="opacity" values="0.08;0.15;0.08" dur="14s" repeatCount="indefinite"/>
<animateTransform attributeName="transform" type="rotate" values="0 450 280;5 450 280;0 450 280" dur="20s" repeatCount="indefinite"/>
</path>

<path d="M450,280 L300,900 L600,900 Z" fill="#FF6B00" opacity="0.06" filter="url(#b40)">
<animate attributeName="opacity" values="0.06;0.12;0.06" dur="17s" repeatCount="indefinite"/>
<animateTransform attributeName="transform" type="rotate" values="0 450 280;-3 450 280;0 450 280" dur="23s" repeatCount="indefinite"/>
</path>

<path d="M450,280 L0,600 L0,900 L400,900 Z" fill="#C9A574" opacity="0.07" filter="url(#b40)">
<animate attributeName="opacity" values="0.07;0.13;0.07" dur="19s" repeatCount="indefinite"/>
</path>

<g filter="url(#shadow)">
<path d="M1050,900 Q1070,650 1040,300" stroke="#2D5A3F" stroke-width="16" fill="none" stroke-linecap="round"/>
<path d="M1150,900 Q1120,600 1180,250" stroke="#2D5A3F" stroke-width="14" fill="none" stroke-linecap="round"/>
<path d="M1250,900 Q1280,550 1220,320" stroke="#2D5A3F" stroke-width="18" fill="none" stroke-linecap="round"/>
<path d="M1350,900 Q1320,580 1380,280" stroke="#2D5A3F" stroke-width="12" fill="none" stroke-linecap="round"/>
<path d="M1450,900 Q1480,620 1420,350" stroke="#2D5A3F" stroke-width="15" fill="none" stroke-linecap="round"/>
<path d="M1100,900 Q1120,680 1080,450" stroke="#2D5A3F" stroke-width="10" fill="none" stroke-linecap="round"/>
</g>

<g fill="#2D5A3F" filter="url(#shadow)">
<ellipse cx="1040" cy="300" rx="35" ry="90" transform="rotate(-15 1040 300)"/>
<ellipse cx="1040" cy="380" rx="30" ry="80" transform="rotate(20 1040 380)"/>
<ellipse cx="1180" cy="250" rx="40" ry="100" transform="rotate(-10 1180 250)"/>
<ellipse cx="1180" cy="340" rx="32" ry="85" transform="rotate(25 1180 340)"/>
<ellipse cx="1220" cy="320" rx="38" ry="95" transform="rotate(15 1220 320)"/>
<ellipse cx="1380" cy="280" rx="36" ry="92" transform="rotate(-20 1380 280)"/>
<ellipse cx="1380" cy="380" rx="34" ry="88" transform="rotate(10 1380 380)"/>
<ellipse cx="1420" cy="350" rx="33" ry="90" transform="rotate(18 1420 350)"/>
<ellipse cx="1100" cy="450" rx="28" ry="75" transform="rotate(-12 1100 450)"/>
<ellipse cx="1280" cy="420" rx="32" ry="82" transform="rotate(22 1280 420)"/>
<ellipse cx="1320" cy="280" rx="30" ry="78" transform="rotate(-18 1320 280)"/>
</g>

<g>
<ellipse cx="1020" cy="320" rx="25" ry="70" fill="url(#leaf)" transform="rotate(-30 1020 320)">
<animateTransform attributeName="transform" type="rotate" values="-30 1020 320;-25 1020 320;-30 1020 320" dur="12s" repeatCount="indefinite"/>
</ellipse>
<ellipse cx="1160" cy="270" rx="28" ry="75" fill="url(#leaf)" transform="rotate(-25 1160 270)">
<animateTransform attributeName="transform" type="rotate" values="-25 1160 270;-20 1160 270;-25 1160 270" dur="14s" repeatCount="indefinite"/>
</ellipse>
<ellipse cx="1200" cy="340" rx="26" ry="72" fill="url(#leaf)" transform="rotate(-35 1200 340)">
<animateTransform attributeName="transform" type="rotate" values="-35 1200 340;-30 1200 340;-35 1200 340" dur="16s" repeatCount="indefinite"/>
</ellipse>
<ellipse cx="1360" cy="300" rx="27" ry="74" fill="url(#leaf)" transform="rotate(-28 1360 300)">
<animateTransform attributeName="transform" type="rotate" values="-28 1360 300;-22 1360 300;-28 1360 300" dur="13s" repeatCount="indefinite"/>
</ellipse>
<ellipse cx="1400" cy="370" rx="24" ry="68" fill="url(#leaf)" transform="rotate(-32 1400 370)">
<animateTransform attributeName="transform" type="rotate" values="-32 1400 370;-27 1400 370;-32 1400 370" dur="15s" repeatCount="indefinite"/>
</ellipse>
</g>

<g fill="#6B8E5C" filter="url(#shadow)">
<path d="M1050,420 C1020,390 1020,340 1050,310 C1080,340 1080,390 1050,420 Z"/>
<path d="M1050,420 C1080,390 1130,390 1160,420 C1130,450 1080,450 1050,420 Z"/>
<path d="M1180,380 C1150,350 1150,300 1180,270 C1210,300 1210,350 1180,380 Z"/>
<path d="M1220,400 C1190,370 1190,320 1220,290 C1250,320 1250,370 1220,400 Z"/>
<path d="M1100,450 C1070,420 1070,370 1100,340 C1130,370 1130,420 1100,450 Z"/>
<path d="M1300,360 C1270,330 1270,280 1300,250 C1330,280 1330,330 1300,360 Z"/>
<animateTransform attributeName="transform" type="skewX" values="0;2;0" dur="18s" repeatCount="indefinite"/>
</g>

<g>
<circle cx="1080" cy="360" r="10" fill="#FF6B00" filter="url(#glow)">
<animate attributeName="opacity" values="0.9;1;0.9" dur="10s" repeatCount="indefinite"/>
</circle>
<circle cx="1120" cy="400" r="8" fill="#FF6B00" filter="url(#glow)">
<animate attributeName="opacity" values="1;0.85;1" dur="12s" repeatCount="indefinite"/>
</circle>
<circle cx="1190" cy="310" r="11" fill="#FF6B00" filter="url(#glow)">
<animate attributeName="opacity" values="0.85;1;0.85" dur="11s" repeatCount="indefinite"/>
</circle>
<circle cx="1240" cy="380" r="9" fill="#FF6B00" filter="url(#glow)">
<animate attributeName="opacity" values="1;0.9;1" dur="13s" repeatCount="indefinite"/>
</circle>
<circle cx="1310" cy="330" r="10" fill="#FF6B00" filter="url(#glow)">
<animate attributeName="opacity" values="0.9;1;0.9" dur="9s" repeatCount="indefinite"/>
</circle>
</g>

<g filter="url(#b40)" opacity="0.7">
<path d="M900,920 Q920,700 880,500" stroke="#2D5A3F" stroke-width="20" fill="none" stroke-linecap="round"/>
<ellipse cx="880" cy="500" rx="45" ry="110" fill="#2D5A3F" transform="rotate(10 880 500)"/>
<ellipse cx="900" cy="620" rx="40" ry="100" fill="#6B8E5C" transform="rotate(-15 900 620)"/>
<animateTransform attributeName="transform" type="translate" values="0,0;-8,4;0,0" dur="19s" repeatCount="indefinite"/>
</g>

<g>
<path d="M370,240 C360,230 360,220 370,215 C380,220 380,230 370,240 Z M358,232 C348,222 348,212 358,208 C368,212 368,222 358,232 Z M382,232 C392,222 392,212 382,208 C372,212 372,222 382,232 Z" fill="#2D5A3F">
<animateTransform attributeName="transform" type="translate" values="0,0;0,-4;0,0" dur="1s" repeatCount="indefinite"/>
</path>
<animateMotion path="M300,300 Q450,150 600,280 T900,200" dur="12s" repeatCount="indefinite"/>
<animate attributeName="opacity" values="0.8;1;0.8" dur="12s" repeatCount="indefinite"/>
</g>

<rect x="0" y="0" width="900" height="500" fill="#F5C97A" opacity="0.15" filter="url(#b80)">
<animate attributeName="opacity" values="0.15;0.22;0.15" dur="21s" repeatCount="indefinite"/>
</rect>

<g filter="url(#b40)" opacity="0.85">
<path d="M1500,950 L1450,750 L1550,750 Z" fill="#2D5A3F"/>
<ellipse cx="1450" cy="750" rx="50" ry="130" fill="#2D5A3F" transform="rotate(-20 1450 750)"/>
<ellipse cx="1550" cy="780" rx="45" ry="120" fill="#2D5A3F" transform="rotate(15 1550 780)"/>
<animateTransform attributeName="transform" type="translate" values="0,0;5,-10;0,0" dur="17s" repeatCount="indefinite"/>
</g>

<g fill="#F5C97A" opacity="0.6">
<circle cx="0" cy="0" r="3" filter="url(#glow)">
<animateMotion path="M400,200 Q600,100 800,300 T1000,150" dur="15s" repeatCount="indefinite"/>
<animate attributeName="opacity" values="0.6;0;0.6" dur="15s" repeatCount="indefinite"/>
</circle>
<circle cx="0" cy="0" r="4" filter="url(#glow)">
<animateMotion path="M500,300 Q300,400 500,500 T700,400" dur="18s" repeatCount="indefinite"/>
<animate attributeName="opacity" values="0;0.7;0" dur="18s" repeatCount="indefinite"/>
</circle>
<circle cx="0" cy="0" r="2" filter="url(#glow)">
<animateMotion path="M600,150 Q800,250 700,350 T900,300" dur="20s" repeatCount="indefinite"/>
<animate attributeName="opacity" values="0.5;0;0.5" dur="20s" repeatCount="indefinite"/>
</circle>
<circle cx="0" cy="0" r="3" filter="url(#glow)">
<animateMotion path="M350,400 Q550,300 650,450 T850,350" dur="22s" repeatCount="indefinite"/>
<animate attributeName="opacity" values="0;0.6;0" dur="22s" repeatCount="indefinite"/>
</circle>
</g>

<path d="M1020,320 Q1040,300 1060,350 T1100,400" stroke="url(#rim)" stroke-width="8" fill="none" filter="url(#glow)" opacity="0.6">
<animate attributeName="opacity" values="0.6;0.9;0.6" dur="14s" repeatCount="indefinite"/>
</path>
<path d="M1160,270 Q1180,250 1200,300 T1240,350" stroke="url(#rim)" stroke-width="8" fill="none" filter="url(#glow)" opacity="0.5">
<animate attributeName="opacity" values="0.5;0.8;0.5" dur="16s" repeatCount="indefinite"/>
</path>
<path d="M1360,300 Q1380,280 1400,330 T1440,380" stroke="url(#rim)" stroke-width="8" fill="none" filter="url(#glow)" opacity="0.55">
<animate attributeName="opacity" values="0.55;0.85;0.55" dur="15s" repeatCount="indefinite"/>
</path>
<path d="M1100,450 Q1120,430 1140,480 T1180,520" stroke="url(#rim)" stroke-width="6" fill="none" filter="url(#glow)" opacity="0.45">
<animate attributeName="opacity" values="0.45;0.75;0.45" dur="18s" repeatCount="indefinite"/>
</path>

<rect width="1600" height="900" fill="transparent" filter="url(#grain)" opacity="0.6"/>

<circle cx="350" cy="250" r="450" fill="#F5C97A" opacity="0.1" filter="url(#b120)">
<animate attributeName="opacity" values="0.1;0.18;0.1" dur="25s" repeatCount="indefinite"/>
</circle>
</svg>