<?xml version="1.0" encoding="UTF-8"?>
<svg xmlns="http://www.w3.org/2000/svg" viewBox="0 0 1600 900" preserveAspectRatio="xMidYMid slice">
<defs>
<linearGradient id="p" x1="0" y1="0" x2="1" y2="0">
<stop offset="0" stop-color="#E2F0CB" stop-opacity="0.85"/>
<stop offset="0.5" stop-color="#E2F0CB" stop-opacity="1"/>
<stop offset="1" stop-color="#E2F0CB" stop-opacity="0.9"/>
</linearGradient>
<linearGradient id="s" x1="0" y1="0" x2="1" y2="0">
<stop offset="0" stop-color="#FFB7B2" stop-opacity="0.8"/>
<stop offset="0.5" stop-color="#FFB7B2" stop-opacity="0.95"/>
<stop offset="1" stop-color="#FFB7B2" stop-opacity="0.85"/>
</linearGradient>
<linearGradient id="a" x1="0" y1="0" x2="1" y2="0">
<stop offset="0" stop-color="#FFDAC1" stop-opacity="0.7"/>
<stop offset="0.5" stop-color="#FFDAC1" stop-opacity="0.95"/>
<stop offset="1" stop-color="#FFDAC1" stop-opacity="0.8"/>
</linearGradient>
<radialGradient id="fl" cx="0.5" cy="0.8" r="0.7">
<stop offset="0" stop-color="#FFDAC1" stop-opacity="0.95"/>
<stop offset="0.5" stop-color="#FFB7B2" stop-opacity="0.85"/>
<stop offset="1" stop-color="#FFB7B2" stop-opacity="0"/>
</radialGradient>
<filter id="g" x="-50%" y="-50%" width="200%" height="200%">
<feGaussianBlur stdDeviation="8" result="b">
<animate attributeName="stdDeviation" values="6;12;6" dur="1.5s" repeatCount="indefinite"/>
</feGaussianBlur>
<feMerge><feMergeNode in="b"/><feMergeNode in="SourceGraphic"/></feMerge>
</filter>
<filter id="sh" x="-30%" y="-30%" width="160%" height="160%">
<feGaussianBlur in="SourceAlpha" stdDeviation="8" result="b"/>
<feOffset in="b" dx="0" dy="10" result="o"/>
<feComponentTransfer><feFuncA type="linear" slope="0.2"/></feComponentTransfer>
<feMerge><feMergeNode in="o"/><feMergeNode in="SourceGraphic"/></feMerge>
</filter>
<filter id="cf" x="-50%" y="-50%" width="200%" height="200%">
<feGaussianBlur stdDeviation="18"/>
</filter>
<clipPath id="cc"><rect x="-12" y="-90" width="24" height="90" rx="6"/></clipPath>
</defs>
<rect width="1600" height="900" fill="#FFFFFF"/>
<circle cx="800" cy="500" r="380" fill="#FFB7B2" fill-opacity="0.12" filter="url(#g)">
<animate attributeName="fill-opacity" values="0.08;0.18;0.08" dur="7s" repeatCount="indefinite"/>
</circle>
<g filter="url(#cf)">
<ellipse cx="500" cy="780" rx="300" ry="80" fill="#E2F0CB" fill-opacity="0.5">
<animateTransform attributeName="transform" type="translate" values="-30,0;30,0;-30,0" dur="12s" repeatCount="indefinite"/>
</ellipse>
<ellipse cx="900" cy="800" rx="350" ry="90" fill="#E2F0CB" fill-opacity="0.45">
<animateTransform attributeName="transform" type="translate" values="20,0;-20,0;20,0" dur="14s" repeatCount="indefinite"/>
</ellipse>
<ellipse cx="1300" cy="770" rx="280" ry="70" fill="#E2F0CB" fill-opacity="0.5">
<animateTransform attributeName="transform" type="translate" values="-20,0;20,0;-20,0" dur="10s" repeatCount="indefinite"/>
</ellipse>
<ellipse cx="200" cy="790" rx="250" ry="75" fill="#E2F0CB" fill-opacity="0.45">
<animateTransform attributeName="transform" type="translate" values="15,0;-15,0;15,0" dur="13s" repeatCount="indefinite"/>
</ellipse>
</g>
<g transform="translate(800,760)">
<ellipse rx="220" ry="28" fill="#E2F0CB" fill-opacity="0.35" filter="url(#cf)">
<animateTransform attributeName="transform" type="scale" values="1;1.1;1" dur="6s" repeatCount="indefinite"/>
</ellipse>
</g>
<g id="cake" filter="url(#sh)">
<animateTransform attributeName="transform" type="translate" values="0,0;0,-12;0,0" dur="6s" repeatCount="indefinite"/>
<path d="M520,560 C520,510 1080,510 1080,560 L1080,720 L520,720 Z" fill="url(#p)"/>
<path d="M520,560 C520,510 1080,510 1080,560" fill="none" stroke="#FFB7B2" stroke-width="22" stroke-linecap="round" stroke-opacity="0.9">
<animate attributeName="stroke-width" values="22;26;22" dur="4s" repeatCount="indefinite"/>
</path>
<path d="M620,450 C620,410 980,410 980,450 L980,560 L620,560 Z" fill="url(#s)"/>
<path d="M620,450 C620,410 980,410 980,450" fill="none" stroke="#FFDAC1" stroke-width="18" stroke-linecap="round" stroke-opacity="0.9">
<animate attributeName="stroke-width" values="18;22;18" dur="5s" repeatCount="indefinite"/>
</path>
<path d="M700,360 C700,332 900,332 900,360 L900,450 L700,450 Z" fill="url(#a)"/>
<path d="M700,360 C700,332 900,332 900,360" fill="none" stroke="#FFB7B2" stroke-width="14" stroke-linecap="round" stroke-opacity="0.9">
<animate attributeName="stroke-width" values="14;17;14" dur="4.5s" repeatCount="indefinite"/>
</path>
<g transform="translate(800,360)">
<rect x="-12" y="-90" width="24" height="90" rx="6" fill="url(#s)"/>
<g clip-path="url(#cc)">
<path d="M-18,-82 L18,-62 M-18,-52 L18,-32 M-18,-22 L18,-2" stroke="#FFDAC1" stroke-width="5" stroke-linecap="round" stroke-opacity="0.9"/>
</g>
</g>
<g transform="translate(800,270)" filter="url(#g)">
<animateTransform attributeName="transform" type="scale" values="1;1.2;0.95;1" dur="1.4s" repeatCount="indefinite" additive="sum"/>
<animateTransform attributeName="transform" type="skewX" values="0;5;0;-5;0" dur="1.6s" repeatCount="indefinite" additive="sum"/>
<path d="M0,0 Q-10,-20 0,-42 Q10,-20 0,0" fill="url(#fl)"/>
</g>
</g>
<g transform="translate(480,320)">
<path d="M0,-12 L3,-4 L12,-4 L5,2 L8,11 L0,6 L-8,11 L-5,2 L-12,-4 L-3,-4 Z" fill="#FFB7B2" fill-opacity="0.9">
<animate attributeName="fill-opacity" values="0.4;1;0.4" dur="3s" repeatCount="indefinite"/>
</path>
<animateTransform attributeName="transform" type="scale" values="0.8;1.2;0.8" dur="3s" repeatCount="indefinite" additive="sum"/>
</g>
<g transform="translate(1120,260)">
<path d="M0,-12 L3,-4 L12,-4 L5,2 L8,11 L0,6 L-8,11 L-5,2 L-12,-4 L-3,-4 Z" fill="#FFDAC1" fill-opacity="0.9">
<animate attributeName="fill-opacity" values="0.5;1;0.5" dur="4s" repeatCount="indefinite"/>
</path>
<animateTransform attributeName="transform" type="scale" values="0.9;1.3;0.9" dur="4s" repeatCount="indefinite" additive="sum"/>
</g>
<g transform="translate(1260,500)">
<path d="M0,-12 L3,-4 L12,-4 L5,2 L8,11 L0,6 L-8,11 L-5,2 L-12,-4 L-3,-4 Z" fill="#FFB7B2" fill-opacity="0.9">
<animate attributeName="fill-opacity" values="0.4;1;0.4" dur="3.5s" repeatCount="indefinite"/>
</path>
<animateTransform attributeName="transform" type="scale" values="0.8;1.2;0.8" dur="3.5s" repeatCount="indefinite" additive="sum"/>
</g>
<g transform="translate(340,560)">
<path d="M0,-12 L3,-4 L12,-4 L5,2 L8,11 L0,6 L-8,11 L-5,2 L-12,-4 L-3,-4 Z" fill="#FFDAC1" fill-opacity="0.9">
<animate attributeName="fill-opacity" values="0.5;1;0.5" dur="5s" repeatCount="indefinite"/>
</path>
<animateTransform attributeName="transform" type="scale" values="0.9;1.3;0.9" dur="5s" repeatCount="indefinite" additive="sum"/>
</g>
<g transform="translate(420,420)">
<rect x="-7" y="-4" width="14" height="8" rx="2" fill="#E2F0CB" fill-opacity="0.9"/>
<animateTransform attributeName="transform" type="rotate" values="0;360" dur="5s" repeatCount="indefinite" additive="sum"/>
<animateTransform attributeName="transform" type="translate" values="0,0;0,35;0,0" dur="4s" repeatCount="indefinite" additive="sum"/>
</g>
<g transform="translate(1180,400)">
<rect x="-7" y="-4" width="14" height="8" rx="2" fill="#FFB7B2" fill-opacity="0.9"/>
<animateTransform attributeName="transform" type="rotate" values="0;-360" dur="6s" repeatCount="indefinite" additive="sum"/>
<animateTransform attributeName="transform" type="translate" values="0,0;0,-30;0,0" dur="5s" repeatCount="indefinite" additive="sum"/>
</g>
<g transform="translate(1320,620)">
<rect x="-7" y="-4" width="14" height="8" rx="2" fill="#FFDAC1" fill-opacity="0.9"/>
<animateTransform attributeName="transform" type="rotate" values="0;360" dur="4.5s" repeatCount="indefinite" additive="sum"/>
<animateTransform attributeName="transform" type="translate" values="0,0;0,25;0,0" dur="4s" repeatCount="indefinite" additive="sum"/>
</g>
<g transform="translate(280,670)">
<rect x="-7" y="-4" width="14" height="8" rx="2" fill="#E2F0CB" fill-opacity="0.9"/>
<animateTransform attributeName="transform" type="rotate" values="0;-360" dur="7s" repeatCount="indefinite" additive="sum"/>
<animateTransform attributeName="transform" type="translate" values="0,0;0,-20;0,0" dur="6s" repeatCount="indefinite" additive="sum"/>
</g>
<g transform="translate(1100,640)">
<rect x="-7" y="-4" width="14" height="8" rx="2" fill="#FFB7B2" fill-opacity="0.9"/>
<animateTransform attributeName="transform" type="rotate" values="0;360" dur="5.5s" repeatCount="indefinite" additive="sum"/>
<animateTransform attributeName="transform" type="translate" values="0,0;0,30;0,0" dur="5s" repeatCount="indefinite" additive="sum"/>
</g>
</svg>