<?xml version="1.0" encoding="UTF-8"?>
<svg xmlns="http://www.w3.org/2000/svg" viewBox="0 0 1600 900" preserveAspectRatio="xMidYMid slice">
  <defs>
    <!-- Base Background Gradient -->
    <linearGradient id="skyGrad" x1="0%" y1="0%" x2="0%" y2="100%">
      <stop offset="0%" stop-color="#7B2FF7"/>
      <stop offset="100%" stop-color="#FF3CAC"/>
    </linearGradient>

    <!-- Animated Background Gradient -->
    <linearGradient id="bgShift" x1="0%" y1="0%" x2="100%" y2="100%">
      <stop offset="0%" stop-color="#EF476F">
        <animate attributeName="stop-color" values="#EF476F;#FFD166;#06D6A0;#118AB2;#EF476F" dur="6s" repeatCount="indefinite"/>
      </stop>
      <stop offset="50%" stop-color="#FFD166">
        <animate attributeName="stop-color" values="#FFD166;#06D6A0;#118AB2;#EF476F;#FFD166" dur="6s" repeatCount="indefinite"/>
      </stop>
      <stop offset="100%" stop-color="#06D6A0">
        <animate attributeName="stop-color" values="#06D6A0;#118AB2;#EF476F;#FFD166;#06D6A0" dur="6s" repeatCount="indefinite"/>
      </stop>
    </linearGradient>

    <!-- Burst Gradient -->
    <linearGradient id="burstGrad" x1="0%" y1="0%" x2="100%" y2="100%">
      <stop offset="0%" stop-color="#EF476F"/>
      <stop offset="25%" stop-color="#FFD166"/>
      <stop offset="50%" stop-color="#06D6A0"/>
      <stop offset="75%" stop-color="#118AB2"/>
      <stop offset="100%" stop-color="#7B2FF7"/>
    </linearGradient>

    <!-- Floor Perspective Gradient -->
    <linearGradient id="floorGrad" x1="0%" y1="0%" x2="0%" y2="100%">
      <stop offset="0%" stop-color="#060B14"/>
      <stop offset="100%" stop-color="#1B1464"/>
    </linearGradient>

    <!-- Glow Filters -->
    <filter id="softGlow" x="-50%" y="-50%" width="200%" height="200%">
      <feGaussianBlur stdDeviation="15" result="blur"/>
      <feMerge>
        <feMergeNode in="blur"/>
        <feMergeNode in="SourceGraphic"/>
      </feMerge>
    </filter>

    <filter id="coreGlow" x="-50%" y="-50%" width="200%" height="200%">
      <feGaussianBlur stdDeviation="8" result="blur"/>
      <feMerge>
        <feMergeNode in="blur"/>
        <feMergeNode in="SourceGraphic"/>
      </feMerge>
    </filter>

    <filter id="vignetteBlur" x="-50%" y="-50%" width="200%" height="200%">
      <feGaussianBlur stdDeviation="40"/>
    </filter>

    <!-- Floor Hexagon Tile -->
    <polygon id="hex" points="172,-100 0,-100 -86,50 0,200 172,200 258,50" fill="none" stroke="#118AB2" stroke-width="8"/>

    <!-- Geometric Shapes -->
    <polygon id="tri" points="0,-30 25,20 -25,20" fill="#FFD166"/>
    <rect id="sqr" x="-20" y="-20" width="40" height="40" fill="#06D6A0"/>

    <!-- Confetti Shapes -->
    <circle id="c1" r="6" fill="#EF476F"/>
    <rect id="c2" x="-6" y="-6" width="12" height="12" fill="#FFD166"/>
    <polygon id="c3" points="0,-8 8,8 -8,8" fill="#06D6A0"/>

    <!-- Robot Parts -->
    <g id="botRArm">
      <!-- Shoulder -->
      <rect x="0" y="0" width="70" height="70" rx="10" fill="#EF476F" filter="url(#softGlow)"/>
      <!-- Upper Arm -->
      <rect x="15" y="50" width="40" height="80" rx="5" fill="#118AB2"/>
      <!-- Forearm -->
      <rect x="20" y="110" width="30" height="90" rx="5" fill="#06D6A0"/>
      <!-- Claw Base -->
      <rect x="10" y="190" width="50" height="40" rx="5" fill="#FFD166"/>
      <!-- Fingers -->
      <polygon points="10,220 10,265 0,240"/>
      <polygon points="60,220 60,265 70,240"/>
      <polygon points="25,220 25,260 35,240"/>
      <polygon points="45,220 45,260 35,240"/>
    </g>

    <g id="botLeg">
      <!-- Thigh -->
      <rect x="-25" y="0" width="50" height="90" rx="10" fill="#118AB2"/>
      <!-- Shin -->
      <rect x="-20" y="80" width="40" height="100" rx="8" fill="#EF476F"/>
      <!-- Boot -->
      <polygon points="-35,170 35,170 25,220 -45,220"/>
    </g>

    <g id="botBody">
      <!-- Torso Core -->
      <rect x="-90" y="0" width="180" height="210" rx="20" fill="#FFD166"/>
      <!-- Chest Plate -->
      <polygon points="-70,20 70,20 50,120 -50,120" fill="#EF476F"/>
      <!-- Abs -->
      <rect x="-50" y="135" width="35" height="55" fill="#118AB2"/>
      <rect x="15" y="135" width="35" height="55" fill="#118AB2"/>
      <!-- Core Center -->
      <circle cx="0" cy="70" r="25" fill="#06D6A0" filter="url(#coreGlow)"/>
      <circle cx="0" cy="70" r="12" fill="#FFFFFF"/>
    </g>

    <g id="botHead">
      <!-- Helmet Base -->
      <rect x="-60" y="0" width="120" height="100" rx="25" fill="#06D6A0"/>
      <!-- Visor -->
      <polygon points="-50,40 50,40 30,80 -30,80" fill="#000000"/>
      <!-- Antenna -->
      <line x1="0" y1="0" x2="0" y2="-40" stroke="#FFD166" stroke-width="8"/>
      <circle cx="0" cy="-40" r="10" fill="#EF476F" filter="url(#coreGlow)"/>
      <!-- Side Ear -->
      <rect x="60" y="30" width="20" height="40" rx="5" fill="#118AB2"/>
      <rect x="-80" y="30" width="20" height="40" rx="5" fill="#118AB2"/>
    </g>
  </defs>

  <!-- Layer 1: Sky Base -->
  <rect width="1600" height="900" fill="url(#skyGrad)"/>

  <!-- Layer 2: Giant Sunburst -->
  <g transform="translate(1050, 450)">
    <g>
      <animateTransform attributeName="transform" type="rotate" from="0" to="360" dur="20s" repeatCount="indefinite"/>
      <circle r="1200" fill="url(#burstGrad)" opacity="0.4"/>
      <!-- Alternating radial stripes -->
      <path d="M0,0 L1200,-200 L1200,200 Z" fill="#FFFFFF" opacity="0.1"/>
      <path d="M0,0 L1200,200 L1200,600 Z" fill="#FFFFFF" opacity="0.1"/>
      <path d="M0,0 L1200,600 L800,1200 Z" fill="#FFFFFF" opacity="0.1"/>
      <path d="M0,0 L800,1200 L200,1200 Z" fill="#FFFFFF" opacity="0.1"/>
      <path d="M0,0 L200,1200 L-400,1200 Z" fill="#FFFFFF" opacity="0.1"/>
      <path d="M0,0 L-400,1200 L-1000,1200 Z" fill="#FFFFFF" opacity="0.1"/>
      <path d="M0,0 L-1000,1200 L-1200,800 Z" fill="#FFFFFF" opacity="0.1"/>
      <path d="M0,0 L-1200,800 L-1200,200 Z" fill="#FFFFFF" opacity="0.1"/>
      <path d="M0,0 L-1200,200 L-1200,-400 Z" fill="#FFFFFF" opacity="0.1"/>
      <path d="M0,0 L-1200,-400 L-800,-1200 Z" fill="#FFFFFF" opacity="0.1"/>
      <path d="M0,0 L-800,-1200 L-200,-1200 Z" fill="#FFFFFF" opacity="0.1"/>
      <path d="M0,0 L-200,-1200 L400,-1200 Z" fill="#FFFFFF" opacity="0.1"/>
      <path d="M0,0 L400,-1200 L1000,-1200 Z" fill="#FFFFFF" opacity="0.1"/>
      <path d="M0,0 L1000,-1200 L1200,-800 Z" fill="#FFFFFF" opacity="0.1"/>
      <path d="M0,0 L1200,-800 L1200,-200 Z" fill="#FFFFFF" opacity="0.1"/>
    </g>
  </g>

  <!-- Layer 3: Floating Geometric Rings (Background Energy) -->
  <g transform="translate(1050, 650)">
    <g>
      <animateTransform attributeName="transform" type="rotate" from="0" to="360" dur="12s" repeatCount="indefinite"/>
      <circle r="350" fill="none" stroke="#EF476F" stroke-width="25" opacity="0.6" stroke-dasharray="200 100"/>
      <circle r="350" fill="none" stroke="#FFD166" stroke-width="25" opacity="0.6" stroke-dasharray="100 200" stroke-dashoffset="100"/>
      <circle r="350" fill="none" stroke="#06D6A0" stroke-width="25" opacity="0.6" stroke-dasharray="150 150" stroke-dashoffset="200"/>
    </g>
  </g>

  <!-- Layer 4: Floor Plane -->
  <polygon points="0,900 1600,900 1600,700 0,750" fill="url(#floorGrad)"/>

  <!-- Layer 5: Floor Hex Grid (Perspective) -->
  <g stroke="#118AB2" stroke-width="2" opacity="0.4" fill="none">
    <line x1="400" y1="750" x2="200" y2="900"/>
    <line x1="800" y1="750" x2="1000" y2="900"/>
    <line x1="1200" y1="750" x2="1400" y2="900"/>
    <line x1="600" y1="750" x2="500" y2="900"/>
    <line x1="1000" y1="750" x2="1100" y2="900"/>
    <line x1="0" y1="750" x2="0" y2="900"/>
    <line x1="1600" y1="750" x2="1600" y2="900"/>
    <line x1="200" y1="750" x2="-100" y2="900"/>
    <line x1="1400" y1="750" x2="1700" y2="900"/>
  </g>

  <!-- Layer 6: Floor Glowing Lines -->
  <g stroke="#06D6A0" stroke-width="4" fill="none" filter="url(#softGlow)">
    <line x1="0" y1="750" x2="1600" y2="750" opacity="0.8"/>
    <line x1="0" y1="800" x2="1600" y2="800" opacity="0.5"/>
    <line x1="0" y1="850" x2="1600" y2="850" opacity="0.3"/>
  </g>

  <!-- Layer 7: Background Floating Shapes (Slow Parallax) -->
  <g>
    <!-- Large Yellow Triangle Left -->
    <use href="#tri" x="300" y="200" transform="scale(3)" opacity="0.3">
      <animateTransform attributeName="transform" type="translate" values="0,0; 20,-30; 0,0" dur="8s" repeatCount="indefinite" additive="sum"/>
    </use>
    <!-- Large Cyan Square Left -->
    <use href="#sqr" x="150" y="400" transform="scale(2.5) rotate(45)" opacity="0.3">
      <animateTransform attributeName="transform" type="translate" values="0,0; -20,20; 0,0" dur="6s" repeatCount="indefinite" additive="sum"/>
    </use>
    <!-- Large Pink Triangle Right Background -->
    <use href="#tri" x="1400" y="150" transform="scale(4)" opacity="0.2">
      <animateTransform attributeName="transform" type="translate" values="0,0; -30,20; 0,0" dur="10s" repeatCount="indefinite" additive="sum"/>
    </use>
  </g>

  <!-- Layer 8: Hit / Dust Puffs (Background) -->
  <g transform="translate(850, 750)">
    <circle r="0" fill="#FFD166" opacity="0.5">
      <animate attributeName="r" values="0;60;100" dur="0.8s" repeatCount="indefinite"/>
      <animate attributeName="opacity" values="0.5;0;0" dur="0.8s" repeatCount="indefinite"/>
    </circle>
    <circle r="0" fill="#EF476F" opacity="0.5">
      <animate attributeName="r" values="0;80;120" dur="0.9s" begin="0.2s" repeatCount="indefinite"/>
      <animate attributeName="opacity" values="0.5;0;0" dur="0.9s" begin="0.2s" repeatCount="indefinite"/>
    </circle>
  </g>

  <!-- Layer 9: Robot Shadow -->
  <ellipse cx="1150" cy="780" rx="120" ry="25" fill="#000000" opacity="0.4">
    <animate attributeName="rx" values="120;100;120" dur="0.8s" repeatCount="indefinite"/>
  </ellipse>

  <!-- Layer 10: Hero Robot Base Group (Bounce & Wobble) -->
  <g id="heroRobot">
    <animateTransform attributeName="transform" type="translate" values="0,0; 0,-40; 0,0" dur="0.8s" repeatCount="indefinite" keyTimes="0;0.5;1"/>

    <!-- Layer 11: Back Arm (Left Arm, raised for punch) -->
    <g transform="translate(1020, 420) rotate(-45)">
      <rect x="0" y="0" width="60" height="180" rx="10" fill="#118AB2"/>
      <rect x="-10" y="160" width="80" height="50" rx="5" fill="#EF476F"/>
      <!-- Fist -->
      <rect x="-5" y="200" width="70" height="60" rx="10" fill="#FFD166"/>
    </g>

    <!-- Layer 12: Legs (Wide Stance) -->
    <!-- Left Leg (Back) -->
    <g transform="translate(1100, 620) rotate(15)">
      <use href="#botLeg"/>
    </g>
    <!-- Right Leg (Front) -->
    <g transform="translate(1220, 620) rotate(-15)">
      <use href="#botLeg"/>
    </g>

    <!-- Layer 13: Body -->
    <g transform="translate(1160, 410)">
      <use href="#botBody"/>
    </g>

    <!-- Layer 14: Head -->
    <g transform="translate(1160, 310)">
      <animateTransform attributeName="transform" type="translate" values="0,0; 5,-5; 0,0" dur="0.8s" repeatCount="indefinite" additive="sum"/>
      <use href="#botHead"/>
    </g>

    <!-- Layer 15: Front Arm (Right Arm, forward punch) -->
    <g transform="translate(1250, 430) rotate(20)">
      <use href="#botRArm"/>
      <!-- Afterimage Fist for punch effect -->
      <g opacity="0.5">
        <animateTransform attributeName="transform" type="translate" values="30,30; 50,10; 30,30" dur="0.4s" repeatCount="indefinite"/>
        <rect x="10" y="190" width="50" height="40" rx="5" fill="#FFD166"/>
      </g>
    </g>

    <!-- Layer 16: Jetpack / Backpack Thruster -->
    <g transform="translate(1070, 450)">
      <!-- Exhaust -->
      <polygon points="-10,0 10,0 20,100 -20,100" fill="#06D6A0" filter="url(#coreGlow)" opacity="0.6">
        <animateTransform attributeName="transform" type="scale" values="1,1; 1,1.5; 1,1" dur="0.2s" repeatCount="indefinite"/>
      </polygon>
      <polygon points="-10,0 10,0 15,50 -15,50" fill="#FFFFFF" opacity="0.8">
        <animateTransform attributeName="transform" type="scale" values="1,1; 1,2; 1,1" dur="0.15s" repeatCount="indefinite"/>
      </polygon>
    </g>
  </g> <!-- End Hero Base Group -->

  <!-- Layer 17: Foreground Flying Shapes & Motion Lines -->
  <g>
    <!-- Motion Line 1 -->
    <line x1="1000" y1="200" x2="700" y2="200" stroke="#FFFFFF" stroke-width="4" opacity="0.8">
      <animate attributeName="x1" values="1000;1300;1000" dur="1.5s" repeatCount="indefinite"/>
      <animate attributeName="x2" values="700;1000;700" dur="1.5s" repeatCount="indefinite"/>
      <animate attributeName="opacity" values="0;0.8;0" dur="1.5s" repeatCount="indefinite"/>
    </line>
    <!-- Motion Line 2 -->
    <line x1="600" y1="500" x2="300" y2="500" stroke="#FFD166" stroke-width="6" opacity="0.8">
      <animate attributeName="x1" values="600;900;600" dur="1.2s" repeatCount="indefinite"/>
      <animate attributeName="x2" values="300;600;300" dur="1.2s" repeatCount="indefinite"/>
      <animate attributeName="opacity" values="0;0.8;0" dur="1.2s" repeatCount="indefinite"/>
    </line>
    <!-- Motion Line 3 -->
    <line x1="1400" y1="300" x2="1100" y2="300" stroke="#EF476F" stroke-width="3" opacity="0.8">
      <animate attributeName="x1" values="1400;1700;1400" dur="2s" repeatCount="indefinite"/>
      <animate attributeName="x2" values="1100;1400;1100" dur="2s" repeatCount="indefinite"/>
      <animate attributeName="opacity" values="0;0.8;0" dur="2s" repeatCount="indefinite"/>
    </line>
  </g>

  <!-- Layer 18: Impact Starburst (Foreground Right) -->
  <g transform="translate(1300, 430)">
    <g>
      <animateTransform attributeName="transform" type="rotate" values="0;90;0" dur="0.4s" repeatCount="indefinite"/>
      <polygon points="0,-80 20,-20 80,-20 30,20 50,80 0,40 -50,80 -30,20 -80,-20 -20,-20" fill="#FFFFFF" filter="url(#softGlow)"/>
      <polygon points="0,-60 15,-15 60,-15 25,15 40,60 0,30 -40,60 -25,15 -60,-15 -15,-15" fill="#FFD166"/>
    </g>
    <circle r="10" fill="#EF476F">
      <animate attributeName="r" values="10;30;10" dur="0.8s" repeatCount="indefinite"/>
      <animate attributeName="opacity" values="1;0;1" dur="0.8s" repeatCount="indefinite"/>
    </circle>
  </g>

  <!-- Layer 19: Confetti Particles (Geometric) -->
  <g>
    <!-- Top Left Stream -->
    <use href="#c1" opacity="0.8">
      <animateMotion path="M -50,0 L 1650,900" dur="3.5s" repeatCount="indefinite"/>
      <animateTransform attributeName="transform" type="rotate" from="0" to="720" dur="3.5s" repeatCount="indefinite"/>
    </use>
    <use href="#c2" opacity="0.8">
      <animateMotion path="M -50,100 L 1650,600" dur="4.2s" repeatCount="indefinite"/>
      <animateTransform attributeName="transform" type="rotate" from="0" to="-540" dur="4.2s" repeatCount="indefinite"/>
    </use>
    <use href="#c3" opacity="0.8">
      <animateMotion path="M -50,200 L 1650,800" dur="2.8s" repeatCount="indefinite"/>
      <animateTransform attributeName="transform" type="rotate" from="0" to="360" dur="2.8s" repeatCount="indefinite"/>
    </use>
    <!-- Top Right Stream -->
    <use href="#c2" opacity="0.8">
      <animateMotion path="M 1650,0 L -50,500" dur="3.2s" repeatCount="indefinite"/>
      <animateTransform attributeName="transform" type="rotate" from="0" to="480" dur="3.2s" repeatCount="indefinite"/>
    </use>
    <use href="#c3" opacity="0.8">
      <animateMotion path="M 1650,150 L -50,700" dur="4.5s" repeatCount="indefinite"/>
      <animateTransform attributeName="transform" type="rotate" from="0" to="-360" dur="4.5s" repeatCount="indefinite"/>
    </use>
    <use href="#c1" opacity="0.8">
      <animateMotion path="M 1650,50 L -50,850" dur="3.8s" repeatCount="indefinite"/>
      <animateTransform attributeName="transform" type="rotate" from="0" to="600" dur="3.8s" repeatCount="indefinite"/>
    </use>
    <!-- Center Explosion Pieces -->
    <use href="#c1" opacity="0.9">
      <animateMotion path="M 1050,450 Q 1200,300 1400,100" dur="1.5s" repeatCount="indefinite"/>
      <animate attributeName="opacity" values="1;0" dur="1.5s" repeatCount="indefinite"/>
    </use>
    <use href="#c2" opacity="0.9">
      <animateMotion path="M 1050,450 Q 800,200 600,0" dur="1.8s" repeatCount="indefinite"/>
      <animate attributeName="opacity" values="1;0" dur="1.8s" repeatCount="indefinite"/>
    </use>
    <use href="#c3" opacity="0.9">
      <animateMotion path="M 1050,450 Q 900,600 1100,900" dur="2s" repeatCount="indefinite"/>
      <animate attributeName="opacity" values="1;0" dur="2s" repeatCount="indefinite"/>
    </use>
    <use href="#c1" opacity="0.9">
      <animateMotion path="M 1050,450 Q 1300,500 1500,700" dur="1.6s" repeatCount="indefinite"/>
      <animate attributeName="opacity" values="1;0" dur="1.6s" repeatCount="indefinite"/>
    </use>
  </g>

  <!-- Layer 20: Floating Text Energy Swirls (Abstract lines under title zone) -->
  <g transform="translate(300, 450)" fill="none" stroke="#FFFFFF" stroke-width="3" opacity="0.6">
    <path d="M 0,0 Q 50,-50 100,0 T 200,0">
      <animate attributeName="d" values="M 0,0 Q 50,-50 100,0 T 200,0; M 0,0 Q 50,50 100,0 T 200,0; M 0,0 Q 50,-50 100,0 T 200,0" dur="3s" repeatCount="indefinite"/>
    </path>
    <path d="M -50,50 Q 0,0 50,50 T 150,50" stroke="#06D6A0">
      <animate attributeName="d" values="M -50,50 Q 0,0 50,50 T 150,50; M -50,50 Q 0,100 50,50 T 150,50; M -50,50 Q 0,0 50,50 T 150,50" dur="3.5s" repeatCount="indefinite"/>
    </path>
    <path d="M -20,100 Q 30,50 80,100 T 180,100" stroke="#EF476F">
      <animate attributeName="d" values="M -20,100 Q 30,50 80,100 T 180,100; M -20,100 Q 30,150 80,100 T 180,100; M -20,100 Q 30,50 80,100 T 180,100" dur="4s" repeatCount="indefinite"/>
    </path>
  </g>

  <!-- Layer 21: Foreground Floating Geometric Shapes (Larger) -->
  <g>
    <polygon points="0,0 30,60 -30,60" transform="translate(200, 100) scale(2)" fill="#EF476F" opacity="0.8">
      <animateTransform attributeName="transform" type="translate" values="0,0; 10,20; 0,0" dur="5s" repeatCount="indefinite" additive="sum"/>
    </polygon>
    <rect x="-20" y="-20" width="40" height="40" transform="translate(500, 150) rotate(15)" fill="#06D6A0" opacity="0.8">
      <animateTransform attributeName="transform" type="translate" values="0,0; -15,10; 0,0" dur="4s" repeatCount="indefinite" additive="sum"/>
    </rect>
    <circle r="25" cx="150" cy="600" fill="#FFD166" opacity="0.8">
      <animate attributeName="cx" values="150;170;150" dur="6s" repeatCount="indefinite"/>
      <animate attributeName="cy" values="600;570;600" dur="6s" repeatCount="indefinite"/>
    </circle>
    <polygon points="0,-20 15,10 -15,10" transform="translate(800, 250) scale(2.5)" fill="#118AB2" opacity="0.6">
      <animateTransform attributeName="transform" type="translate" values="0,0; 0,-20; 0,0" dur="3s" repeatCount="indefinite" additive="sum"/>
    </polygon>
  </g>

  <!-- Layer 22: Bottom Edge Vignette / Glow -->
  <rect width="1600" height="900" fill="url(#skyGrad)" opacity="0.1" style="mix-blend-mode: overlay;"/>
  <rect width="1600" height="900" fill="none" stroke="#FFFFFF" stroke-width="40" opacity="0.05"/>
  <ellipse cx="800" cy="450" rx="900" ry="550" fill="none" stroke="#FFFFFF" stroke-width="100" opacity="0.05" filter="url(#vignetteBlur)"/>

  <!-- Layer 23: Final Sparkles Overlay -->
  <g fill="#FFFFFF">
    <circle cx="1050" cy="350" r="4">
      <animate attributeName="r" values="0;4;0" dur="1s" repeatCount="indefinite"/>
    </circle>
    <circle cx="1300" cy="500" r="6">
      <animate attributeName="r" values="0;6;0" dur="1.5s" begin="0.5s" repeatCount="indefinite"/>
    </circle>
    <circle cx="1100" cy="600" r="5">
      <animate attributeName="r" values="0;5;0" dur="1.2s" begin="0.2s" repeatCount="indefinite"/>
    </circle>
    <circle cx="950" cy="450" r="3">
      <animate attributeName="r" values="0;3;0" dur="0.8s" begin="0.8s" repeatCount="indefinite"/>
    </circle>
    <circle cx="1200" cy="300" r="4">
      <animate attributeName="r" values="0;4;0" dur="1.3s" begin="0.3s" repeatCount="indefinite"/>
    </circle>
  </g>

</svg>