<?xml version="1.0" encoding="UTF-8"?>
<svg viewBox="0 0 1600 900" preserveAspectRatio="xMidYMid slice" xmlns="http://www.w3.org/2000/svg">
<defs>
<linearGradient id="a" x1="0" y1="0" x2="1" y2="1">
<stop offset="0" stop-color="#00F0FF"><animate attributeName="stop-color" values="#00F0FF;#FF206E;#05C793;#00F0FF" dur="8s" repeatCount="indefinite"/></stop>
<stop offset=".5" stop-color="#FF206E"><animate attributeName="stop-color" values="#FF206E;#FFD23F;#FF9F1C;#FF206E" dur="6s" repeatCount="indefinite"/></stop>
<stop offset="1" stop-color="#41007A"/>
</linearGradient>
<radialGradient id="b" cx="50%" cy="50%" r="50%">
<stop offset="0" stop-color="#FFD23F" stop-opacity=".8"/>
<stop offset="1" stop-color="#FF206E" stop-opacity="0"/>
</radialGradient>
<linearGradient id="c" x1="0" y1="0" x2="0" y2="1">
<stop offset="0" stop-color="#FF206E"/>
<stop offset="1" stop-color="#00F0FF"/>
</linearGradient>
<radialGradient id="d" cx="50%" cy="50%" r="50%">
<stop offset="0" stop-color="#05C793" stop-opacity=".5"/>
<stop offset="1" stop-color="#41007A" stop-opacity="0"/>
</radialGradient>
<path id="s" d="M0,-14 L3,-4 L14,0 L3,4 L0,14 L-3,4 L-14,0 L-3,-4 Z"/>
<filter id="f" x="-50%" y="-50%" width="200%" height="200%"><feGaussianBlur stdDeviation="16"/></filter>
<filter id="g" x="-50%" y="-50%" width="200%" height="200%"><feGaussianBlur stdDeviation="4"/></filter>
</defs>

<rect width="1600" height="900" fill="url(#a)"/>

<circle cx="1080" cy="520" r="380" fill="url(#b)" filter="url(#f)" opacity=".6"><animate attributeName="opacity" values=".6;.95;.6" dur="3s" repeatCount="indefinite"/></circle>

<g opacity=".2">
<circle cx="280" cy="280" r="140" fill="#FFD23F"><animate attributeName="r" values="140;190;140" dur="4s" repeatCount="indefinite"/><animate attributeName="opacity" values=".2;.5;.2" dur="4s" repeatCount="indefinite"/></circle>
<circle cx="440" cy="680" r="100" fill="#00F0FF"><animate attributeName="r" values="100;150;100" dur="5s" repeatCount="indefinite"/><animate attributeName="opacity" values=".2;.45;.2" dur="5s" repeatCount="indefinite"/></circle>
</g>

<g transform="translate(1080,520)"><g><animateTransform attributeName="transform" type="rotate" from="0" to="360" dur="20s" repeatCount="indefinite"/>
<path d="M-20,0h40l30,-650h-100z" fill="#FFD23F" opacity=".1" transform="rotate(0)"/>
<path d="M-20,0h40l30,-650h-100z" fill="#FFD23F" opacity=".1" transform="rotate(30)"/>
<path d="M-20,0h40l30,-650h-100z" fill="#FFD23F" opacity=".1" transform="rotate(60)"/>
<path d="M-20,0h40l30,-650h-100z" fill="#FFD23F" opacity=".15" transform="rotate(90)"><animate attributeName="opacity" values=".15;.35;.15" dur="3s" repeatCount="indefinite"/></path>
<path d="M-20,0h40l30,-650h-100z" fill="#FFD23F" opacity=".1" transform="rotate(120)"/>
<path d="M-20,0h40l30,-650h-100z" fill="#FFD23F" opacity=".1" transform="rotate(150)"/>
<path d="M-20,0h40l30,-650h-100z" fill="#FFD23F" opacity=".15" transform="rotate(180)"><animate attributeName="opacity" values=".15;.35;.15" dur="4s" repeatCount="indefinite"/></path>
<path d="M-20,0h40l30,-650h-100z" fill="#FFD23F" opacity=".1" transform="rotate(210)"/>
<path d="M-20,0h40l30,-650h-100z" fill="#FFD23F" opacity=".1" transform="rotate(240)"/>
<path d="M-20,0h40l30,-650h-100z" fill="#FFD23F" opacity=".15" transform="rotate(270)"><animate attributeName="opacity" values=".15;.35;.15" dur="2.5s" repeatCount="indefinite"/></path>
<path d="M-20,0h40l30,-650h-100z" fill="#FFD23F" opacity=".1" transform="rotate(300)"/>
<path d="M-20,0h40l30,-650h-100z" fill="#FFD23F" opacity=".1" transform="rotate(330)"/>
</g></g>

<g fill="#05C793" opacity=".3" transform="translate(160,160)"><g><animateTransform attributeName="transform" type="translate" values="0,0;30,0;0,0" dur="7s" repeatCount="indefinite"/>
<circle cx="0" cy="0" r="14"/><circle cx="50" cy="0" r="14"/><circle cx="100" cy="0" r="14"/><circle cx="25" cy="40" r="14"/><circle cx="75" cy="40" r="14"/><circle cx="50" cy="80" r="14"/>
</g></g>

<g>
<polygon points="300,150 350,260 250,260" fill="#FF206E" opacity=".85"><animateTransform attributeName="transform" type="rotate" values="0 300 200;360 300 200" dur="12s" repeatCount="indefinite"/><animate attributeName="fill" values="#FF206E;#FFD23F;#FF206E" dur="4s" repeatCount="indefinite"/></polygon>
<rect x="180" y="500" width="70" height="70" fill="#05C793" transform="rotate(45 215 535)"><animateTransform attributeName="transform" type="rotate" values="45 215 535;135 215 535;45 215 535" dur="8s" repeatCount="indefinite"/></rect>
<circle cx="480" cy="390" r="55" fill="#FF9F1C" opacity=".75"><animate attributeName="cy" values="390;340;390" dur="5s" repeatCount="indefinite"/><animate attributeName="r" values="55;80;55" dur="5s" repeatCount="indefinite"/></circle>
<polygon points="1400,120 1450,230 1350,230" fill="#FF206E" opacity=".6"><animateTransform attributeName="transform" type="rotate" values="0 1400 175;360 1400 175" dur="18s" repeatCount="indefinite"/><animate attributeName="opacity" values=".6;1;.6" dur="3s" repeatCount="indefinite"/></polygon>
</g>

<g stroke="#FF206E" stroke-width="14" fill="none" stroke-linecap="round" stroke-linejoin="round" opacity=".5" transform="translate(0,840)"><g><animateTransform attributeName="transform" type="translate" values="0,0;50,0;0,0" dur="5s" repeatCount="indefinite"/>
<path d="M0,0l35,35l35,-35"/><path d="M100,0l35,35l35,-35"/><path d="M200,0l35,35l35,-35"/><path d="M300,0l35,35l35,-35"/><path d="M400,0l35,35l35,-35"/><path d="M500,0l35,35l35,-35"/>
</g></g>

<ellipse cx="1080" cy="820" rx="420" ry="90" fill="url(#d)" opacity=".5"/>

<g fill="none" stroke-width="10" opacity=".7">
<path d="M80,-100C130,100 30,300 130,500S80,900 180,1100" stroke="url(#c)"><animateTransform attributeName="transform" type="translate" values="0,-180;0,180;0,-180" dur="9s" repeatCount="indefinite"/></path>
<path d="M1400,-80C1450,120 1350,320 1450,520S1400,920 1500,1120" stroke="#05C793"><animateTransform attributeName="transform" type="translate" values="0,-150;0,150;0,-150" dur="7s" repeatCount="indefinite"/></path>
<path d="M1250,-120C1300,80 1200,280 1300,480S1250,880 1350,1080" stroke="#FFD23F" stroke-width="12"><animateTransform attributeName="transform" type="translate" values="0,-220;0,220;0,-220" dur="11s" repeatCount="indefinite"/></path>
</g>

<ellipse cx="1080" cy="735" rx="75" ry="18" fill="#41007A" opacity=".25"><animate attributeName="rx" values="75;95;75" dur="0.6s" repeatCount="indefinite"/><animate attributeName="opacity" values=".25;.1;.25" dur="0.6s" repeatCount="indefinite"/></ellipse>

<g transform="translate(1080,650)"><g><animateTransform attributeName="transform" type="translate" values="0,0;0,-18;0,0" dur="0.6s" repeatCount="indefinite"/><g><animateTransform attributeName="transform" type="scale" values="1;1.14;1" dur="0.6s" repeatCount="indefinite"/><g fill="#41007A" stroke="#FFD23F" stroke-width="6" stroke-linejoin="round" filter="url(#g)"><circle r="28" cy="-68"/><path d="M-28,-38L-55,-88L-38,-95L-18,-52L-18,2L-32,95H32L18,2L18,-52L38,-95L55,-88L28,-38Q0,-22-28,-38Z"/></g></g></g></g>

<g transform="translate(1080,650)" stroke="#FFD23F" stroke-width="5" stroke-linecap="round" opacity=".8">
<line x1="0" y1="0" x2="220" y2="-220" opacity="0"><animate attributeName="opacity" values="0;1;0" dur="1.2s" repeatCount="indefinite"/></line>
<line x1="0" y1="0" x2="-220" y2="-220" opacity="0"><animate attributeName="opacity" values="0;1;0" dur="1.2s" begin="0.4s" repeatCount="indefinite"/></line>
<line x1="0" y1="0" x2="220" y2="220" opacity="0"><animate attributeName="opacity" values="0;1;0" dur="1.2s" begin="0.8s" repeatCount="indefinite"/></line>
<line x1="0" y1="0" x2="-220" y2="220" opacity="0"><animate attributeName="opacity" values="0;1;0" dur="1.2s" begin="0.2s" repeatCount="indefinite"/></line>
</g>

<g>
<g transform="translate(1000,520)"><g><animateTransform attributeName="transform" type="translate" values="0,0;-350,-250;-550,-50" dur="5s" repeatCount="indefinite"/><rect x="-6" y="-6" width="12" height="12" fill="#FF206E"><animateTransform attributeName="transform" type="rotate" values="0;360" dur="3s" repeatCount="indefinite"/></rect></g></g>
<g transform="translate(1100,480)"><g><animateTransform attributeName="transform" type="translate" values="0,0;300,-350;500,-150" dur="4s" repeatCount="indefinite"/><circle r="8" fill="#FFD23F"><animateTransform attributeName="transform" type="rotate" values="0;-360" dur="2s" repeatCount="indefinite"/></circle></g></g>
<g transform="translate(1050,600)"><g><animateTransform attributeName="transform" type="translate" values="0,0;-250,250;-150,550" dur="6s" repeatCount="indefinite"/><rect x="-5" y="-8" width="10" height="16" fill="#05C793"><animateTransform attributeName="transform" type="rotate" values="0;360" dur="4s" repeatCount="indefinite"/></rect></g></g>
<g transform="translate(1020,520)"><g><animateTransform attributeName="transform" type="translate" values="0,0;400,150;650,350" dur="5.5s" repeatCount="indefinite"/><circle r="7" fill="#00F0FF"><animateTransform attributeName="transform" type="rotate" values="0;360" dur="2.5s" repeatCount="indefinite"/></circle></g></g>
<g transform="translate(1080,550)"><g><animateTransform attributeName="transform" type="translate" values="0,0;150,-450;250,-750" dur="4.5s" repeatCount="indefinite"/><rect x="-7" y="-7" width="14" height="14" fill="#FF9F1C"><animateTransform attributeName="transform" type="rotate" values="0;-360" dur="3s" repeatCount="indefinite"/></rect></g></g>
<g transform="translate(1040,560)"><g><animateTransform attributeName="transform" type="translate" values="0,0;-500,150;-800,250" dur="7s" repeatCount="indefinite"/><rect x="-6" y="-4" width="12" height="8" fill="#41007A"><animateTransform attributeName="transform" type="rotate" values="0;360" dur="5s" repeatCount="indefinite"/></rect></g></g>
<g transform="translate(1120,530)"><g><animateTransform attributeName="transform" type="translate" values="0,0;350,300;600,550" dur="6s" repeatCount="indefinite"/><circle r="9" fill="#FF206E"><animateTransform attributeName="transform" type="rotate" values="0;360" dur="3.5s" repeatCount="indefinite"/></circle></g></g>
<g transform="translate(980,540)"><g><animateTransform attributeName="transform" type="translate" values="0,0;-250,-150;-350,100" dur="5s" repeatCount="indefinite"/><rect x="-8" y="-5" width="16" height="10" fill="#FFD23F"><animateTransform attributeName="transform" type="rotate" values="0;-360" dur="4s" repeatCount="indefinite"/></rect></g></g>
</g>

<g fill="none" stroke-width="8" opacity=".6">
<path d="M300,-50C350,150 250,350 350,550S300,950 400,1150" stroke="#00F0FF"><animateTransform attributeName="transform" type="translate" values="0,-120;0,120;0,-120" dur="8s" repeatCount="indefinite"/></path>
<path d="M1500,-30C1550,170 1450,370 1550,570S1500,970 1600,1170" stroke="#FF206E"><animateTransform attributeName="transform" type="translate" values="0,-120;0,120;0,-120" dur="10s" repeatCount="indefinite"/></path>
</g>

<g>
<g transform="translate(800,850)"><g><animateTransform attributeName="transform" type="translate" values="0,0;250,-400;450,-650" dur="3.5s" repeatCount="indefinite"/><rect x="-10" y="-10" width="20" height="20" fill="#FFD23F"><animateTransform attributeName="transform" type="rotate" values="0;360" dur="1.5s" repeatCount="indefinite"/></rect></g></g>
<g transform="translate(1200,900)"><g><animateTransform attributeName="transform" type="translate" values="0,0;-300,-300;-500,-500" dur="4s" repeatCount="indefinite"/><circle r="12" fill="#05C793"><animateTransform attributeName="transform" type="rotate" values="0;360" dur="2s" repeatCount="indefinite"/></circle></g></g>
<g transform="translate(500,950)"><g><animateTransform attributeName="transform" type="translate" values="0,0;450,-250;750,-350" dur="3s" repeatCount="indefinite"/><rect x="-12" y="-6" width="24" height="12" fill="#FF206E"><animateTransform attributeName="transform" type="rotate" values="0;-360" dur="1.8s" repeatCount="indefinite"/></rect></g></g>
<g transform="translate(1400,850)"><g><animateTransform attributeName="transform" type="translate" values="0,0;-200,-500;-300,-800" dur="3.8s" repeatCount="indefinite"/><circle r="10" fill="#00F0FF"><animateTransform attributeName="transform" type="rotate" values="0;360" dur="2.2s" repeatCount="indefinite"/></circle></g></g>
<g transform="translate(650,750)"><g><animateTransform attributeName="transform" type="translate" values="0,0;150,350;250,600" dur="5s" repeatCount="indefinite"/><rect x="-8" y="-8" width="16" height="16" fill="#FF9F1C"><animateTransform attributeName="transform" type="rotate" values="0;360" dur="2.5s" repeatCount="indefinite"/></rect></g></g>
<g transform="translate(1300,800)"><g><animateTransform attributeName="transform" type="translate" values="0,0;-400,200;-700,400" dur="4.2s" repeatCount="indefinite"/><circle r="11" fill="#FFD23F"><animateTransform attributeName="transform" type="rotate" values="0;-360" dur="3s" repeatCount="indefinite"/></circle></g></g>
</g>

<g fill="#FFF">
<g transform="translate(900,350)"><g><animateTransform attributeName="transform" type="scale" values="0;1;0" dur="1.2s" repeatCount="indefinite"/><use href="#s"/></g></g>
<g transform="translate(700,500)"><g><animateTransform attributeName="transform" type="scale" values="0;1;0" dur="1.8s" begin="0.4s" repeatCount="indefinite"/><use href="#s"/></g></g>
<g transform="translate(1250,400)"><g><animateTransform attributeName="transform" type="scale" values="0;1;0" dur="1.5s" begin="0.8s" repeatCount="indefinite"/><use href="#s"/></g></g>
<g transform="translate(850,620)"><g><animateTransform attributeName="transform" type="scale" values="0;1;0" dur="2s" begin="0.2s" repeatCount="indefinite"/><use href="#s"/></g></g>
</g>

<g stroke="#FFF" stroke-width="6" stroke-linecap="round" opacity=".8">
<line x1="950" y1="480" x2="850" y2="440"><animate attributeName="opacity" values="0;1;0" dur="1.2s" repeatCount="indefinite"/><animateTransform attributeName="transform" type="translate" values="0,0;-40,-20;0,0" dur="1.2s" repeatCount="indefinite"/></line>
<line x1="980" y1="560" x2="880" y2="630"><animate attributeName="opacity" values="0;1;0" dur="1s" begin="0.3s" repeatCount="indefinite"/><animateTransform attributeName="transform" type="translate" values="0,0;-30,30;0,0" dur="1s" begin="0.3s" repeatCount="indefinite"/></line>
<line x1="1020" y1="660" x2="920" y2="760"><animate attributeName="opacity" values="0;1;0" dur="1.5s" begin="0.6s" repeatCount="indefinite"/><animateTransform attributeName="transform" type="translate" values="0,0;-20,40;0,0" dur="1.5s" begin="0.6s" repeatCount="indefinite"/></line>
</g>

<g stroke="#41007A" stroke-width="4" stroke-linecap="round" opacity=".25">
<line x1="200" y1="450" x2="350" y2="450"><animateTransform attributeName="transform" type="translate" values="0,0;-60,0;0,0" dur="2s" repeatCount="indefinite"/></line>
<line x1="180" y1="480" x2="320" y2="480"><animateTransform attributeName="transform" type="translate" values="0,0;-50,0;0,0" dur="2.2s" repeatCount="indefinite"/></line>
<line x1="220" y1="510" x2="340" y2="510"><animateTransform attributeName="transform" type="translate" values="0,0;-40,0;0,0" dur="1.8s" repeatCount="indefinite"/></line>
</g>

</svg>