<?xml version="1.0" encoding="UTF-8"?>
<svg xmlns="http://www.w3.org/2000/svg" viewBox="0 0 1600 900" preserveAspectRatio="xMidYMid slice">
<defs>
<linearGradient id="pg" x1="0" y1="0" x2="1" y2="1">
<stop offset="0%" stop-color="#FFB7B2" stop-opacity="0.95"/>
<stop offset="100%" stop-color="#FFB7B2" stop-opacity="0.85"/>
</linearGradient>
<linearGradient id="bg" x1="0" y1="0" x2="0" y2="1">
<stop offset="0%" stop-color="#C7CEEA" stop-opacity="0.9"/>
<stop offset="100%" stop-color="#C7CEEA" stop-opacity="0.75"/>
</linearGradient>
<radialGradient id="wg" cx="30%" cy="30%" r="70%">
<stop offset="0%" stop-color="#FFFFFF" stop-opacity="0.95"/>
<stop offset="100%" stop-color="#FFFFFF" stop-opacity="0.8"/>
</radialGradient>
<radialGradient id="gg" cx="40%" cy="40%" r="60%">
<stop offset="0%" stop-color="#FFFFFF" stop-opacity="0.55"/>
<stop offset="80%" stop-color="#FFFFFF" stop-opacity="0.2"/>
<stop offset="100%" stop-color="#C7CEEA" stop-opacity="0.1"/>
</radialGradient>
<radialGradient id="sg" cx="50%" cy="50%" r="50%">
<stop offset="0%" stop-color="#C7CEEA" stop-opacity="0.35"/>
<stop offset="100%" stop-color="#C7CEEA" stop-opacity="0"/>
</radialGradient>
<filter id="bs" x="-50%" y="-50%" width="200%" height="200%">
<feGaussianBlur in="SourceAlpha" stdDeviation="12"/>
</filter>
<filter id="ba" x="-50%" y="-50%" width="200%" height="200%">
<feGaussianBlur stdDeviation="28"/>
</filter>
<filter id="bc" x="-50%" y="-50%" width="200%" height="200%">
<feGaussianBlur stdDeviation="18"/>
</filter>
<clipPath id="gc">
<circle cx="800" cy="360" r="160"/>
</clipPath>
</defs>
<rect width="1600" height="900" fill="#FDF5E6"/>
<circle cx="260" cy="220" r="200" fill="#C7CEEA" fill-opacity="0.25" filter="url(#ba)">
<animate attributeName="opacity" values="0.25;0.4;0.25" dur="8s" repeatCount="indefinite"/>
</circle>
<circle cx="1380" cy="180" r="220" fill="#FFB7B2" fill-opacity="0.18" filter="url(#ba)">
<animate attributeName="cy" values="180;200;180" dur="10s" repeatCount="indefinite"/>
</circle>
<circle cx="1150" cy="820" r="240" fill="#C7CEEA" fill-opacity="0.2" filter="url(#ba)">
<animate attributeName="cx" values="1150;1180;1150" dur="12s" repeatCount="indefinite"/>
</circle>
<g>
<animateTransform attributeName="transform" type="translate" values="0,0;18,0;0,0" dur="10s" repeatCount="indefinite"/>
<ellipse cx="800" cy="760" rx="430" ry="95" fill="url(#sg)" filter="url(#bc)"/>
<ellipse cx="520" cy="760" rx="170" ry="65" fill="#FFFFFF" fill-opacity="0.85" filter="url(#bc)"/>
<ellipse cx="1080" cy="760" rx="170" ry="65" fill="#FFFFFF" fill-opacity="0.85" filter="url(#bc)"/>
<ellipse cx="800" cy="745" rx="240" ry="70" fill="#FFFFFF" fill-opacity="0.8" filter="url(#bc)"/>
</g>
<g>
<animateTransform attributeName="transform" type="translate" values="0,0;0,-12;0,0" dur="6s" repeatCount="indefinite"/>
<ellipse cx="800" cy="735" rx="190" ry="32" fill="#C7CEEA" fill-opacity="0.22" filter="url(#bs)">
<animate attributeName="fill-opacity" values="0.22;0.32;0.22" dur="6s" repeatCount="indefinite"/>
</ellipse>
<path d="M640,480 H960 a30,30 0 0 1 30,30 V690 a30,30 0 0 1 -30,30 H640 a30,30 0 0 1 -30,-30 V510 a30,30 0 0 1 30,-30" fill="url(#pg)"/>
<path d="M670,510 H930 a15,15 0 0 1 15,15 V655 a15,15 0 0 1 -15,15 H670 a15,15 0 0 1 -15,-15 V525 a15,15 0 0 1 15,-15" fill="#FFFFFF" fill-opacity="0.35"/>
<rect x="760" y="560" width="80" height="110" rx="20" fill="#C7CEEA" fill-opacity="0.6"/>
<circle cx="800" cy="615" r="28" fill="#FFFFFF" fill-opacity="0.9"/>
<rect x="785" y="655" width="30" height="45" rx="10" fill="#FFB7B2" fill-opacity="0.9"/>
<ellipse cx="800" cy="700" rx="55" ry="18" fill="#FFFFFF" fill-opacity="0.7"/>
<circle cx="800" cy="360" r="170" fill="url(#gg)" stroke="#FFFFFF" stroke-opacity="0.6" stroke-width="5"/>
<g clip-path="url(#gc)">
<animateTransform attributeName="transform" type="rotate" from="0 800 360" to="360 800 360" dur="24s" repeatCount="indefinite"/>
<circle cx="760" cy="330" r="38" fill="#FFB7B2" fill-opacity="0.9">
<animate attributeName="cy" values="330;340;330" dur="5s" repeatCount="indefinite"/>
</circle>
<circle cx="830" cy="340" r="42" fill="#C7CEEA" fill-opacity="0.85">
<animate attributeName="cx" values="830;820;830" dur="7s" repeatCount="indefinite"/>
</circle>
<circle cx="800" cy="400" r="40" fill="#FFFFFF" fill-opacity="0.9">
<animate attributeName="r" values="40;43;40" dur="6s" repeatCount="indefinite"/>
</circle>
<circle cx="740" cy="390" r="36" fill="#C7CEEA" fill-opacity="0.8">
<animate attributeName="cy" values="390;380;390" dur="8s" repeatCount="indefinite"/>
</circle>
<circle cx="860" cy="390" r="34" fill="#FFB7B2" fill-opacity="0.9">
<animate attributeName="cx" values="860;870;860" dur="6s" repeatCount="indefinite"/>
</circle>
<circle cx="800" cy="290" r="32" fill="#FFB7B2" fill-opacity="0.9"/>
<circle cx="850" cy="310" r="30" fill="#FFFFFF" fill-opacity="0.85"/>
<circle cx="750" cy="300" r="28" fill="#C7CEEA" fill-opacity="0.85"/>
<circle cx="800" cy="360" r="45" fill="#FFB7B2" fill-opacity="0.85">
<animate attributeName="fill-opacity" values="0.85;0.95;0.85" dur="4s" repeatCount="indefinite"/>
</circle>
<ellipse cx="775" cy="315" rx="10" ry="6" fill="#FFFFFF" fill-opacity="0.7"/>
<ellipse cx="845" cy="325" rx="8" ry="5" fill="#FFFFFF" fill-opacity="0.7"/>
<ellipse cx="790" cy="345" rx="9" ry="6" fill="#FFFFFF" fill-opacity="0.7"/>
</g>
<path d="M680,260 Q800,215 920,260 Q920,295 800,295 Q680,295 680,260" fill="url(#pg)"/>
<ellipse cx="800" cy="260" rx="120" ry="25" fill="#FFFFFF" fill-opacity="0.5"/>
<circle cx="800" cy="235" r="22" fill="#FFFFFF" fill-opacity="0.9"/>
<g transform="translate(960,430)">
<g>
<animateTransform attributeName="transform" type="translate" values="0,0;0,-8;0,0" dur="4s" repeatCount="indefinite"/>
<g>
<animateTransform attributeName="transform" type="rotate" values="-10;10;-10" dur="4s" repeatCount="indefinite"/>
<circle r="28" fill="url(#wg)" stroke="#C7CEEA" stroke-opacity="0.8" stroke-width="2"/>
<circle r="20" fill="none" stroke="#C7CEEA" stroke-opacity="0.5" stroke-width="2"/>
<text x="0" y="5" text-anchor="middle" font-size="14" fill="#C7CEEA" fill-opacity="0.8" font-family="sans-serif">10¢</text>
<ellipse cx="-8" cy="-8" rx="6" ry="4" fill="#FFFFFF" fill-opacity="0.9"/>
</g>
</g>
</g>
<rect x="945" y="470" width="34" height="50" rx="8" fill="#C7CEEA" fill-opacity="0.5"/>
<circle cx="800" cy="710" r="18" fill="#FFB7B2" fill-opacity="0.9">
<animateTransform attributeName="transform" type="translate" values="0,0;0,90;0,0" dur="4s" repeatCount="indefinite"/>
<animate attributeName="opacity" values="1;0;1" dur="4s" repeatCount="indefinite"/>
</circle>
</g>
<g transform="translate(480,260)">
<animateTransform attributeName="transform" type="translate" values="480,260;500,240;480,260" dur="7s" repeatCount="indefinite"/>
<circle r="26" fill="#FFB7B2" fill-opacity="0.85"/>
<ellipse cx="-8" cy="-8" rx="7" ry="5" fill="#FFFFFF" fill-opacity="0.8"/>
</g>
<g transform="translate(1120,320)">
<animateTransform attributeName="transform" type="translate" values="1120,320;1100,300;1120,320" dur="9s" repeatCount="indefinite"/>
<circle r="22" fill="#C7CEEA" fill-opacity="0.85"/>
<ellipse cx="-7" cy="-7" rx="6" ry="4" fill="#FFFFFF" fill-opacity="0.8"/>
</g>
<g transform="translate(580,580)">
<animateTransform attributeName="transform" type="translate" values="580,580;590,570;580,580" dur="5s" repeatCount="indefinite"/>
<circle r="16" fill="#FFFFFF" fill-opacity="0.9"/>
</g>
<g transform="translate(1020,520)">
<animateTransform attributeName="transform" type="scale" values="0;1;0" dur="3s" repeatCount="indefinite"/>
<path d="M0,-12 L3,-3 L12,0 L3,3 L0,12 L-3,3 L-12,0 L-3,-3 Z" fill="#FFFFFF" fill-opacity="0.9"/>
</g>
<g transform="translate(680,220)">
<animateTransform attributeName="transform" type="scale" values="0;1.2;0" dur="4s" repeatCount="indefinite"/>
<path d="M0,-10 L2,-2 L10,0 L2,2 L0,10 L-2,2 L-10,0 L-2,-2 Z" fill="#C7CEEA" fill-opacity="0.9"/>
</g>
<g transform="translate(920,250)">
<animateTransform attributeName="transform" type="scale" values="0;0.8;0" dur="5s" repeatCount="indefinite"/>
<path d="M0,-8 L2,-2 L8,0 L2,2 L0,8 L-2,2 L-8,0 L-2,-2 Z" fill="#FFB7B2" fill-opacity="0.9"/>
</g>
</svg>