<?xml version="1.0" encoding="UTF-8"?>
<svg viewBox="0 0 1600 900" xmlns="http://www.w3.org/2000/svg" preserveAspectRatio="xMidYMid slice">
<defs>
<filter id="b1" x="-50%" y="-50%" width="200%" height="200%"><feGaussianBlur stdDeviation="35"/></filter>
<filter id="b2" x="-50%" y="-50%" width="200%" height="200%"><feGaussianBlur stdDeviation="75"/></filter>
<filter id="n"><feTurbulence baseFrequency="0.012" numOctaves="3"/><feColorMatrix type="matrix" values="1 0 0 0 0 0 1 0 0 0 0 0 1 0 0 0 0 0 0.08 0"/></filter>
<linearGradient id="g1" x1="0%" y1="0%" x2="100%" y2="0%"><stop offset="0%" stop-color="#B85440"/><stop offset="50%" stop-color="#FF7F00"/><stop offset="100%" stop-color="#FA8072"/><animate attributeName="x1" values="0%;20%;0%" dur="8s" repeatCount="indefinite"/></linearGradient>
<linearGradient id="g2" x1="0%" y1="0%" x2="100%" y2="0%"><stop offset="0%" stop-color="#FF7F00"/><stop offset="100%" stop-color="#FFB088"/><animate attributeName="x2" values="100%;80%;100%" dur="6s" repeatCount="indefinite"/></linearGradient>
<linearGradient id="g3" x1="100%" y1="0%" x2="0%" y2="0%"><stop offset="0%" stop-color="#FA8072"/><stop offset="50%" stop-color="#B85440"/><stop offset="100%" stop-color="#FF7F00"/></linearGradient>
</defs>
<rect width="1600" height="900" fill="#FFF5EB"/>
<path d="M-200,600 Q200,500 600,600T1400,600T2000,600" fill="none" stroke="#B85440" stroke-width="180" opacity="0.85" filter="url(#b2)"><animateTransform attributeName="transform" type="translate" values="0,0;-100,20;0,0" dur="10s" repeatCount="indefinite"/></path>
<path d="M-200,450 Q300,350 700,450T1500,450T2200,450" fill="none" stroke="#FF7F00" stroke-width="220" opacity="0.9" filter="url(#b1)"><animateTransform attributeName="transform" type="translate" values="-200,0;0,0;-200,0" dur="8s" repeatCount="indefinite"/></path>
<path d="M-100,300 C300,200 500,400 900,300S1700,200 1900,300" fill="none" stroke="#FA8072" stroke-width="160" opacity="1"><animateTransform attributeName="transform" type="translate" values="0,0;50,-30;0,0" dur="7s" repeatCount="indefinite"/></path>
<path d="M-200,750 Q400,650 1000,750T2000,750" fill="none" stroke="url(#g1)" stroke-width="200" opacity="0.8" filter="url(#b1)"><animateTransform attributeName="transform" type="translate" values="0,0;-150,0;0,0" dur="9s" repeatCount="indefinite"/></path>
<path d="M0,150 C400,50 800,250 1200,150S1800,50 2000,150" fill="none" stroke="#FF7F00" stroke-width="140" opacity="0.95" filter="url(#b2)"><animate attributeName="opacity" values="0.95;0.8;0.95" dur="5s" repeatCount="indefinite"/></path>
<path d="M-100,500H1700V650H-100Z" fill="url(#g2)" opacity="0.75" filter="url(#b1)"><animateTransform attributeName="transform" type="translate" values="0,0;0,40;0,0" dur="6s" repeatCount="indefinite"/></path>
<path d="M-200,100 Q300,0 800,100T1800,100" fill="none" stroke="#FA8072" stroke-width="120" opacity="0.9"><animateTransform attributeName="transform" type="translate" values="0,0;100,0;0,0" dur="8s" repeatCount="indefinite"/></path>
<path d="M-100,800 C300,700 700,900 1100,800S1900,700 2100,800" fill="none" stroke="#FFB088" stroke-width="250" opacity="0.85" filter="url(#b1)"><animateTransform attributeName="transform" type="scale" values="1;1.05;1" dur="10s" repeatCount="indefinite" additive="sum"/></path>
<path d="M0,400L1600,350V500L0,550Z" fill="url(#g3)" opacity="0.8"><animateTransform attributeName="transform" type="skewX" values="0;5;0" dur="8s" repeatCount="indefinite"/></path>
<path d="M-100,250 C200,150 600,350 1000,250S1800,150 2000,250" fill="none" stroke="#FA8072" stroke-width="100" opacity="1" filter="url(#b1)"><animateTransform attributeName="transform" type="translate" values="0,0;-50,20;0,0" dur="7s" repeatCount="indefinite"/></path>
<path d="M-200,850 Q200,750 600,850T1400,850T2000,850" fill="none" stroke="#B85440" stroke-width="300" opacity="0.7" filter="url(#b2)"><animate attributeName="stroke-width" values="300;320;300" dur="9s" repeatCount="indefinite"/></path>
<path d="M100,50 C500,-50 1100,150 1500,50" fill="none" stroke="#FFB088" stroke-width="80" opacity="0.9"><animateTransform attributeName="transform" type="translate" values="0,0;0,30;0,0" dur="6s" repeatCount="indefinite"/></path>
<rect width="1600" height="900" fill="transparent" filter="url(#n)" opacity="0.1" style="pointer-events:none"/>
</svg>