<?xml version="1.0" encoding="UTF-8"?>
<svg xmlns="http://www.w3.org/2000/svg" viewBox="0 0 1600 900" preserveAspectRatio="xMidYMid slice">
  <defs>
    <filter id="f40"><feGaussianBlur stdDeviation="40"/></filter>
    <filter id="f80"><feGaussianBlur stdDeviation="80"/></filter>
    <filter id="f120"><feGaussianBlur stdDeviation="120"/></filter>
    <filter id="f160"><feGaussianBlur stdDeviation="160"/></filter>
    <filter id="fg"><feTurbulence type="fractalNoise" baseFrequency="0.6" numOctaves="3" stitchTiles="stitch"/><feColorMatrix type="matrix" values="0 0 0 0 1 0 0 0 0 1 0 0 0 0 1 0 0 0 0.1 0"/></filter>
    <linearGradient id="g1" x1="0%" y1="0%" x2="100%" y2="100%">
      <stop offset="0%" stop-color="#FBF7EE"><animate attributeName="stop-color" values="#FBF7EE;#FFFFFF;#FBF7EE" keyTimes="0;0.5;1" dur="25s" repeatCount="indefinite" calcMode="spline" keySplines="0.4 0 0.6 1;0.4 0 0.6 1"/></stop>
      <stop offset="100%" stop-color="#E0CFFC"><animate attributeName="stop-color" values="#E0CFFC;#B89FE0;#E0CFFC" keyTimes="0;0.5;1" dur="28s" repeatCount="indefinite" calcMode="spline" keySplines="0.4 0 0.6 1;0.4 0 0.6 1"/></stop>
    </linearGradient>
    <radialGradient id="g2" cx="55%" cy="50%" r="60%">
      <stop offset="0%" stop-color="#FFFFFF"><animate attributeName="stop-color" values="#FFFFFF;#F8F4FF;#FFFFFF" keyTimes="0;0.5;1" dur="22s" repeatCount="indefinite" calcMode="spline" keySplines="0.4 0 0.6 1;0.4 0 0.6 1"/></stop>
      <stop offset="100%" stop-color="#E0CFFC"><animate attributeName="stop-color" values="#E0CFFC;#F8F4FF;#E0CFFC" keyTimes="0;0.5;1" dur="24s" repeatCount="indefinite" calcMode="spline" keySplines="0.4 0 0.6 1;0.4 0 0.6 1"/></stop>
    </radialGradient>
    <linearGradient id="g3" x1="0%" y1="100%" x2="100%" y2="0%">
      <stop offset="0%" stop-color="#F8F4FF"><animate attributeName="stop-color" values="#F8F4FF;#FFFFFF;#F8F4FF" keyTimes="0;0.5;1" dur="26s" repeatCount="indefinite" calcMode="spline" keySplines="0.4 0 0.6 1;0.4 0 0.6 1"/></stop>
      <stop offset="100%" stop-color="#B89FE0"><animate attributeName="stop-color" values="#B89FE0;#E0CFFC;#B89FE0" keyTimes="0;0.5;1" dur="30s" repeatCount="indefinite" calcMode="spline" keySplines="0.4 0 0.6 1;0.4 0 0.6 1"/></stop>
    </linearGradient>
    <linearGradient id="g4" x1="0%" y1="0%" x2="0%" y2="100%">
      <stop offset="0%" stop-color="#FFFFFF"><animate attributeName="stop-color" values="#FFFFFF;#FBF7EE;#FFFFFF" keyTimes="0;0.5;1" dur="20s" repeatCount="indefinite" calcMode="spline" keySplines="0.4 0 0.6 1;0.4 0 0.6 1"/></stop>
      <stop offset="100%" stop-color="#F8F4FF"><animate attributeName="stop-color" values="#F8F4FF;#E0CFFC;#F8F4FF" keyTimes="0;0.5;1" dur="24s" repeatCount="indefinite" calcMode="spline" keySplines="0.4 0 0.6 1;0.4 0 0.6 1"/></stop>
    </linearGradient>
  </defs>
  <rect width="1600" height="900" fill="#FBF7EE">
    <animate attributeName="fill" values="#FBF7EE;#F8F4FF;#FBF7EE" keyTimes="0;0.5;1" dur="30s" repeatCount="indefinite" calcMode="spline" keySplines="0.4 0 0.6 1;0.4 0 0.6 1"/>
  </rect>
  <g transform="translate(1400,750)"><g><animateTransform attributeName="transform" type="scale" values="0.98;1.02;0.98" keyTimes="0;0.5;1" dur="22s" repeatCount="indefinite" calcMode="spline" keySplines="0.4 0 0.6 1;0.4 0 0.6 1" additive="sum"/><animate attributeName="opacity" values="0.3;0.45;0.3" keyTimes="0;0.5;1" dur="23s" repeatCount="indefinite" calcMode="spline" keySplines="0.4 0 0.6 1;0.4 0 0.6 1"/><path d="M-300,-200 C0,-250 250,-100 200,80 C150,260 -100,220 -300,200 C-500,180 -600,-100 -300,-200 Z" fill="#B89FE0" filter="url(#f160)" opacity="0.3"/></g></g>
  <g transform="translate(300,500)"><g><animateTransform attributeName="transform" type="scale" values="0.98;1.02;0.98" keyTimes="0;0.5;1" dur="13s" repeatCount="indefinite" calcMode="spline" keySplines="0.4 0 0.6 1;0.4 0 0.6 1" additive="sum"/><animate attributeName="opacity" values="0.5;0.65;0.5" keyTimes="0;0.5;1" dur="14s" repeatCount="indefinite" calcMode="spline" keySplines="0.4 0 0.6 1;0.4 0 0.6 1"/><path d="M-400,-300 C-150,-400 200,-250 150,50 C100,350 -200,400 -400,300 C-600,200 -650,-100 -400,-300 Z" fill="#FFFFFF" filter="url(#f160)" opacity="0.5"/></g></g>
  <g transform="translate(1300,500)"><g><animateTransform attributeName="transform" type="scale" values="0.98;1.02;0.98" keyTimes="0;0.5;1" dur="15s" repeatCount="indefinite" calcMode="spline" keySplines="0.4 0 0.6 1;0.4 0 0.6 1" additive="sum"/><animate attributeName="opacity" values="0.45;0.6;0.45" keyTimes="0;0.5;1" dur="16s" repeatCount="indefinite" calcMode="spline" keySplines="0.4 0 0.6 1;0.4 0 0.6 1"/><path d="M-350,-300 C-50,-400 300,-200 250,100 C200,400 -100,450 -350,350 C-600,250 -650,-100 -350,-300 Z" fill="#B89FE0" filter="url(#f160)" opacity="0.45"/></g></g>
  <g transform="translate(200,150)"><g><animateTransform attributeName="transform" type="scale" values="0.98;1.02;0.98" keyTimes="0;0.5;1" dur="20s" repeatCount="indefinite" calcMode="spline" keySplines="0.4 0 0.6 1;0.4 0 0.6 1" additive="sum"/><animate attributeName="opacity" values="0.3;0.45;0.3" keyTimes="0;0.5;1" dur="22s" repeatCount="indefinite" calcMode="spline" keySplines="0.4 0 0.6 1;0.4 0 0.6 1"/><path d="M-300,-200 C0,-250 250,-100 200,80 C150,260 -100,220 -300,200 C-500,180 -600,-100 -300,-200 Z" fill="#FFFFFF" filter="url(#f120)" opacity="0.3"/></g></g>
  <g transform="translate(450,350)"><g><animateTransform attributeName="transform" type="scale" values="0.98;1.02;0.98" keyTimes="0;0.5;1" dur="11s" repeatCount="indefinite" calcMode="spline" keySplines="0.4 0 0.6 1;0.4 0 0.6 1" additive="sum"/><animate attributeName="opacity" values="0.65;0.8;0.65" keyTimes="0;0.5;1" dur="12s" repeatCount="indefinite" calcMode="spline" keySplines="0.4 0 0.6 1;0.4 0 0.6 1"/><path d="M-300,-200 C-50,-300 200,-150 150,100 C100,350 -150,400 -300,300 C-450,200 -550,-100 -300,-200 Z" fill="#FBF7EE" filter="url(#f120)" opacity="0.65"/></g></g>
  <g transform="translate(1150,550)"><g><animateTransform attributeName="transform" type="scale" values="0.98;1.02;0.98" keyTimes="0;0.5;1" dur="12s" repeatCount="indefinite" calcMode="spline" keySplines="0.4 0 0.6 1;0.4 0 0.6 1" additive="sum"/><animate attributeName="opacity" values="0.6;0.75;0.6" keyTimes="0;0.5;1" dur="13s" repeatCount="indefinite" calcMode="spline" keySplines="0.4 0 0.6 1;0.4 0 0.6 1"/><path d="M-300,-250 C0,-350 250,-150 200,150 C150,450 -100,500 -300,400 C-500,300 -600,0 -300,-250 Z" fill="#E0CFFC" filter="url(#f120)" opacity="0.6"/></g></g>
  <g transform="translate(850,480)"><g><animateTransform attributeName="transform" type="scale" values="0.98;1.02;0.98" keyTimes="0;0.5;1" dur="18s" repeatCount="indefinite" calcMode="spline" keySplines="0.4 0 0.6 1;0.4 0 0.6 1" additive="sum"/><animate attributeName="opacity" values="0.5;0.65;0.5" keyTimes="0;0.5;1" dur="19s" repeatCount="indefinite" calcMode="spline" keySplines="0.4 0 0.6 1;0.4 0 0.6 1"/><path d="M-250,-180 C-30,-300 220,-220 200,30 C180,280 -30,320 -250,260 C-470,200 -470,-60 -250,-180 Z" fill="url(#g2)" filter="url(#f160)" opacity="0.5"/></g></g>
  <g transform="translate(800,450)"><g><animateTransform attributeName="transform" type="scale" values="0.98;1.02;0.98" keyTimes="0;0.5;1" dur="16s" repeatCount="indefinite" calcMode="spline" keySplines="0.4 0 0.6 1;0.4 0 0.6 1" additive="sum"/><animate attributeName="opacity" values="0.55;0.7;0.55" keyTimes="0;0.5;1" dur="17s" repeatCount="indefinite" calcMode="spline" keySplines="0.4 0 0.6 1;0.4 0 0.6 1"/><path d="M-300,-200 C-50,-350 200,-250 250,0 C300,250 50,350 -200,300 C-450,250 -550,0 -300,-200 Z" fill="url(#g1)" filter="url(#f120)" opacity="0.55"/></g></g>
  <g transform="translate(1250,700)"><g><animateTransform attributeName="transform" type="scale" values="0.98;1.02;0.98" keyTimes="0;0.5;1" dur="14s" repeatCount="indefinite" calcMode="spline" keySplines="0.4 0 0.6 1;0.4 0 0.6 1" additive="sum"/><animate attributeName="opacity" values="0.45;0.6;0.45" keyTimes="0;0.5;1" dur="15s" repeatCount="indefinite" calcMode="spline" keySplines="0.4 0 0.6 1;0.4 0 0.6 1"/><path d="M-250,-100 C-50,-200 150,-150 100,50 C50,250 -150,200 -250,100 C-350,0 -450,-50 -250,-100 Z" fill="#B89FE0" filter="url(#f80)" opacity="0.45"/></g></g>
  <g transform="translate(350,200)"><g><animateTransform attributeName="transform" type="scale" values="0.98;1.02;0.98" keyTimes="0;0.5;1" dur="10s" repeatCount="indefinite" calcMode="spline" keySplines="0.4 0 0.6 1;0.4 0 0.6 1" additive="sum"/><animate attributeName="opacity" values="0.5;0.65;0.5" keyTimes="0;0.5;1" dur="11s" repeatCount="indefinite" calcMode="spline" keySplines="0.4 0 0.6 1;0.4 0 0.6 1"/><path d="M-250,-100 C-50,-200 150,-150 100,50 C50,250 -150,200 -250,100 C-350,0 -450,-50 -250,-100 Z" fill="#FFFFFF" filter="url(#f80)" opacity="0.5"/></g></g>
  <g transform="translate(820,500)"><g><animateTransform attributeName="transform" type="scale" values="0.98;1.02;0.98" keyTimes="0;0.5;1" dur="14s" repeatCount="indefinite" calcMode="spline" keySplines="0.4 0 0.6 1;0.4 0 0.6 1" additive="sum"/><animate attributeName="opacity" values="0.45;0.6;0.45" keyTimes="0;0.5;1" dur="15s" repeatCount="indefinite" calcMode="spline" keySplines="0.4 0 0.6 1;0.4 0 0.6 1"/><path d="M-300,-40 C-80,-80 120,-60 300,-20 C340,0 300,40 80,60 C-120,80 -320,40 -360,0 C-400,-40 -500,-20 -300,-40 Z" fill="#E0CFFC" filter="url(#f120)" opacity="0.45"/></g></g>
  <g transform="translate(800,420)"><g><animateTransform attributeName="transform" type="scale" values="0.98;1.02;0.98" keyTimes="0;0.5;1" dur="12s" repeatCount="indefinite" calcMode="spline" keySplines="0.4 0 0.6 1;0.4 0 0.6 1" additive="sum"/><animate attributeName="opacity" values="0.6;0.75;0.6" keyTimes="0;0.5;1" dur="14s" repeatCount="indefinite" calcMode="spline" keySplines="0.4 0 0.6 1;0.4 0 0.6 1"/><path d="M-350,-50 C-100,-90 100,-70 350,-30 C400,-10 350,50 100,70 C-100,90 -350,50 -400,10 C-450,-30 -600,-10 -350,-50 Z" fill="#F8F4FF" filter="url(#f80)" opacity="0.6"/></g></g>
  <g transform="translate(1100,300)"><g><animateTransform attributeName="transform" type="scale" values="0.98;1.02;0.98" keyTimes="0;0.5;1" dur="10s" repeatCount="indefinite" calcMode="spline" keySplines="0.4 0 0.6 1;0.4 0 0.6 1" additive="sum"/><animate attributeName="opacity" values="0.75;0.9;0.75" keyTimes="0;0.5;1" dur="11s" repeatCount="indefinite" calcMode="spline" keySplines="0.4 0 0.6 1;0.4 0 0.6 1"/><path d="M-200,-150 C0,-250 180,-150 150,50 C120,250 -50,300 -200,200 C-350,100 -400,-50 -200,-150 Z" fill="#E0CFFC" filter="url(#f40)" opacity="0.75"/></g></g>
  <g transform="translate(500,650)"><g><animateTransform attributeName="transform" type="scale" values="0.98;1.02;0.98" keyTimes="0;0.5;1" dur="9s" repeatCount="indefinite" calcMode="spline" keySplines="0.4 0 0.6 1;0.4 0 0.6 1" additive="sum"/><animate attributeName="opacity" values="0.8;0.95;0.8" keyTimes="0;0.5;1" dur="10s" repeatCount="indefinite" calcMode="spline" keySplines="0.4 0 0.6 1;0.4 0 0.6 1"/><path d="M-200,-150 C0,-250 180,-150 150,50 C120,250 -50,300 -200,200 C-350,100 -400,-50 -200,-150 Z" fill="#FBF7EE" filter="url(#f40)" opacity="0.8"/></g></g>
  <g transform="translate(850,450)"><g><animateTransform attributeName="transform" type="scale" values="0.98;1.02;0.98" keyTimes="0;0.5;1" dur="10s" repeatCount="indefinite" calcMode="spline" keySplines="0.4 0 0.6 1;0.4 0 0.6 1" additive="sum"/><animate attributeName="opacity" values="0.7;0.85;0.7" keyTimes="0;0.5;1" dur="12s" repeatCount="indefinite" calcMode="spline" keySplines="0.4 0 0.6 1;0.4 0 0.6 1"/><path d="M-100,-120 C0,-160 120,-100 100,20 C80,140 -20,180 -100,120 C-180,60 -200,-40 -100,-120 Z" fill="url(#g3)" filter="url(#f80)" opacity="0.7"/></g></g>
  <g transform="translate(780,470)"><g><animateTransform attributeName="transform" type="scale" values="0.98;1.02;0.98" keyTimes="0;0.5;1" dur="11s" repeatCount="indefinite" calcMode="spline" keySplines="0.4 0 0.6 1;0.4 0 0.6 1" additive="sum"/><animate attributeName="opacity" values="0.5;0.65;0.5" keyTimes="0;0.5;1" dur="13s" repeatCount="indefinite" calcMode="spline" keySplines="0.4 0 0.6 1;0.4 0 0.6 1"/><path d="M-80,-100 C20,-140 120,-80 100,20 C80,120 -20,160 -100,100 C-180,40 -180,-60 -80,-100 Z" fill="url(#g4)" filter="url(#f40)" opacity="0.5"/></g></g>
  <g transform="translate(1400,250)"><g><animateTransform attributeName="transform" type="scale" values="0.98;1.02;0.98" keyTimes="0;0.5;1" dur="9s" repeatCount="indefinite" calcMode="spline" keySplines="0.4 0 0.6 1;0.4 0 0.6 1" additive="sum"/><animate attributeName="opacity" values="0.85;0.65;0.85" keyTimes="0;0.5;1" dur="11s" repeatCount="indefinite" calcMode="spline" keySplines="0.4 0 0.6 1;0.4 0 0.6 1"/><path d="M-120,-60 C-20,-100 100,-80 80,10 C60,100 -60,90 -120,70 C-180,50 -200,-20 -120,-60 Z" fill="#F8F4FF" filter="url(#f40)" opacity="0.85"/></g></g>
  <g transform="translate(200,750)"><g><animateTransform attributeName="transform" type="scale" values="0.98;1.02;0.98" keyTimes="0;0.5;1" dur="8s" repeatCount="indefinite" calcMode="spline" keySplines="0.4 0 0.6 1;0.4 0 0.6 1" additive="sum"/><animate attributeName="opacity" values="0.9;0.7;0.9" keyTimes="0;0.5;1" dur="10s" repeatCount="indefinite" calcMode="spline" keySplines="0.4 0 0.6 1;0.4 0 0.6 1"/><path d="M-120,-60 C-20,-100 100,-80 80,10 C60,100 -60,90 -120,70 C-180,50 -200,-20 -120,-60 Z" fill="#FFFFFF" filter="url(#f40)" opacity="0.9"/></g></g>
  <circle r="4" fill="#FFFFFF" filter="url(#f40)" opacity="0.8"><animateMotion path="M200,800 C400,600 600,700 800,450 C1000,200 1200,300 1400,100" dur="22s" repeatCount="indefinite" calcMode="spline" keyPoints="0;1" keyTimes="0;1" keySplines="0.4 0 0.6 1"/></circle>
  <circle r="3" fill="#FBF7EE" filter="url(#f40)" opacity="0.7"><animateMotion path="M1400,800 C1200,600 1000,700 800,450 C600,200 400,300 200,100" dur="25s" repeatCount="indefinite" calcMode="spline" keyPoints="0;1" keyTimes="0;1" keySplines="0.4 0 0.6 1"/></circle>
  <circle r="5" fill="#E0CFFC" filter="url(#f40)" opacity="0.6"><animateMotion path="M800,900 C700,700 900,500 850,450 C800,400 700,200 800,0" dur="20s" repeatCount="indefinite" calcMode="spline" keyPoints="0;1" keyTimes="0;1" keySplines="0.4 0 0.6 1"/></circle>
  <circle r="3" fill="#F8F4FF" filter="url(#f40)" opacity="0.9"><animateMotion path="M0,450 C300,400 500,500 800,450 C1100,400 1300,500 1600,450" dur="24s" repeatCount="indefinite" calcMode="spline" keyPoints="0;1" keyTimes="0;1" keySplines="0.4 0 0.6 1"/></circle>
  <circle r="4" fill="#B89FE0" filter="url(#f40)" opacity="0.5"><animateMotion path="M800,0 C900,200 700,400 850,450 C1000,500 900,700 800,900" dur="26s" repeatCount="indefinite" calcMode="spline" keyPoints="0;1" keyTimes="0;1" keySplines="0.4 0 0.6 1"/></circle>
  <rect width="1600" height="900" fill="#FFFFFF" filter="url(#fg)" opacity="0.6" pointer-events="none"><animate attributeName="opacity" values="0.4;0.8;0.4" keyTimes="0;0.5;1" dur="15s" repeatCount="indefinite" calcMode="spline" keySplines="0.4 0 0.6 1;0.4 0 0.6 1"/></rect>
</svg>