<?xml version="1.0" encoding="UTF-8"?>
<svg xmlns="http://www.w3.org/2000/svg" viewBox="0 0 1600 900" preserveAspectRatio="xMidYMid slice">
<defs>
<filter id="f1" x="-50%" y="-50%" width="200%" height="200%">
<feGaussianBlur stdDeviation="30">
<animate attributeName="stdDeviation" values="30;40;30" dur="8s" repeatCount="indefinite"/>
</feGaussianBlur>
</filter>
<filter id="f2" x="-50%" y="-50%" width="200%" height="200%">
<feGaussianBlur stdDeviation="6">
<animate attributeName="stdDeviation" values="6;10;6;8;6" dur="2s" repeatCount="indefinite"/>
</feGaussianBlur>
</filter>
<filter id="f3" x="-30%" y="-30%" width="160%" height="160%">
<feGaussianBlur stdDeviation="10"/>
</filter>
<linearGradient id="g1" x1="0%" y1="0%" x2="100%" y2="100%">
<stop offset="0%" stop-color="#FFB7B2"/>
<stop offset="50%" stop-color="#FFDAC1">
<animate attributeName="offset" values="0.3;0.7;0.3" dur="6s" repeatCount="indefinite"/>
</stop>
<stop offset="100%" stop-color="#FFB7B2"/>
</linearGradient>
<linearGradient id="g2" x1="0%" y1="0%" x2="0%" y2="100%">
<stop offset="0%" stop-color="#B5EAD7"/>
<stop offset="60%" stop-color="#FFDAC1"/>
<stop offset="100%" stop-color="#B5EAD7"/>
<animate attributeName="x1" values="0%;20%;0%" dur="7s" repeatCount="indefinite"/>
</linearGradient>
<radialGradient id="g3" cx="50%" cy="50%" r="60%">
<stop offset="0%" stop-color="#FFB7B2" stop-opacity="0.25">
<animate attributeName="stop-opacity" values="0.2;0.35;0.2" dur="5s" repeatCount="indefinite"/>
</stop>
<stop offset="100%" stop-color="#1E1A29" stop-opacity="0"/>
</radialGradient>
<radialGradient id="g4" cx="40%" cy="30%" r="70%">
<stop offset="0%" stop-color="#FFB7B2" stop-opacity="0.15"/>
<stop offset="50%" stop-color="#1E1A29" stop-opacity="0.9"/>
<stop offset="100%" stop-color="#1E1A29"/>
<animate attributeName="cx" values="40%;60%;40%" dur="9s" repeatCount="indefinite"/>
</radialGradient>
</defs>
<rect width="1600" height="900" fill="#1E1A29"/>
<ellipse cx="800" cy="400" rx="650" ry="450" fill="url(#g3)" filter="url(#f1)"/>
<path d="M 0,0 Q 120,300 60,900 L 0,900 Z" fill="#FFDAC1" opacity="0.04"/>
<path d="M 1600,0 Q 1480,300 1540,900 L 1600,900 Z" fill="#B5EAD7" opacity="0.03"/>
<g transform="translate(800,220) scale(1.6)">
<path d="M0,30 C-40,-20 -90,20 0,90 C90,20 40,-20 0,30 Z" fill="none" stroke="#B5EAD7" stroke-width="6" filter="url(#f2)" opacity="0.9">
<animate attributeName="opacity" values="0.9;0.5;0.9;0.7;0.9;0.6;0.9" dur="3.2s" repeatCount="indefinite"/>
<animate attributeName="stroke-width" values="6;8;6;7;6" dur="3.2s" repeatCount="indefinite"/>
</path>
<path d="M0,30 C-40,-20 -90,20 0,90 C90,20 40,-20 0,30 Z" fill="none" stroke="#B5EAD7" stroke-width="2" opacity="0.8">
<animate attributeName="opacity" values="0.8;0.4;0.8;0.6;0.8" dur="3.2s" repeatCount="indefinite"/>
</path>
</g>
<g transform="translate(720,260)">
<path d="M0,0 A20,20 0 1,0 0,40 A15,15 0 1,1 0,0 Z" fill="#FFB7B2" filter="url(#f2)" opacity="0.8">
<animate attributeName="opacity" values="0.8;0.4;0.8" dur="4s" repeatCount="indefinite"/>
</path>
</g>
<path d="M 520,900 C 520,650 560,380 800,340 C 1040,380 1080,650 1080,900 Z" fill="#1E1A29" stroke="#FFDAC1" stroke-opacity="0.06" stroke-width="2"/>
<path d="M 560,530 C 560,460 1040,460 1040,530 C 1090,580 1090,780 1040,830 C 1040,900 560,900 560,830 C 510,780 510,580 560,530 Z" fill="url(#g4)"/>
<path d="M 560,530 C 560,460 1040,460 1040,530 C 1040,580 1040,780 1040,830 C 1040,900 560,900 560,830 C 560,780 560,580 560,530 Z" fill="none" stroke="#1E1A29" stroke-width="18" opacity="0.4" filter="url(#f3)"/>
<ellipse cx="800" cy="540" rx="210" ry="55" fill="#FFDAC1" opacity="0.08" filter="url(#f3)">
<animate attributeName="opacity" values="0.06;0.12;0.06" dur="7s" repeatCount="indefinite"/>
</ellipse>
<path d="M 800,530 L 800,840 M 560,685 L 1040,685 M 680,608 L 920,762 M 920,608 L 680,762" stroke="#FFB7B2" stroke-opacity="0.12" stroke-width="3" fill="none"/>
<circle cx="800" cy="685" r="14" fill="#FFDAC1" opacity="0.25"/>
<circle cx="800" cy="685" r="7" fill="#1E1A29" opacity="0.6"/>
<g>
<path d="M 430,720 Q 460,680 490,720 T 550,730 T 610,710" fill="none" stroke="#B5EAD7" stroke-width="22" stroke-linecap="round" filter="url(#f3)" opacity="0.9"/>
<path d="M 430,720 Q 460,680 490,720 T 550,730 T 610,710" fill="none" stroke="#B5EAD7" stroke-width="10" stroke-linecap="round"/>
<animateTransform attributeName="transform" type="rotate" values="-2 430 720;3 430 720;-2 430 720" dur="6s" repeatCount="indefinite" calcMode="spline" keySplines="0.4 0 0.6 1;0.4 0 0.6 1"/>
</g>
<g>
<path d="M 1280,760 Q 1310,720 1340,760 T 1400,770 T 1460,750" fill="none" stroke="#FFB7B2" stroke-width="20" stroke-linecap="round" filter="url(#f3)" opacity="0.8"/>
<path d="M 1280,760 Q 1310,720 1340,760 T 1400,770 T 1460,750" fill="none" stroke="#FFB7B2" stroke-width="9" stroke-linecap="round"/>
<animateTransform attributeName="transform" type="rotate" values="1 1280 760;-2 1280 760;1 1280 760" dur="5.5s" repeatCount="indefinite" calcMode="spline" keySplines="0.4 0 0.6 1;0.4 0 0.6 1"/>
</g>
<g transform="translate(1200,640)">
<path d="M-38,0 C-38,-48 -22,-78 0,-78 C22,-78 38,-48 38,0 C38,28 10,48 0,58 C-10,48 -38,28 -38,0 Z" fill="none" stroke="#FFDAC1" stroke-width="3" opacity="0.6"/>
<path d="M0,58 L0,108 M-22,108 L22,108" fill="none" stroke="#FFDAC1" stroke-width="4" opacity="0.6" stroke-linecap="round"/>
<path d="M-30,-8 C-30,-38 -16,-58 0,-58 C16,-58 30,-38 30,-8 C30,12 10,26 0,30 C-10,26 -30,12 -30,-8 Z" fill="#FFB7B2" opacity="0.45"/>
<circle cx="-8" cy="15" r="3" fill="#B5EAD7" opacity="0">
<animate attributeName="cy" values="15;-55" dur="3s" repeatCount="indefinite"/>
<animate attributeName="opacity" values="0;0.8;0" dur="3s" repeatCount="indefinite"/>
</circle>
<circle cx="6" cy="5" r="2" fill="#B5EAD7" opacity="0">
<animate attributeName="cy" values="5;-65" dur="2.4s" begin="0.4s" repeatCount="indefinite"/>
<animate attributeName="opacity" values="0;0.9;0" dur="2.4s" begin="0.4s" repeatCount="indefinite"/>
</circle>
<circle cx="0" cy="22" r="2.5" fill="#B5EAD7" opacity="0">
<animate attributeName="cy" values="22;-48" dur="3.2s" begin="0.9s" repeatCount="indefinite"/>
<animate attributeName="opacity" values="0;0.7;0" dur="3.2s" begin="0.9s" repeatCount="indefinite"/>
</circle>
<circle cx="14" cy="-2" r="2" fill="#B5EAD7" opacity="0">
<animate attributeName="cy" values="-2;-72" dur="2.7s" begin="1.3s" repeatCount="indefinite"/>
<animate attributeName="opacity" values="0;0.8;0" dur="2.7s" begin="1.3s" repeatCount="indefinite"/>
</circle>
<circle cx="-10" cy="-8" r="1.5" fill="#B5EAD7" opacity="0">
<animate attributeName="cy" values="-8;-58" dur="2s" begin="1.8s" repeatCount="indefinite"/>
<animate attributeName="opacity" values="0;0.9;0" dur="2s" begin="1.8s" repeatCount="indefinite"/>
</circle>
<circle cx="4" cy="12" r="2" fill="#B5EAD7" opacity="0">
<animate attributeName="cy" values="12;-52" dur="2.9s" begin="2.2s" repeatCount="indefinite"/>
<animate attributeName="opacity" values="0;0.8;0" dur="2.9s" begin="2.2s" repeatCount="indefinite"/>
</circle>
<circle cx="-5" cy="-1" r="1" fill="#B5EAD7" opacity="0">
<animate attributeName="cy" values="-1;-61" dur="2.3s" begin="2.6s" repeatCount="indefinite"/>
<animate attributeName="opacity" values="0;0.7;0" dur="2.3s" begin="2.6s" repeatCount="indefinite"/>
</circle>
<path d="M-18,-48 Q-8,-58 0,-58" fill="none" stroke="#FFDAC1" stroke-width="2" opacity="0.5">
<animate attributeName="opacity" values="0.5;0.1;0.5" dur="4s" repeatCount="indefinite"/>
</path>
</g>
<g transform="translate(1140,760)">
<circle cx="0" cy="0" r="28" fill="#1E1A29" stroke="#FFDAC1" stroke-width="3" opacity="0.7"/>
<circle cx="0" cy="0" r="22" fill="none" stroke="#FFDAC1" stroke-width="1" opacity="0.3"/>
<path d="M0,28 L0,55" stroke="#FFDAC1" stroke-width="4" opacity="0.7" stroke-linecap="round"/>
<path d="M-12,52 L12,52" stroke="#FFDAC1" stroke-width="4" opacity="0.7" stroke-linecap="round"/>
<path d="M-10,-10 Q0,-18 10,-10" fill="none" stroke="#FFDAC1" stroke-width="2" opacity="0.4">
<animate attributeName="opacity" values="0.4;0.1;0.4" dur="5s" repeatCount="indefinite"/>
</path>
</g>
<g>
<path d="M 720,410 Q 660,540 680,640 T 630,790" fill="none" stroke="#FFDAC1" stroke-width="2" opacity="0.35"/>
<circle cx="690" cy="490" r="7" fill="#FFDAC1" opacity="0.9">
<animate attributeName="opacity" values="0.7;1;0.7" dur="3s" repeatCount="indefinite"/>
</circle>
<circle cx="675" cy="530" r="8" fill="#FFDAC1" opacity="0.9">
<animate attributeName="opacity" values="0.8;1;0.8" dur="3.4s" begin="0.2s" repeatCount="indefinite"/>
</circle>
<circle cx="670" cy="575" r="7" fill="#FFDAC1" opacity="0.9">
<animate attributeName="opacity" values="0.7;1;0.7" dur="4.1s" begin="0.5s" repeatCount="indefinite"/>
</circle>
<circle cx="660" cy="620" r="8" fill="#FFDAC1" opacity="0.9">
<animate attributeName="opacity" values="0.9;0.6;0.9" dur="3.2s" begin="0.9s" repeatCount="indefinite"/>
</circle>
<circle cx="650" cy="670" r="7" fill="#FFDAC1" opacity="0.9">
<animate attributeName="opacity" values="0.8;1;0.8" dur="2.8s" begin="1.2s" repeatCount="indefinite"/>
</circle>
<circle cx="640" cy="730" r="8" fill="#FFDAC1" opacity="0.9">
<animate attributeName="opacity" values="0.7;1;0.7" dur="3.6s" begin="0.6s" repeatCount="indefinite"/>
</circle>
<circle cx="635" cy="790" r="7" fill="#FFDAC1" opacity="0.9">
<animate attributeName="opacity" values="0.8;0.5;0.8" dur="2.4s" begin="1.5s" repeatCount="indefinite"/>
</circle>
</g>
<g>
<path d="M 880,430 Q 940,520 920,620 T 960,770" fill="none" stroke="#FFDAC1" stroke-width="2" opacity="0.3"/>
<circle cx="910" cy="480" r="6" fill="#FFDAC1" opacity="0.85">
<animate attributeName="opacity" values="0.7;1;0.7" dur="3.5s" begin="0.3s" repeatCount="indefinite"/>
</circle>
<circle cx="925" cy="520" r="7" fill="#FFDAC1" opacity="0.85">
<animate attributeName="opacity" values="0.8;1;0.8" dur="4s" begin="0.7s" repeatCount="indefinite"/>
</circle>
<circle cx="915" cy="565" r="6" fill="#FFDAC1" opacity="0.85">
<animate attributeName="opacity" values="0.7;1;0.7" dur="3s" begin="1.1s" repeatCount="indefinite"/>
</circle>
<circle cx="930" cy="610" r="7" fill="#FFDAC1" opacity="0.85">
<animate attributeName="opacity" values="0.9;0.6;0.9" dur="3.8s" begin="1.4s" repeatCount="indefinite"/>
</circle>
<circle cx="945" cy="670" r="6" fill="#FFDAC1" opacity="0.85">
<animate attributeName="opacity" values="0.8;1;0.8" dur="2.6s" begin="0.9s" repeatCount="indefinite"/>
</circle>
<circle cx="955" cy="730" r="7" fill="#FFDAC1" opacity="0.85">
<animate attributeName="opacity" values="0.7;1;0.7" dur="3.3s" begin="1.6s" repeatCount="indefinite"/>
</circle>
</g>
<ellipse cx="800" cy="770" rx="190" ry="28" fill="#1E1A29" opacity="0.5" filter="url(#f3)">
<animateTransform attributeName="transform" type="scale" values="1 1;1.04 1;1 1" dur="7s" repeatCount="indefinite"/>
</ellipse>
<g>
<animateTransform attributeName="transform" type="translate" values="0 0;0 -3;0 0" dur="7s" repeatCount="indefinite" calcMode="spline" keySplines="0.4 0 0.6 1;0.4 0 0.6 1"/>
<path d="M 800,400 C 760,400 720,380 700,360 C 660,340 640,400 660,460 C 670,520 680,580 720,620 C 740,640 780,650 800,650 C 820,650 860,640 880,620 C 920,580 930,520 940,460 C 960,400 940,340 900,360 C 880,380 840,400 800,400 Z" fill="url(#g1)"/>
<path d="M 800,400 C 760,400 720,380 700,360 C 660,340 640,400 660,460 C 670,520 680,580 720,620 C 740,640 780,650 800,650 L 800,400 Z" fill="#FFDAC1" opacity="0.22"/>
<path d="M 800,400 C 840,400 880,380 900,360 C 940,340 960,400 940,460 C 930,520 920,580 880,620 C 860,640 820,650 800,650 L 800,400 Z" fill="#1E1A29" opacity="0.1"/>
<path d="M 660,360 Q 680,340 700,360 Q 730,340 760,360 Q 790,340 820,360 Q 850,340 880,360 Q 900,340 920,360 Q 900,380 880,370 Q 850,390 820,370 Q 790,390 760,370 Q 730,390 700,370 Q 680,390 660,360 Z" fill="#FFDAC1" opacity="0.55"/>
<path d="M 720,650 Q 740,670 760,650 Q 780,670 800,650 Q 820,670 840,650 Q 860,670 880,650 Q 900,670 920,650 Q 900,630 880,640 Q 860,620 840,640 Q 820,620 800,640 Q 780,620 760,640 Q 740,620 720,640 Q 700,620 680,640 Q 700,660 720,650 Z" fill="#FFDAC1" opacity="0.55"/>
<path d="M 720,360 Q 710,480 720,650 M 760,375 Q 750,480 760,640 M 800,400 Q 800,480 800,650 M 840,375 Q 850,480 840,640 M 880,360 Q 890,480 880,650" stroke="#1E1A29" stroke-opacity="0.12" stroke-width="2" fill="none"/>
<line x1="800" y1="400" x2="800" y2="650" stroke="#1E1A29" stroke-opacity="0.18" stroke-width="3"/>
<circle cx="800" cy="440" r="3" fill="#1E1A29" opacity="0.25"/>
<circle cx="800" cy="490" r="3" fill="#1E1A29" opacity="0.25"/>
<circle cx="800" cy="540" r="3" fill="#1E1A29" opacity="0.25"/>
<circle cx="800" cy="590" r="3" fill="#1E1A29" opacity="0.25"/>
<g transform="translate(800,520)">
<path d="M0,0 C-20,-15 -40,-5 -35,10 C-30,20 -10,10 0,0 C10,10 30,20 35,10 C40,-5 20,-15 0,0" fill="#B5EAD7" opacity="0.85"/>
<path d="M0,0 C-5,10 -10,25 -8,35 M0,0 C5,10 10,25 8,35" stroke="#B5EAD7" stroke-width="4" fill="none" stroke-linecap="round"/>
</g>
</g>
<g>
<path d="M 740,520 C 730,570 710,630 720,690 C 730,750 710,810 690,870 C 680,900 670,920 660,940" fill="none" stroke="url(#g2)" stroke-width="14" stroke-linecap="round" filter="url(#f3)" opacity="0.85"/>
<path d="M 740,520 C 730,570 710,630 720,690 C 730,750 710,810 690,870 C 680,900 670,920 660,940" fill="none" stroke="url(#g2)" stroke-width="7" stroke-linecap="round"/>
<animateTransform attributeName="transform" type="rotate" values="0 740 520;2.5 740 520;-1.5 740 520;0 740 520" dur="5.5s" repeatCount="indefinite" calcMode="spline" keySplines="0.4 0 0.6 1;0.4 0 0.6 1;0.4 0 0.6 1"/>
</g>
<g>
<path d="M 860,530 C 890,590 910,650 920,710 C 930,770 950,830 960,890 C 965,910 970,930 975,950" fill="none" stroke="url(#g2)" stroke-width="12" stroke-linecap="round" filter="url(#f3)" opacity="0.85"/>
<path d="M 860,530 C 890,590 910,650 920,710 C 930,770 950,830 960,890 C 965,910 970,930 975,950" fill="none" stroke="url(#g2)" stroke-width="6" stroke-linecap="round"/>
<animateTransform attributeName="transform" type="rotate" values="0 860 530;-2 860 530;1.5 860 530;0 860 530" dur="6.2s" repeatCount="indefinite" calcMode="spline" keySplines="0.4 0 0.6 1;0.4 0 0.6 1;0.4 0 0.6 1"/>
</g>
<g>
<path d="M 780,400 C 770,440 750,480 740,530 C 735,550 730,570 725,590" fill="none" stroke="url(#g2)" stroke-width="10" stroke-linecap="round" filter="url(#f3)" opacity="0.75"/>
<path d="M 780,400 C 770,440 750,480 740,530 C 735,550 730,570 725,590" fill="none" stroke="url(#g2)" stroke-width="5" stroke-linecap="round"/>
<animateTransform attributeName="transform" type="rotate" values="0 780 400;3 780 400;-1 780 400;0 780 400" dur="4.5s" repeatCount="indefinite" calcMode="spline" keySplines="0.4 0 0.6 1;0.4 0 0.6 1;0.4 0 0.6 1"/>
</g>
<ellipse cx="800" cy="900" rx="550" ry="140" fill="#FFB7B2" opacity="0.07" filter="url(#f1)">
<animate attributeName="opacity" values="0.05;0.11;0.05" dur="8s" repeatCount="indefinite"/>
</ellipse>
</svg>