<?xml version="1.0" encoding="UTF-8"?>
<svg xmlns="http://www.w3.org/2000/svg" viewBox="0 0 1600 900" width="1600" height="900">
  <defs>
    <linearGradient id="water" x1="0" y1="0" x2="0" y2="1">
      <stop offset="0%" stop-color="#B8D4E8"/>
      <stop offset="100%" stop-color="#5A8FA8"/>
    </linearGradient>
    <radialGradient id="pad" cx="0.35" cy="0.35">
      <stop offset="0%" stop-color="#8FBF76"/>
      <stop offset="100%" stop-color="#3E6B3A"/>
    </radialGradient>
  </defs>
  <rect width="1600" height="900" fill="url(#water)"/>

  <g opacity="0.35">
    <circle cx="800" cy="450" r="10" fill="none" stroke="#FFF8E7" stroke-width="2">
      <animate attributeName="r" values="10;160" dur="4s" repeatCount="indefinite"/>
      <animate attributeName="opacity" values="0.6;0" dur="4s" repeatCount="indefinite"/>
    </circle>
    <circle cx="800" cy="450" r="10" fill="none" stroke="#FFF8E7" stroke-width="2">
      <animate attributeName="r" values="10;160" dur="4s" begin="1.3s" repeatCount="indefinite"/>
      <animate attributeName="opacity" values="0.6;0" dur="4s" begin="1.3s" repeatCount="indefinite"/>
    </circle>
    <circle cx="1100" cy="620" r="10" fill="none" stroke="#FFF8E7" stroke-width="2">
      <animate attributeName="r" values="10;130" dur="5s" begin="0.7s" repeatCount="indefinite"/>
      <animate attributeName="opacity" values="0.5;0" dur="5s" begin="0.7s" repeatCount="indefinite"/>
    </circle>
  </g>

  <g>
    <path d="M450,350l5,0a42,22 0 1,1 -5,0z" fill="url(#pad)"/>
    <path d="M450,350l42,-5l-5,10z" fill="#2E522E"/>
    <animateTransform attributeName="transform" type="rotate" values="0 450 350;-6 450 350;0 450 350;6 450 350;0 450 350" dur="5.5s" repeatCount="indefinite"/>
  </g>
  <g>
    <path d="M1050,550l5,0a38,20 0 1,1 -5,0z" fill="url(#pad)"/>
    <path d="M1050,550l38,-4l-4,9z" fill="#2E522E"/>
    <animateTransform attributeName="transform" type="rotate" values="0 1050 550;5 1050 550;0 1050 550;-5 1050 550;0 1050 550" dur="6s" repeatCount="indefinite"/>
  </g>
  <g>
    <path d="M1200,300l5,0a34,18 0 1,1 -5,0z" fill="url(#pad)"/>
    <path d="M1200,300l34,-4l-4,8z" fill="#2E522E"/>
    <animateTransform attributeName="transform" type="rotate" values="0 1200 300;-4 1200 300;0 1200 300;4 1200 300;0 1200 300" dur="4.8s" repeatCount="indefinite"/>
  </g>

  <g>
    <path d="M-42,0C-25,-20 20,-18 42,-2C20,14 -25,16 -42,0Z" fill="#FF6F3C"/>
    <path d="M-10,-8C10,-10 28,-4 30,2C18,8 -5,6 -10,-8Z" fill="#FFF8E7"/>
    <path d="M-40,-2L-58,-12L-52,0L-58,12Z" fill="#FF6F3C">
      <animateTransform attributeName="transform" type="rotate" values="0 -44 0;14 -44 0;0 -44 0;-14 -44 0;0 -44 0" dur="0.8s" repeatCount="indefinite"/>
    </path>
    <circle cx="28" cy="-4" r="2.5" fill="#222"/>
    <animateMotion path="M200,250C380,120 720,120 900,250S1380,420 1280,600S780,740 480,640S200,440 200,250" dur="20s" repeatCount="indefinite" rotate="auto"/>
  </g>

  <g>
    <path d="M-42,0C-25,-20 20,-18 42,-2C20,14 -25,16 -42,0Z" fill="#FF6F3C"/>
    <path d="M-6,-9C14,-11 30,-5 32,1C20,7 -1,5 -6,-9Z" fill="#FFF8E7"/>
    <path d="M-40,-2L-58,-12L-52,0L-58,12Z" fill="#FF6F3C">
      <animateTransform attributeName="transform" type="rotate" values="0 -44 0;-12 -44 0;0 -44 0;12 -44 0;0 -44 0" dur="0.9s" repeatCount="indefinite"/>
    </path>
    <circle cx="28" cy="-4" r="2.5" fill="#222"/>
    <animateMotion path="M1300,200C1100,100 780,140 600,300S280,600 500,740S1020,790 1320,660S1520,360 1300,200" dur="24s" repeatCount="indefinite" rotate="auto"/>
  </g>

  <g>
    <path d="M-42,0C-25,-20 20,-18 42,-2C20,14 -25,16 -42,0Z" fill="#FF6F3C"/>
    <path d="M-14,-7C6,-9 26,-3 28,3C16,9 -9,7 -14,-7Z" fill="#FFF8E7"/>
    <path d="M-40,-2L-58,-12L-52,0L-58,12Z" fill="#FF6F3C">
      <animateTransform attributeName="transform" type="rotate" values="0 -44 0;10 -44 0;0 -44 0;-10 -44 0;0 -44 0" dur="0.7s" repeatCount="indefinite"/>
    </path>
    <circle cx="28" cy="-4" r="2.5" fill="#222"/>
    <animateMotion path="M500,200C700,260 900,200 1100,300S1320,520 1100,620S680,560 480,460S300,200 500,200" dur="18s" repeatCount="indefinite" rotate="auto"/>
  </g>

  <g>
    <path d="M0,0C8,-12 18,-10 20,0C18,12 6,18 0,26C-6,18 -18,12 -20,0C-18,-10 -8,-12 0,0Z" fill="#F8C8DC"/>
    <animateMotion path="M200,120C350,220 280,420 460,540S780,760 950,820" dur="14s" repeatCount="indefinite" rotate="auto"/>
    <animateTransform attributeName="transform" type="rotate" values="0 0 0;25 0 0;0 0 0;-25 0 0;0 0 0" dur="3.2s" repeatCount="indefinite" additive="sum"/>
  </g>
</svg>