<?xml version="1.0" encoding="UTF-8"?><svg xmlns="http://www.w3.org/2000/svg" width="1600" height="900" viewBox="0 0 1600 900" preserveAspectRatio="xMidYMid slice"><rect width="100%" height="100%" fill="#FBF7EE"/><defs><radialGradient id="gradMain" cx="30%" cy="20%" r="80%"><stop offset="0%" stop-color="#7FB069" stop-opacity="0.95"/><stop offset="50%" stop-color="#4A7C3A" stop-opacity="0.9"/><stop offset="100%" stop-color="#1A2818" stop-opacity="0.95"/></radialGradient><linearGradient id="gradShadow" x1="0%" y1="0%" x2="0%" y2="100%"><stop offset="0%" stop-color="#1A2818" stop-opacity="0.25"/><stop offset="100%" stop-color="#1A2818" stop-opacity="0.05"/></linearGradient><linearGradient id="gradStem" x1="0%" y1="0%" x2="100%" y2="100%"><stop offset="0%" stop-color="#4A7C3A" stop-opacity="0.9"/><stop offset="100%" stop-color="#1A2818" stop-opacity="0.9"/></linearGradient><filter id="glow" x="-50%" y="-50%" width="200%" height="200%"><feGaussianBlur stdDeviation="4" result="blur"/><feComposite in="SourceGraphic" in2="blur" operator="over"/></filter><filter id="shadowBlur" x="-50%" y="-50%" width="200%" height="200%"><feGaussianBlur stdDeviation="18" result="blur"/></filter><filter id="softGlow" x="-50%" y="-50%" width="200%" height="200%"><feGaussianBlur stdDeviation="6" result="blur"/></filter></defs><g><ellipse cx="800" cy="680" rx="280" ry="80" fill="url(#gradShadow)" filter="url(#shadowBlur)"><animate attributeName="rx" values="280;300;280" dur="4s" repeatCount="indefinite"/><animate attributeName="opacity" values="0.4;0.6;0.4" dur="3s" repeatCount="indefinite"/></ellipse></g><g><g><animateTransform attributeName="transform" type="rotate" values="0 800 650;3 800 650;0 800 650;-3 800 650;0 800 650" dur="5.5s" repeatCount="indefinite"/><animateTransform attributeName="transform" type="scale" values="1;1.02;1;0.98;1" dur="4s" repeatCount="indefinite" additive="sum"/><path d="M800 650 Q820 550 880 480 Q950 400 1050 420 Q1150 440 1180 350 Q1130 380 1080 360 Q1000 330 920 400 Q860 450 820 550 L800 650Z" fill="url(#gradStem)"/><path d="M800 150 Q750 200 720 280 Q700 350 720 420 Q680 410 630 450 Q570 500 560 580 Q540 550 500 530 Q450 510 420 560 Q410 520 380 480 Q350 440 300 450 Q350 380 400 320 Q450 260 500 240 Q550 220 600 230 Q650 240 680 280 Q710 220 760 180 L800 150Z" fill="#7FB069" fill-opacity="0.2" filter="url(#glow)"><animate attributeName="fill-opacity" values="0.2;0.3;0.2" dur="3s" repeatCount="indefinite"/></path><path d="M800 120 Q780 180 750 250 Q730 320 750 380 Q720 370 680 400 Q630 430 600 500 Q580 470 540 450 Q500 430 470 480 Q460 440 430 400 Q400 360 360 370 Q400 320 450 270 Q500 220 550 210 Q600 200 640 220 Q670 180 720 160 L760 140 L800 120Z" fill="url(#gradShadow)"/><path d="M800 120 Q750 160 720 220 Q690 280 710 350 Q660 380 610 360 Q550 340 500 400 Q470 350 420 330 Q380 310 340 350 Q380 280 430 220 Q480 160 540 150 Q590 140 630 160 Q680 140 720 100 L760 80 L800 120Z" fill="url(#gradMain)"/><path d="M800 120 Q780 180 750 250 Q730 320 750 380 Q720 370 680 400 Q630 430 600 500 Q580 470 540 450 Q500 430 470 480 Q460 440 430 400 Q400 360 360 370 Q400 320 450 270 Q500 220 550 210 Q600 200 640 220 Q670 180 720 160 L760 140 L800 120Z" fill="url(#gradMain)" fill-opacity="0.9"><animate attributeName="fill-opacity" values="0.9;0.95;0.9" dur="2.5s" repeatCount="indefinite"/></path><path d="M880 160 Q850 200 830 250 Q820 290 840 330 Q880 310 930 320 Q980 330 1020 360 Q1040 320 1080 300 Q1120 280 1160 300 Q1140 250 1100 220 Q1060 190 1010 180 Q960 170 920 180 Q900 130 880 160Z" fill="url(#gradMain)"/><path d="M920 200 Q900 230 890 270 Q910 260 950 265 Q990 270 1020 290 Q1030 260 1060 240 Q1090 220 1120 230 Q1100 200 1070 180 Q1040 160 1000 155 Q960 150 930 170 Q925 160 920 200Z" fill="#FBF7EE" fill-opacity="0.6"/><path d="M500 280 Q470 300 460 340 Q490 320 520 310 Q550 300 580 310 Q570 270 540 260 Q510 250 500 280Z" fill="#FBF7EE" fill-opacity="0.5"/><path d="M700 200 Q680 230 675 270 Q700 250 730 240 Q760 230 790 240 Q780 200 750 185 Q720 170 700 200Z" fill="#1A2818" fill-opacity="0.3"/><path d="M810 250 Q800 280 805 310 Q830 290 860 285 Q890 280 910 295 Q905 260 880 245 Q855 230 830 240 Q815 235 810 250Z" fill="#1A2818" fill-opacity="0.25"/><path d="M620 380 Q600 410 610 440 Q640 420 670 410 Q700 400 720 415 Q710 380 680 365 Q650 350 620 380Z" fill="#FBF7EE" fill-opacity="0.45"/><ellipse cx="780" cy="180" rx="15" ry="25" fill="#7FB069" fill-opacity="0.4" transform="rotate(-20 780 180)"/><ellipse cx="980" cy="240" rx="12" ry="18" fill="#7FB069" fill-opacity="0.35" transform="rotate(15 980 240)"/><ellipse cx="540" cy="300" rx="10" ry="15" fill="#7FB069" fill-opacity="0.3" transform="rotate(-10 540 300)"/><path d="M750 140 Q760 120 775 125 Q785 130 780 150 Q770 160 760 155 Q750 150 750 140Z" fill="#7FB069" fill-opacity="0.5"><animate attributeName="fill-opacity" values="0.5;0.7;0.5" dur="2s" repeatCount="indefinite"/></path><circle cx="620" cy="260" r="8" fill="#FBF7EE" fill-opacity="0.6"><animate attributeName="fill-opacity" values="0.6;1;0.6" dur="3s" repeatCount="indefinite"/><animate attributeName="r" values="8;10;8" dur="3s" repeatCount="indefinite"/></circle><path d="M820 320 Q830 300 850 310 Q870 320 860 350 Q840 370 820 360 Q800 350 820 320Z" fill="#1A2818" fill-opacity="0.2"/><g><ellipse cx="850" cy="250" rx="20" ry="12" fill="#7FB069" fill-opacity="0.4" filter="url(#softGlow)"><animate attributeName="fill-opacity" values="0.4;0.6;0.4" dur="4s" repeatCount="indefinite"/><animateTransform attributeName="transform" type="translate" values="0,0;5,3;0,0" dur="5s" repeatCount="indefinite"/></ellipse></g><g><circle cx="520" cy="200" r="15" fill="#7FB069" fill-opacity="0.3" filter="url(#glow)"><animate attributeName="fill-opacity" values="0.3;0.5;0.3" dur="2.8s" repeatCount="indefinite"/><animateTransform attributeName="transform" type="translate" values="0,0;-3,5;0,0" dur="6s" repeatCount="indefinite"/></circle></g></g></g><g><path d="M750 700 Q800 720 850 700" stroke="none" fill="none"><animate attributeName="d" values="M750 700 Q800 720 850 700;M750 710 Q800 730 850 710;M750 700 Q800 720 850 700" dur="4s" repeatCount="indefinite"/></path><circle cx="720" cy="550" r="6" fill="#7FB069" fill-opacity="0.5"><animate attributeName="cy" values="550;560;550" dur="3s" repeatCount="indefinite"/><animate attributeName="opacity" values="0.5;0.8;0.5" dur="3s" repeatCount="indefinite"/></circle><circle cx="900" cy="400" r="5" fill="#7FB069" fill-opacity="0.4"><animate attributeName="cy" values="400;395;400" dur="2.5s" repeatCount="indefinite"/><animate attributeName="opacity" values="0.4;0.7;0.4" dur="2.5s" repeatCount="indefinite"/></circle></g></svg>