<?xml version="1.0" encoding="UTF-8"?>
<svg xmlns="http://www.w3.org/2000/svg" viewBox="0 0 1600 900" preserveAspectRatio="xMidYMid slice">
<defs>
<filter id="bs" x="-50%" y="-50%" width="200%" height="200%"><feGaussianBlur in="SourceGraphic" stdDeviation="18"/></filter>
<filter id="sb" x="-50%" y="-50%" width="200%" height="200%"><feGaussianBlur in="SourceGraphic" stdDeviation="8"/></filter>
<filter id="gb" x="-50%" y="-50%" width="200%" height="200%"><feGaussianBlur in="SourceGraphic" stdDeviation="28"/></filter>
<radialGradient id="sg" cx="50%" cy="50%" r="50%"><stop offset="0%" stop-color="#FFB300" stop-opacity="0.3"/><stop offset="100%" stop-color="#FFB300" stop-opacity="0"/></radialGradient>
</defs>
<rect width="1600" height="900" fill="#FF4081"/>
<ellipse cx="800" cy="780" rx="700" ry="120" fill="#FFFFFF" opacity="0.25" filter="url(#gb)"/>
<ellipse cx="800" cy="720" rx="600" ry="140" fill="url(#sg)"/>
<g transform="translate(800,160)">
<g><animateTransform attributeName="transform" type="rotate" from="0 0 0" to="360 0 0" dur="12s" repeatCount="indefinite"/>
<path d="M0,-90 L0,-130 M63,-63 L95,-95 M90,0 L130,0 M63,63 L95,95 M0,90 L0,130 M-63,63 L-95,95 M-90,0 L-130,0 M-63,-63 L-95,-95" stroke="#FFB300" stroke-width="16" stroke-linecap="round" opacity="0.9"/>
</g>
<circle r="70" fill="#FFB300" opacity="0.95"><animate attributeName="r" values="70;78;70" dur="4s" repeatCount="indefinite"/></circle>
<circle r="85" fill="#FFFFFF" opacity="0.3" filter="url(#sb)"/>
</g>
<ellipse cx="800" cy="690" rx="320" ry="120" fill="#5D4037" opacity="0.25" filter="url(#bs)">
<animate attributeName="rx" values="320;340;320" dur="5s" repeatCount="indefinite"/>
<animate attributeName="ry" values="120;128;120" dur="5s" repeatCount="indefinite"/>
</ellipse>
<g>
<animateTransform attributeName="transform" type="translate" values="0,0; 0,-12; 0,0" dur="5s" repeatCount="indefinite"/>
<ellipse cx="800" cy="620" rx="300" ry="110" fill="#FFFFFF" opacity="0.95"/>
<ellipse cx="800" cy="615" rx="210" ry="75" fill="#FFFFFF" opacity="0.7" stroke="#FFB300" stroke-width="6"/>
</g>
<g>
<animateTransform attributeName="transform" type="translate" values="0,0; 0,-18; 0,0" dur="2.8s" repeatCount="indefinite"/>
<animateTransform attributeName="transform" type="rotate" values="-2 800 560; 2 800 560; -2 800 560" dur="4s" repeatCount="indefinite" additive="sum"/>
<ellipse cx="800" cy="635" rx="150" ry="50" fill="#5D4037" opacity="0.2" filter="url(#sb)"/>
<path d="M680,560 C680,470 720,430 800,430 C880,430 920,470 920,560 C920,620 900,650 800,650 C700,650 680,620 680,560 Z" fill="#FFB300" opacity="0.95"/>
<ellipse cx="760" cy="490" rx="50" ry="30" fill="#FFFFFF" opacity="0.5" transform="rotate(-20 760 490)"/>
<path d="M690,560 C690,480 725,440 800,440 C875,440 910,480 910,560 C910,610 890,640 800,640 C710,640 690,610 690,560 Z" fill="none" stroke="#5D4037" stroke-width="8" opacity="0.35" stroke-linecap="round"/>
<ellipse cx="765" cy="525" rx="14" ry="18" fill="#5D4037" opacity="0.9"><animate attributeName="ry" values="18;2;18" dur="3s" repeatCount="indefinite"/></ellipse>
<ellipse cx="835" cy="525" rx="14" ry="18" fill="#5D4037" opacity="0.9"><animate attributeName="ry" values="18;2;18" dur="3s" begin="0.2s" repeatCount="indefinite"/></ellipse>
<path d="M760,565 Q800,595 840,565" fill="none" stroke="#5D4037" stroke-width="14" stroke-linecap="round" opacity="0.9"><animate attributeName="d" values="M760,565 Q800,595 840,565;M760,560 Q800,600 840,560;M760,565 Q800,595 840,565" dur="4s" repeatCount="indefinite"/></path>
<circle cx="740" cy="555" r="12" fill="#FFFFFF" opacity="0.8"><animate attributeName="opacity" values="0.8;0.4;0.8" dur="3s" repeatCount="indefinite"/></circle>
<circle cx="860" cy="555" r="12" fill="#FFFFFF" opacity="0.8"><animate attributeName="opacity" values="0.8;0.4;0.8" dur="3s" begin="0.5s" repeatCount="indefinite"/></circle>
</g>
<g opacity="0.6">
<path d="M780,430 Q760,380 780,330" fill="none" stroke="#FFFFFF" stroke-width="10" stroke-linecap="round" filter="url(#sb)"><animateTransform attributeName="transform" type="translate" values="0,20; 0,-40" dur="3.5s" repeatCount="indefinite"/><animate attributeName="opacity" values="0;0.6;0" dur="3.5s" repeatCount="indefinite"/></path>
<path d="M800,420 Q820,370 800,320" fill="none" stroke="#FFFFFF" stroke-width="10" stroke-linecap="round" filter="url(#sb)"><animateTransform attributeName="transform" type="translate" values="0,20; 0,-40" dur="3.5s" begin="1.2s" repeatCount="indefinite"/><animate attributeName="opacity" values="0;0.6;0" dur="3.5s" begin="1.2s" repeatCount="indefinite"/></path>
<path d="M820,430 Q840,380 820,330" fill="none" stroke="#FFFFFF" stroke-width="10" stroke-linecap="round" filter="url(#sb)"><animateTransform attributeName="transform" type="translate" values="0,20; 0,-40" dur="3.5s" begin="2.4s" repeatCount="indefinite"/><animate attributeName="opacity" values="0;0.6;0" dur="3.5s" begin="2.4s" repeatCount="indefinite"/></path>
</g>
<g>
<animateTransform attributeName="transform" type="translate" values="1150,520; 1150,505; 1150,520" dur="6s" repeatCount="indefinite"/>
<ellipse cx="0" cy="115" rx="90" ry="30" fill="#5D4037" opacity="0.2" filter="url(#bs)"/>
<rect x="-75" y="-60" width="150" height="160" rx="40" fill="#FFB300" opacity="0.9"/>
<rect x="-55" y="-30" width="110" height="80" rx="20" fill="#5D4037" opacity="0.85"/>
<text x="0" y="15" text-anchor="middle" fill="#FFFFFF" font-family="Arial, sans-serif" font-size="24" font-weight="bold" opacity="0.9">HONEY</text>
<rect x="-80" y="-80" width="160" height="30" rx="12" fill="#FFFFFF" opacity="0.95"/>
<g><animateTransform attributeName="transform" type="rotate" values="-5 0 -80; 5 0 -80; -5 0 -80" dur="4s" repeatCount="indefinite"/>
<rect x="-8" y="-180" width="16" height="200" rx="8" fill="#5D4037" opacity="0.85" transform="rotate(-25 0 -80)"/>
<g transform="translate(-95,-155)">
<ellipse cx="0" cy="0" rx="35" ry="22" fill="#FFB300" opacity="0.95"/>
<ellipse cx="0" cy="12" rx="35" ry="22" fill="#FFB300" opacity="0.95"/>
<rect x="-35" y="-5" width="70" height="20" fill="#FFB300" opacity="0.95"/>
<circle cx="0" cy="28" r="10" fill="#FFB300" opacity="0.95"><animate attributeName="cy" values="28;70;28" dur="2.5s" repeatCount="indefinite"/><animate attributeName="r" values="10;14;10" dur="2.5s" repeatCount="indefinite"/><animate attributeName="opacity" values="1;0.6;1" dur="2.5s" repeatCount="indefinite"/></circle>
</g>
</g>
</g>
<g>
<animateTransform attributeName="transform" type="translate" values="450,530; 450,515; 450,530" dur="5.5s" repeatCount="indefinite"/>
<ellipse cx="0" cy="115" rx="80" ry="25" fill="#5D4037" opacity="0.2" filter="url(#bs)"/>
<path d="M-60,-80 L-50,100 C-50,120 50,120 50,100 L60,-80 Z" fill="#FFFFFF" opacity="0.7"/>
<path d="M-55,-20 L-50,95 C-50,112 50,112 50,95 L55,-20 Z" fill="#FFFFFF" opacity="0.9"/>
<ellipse cx="0" cy="-20" rx="55" ry="15" fill="#FFFFFF" opacity="0.95"><animate attributeName="rx" values="55;60;55" dur="3s" repeatCount="indefinite"/><animate attributeName="ry" values="15;17;15" dur="3s" repeatCount="indefinite"/></ellipse>
<circle cx="-15" cy="20" r="6" fill="#FFB300" opacity="0.8"><animate attributeName="cy" values="80;-10" dur="3s" repeatCount="indefinite"/><animate attributeName="opacity" values="0;0.8;0" dur="3s" repeatCount="indefinite"/></circle>
<circle cx="20" cy="50" r="5" fill="#FFB300" opacity="0.8"><animate attributeName="cy" values="90;-5" dur="3.5s" begin="1s" repeatCount="indefinite"/><animate attributeName="opacity" values="0;0.8;0" dur="3.5s" begin="1s" repeatCount="indefinite"/></circle>
<circle cx="5" cy="70" r="4" fill="#FFB300" opacity="0.8"><animate attributeName="cy" values="95;0" dur="4s" begin="2s" repeatCount="indefinite"/><animate attributeName="opacity" values="0;0.8;0" dur="4s" begin="2s" repeatCount="indefinite"/></circle>
</g>
<g>
<ellipse cx="600" cy="700" rx="18" ry="12" fill="#5D4037" opacity="0.85"><animateTransform attributeName="transform" type="translate" values="0,0; 0,-10; 0,0" dur="3s" repeatCount="indefinite"/></ellipse>
<ellipse cx="1000" cy="720" rx="16" ry="11" fill="#5D4037" opacity="0.85"><animateTransform attributeName="transform" type="translate" values="0,0; 0,-12; 0,0" dur="3.2s" begin="0.5s" repeatCount="indefinite"/></ellipse>
<ellipse cx="700" cy="760" rx="14" ry="10" fill="#5D4037" opacity="0.85"><animateTransform attributeName="transform" type="translate" values="0,0; 0,-8; 0,0" dur="2.8s" begin="1s" repeatCount="indefinite"/></ellipse>
</g>
<g fill="#FFFFFF" opacity="0.8">
<path d="M1300,250 L1305,265 L1320,270 L1305,275 L1300,290 L1295,275 L1280,270 L1295,265 Z"><animateTransform attributeName="transform" type="rotate" from="0 1300 270" to="360 1300 270" dur="6s" repeatCount="indefinite"/><animate attributeName="opacity" values="0.8;0.3;0.8" dur="3s" repeatCount="indefinite"/></path>
<path d="M300,300 L304,312 L316,316 L304,320 L300,332 L296,320 L284,316 L296,312 Z"><animateTransform attributeName="transform" type="rotate" from="0 300 316" to="-360 300 316" dur="7s" repeatCount="indefinite"/><animate attributeName="opacity" values="0.8;0.3;0.8" dur="4s" repeatCount="indefinite"/></path>
</g>
</svg>