<?xml version="1.0" encoding="UTF-8"?>
<svg xmlns="http://www.w3.org/2000/svg" viewBox="0 0 1920 1080">
  <defs>
    <linearGradient id="bg" x1="0%" y1="0%" x2="100%" y2="100%">
      <stop offset="0%" stop-color="#1a0538"/>
      <stop offset="50%" stop-color="#4a0e6b"/>
      <stop offset="100%" stop-color="#9c1578"/>
    </linearGradient>
    <radialGradient id="glow" cx="50%" cy="50%" r="50%">
      <stop offset="0%" stop-color="#ff2ec7" stop-opacity=".25"/>
      <stop offset="100%" stop-color="#ff2ec7" stop-opacity="0"/>
    </radialGradient>
    <linearGradient id="bowl" x1="0%" y1="0%" x2="100%" y2="100%">
      <stop offset="0%" stop-color="#ffffff"/>
      <stop offset="100%" stop-color="#d8d0e6"/>
    </linearGradient>
    <radialGradient id="acai" cx="35%" cy="30%" r="70%">
      <stop offset="0%" stop-color="#8e24aa"/>
      <stop offset="50%" stop-color="#4a148c"/>
      <stop offset="100%" stop-color="#240b4e"/>
    </radialGradient>
    <linearGradient id="bowlShadow" x1="0%" y1="0%" x2="0%" y2="100%">
      <stop offset="0%" stop-color="#000" stop-opacity=".35"/>
      <stop offset="100%" stop-color="#000" stop-opacity="0"/>
    </linearGradient>
    <linearGradient id="granola" x1="0%" y1="0%" x2="100%" y2="100%">
      <stop offset="0%" stop-color="#f4a460"/>
      <stop offset="100%" stop-color="#8b4513"/>
    </linearGradient>
    <radialGradient id="strawberry" cx="30%" cy="30%" r="70%">
      <stop offset="0%" stop-color="#ff4d6d"/>
      <stop offset="100%" stop-color="#c70039"/>
    </radialGradient>
    <linearGradient id="banana" x1="0%" y1="0%" x2="0%" y2="100%">
      <stop offset="0%" stop-color="#fffde7"/>
      <stop offset="100%" stop-color="#f0e68c"/>
    </linearGradient>
  </defs>
  <style>
    .float{animation:fl 6s ease-in-out infinite;}
    @keyframes fl{0%,100%{transform:translateY(0)}50%{transform:translateY(-12px)}}
    .pulse{animation:pu 4s ease-in-out infinite;}
    @keyframes pu{0%,100%{opacity:.6}50%{opacity:1}}
    .rotate{animation:ro 20s linear infinite;transform-origin:960px 540px;}
    @keyframes ro{from{transform:rotate(0)}to{transform:rotate(360deg)}}
  </style>
  <rect width="1920" height="1080" fill="url(#bg)"/>
  <g class="rotate" opacity=".4">
    <circle cx="960" cy="540" r="420" fill="url(#glow)"/>
    <circle cx="600" cy="300" r="80" fill="#ff2ec7" opacity=".15"/>
    <circle cx="1400" cy="800" r="120" fill="#00e5ff" opacity=".12"/>
    <circle cx="1500" cy="350" r="60" fill="#ffd600" opacity=".18"/>
  </g>
  <ellipse cx="960" cy="860" rx="320" ry="45" fill="#000" opacity=".25"/>
  <g class="float">
    <path d="M720 500c0-130 107-235 240-235s240 105 240 235c0 130-107 280-240 280s-240-150-240-280z" fill="url(#bowl)"/>
    <ellipse cx="960" cy="500" rx="240" ry="85" fill="#e8e0f0"/>
    <ellipse cx="960" cy="505" rx="225" ry="78" fill="url(#acai)"/>
    <path d="M730 500c0 90 103 163 230 163s230-73 230-163" fill="none" stroke="#ffffff" stroke-width="6" opacity=".25" stroke-linecap="round"/>
    <ellipse cx="960" cy="495" rx="200" ry="65" fill="#6a1b9a" opacity=".3"/>
    <g fill="url(#granola)">
      <ellipse cx="880" cy="480" rx="14" ry="10"/>
      <ellipse cx="920" cy="465" rx="12" ry="9"/>
      <ellipse cx="1010" cy="470" rx="15" ry="11"/>
      <ellipse cx="1060" cy="490" rx="13" ry="9"/>
      <ellipse cx="950" cy="510" rx="11" ry="8"/>
      <ellipse cx="840" cy="505" rx="10" ry="7"/>
      <ellipse cx="1120" cy="475" rx="12" ry="8"/>
      <ellipse cx="800" cy="490" rx="9" ry="7"/>
    </g>
    <g fill="#5d4037">
      <circle cx="885" cy="482" r="3"/>
      <circle cx="918" cy="467" r="3"/>
      <circle cx="1008" cy="472" r="3"/>
      <circle cx="1058" cy="492" r="3"/>
      <circle cx="952" cy="512" r="3"/>
      <circle cx="842" cy="507" r="2"/>
    </g>
    <g>
      <path d="M900 450c0-35 28-63 63-63s63 28 63 63-28 55-63 55-63-20-63-55z" fill="url(#strawberry)"/>
      <g fill="#ffd600" opacity=".9">
        <circle cx="930" cy="425" r="3"/>
        <circle cx="945" cy="418" r="3"/>
        <circle cx="962" cy="416" r="3"/>
        <circle cx="980" cy="422" r="3"/>
        <circle cx="990" cy="438" r="3"/>
        <circle cx="985" cy="455" r="3"/>
        <circle cx="970" cy="470" r="3"/>
        <circle cx="950" cy="475" r="3"/>
        <circle cx="930" cy="468" r="3"/>
        <circle cx="915" cy="452" r="3"/>
      </g>
      <path d="M963 390c-5-8-15-12-25-10 12-5 28-2 35 8 2 3 1 7-2 9s-7 0-8-3c-5 8-15 12-25 10 12 5 28 2 35-8 2-3 1-7-2-9s-7 0-8 3z" fill="#4caf50"/>
    </g>
    <g transform="translate(110 30)">
      <path d="M920 460c0-30 24-54 54-54s54 24 54 54-24 48-54 48-54-18-54-48z" fill="url(#strawberry)"/>
      <g fill="#ffd600" opacity=".9">
        <circle cx="945" cy="440" r="3"/>
        <circle cx="958" cy="434" r="3"/>
        <circle cx="972" cy="433" r="3"/>
        <circle cx="986" cy="440" r="3"/>
        <circle cx="992" cy="455" r="3"/>
        <circle cx="985" cy="470" r="3"/>
        <circle cx="970" cy="480" r="3"/>
        <circle cx="952" cy="482" r="3"/>
        <circle cx="936" cy="472" r="3"/>
        <circle cx="930" cy="456" r="3"/>
      </g>
      <path d="M974 410c-4-7-13-10-21-8 10-4 23-2 29 7 2 3 1 6-2 7s-6 0-6-3z" fill="#4caf50"/>
    </g>
    <g transform="translate(-140 20)">
      <path d="M950 455c0-32 26-58 58-58s58 26 58 58-26 51-58 51-58-19-58-51z" fill="url(#strawberry)"/>
      <g fill="#ffd600" opacity=".9">
        <circle cx="975" cy="434" r="3"/>
        <circle cx="990" cy="428" r="3"/>
        <circle cx="1006" cy="430" r="3"/>
        <circle cx="1020" cy="440" r="3"/>
        <circle cx="1026" cy="456" r="3"/>
        <circle cx="1018" cy="472" r="3"/>
        <circle cx="1002" cy="482" r="3"/>
        <circle cx="983" cy="484" r="3"/>
        <circle cx="966" cy="476" r="3"/>
        <circle cx="958" cy="460" r="3"/>
      </g>
      <path d="M1008 402c-4-7-14-11-23-9 11-4 25-2 32 7 2 3 1 6-2 8s-6 0-7-3z" fill="#4caf50"/>
    </g>
    <g>
      <ellipse cx="840" cy="470" rx="45" ry="18" fill="url(#banana)" transform="rotate(-20 840 470)"/>
      <ellipse cx="840" cy="470" rx="38" ry="12" fill="#fff9c4" opacity=".6" transform="rotate(-20 840 470)"/>
      <path d="M805 475q35 5 70-10" fill="none" stroke="#e0c060" stroke-width="2" opacity=".4" transform="rotate(-20 840 470)"/>
    </g>
    <g transform="translate(240 10)">
      <ellipse cx="840" cy="470" rx="45" ry="18" fill="url(#banana)" transform="rotate(15 840 470)"/>
      <ellipse cx="840" cy="470" rx="38" ry="12" fill="#fff9c4" opacity=".6" transform="rotate(15 840 470)"/>
    </g>
    <g transform="translate(130 -40)">
      <ellipse cx="840" cy="470" rx="45" ry="18" fill="url(#banana)" transform="rotate(50 840 470)"/>
      <ellipse cx="840" cy="470" rx="38" ry="12" fill="#fff9c4" opacity=".6" transform="rotate(50 840 470)"/>
    </g>
    <path d="M760 500c25-50 95-75 200-75s175 25 200 75c-15-55-90-90-200-90s-185 35-200 90z" fill="#fff" opacity=".12"/>
    <ellipse cx="1010" cy="450" rx="35" ry="12" fill="#fff" opacity=".35" transform="rotate(-25 1010 450)"/>
    <ellipse cx="870" cy="520" rx="20" ry="7" fill="#fff" opacity=".2"/>
  </g>
  <g class="pulse">
    <circle cx="750" cy="350" r="4" fill="#00e5ff" opacity=".8"/>
    <circle cx="1200" cy="700" r="5" fill="#ffd600" opacity=".7"/>
    <circle cx="1300" cy="420" r="3" fill="#ff2ec7" opacity=".8"/>
    <circle cx="620" cy="600" r="4" fill="#00e5ff" opacity=".6"/>
  </g>
</svg>