<?xml version="1.0" encoding="UTF-8"?>
<svg xmlns="http://www.w3.org/2000/svg" viewBox="0 0 1600 900" preserveAspectRatio="xMidYMid slice">
<defs>
<linearGradient id="gB" x1="0" y1="0" x2="1" y2="1">
<stop offset="0%" stop-color="#F8C8DC"><animate attributeName="stop-color" values="#F8C8DC;#F2A6C8;#F8C8DC" dur="25s" repeatCount="indefinite" calcMode="spline" keySplines="0.4 0 0.6 1;0.4 0 0.6 1"/></stop>
<stop offset="100%" stop-color="#C8DCC0"><animate attributeName="stop-color" values="#C8DCC0;#6B8E5C;#C8DCC0" dur="25s" repeatCount="indefinite" calcMode="spline" keySplines="0.4 0 0.6 1;0.4 0 0.6 1"/></stop>
</linearGradient>
<linearGradient id="gP" x1="0" y1="0" x2="1" y2="1">
<stop offset="0%" stop-color="#F8C8DC"><animate attributeName="stop-color" values="#F8C8DC;#F2A6C8;#F8C8DC" dur="22s" repeatCount="indefinite" calcMode="spline" keySplines="0.4 0 0.6 1;0.4 0 0.6 1"/></stop>
<stop offset="100%" stop-color="#F2A6C8"><animate attributeName="stop-color" values="#F2A6C8;#F8C8DC;#F2A6C8" dur="22s" repeatCount="indefinite" calcMode="spline" keySplines="0.4 0 0.6 1;0.4 0 0.6 1"/></stop>
</linearGradient>
<linearGradient id="gG" x1="0" y1="0" x2="1" y2="1">
<stop offset="0%" stop-color="#6B8E5C"><animate attributeName="stop-color" values="#6B8E5C;#2D5A3F;#6B8E5C" dur="24s" repeatCount="indefinite" calcMode="spline" keySplines="0.4 0 0.6 1;0.4 0 0.6 1"/></stop>
<stop offset="100%" stop-color="#2D5A3F"><animate attributeName="stop-color" values="#2D5A3F;#C8DCC0;#2D5A3F" dur="24s" repeatCount="indefinite" calcMode="spline" keySplines="0.4 0 0.6 1;0.4 0 0.6 1"/></stop>
</linearGradient>
<linearGradient id="gT" x1="0" y1="0" x2="1" y2="0">
<stop offset="0%" stop-color="#C8DCC0"><animate attributeName="stop-color" values="#C8DCC0;#F2A6C8;#C8DCC0" dur="20s" repeatCount="indefinite" calcMode="spline" keySplines="0.4 0 0.6 1;0.4 0 0.6 1"/></stop>
<stop offset="100%" stop-color="#F2A6C8"><animate attributeName="stop-color" values="#F2A6C8;#F8C8DC;#F2A6C8" dur="20s" repeatCount="indefinite" calcMode="spline" keySplines="0.4 0 0.6 1;0.4 0 0.6 1"/></stop>
</linearGradient>
<filter id="f40"><feGaussianBlur stdDeviation="40"/></filter>
<filter id="f80"><feGaussianBlur stdDeviation="80"/></filter>
<filter id="f120"><feGaussianBlur stdDeviation="120"/></filter>
<filter id="f160"><feGaussianBlur stdDeviation="160"/></filter>
</defs>
<rect width="100%" height="100%" fill="url(#gB)"><animate attributeName="opacity" values="1;0.96;1" dur="15s" repeatCount="indefinite" calcMode="spline" keySplines="0.4 0 0.6 1;0.4 0 0.6 1"/></rect>
<g transform="translate(1300,450)"><g><animateTransform attributeName="transform" type="scale" values="0.98;1.02;0.98" keyTimes="0;0.5;1" dur="12s" repeatCount="indefinite" calcMode="spline" keySplines="0.4 0 0.6 1;0.4 0 0.6 1"/><path transform="translate(-1300,-450)" d="M850,900C1050,800 1250,950 1600,850L1600,0L950,0C1000,250 800,500 850,900Z" fill="url(#gG)" filter="url(#f160)" opacity="0.8"><animate attributeName="opacity" values="0.8;0.95;0.8" dur="14s" repeatCount="indefinite" calcMode="spline" keySplines="0.4 0 0.6 1;0.4 0 0.6 1"/></path></g></g>
<g transform="translate(350,350)"><g><animateTransform attributeName="transform" type="scale" values="0.98;1.02;0.98" keyTimes="0;0.5;1" dur="11s" repeatCount="indefinite" calcMode="spline" keySplines="0.4 0 0.6 1;0.4 0 0.6 1"/><path transform="translate(-350,-350)" d="M0,0L700,0C650,250 850,450 750,700C550,650 350,750 0,650Z" fill="url(#gP)" filter="url(#f160)" opacity="0.8"><animate attributeName="opacity" values="0.8;0.95;0.8" dur="13s" repeatCount="indefinite" calcMode="spline" keySplines="0.4 0 0.6 1;0.4 0 0.6 1"/></path></g></g>
<g transform="translate(1200,600)"><g><animateTransform attributeName="transform" type="scale" values="0.98;1.02;0.98" keyTimes="0;0.5;1" dur="10s" repeatCount="indefinite" calcMode="spline" keySplines="0.4 0 0.6 1;0.4 0 0.6 1"/><path transform="translate(-1200,-600)" d="M650,900C900,750 1200,850 1400,600S1650,350 1600,100L1600,900Z" fill="url(#gG)" filter="url(#f80)"/><animateTransform attributeName="transform" type="translate" values="0,0;15,-10;0,0" keyTimes="0;0.5;1" dur="18s" repeatCount="indefinite" calcMode="spline" keySplines="0.4 0 0.6 1;0.4 0 0.6 1" additive="sum"/></g></g>
<g transform="translate(550,450)"><g><animateTransform attributeName="transform" type="scale" values="0.98;1.02;0.98" keyTimes="0;0.5;1" dur="10s" repeatCount="indefinite" calcMode="spline" keySplines="0.4 0 0.6 1;0.4 0 0.6 1"/><path transform="translate(-550,-450)" d="M0,200C300,100 600,400 900,250S1300,450 1200,700C900,800 500,600 0,750Z" fill="url(#gP)" filter="url(#f80)"/><animateTransform attributeName="transform" type="translate" values="0,0;-10,15;0,0" keyTimes="0;0.5;1" dur="19s" repeatCount="indefinite" calcMode="spline" keySplines="0.4 0 0.6 1;0.4 0 0.6 1" additive="sum"/></g></g>
<g transform="translate(800,500)"><g><animateTransform attributeName="transform" type="scale" values="0.98;1.02;0.98" keyTimes="0;0.5;1" dur="9s" repeatCount="indefinite" calcMode="spline" keySplines="0.4 0 0.6 1;0.4 0 0.6 1"/><path transform="translate(-800,-500)" d="M400,300C650,150 950,350 1150,250S1450,550 1250,750C950,900 650,650 450,750S200,500 400,300Z" fill="url(#gT)" filter="url(#f120)" opacity="0.7"><animate attributeName="opacity" values="0.7;0.85;0.7" dur="16s" repeatCount="indefinite" calcMode="spline" keySplines="0.4 0 0.6 1;0.4 0 0.6 1"/></path></g></g>
<g transform="translate(1350,650)"><g><animateTransform attributeName="transform" type="scale" values="0.98;1.02;0.98" keyTimes="0;0.5;1" dur="11s" repeatCount="indefinite" calcMode="spline" keySplines="0.4 0 0.6 1;0.4 0 0.6 1"/><path transform="translate(-1350,-650)" d="M1000,900C1200,800 1400,900 1600,750L1600,500C1400,600 1200,500 1000,700Z" fill="url(#gG)" filter="url(#f40)" opacity="0.9"><animate attributeName="opacity" values="0.9;1;0.9" dur="14s" repeatCount="indefinite" calcMode="spline" keySplines="0.4 0 0.6 1;0.4 0 0.6 1"/></path></g></g>
<g transform="translate(450,550)"><g><animateTransform attributeName="transform" type="scale" values="0.98;1.02;0.98" keyTimes="0;0.5;1" dur="12s" repeatCount="indefinite" calcMode="spline" keySplines="0.4 0 0.6 1;0.4 0 0.6 1"/><path transform="translate(-450,-550)" d="M0,400C250,300 500,600 800,450S1100,650 1000,850C700,900 400,700 0,800Z" fill="url(#gP)" filter="url(#f40)" opacity="0.9"><animate attributeName="opacity" values="0.9;1;0.9" dur="15s" repeatCount="indefinite" calcMode="spline" keySplines="0.4 0 0.6 1;0.4 0 0.6 1"/></path></g></g>
<g transform="translate(1350,250)"><g><animateTransform attributeName="transform" type="scale" values="0.98;1.02;0.98" keyTimes="0;0.5;1" dur="10s" repeatCount="indefinite" calcMode="spline" keySplines="0.4 0 0.6 1;0.4 0 0.6 1"/><path transform="translate(-1350,-250)" d="M850,0C1050,200 1250,100 1450,300S1600,200 1600,500L1600,0Z" fill="#2D5A3F" opacity="0.95"><animate attributeName="opacity" values="0.95;1;0.95" dur="17s" repeatCount="indefinite" calcMode="spline" keySplines="0.4 0 0.6 1;0.4 0 0.6 1"/></path><animateTransform attributeName="transform" type="translate" values="0,0;10,5;0,0" keyTimes="0;0.5;1" dur="20s" repeatCount="indefinite" calcMode="spline" keySplines="0.4 0 0.6 1;0.4 0 0.6 1" additive="sum"/></g></g>
<g transform="translate(350,300)"><g><animateTransform attributeName="transform" type="scale" values="0.98;1.02;0.98" keyTimes="0;0.5;1" dur="9s" repeatCount="indefinite" calcMode="spline" keySplines="0.4 0 0.6 1;0.4 0 0.6 1"/><path transform="translate(-350,-300)" d="M0,0C250,100 450,-50 650,150S850,400 750,600C500,550 250,650 0,550Z" fill="#F2A6C8" opacity="0.95"><animate attributeName="opacity" values="0.95;1;0.95" dur="18s" repeatCount="indefinite" calcMode="spline" keySplines="0.4 0 0.6 1;0.4 0 0.6 1"/></path><animateTransform attributeName="transform" type="translate" values="0,0;-8,12;0,0" keyTimes="0;0.5;1" dur="21s" repeatCount="indefinite" calcMode="spline" keySplines="0.4 0 0.6 1;0.4 0 0.6 1" additive="sum"/></g></g>
<g transform="translate(1400,400)"><g><animateTransform attributeName="transform" type="scale" values="0.98;1.02;0.98" keyTimes="0;0.5;1" dur="10s" repeatCount="indefinite" calcMode="spline" keySplines="0.4 0 0.6 1;0.4 0 0.6 1"/><path transform="translate(-1400,-400)" d="M1200,300C1350,250 1500,350 1600,250L1600,600C1450,500 1300,550 1200,450Z" fill="#6B8E5C"/></g></g>
<g transform="translate(250,300)"><g><animateTransform attributeName="transform" type="scale" values="0.98;1.02;0.98" keyTimes="0;0.5;1" dur="11s" repeatCount="indefinite" calcMode="spline" keySplines="0.4 0 0.6 1;0.4 0 0.6 1"/><path transform="translate(-250,-300)" d="M0,100C150,200 350,100 500,250S300,500 0,450Z" fill="#F8C8DC"/></g></g>
<g transform="translate(800,550)"><g><animateTransform attributeName="transform" type="scale" values="0.98;1.02;0.98" keyTimes="0;0.5;1" dur="10s" repeatCount="indefinite" calcMode="spline" keySplines="0.4 0 0.6 1;0.4 0 0.6 1"/><path transform="translate(-800,-550)" d="M500,400C700,300 900,500 1100,400S1300,600 1100,700C900,800 700,600 500,700S300,500 500,400Z" fill="url(#gT)" filter="url(#f80)" opacity="0.6"><animate attributeName="opacity" values="0.6;0.75;0.6" dur="15s" repeatCount="indefinite" calcMode="spline" keySplines="0.4 0 0.6 1;0.4 0 0.6 1"/></path></g></g>
<g transform="translate(850,450)"><g><animateTransform attributeName="transform" type="scale" values="0.98;1.02;0.98" keyTimes="0;0.5;1" dur="12s" repeatCount="indefinite" calcMode="spline" keySplines="0.4 0 0.6 1;0.4 0 0.6 1"/><ellipse cx="0" cy="0" rx="400" ry="300" fill="url(#gT)" filter="url(#f160)" opacity="0.5"><animate attributeName="opacity" values="0.5;0.7;0.5" dur="13s" repeatCount="indefinite" calcMode="spline" keySplines="0.4 0 0.6 1;0.4 0 0.6 1"/></ellipse></g></g>
<g transform="translate(1050,850)"><g><animateTransform attributeName="transform" type="scale" values="0.98;1.02;0.98" keyTimes="0;0.5;1" dur="10s" repeatCount="indefinite" calcMode="spline" keySplines="0.4 0 0.6 1;0.4 0 0.6 1"/><path transform="translate(-1050,-850)" d="M850,900C1050,850 1250,950 1450,850L1500,900Z" fill="#C8DCC0"/><animateTransform attributeName="transform" type="translate" values="0,0;-5,10;0,0" keyTimes="0;0.5;1" dur="16s" repeatCount="indefinite" calcMode="spline" keySplines="0.4 0 0.6 1;0.4 0 0.6 1" additive="sum"/></g></g>
<g transform="translate(300,650)"><g><animateTransform attributeName="transform" type="scale" values="0.98;1.02;0.98" keyTimes="0;0.5;1" dur="11s" repeatCount="indefinite" calcMode="spline" keySplines="0.4 0 0.6 1;0.4 0 0.6 1"/><path transform="translate(-300,-650)" d="M0,600C200,550 400,650 600,550L550,750C350,800 150,700 0,750Z" fill="#F8C8DC"/><animateTransform attributeName="transform" type="translate" values="0,0;10,-5;0,0" keyTimes="0;0.5;1" dur="17s" repeatCount="indefinite" calcMode="spline" keySplines="0.4 0 0.6 1;0.4 0 0.6 1" additive="sum"/></g></g>
<g transform="translate(850,200)"><g><animateTransform attributeName="transform" type="scale" values="0.98;1.02;0.98" keyTimes="0;0.5;1" dur="9s" repeatCount="indefinite" calcMode="spline" keySplines="0.4 0 0.6 1;0.4 0 0.6 1"/><path transform="translate(-850,-200)" d="M600,100C800,200 1000,100 1200,250C1000,350 800,250 600,350C400,250 400,150 600,100Z" fill="url(#gT)" filter="url(#f80)" opacity="0.4"><animate attributeName="opacity" values="0.4;0.55;0.4" dur="14s" repeatCount="indefinite" calcMode="spline" keySplines="0.4 0 0.6 1;0.4 0 0.6 1"/></path></g></g>
<g transform="translate(1500,150)"><g><animateTransform attributeName="transform" type="scale" values="0.98;1.02;0.98" keyTimes="0;0.5;1" dur="10s" repeatCount="indefinite" calcMode="spline" keySplines="0.4 0 0.6 1;0.4 0 0.6 1"/><path transform="translate(-1500,-150)" d="M1300,0C1450,100 1550,50 1600,150L1600,0Z" fill="#2D5A3F" opacity="0.9"/></g></g>
<g transform="translate(100,100)"><g><animateTransform attributeName="transform" type="scale" values="0.98;1.02;0.98" keyTimes="0;0.5;1" dur="11s" repeatCount="indefinite" calcMode="spline" keySplines="0.4 0 0.6 1;0.4 0 0.6 1"/><path transform="translate(-100,-100)" d="M0,0C100,50 200,0 300,100L0,150Z" fill="#F8C8DC"/></g></g>
<rect x="0" y="0" width="1600" height="900" fill="url(#gT)" filter="url(#f120)" opacity="0.15"><animate attributeName="opacity" values="0.15;0.25;0.15" dur="20s" repeatCount="indefinite" calcMode="spline" keySplines="0.4 0 0.6 1;0.4 0 0.6 1"/></rect>
<circle r="6" fill="#F2A6C8" opacity="0"><animateMotion path="M-50,200C300,400 600,100 900,300S1400,600 1650,400" dur="20s" repeatCount="indefinite" calcMode="spline" keyPoints="0;1" keyTimes="0;1" keySplines="0.4 0 0.6 1"/><animate attributeName="opacity" values="0;0.8;0" dur="20s" repeatCount="indefinite" calcMode="spline" keySplines="0.4 0 0.6 1;0.4 0 0.6 1"/></circle>
<circle r="5" fill="#F8C8DC" opacity="0"><animateMotion path="M200,-50C400,200 700,-100 1000,150S1300,500 1500,300" dur="22s" repeatCount="indefinite" calcMode="spline" keyPoints="0;1" keyTimes="0;1" keySplines="0.4 0 0.6 1"/><animate attributeName="opacity" values="0;0.7;0" dur="22s" repeatCount="indefinite" calcMode="spline" keySplines="0.4 0 0.6 1;0.4 0 0.6 1"/></circle>
<circle r="7" fill="#C8DCC0" opacity="0"><animateMotion path="M-50,600C250,800 550,500 850,700S1400,800 1650,600" dur="24s" repeatCount="indefinite" calcMode="spline" keyPoints="0;1" keyTimes="0;1" keySplines="0.4 0 0.6 1"/><animate attributeName="opacity" values="0;0.6;0" dur="24s" repeatCount="indefinite" calcMode="spline" keySplines="0.4 0 0.6 1;0.4 0 0.6 1"/></circle>
<circle r="4" fill="#6B8E5C" opacity="0"><animateMotion path="M1600,100C1300,300 1000,0 700,250S300,400 0,300" dur="21s" repeatCount="indefinite" calcMode="spline" keyPoints="0;1" keyTimes="0;1" keySplines="0.4 0 0.6 1"/><animate attributeName="opacity" values="0;0.8;0" dur="21s" repeatCount="indefinite" calcMode="spline" keySplines="0.4 0 0.6 1;0.4 0 0.6 1"/></circle>
<circle r="5" fill="#2D5A3F" opacity="0"><animateMotion path="M1600,700C1300,900 900,600 600,850S200,950 -50,800" dur="23s" repeatCount="indefinite" calcMode="spline" keyPoints="0;1" keyTimes="0;1" keySplines="0.4 0 0.6 1"/><animate attributeName="opacity" values="0;0.7;0" dur="23s" repeatCount="indefinite" calcMode="spline" keySplines="0.4 0 0.6 1;0.4 0 0.6 1"/></circle>
<circle r="4" fill="#F2A6C8" opacity="0"><animateMotion path="M400,-50C600,150 900,-50 1100,150S1500,200 1600,100" dur="19s" repeatCount="indefinite" calcMode="spline" keyPoints="0;1" keyTimes="0;1" keySplines="0.4 0 0.6 1"/><animate attributeName="opacity" values="0;0.6;0" dur="19s" repeatCount="indefinite" calcMode="spline" keySplines="0.4 0 0.6 1;0.4 0 0.6 1"/></circle>
</svg>