<svg viewBox="0 0 800 600" xmlns="http://www.w3.org/2000/svg">
<rect width="800" height="600" fill="#000"/>
<rect y="120" width="800" height="60" fill="#FFD700"/>
<rect y="420" width="800" height="60" fill="#FFD700"/>
<g>
<animate attributeName="opacity" values="1;1;0;1;0;1;0;1" keyTimes="0;0.2;0.25;0.3;0.35;0.4;0.45;1" dur="2s" fill="freeze" calcMode="discrete"/>
<path d="M -100,-50 L 300,200 L 200,380 L 700,520 L 600,680 L 900,800" fill="none" stroke="#FFD700" stroke-width="120" stroke-linecap="square" stroke-linejoin="miter" pathLength="1000" stroke-dasharray="1000" stroke-dashoffset="1000">
<animate attributeName="stroke-dashoffset" from="1000" to="0" dur="0.4s" fill="freeze" calcMode="linear"/>
</path>
<path d="M -100,-50 L 300,200 L 200,380 L 700,520 L 600,680 L 900,800" fill="none" stroke="#FFFFFF" stroke-width="50" stroke-linecap="square" stroke-linejoin="miter" pathLength="1000" stroke-dasharray="1000" stroke-dashoffset="1000">
<animate attributeName="stroke-dashoffset" from="1000" to="0" dur="0.4s" fill="freeze" calcMode="linear"/>
</path>
<g transform="translate(300,200)">
<polygon points="0,-30 30,0 0,30 -30,0" fill="#FFF">
<animateTransform attributeName="transform" type="scale" values="0;1.5;0" keyTimes="0;0.5;1" dur="0.2s" begin="0.15s" fill="freeze" calcMode="discrete"/>
</polygon>
</g>
<g transform="translate(200,380)">
<polygon points="0,-25 25,0 0,25 -25,0" fill="#FFF">
<animateTransform attributeName="transform" type="scale" values="0;1.5;0" keyTimes="0;0.5;1" dur="0.2s" begin="0.22s" fill="freeze" calcMode="discrete"/>
</polygon>
</g>
<g transform="translate(700,520)">
<polygon points="0,-35 35,0 0,35 -35,0" fill="#FFF">
<animateTransform attributeName="transform" type="scale" values="0;1.5;0" keyTimes="0;0.5;1" dur="0.2s" begin="0.30s" fill="freeze" calcMode="discrete"/>
</polygon>
</g>
</g>
</svg>