<?xml version="1.0" encoding="UTF-8"?>
<svg xmlns="http://www.w3.org/2000/svg" viewBox="0 0 1600 900" preserveAspectRatio="xMidYMid slice">
<defs>
  <radialGradient id="vpGlow" cx="0.75" cy="0.5" r="0.55">
    <stop offset="0%" stop-color="#FFFFFF" stop-opacity="1"/>
    <stop offset="25%" stop-color="#F5F5F5" stop-opacity="0.7"/>
    <stop offset="60%" stop-color="#888888" stop-opacity="0.2"/>
    <stop offset="100%" stop-color="#0A0A0A" stop-opacity="0"/>
  </radialGradient>
  <linearGradient id="rimLight" x1="0%" y1="0%" x2="100%" y2="100%">
    <stop offset="0%" stop-color="#FFFFFF" stop-opacity="0.9"/>
    <stop offset="50%" stop-color="#F5F5F5" stop-opacity="0.3"/>
    <stop offset="100%" stop-color="#0A0A0A" stop-opacity="0"/>
  </linearGradient>
  <linearGradient id="shadowFall" x1="100%" y1="50%" x2="0%" y2="50%">
    <stop offset="0%" stop-color="#1A1A1A" stop-opacity="0.8"/>
    <stop offset="40%" stop-color="#0A0A0A" stop-opacity="0.4"/>
    <stop offset="100%" stop-color="#0A0A0A" stop-opacity="0"/>
  </linearGradient>
  <filter id="blur40" x="-20%" y="-20%" width="140%" height="140%">
    <feGaussianBlur stdDeviation="40"/>
  </filter>
  <filter id="blur80" x="-20%" y="-20%" width="140%" height="140%">
    <feGaussianBlur stdDeviation="80"/>
  </filter>
  <filter id="blur120" x="-20%" y="-20%" width="140%" height="140%">
    <feGaussianBlur stdDeviation="120"/>
  </filter>
  <filter id="blur160" x="-20%" y="-20%" width="140%" height="140%">
    <feGaussianBlur stdDeviation="160"/>
  </filter>
  <filter id="glowHalo" x="-50%" y="-50%" width="200%" height="200%">
    <feGaussianBlur stdDeviation="25" result="blur"/>
    <feMerge>
      <feMergeNode in="blur"/>
      <feMergeNode in="SourceGraphic"/>
    </feMerge>
  </filter>
  <filter id="dropShadow" x="-20%" y="-20%" width="140%" height="140%">
    <feDropShadow dx="15" dy="25" stdDeviation="20" flood-color="#0A0A0A" flood-opacity="0.6"/>
  </filter>
  <filter id="grain">
    <feTurbulence type="fractalNoise" baseFrequency="0.8" numOctaves="3" result="noise"/>
    <feColorMatrix type="matrix" values="0 0 0 0 0  0 0 0 0 0  0 0 0 0 0  0 0 0 0.04 0" in="noise" result="coloredNoise"/>
    <feComposite operator="in" in="coloredNoise" in2="SourceGraphic" result="composite"/>
    <feBlend mode="multiply" in="composite" in2="SourceGraphic"/>
  </filter>
  <polygon id="sq" points="0,0 0,0 0,0 0,0"/>
</defs>

<rect width="1600" height="900" fill="#0A0A0A"/>
<rect width="1600" height="900" fill="url(#vpGlow)" opacity="0.6"/>

<g id="atmosphere">
  <rect x="0" y="0" width="1600" height="900" fill="#1A1A1A" opacity="0.3" filter="url(#blur160)">
    <animate attributeName="opacity" values="0.3;0.5;0.3" dur="18s" repeatCount="indefinite"/>
  </rect>
  <rect x="0" y="0" width="800" height="900" fill="#0A0A0A" opacity="0.5" filter="url(#blur120)"/>
  <ellipse cx="400" cy="450" rx="600" ry="700" fill="#1A1A1A" opacity="0.25" filter="url(#blur80)">
    <animate attributeName="rx" values="600;650;600" dur="14s" repeatCount="indefinite"/>
    <animate attributeName="ry" values="700;750;700" dur="14s" repeatCount="indefinite"/>
  </ellipse>
</g>

<g id="checkerboard_base" opacity="0.85">
  <g filter="url(#dropShadow)">
    <polygon points="0,0 1200,450 0,900" fill="#888888" opacity="0.15"/>
    <polygon points="1600,0 1200,450 1600,900" fill="#1A1A1A" opacity="0.6"/>
    <polygon points="0,0 1200,450 1600,0" fill="#F5F5F5" opacity="0.1"/>
    <polygon points="0,900 1200,450 1600,900" fill="#0A0A0A" opacity="0.8"/>
  </g>

  <g id="grid_layer_1" opacity="0.9">
    <polygon points="0,0 400,150 1200,450 800,300" fill="#FFFFFF">
      <animate attributeName="fill-opacity" values="0.9;1;0.9" dur="12s" repeatCount="indefinite"/>
    </polygon>
    <polygon points="400,150 800,300 1200,450 1000,375" fill="#1A1A1A">
      <animate attributeName="fill-opacity" values="0.9;0.7;0.9" dur="12s" begin="1s" repeatCount="indefinite"/>
    </polygon>
    <polygon points="800,300 1200,450 1100,412 900,337" fill="#F5F5F5">
      <animate attributeName="fill-opacity" values="0.8;1;0.8" dur="12s" begin="2s" repeatCount="indefinite"/>
    </polygon>
    <polygon points="0,0 300,112 400,150 200,75" fill="#0A0A0A">
      <animate attributeName="fill-opacity" values="0.9;0.6;0.9" dur="12s" begin="0.5s" repeatCount="indefinite"/>
    </polygon>
    <polygon points="300,112 600,225 800,300 700,262" fill="#888888">
      <animate attributeName="fill-opacity" values="0.5;0.8;0.5" dur="12s" begin="1.5s" repeatCount="indefinite"/>
    </polygon>
    <polygon points="600,225 900,337 1000,375 850,300" fill="#FFFFFF">
      <animate attributeName="fill-opacity" values="0.95;0.7;0.95" dur="12s" begin="2.5s" repeatCount="indefinite"/>
    </polygon>
    <polygon points="200,75 400,150 300,112 250,93" fill="#1A1A1A">
      <animate attributeName="fill-opacity" values="0.7;0.9;0.7" dur="12s" begin="3s" repeatCount="indefinite"/>
    </polygon>
    <polygon points="100,37 200,75 250,93 150,56" fill="#F5F5F5">
      <animate attributeName="fill-opacity" values="0.6;0.9;0.6" dur="12s" begin="3.5s" repeatCount="indefinite"/>
    </polygon>
    <polygon points="50,18 100,37 150,56 100,37" fill="#0A0A0A">
      <animate attributeName="fill-opacity" values="0.8;0.5;0.8" dur="12s" begin="4s" repeatCount="indefinite"/>
    </polygon>
    <polygon points="1100,412 1200,450 1150,431 1050,393" fill="#1A1A1A">
      <animate attributeName="fill-opacity" values="0.8;1;0.8" dur="12s" begin="2.2s" repeatCount="indefinite"/>
    </polygon>
  </g>

  <g id="grid_layer_2" opacity="0.85">
    <polygon points="0,900 400,750 1200,450 800,600" fill="#0A0A0A">
      <animate attributeName="fill-opacity" values="0.9;0.7;0.9" dur="14s" repeatCount="indefinite"/>
    </polygon>
    <polygon points="400,750 800,600 1200,450 1000,525" fill="#F5F5F5">
      <animate attributeName="fill-opacity" values="0.8;1;0.8" dur="14s" begin="1.2s" repeatCount="indefinite"/>
    </polygon>
    <polygon points="800,600 1200,450 1100,487 900,562" fill="#888888">
      <animate attributeName="fill-opacity" values="0.6;0.9;0.6" dur="14s" begin="2.4s" repeatCount="indefinite"/>
    </polygon>
    <polygon points="0,900 300,787 400,750 200,825" fill="#1A1A1A">
      <animate attributeName="fill-opacity" values="0.85;0.6;0.85" dur="14s" begin="0.6s" repeatCount="indefinite"/>
    </polygon>
    <polygon points="300,787 600,675 800,600 700,637" fill="#FFFFFF">
      <animate attributeName="fill-opacity" values="0.9;0.7;0.9" dur="14s" begin="1.8s" repeatCount="indefinite"/>
    </polygon>
    <polygon points="600,675 900,562 1000,525 850,600" fill="#0A0A0A">
      <animate attributeName="fill-opacity" values="0.7;0.95;0.7" dur="14s" begin="3s" repeatCount="indefinite"/>
    </polygon>
    <polygon points="200,825 400,750 300,787 250,806" fill="#F5F5F5">
      <animate attributeName="fill-opacity" values="0.75;0.5;0.75" dur="14s" begin="3.6s" repeatCount="indefinite"/>
    </polygon>
    <polygon points="100,862 200,825 250,806 150,844" fill="#888888">
      <animate attributeName="fill-opacity" values="0.5;0.8;0.5" dur="14s" begin="4.2s" repeatCount="indefinite"/>
    </polygon>
    <polygon points="50,881 100,862 150,844 100,862" fill="#1A1A1A">
      <animate attributeName="fill-opacity" values="0.9;0.6;0.9" dur="14s" begin="4.8s" repeatCount="indefinite"/>
    </polygon>
    <polygon points="1100,487 1200,450 1150,468 1050,506" fill="#FFFFFF">
      <animate attributeName="fill-opacity" values="0.8;1;0.8" dur="14s" begin="3.3s" repeatCount="indefinite"/>
    </polygon>
  </g>

  <g id="grid_layer_3" opacity="0.8">
    <polygon points="1600,0 1400,75 1200,450 1300,337" fill="#1A1A1A">
      <animate attributeName="fill-opacity" values="0.85;0.6;0.85" dur="16s" repeatCount="indefinite"/>
    </polygon>
    <polygon points="1400,75 1300,337 1200,450 1350,262" fill="#F5F5F5">
      <animate attributeName="fill-opacity" values="0.7;0.95;0.7" dur="16s" begin="0.8s" repeatCount="indefinite"/>
    </polygon>
    <polygon points="1300,337 1250,393 1200,450 1275,412" fill="#888888">
      <animate attributeName="fill-opacity" values="0.5;0.8;0.5" dur="16s" begin="1.6s" repeatCount="indefinite"/>
    </polygon>
    <polygon points="1500,37 1450,56 1400,75 1475,68" fill="#FFFFFF">
      <animate attributeName="fill-opacity" values="0.9;0.7;0.9" dur="16s" begin="2.4s" repeatCount="indefinite"/>
    </polygon>
    <polygon points="1550,18 1525,28 1500,37 1537,32" fill="#0A0A0A">
      <animate attributeName="fill-opacity" values="0.8;0.5;0.8" dur="16s" begin="3.2s" repeatCount="indefinite"/>
    </polygon>
    <polygon points="1350,262 1275,300 1300,337 1325,318" fill="#1A1A1A">
      <animate attributeName="fill-opacity" values="0.75;0.95;0.75" dur="16s" begin="4s" repeatCount="indefinite"/>
    </polygon>
    <polygon points="1600,900 1400,825 1200,450 1300,562" fill="#0A0A0A">
      <animate attributeName="fill-opacity" values="0.9;0.65;0.9" dur="16s" begin="0.4s" repeatCount="indefinite"/>
    </polygon>
    <polygon points="1400,825 1300,562 1200,450 1350,637" fill="#888888">
      <animate attributeName="fill-opacity" values="0.6;0.85;0.6" dur="16s" begin="1.2s" repeatCount="indefinite"/>
    </polygon>
    <polygon points="1300,562 1250,506 1200,450 1275,468" fill="#F5F5F5">
      <animate attributeName="fill-opacity" values="0.8;1;0.8" dur="16s" begin="2s" repeatCount="indefinite"/>
    </polygon>
    <polygon points="1500,862 1450,844 1400,825 1475,831" fill="#1A1A1A">
      <animate attributeName="fill-opacity" values="0.85;0.6;0.85" dur="16s" begin="2.8s" repeatCount="indefinite"/>
    </polygon>
  </g>
</g>

<g id="perspective_lines" opacity="0.4">
  <line x1="0" y1="0" x2="1200" y2="450" stroke="#FFFFFF" stroke-width="1.5">
    <animate attributeName="opacity" values="0.4;0.7;0.4" dur="10s" repeatCount="indefinite"/>
  </line>
  <line x1="0" y1="900" x2="1200" y2="450" stroke="#FFFFFF" stroke-width="1.5">
    <animate attributeName="opacity" values="0.4;0.7;0.4" dur="10s" begin="2s" repeatCount="indefinite"/>
  </line>
  <line x1="1600" y1="0" x2="1200" y2="450" stroke="#888888" stroke-width="1.5">
    <animate attributeName="opacity" values="0.3;0.6;0.3" dur="10s" begin="1s" repeatCount="indefinite"/>
  </line>
  <line x1="1600" y1="900" x2="1200" y2="450" stroke="#888888" stroke-width="1.5">
    <animate attributeName="opacity" values="0.3;0.6;0.3" dur="10s" begin="3s" repeatCount="indefinite"/>
  </line>
  <line x1="800" y1="0" x2="1200" y2="450" stroke="#F5F5F5" stroke-width="1" opacity="0.5">
    <animate attributeName="opacity" values="0.5;0.8;0.5" dur="12s" repeatCount="indefinite"/>
  </line>
  <line x1="800" y1="900" x2="1200" y2="450" stroke="#F5F5F5" stroke-width="1" opacity="0.5">
    <animate attributeName="opacity" values="0.5;0.8;0.5" dur="12s" begin="1.5s" repeatCount="indefinite"/>
  </line>
  <line x1="0" y1="450" x2="1200" y2="450" stroke="#FFFFFF" stroke-width="1" opacity="0.3">
    <animate attributeName="opacity" values="0.3;0.6;0.3" dur="15s" repeatCount="indefinite"/>
  </line>
  <line x1="1600" y1="450" x2="1200" y2="450" stroke="#FFFFFF" stroke-width="1" opacity="0.3">
    <animate attributeName="opacity" values="0.3;0.6;0.3" dur="15s" begin="2s" repeatCount="indefinite"/>
  </line>
</g>

<g id="rim_lighting">
  <polygon points="0,0 600,200 1200,450 500,250" fill="url(#rimLight)" opacity="0.4" filter="url(#blur40)">
    <animate attributeName="opacity" values="0.4;0.6;0.4" dur="20s" repeatCount="indefinite"/>
  </polygon>
  <polygon points="0,900 500,700 1200,450 400,650" fill="url(#rimLight)" opacity="0.3" filter="url(#blur80)">
    <animate attributeName="opacity" values="0.3;0.5;0.3" dur="22s" repeatCount="indefinite"/>
  </polygon>
</g>

<g id="vanishing_point_focal" filter="url(#glowHalo)">
  <circle cx="1200" cy="450" r="80" fill="#FFFFFF" opacity="0.9">
    <animate attributeName="r" values="80;95;80" dur="8s" repeatCount="indefinite"/>
    <animate attributeName="opacity" values="0.9;1;0.9" dur="8s" repeatCount="indefinite"/>
  </circle>
  <circle cx="1200" cy="450" r="150" fill="#F5F5F5" opacity="0.5" filter="url(#blur40)">
    <animate attributeName="r" values="150;170;150" dur="10s" repeatCount="indefinite"/>
    <animate attributeName="opacity" values="0.5;0.7;0.5" dur="10s" repeatCount="indefinite"/>
  </circle>
  <circle cx="1200" cy="450" r="250" fill="#888888" opacity="0.3" filter="url(#blur80)">
    <animate attributeName="r" values="250;280;250" dur="12s" repeatCount="indefinite"/>
  </circle>
  <circle cx="1200" cy="450" r="400" fill="#FFFFFF" opacity="0.15" filter="url(#blur120)">
    <animate attributeName="r" values="400;440;400" dur="15s" repeatCount="indefinite"/>
  </circle>
</g>

<g id="negative_space_haze">
  <rect x="0" y="0" width="700" height="900" fill="#0A0A0A" opacity="0.2" filter="url(#blur160)">
    <animate attributeName="opacity" values="0.2;0.35;0.2" dur="18s" repeatCount="indefinite"/>
  </rect>
  <rect x="0" y="0" width="1600" height="900" fill="#1A1A1A" opacity="0.1" filter="url(#blur80)">
    <animate attributeName="opacity" values="0.1;0.2;0.1" dur="14s" repeatCount="indefinite"/>
  </rect>
</g>

<g id="grain_overlay" opacity="0.6" filter="url(#grain)">
  <rect x="0" y="0" width="1600" height="900" fill="transparent"/>
</g>

<g id="dramatic_shadow_fall">
  <polygon points="0,0 1200,450 1600,450 1600,0" fill="url(#shadowFall)" opacity="0.5" filter="url(#blur40)"/>
  <polygon points="0,900 1200,450 1600,450 1600,900" fill="url(#shadowFall)" opacity="0.6" filter="url(#blur40)"/>
</g>

<g id="edge_vignette" opacity="0.7">
  <rect x="0" y="0" width="1600" height="150" fill="#0A0A0A" filter="url(#blur80)"/>
  <rect x="0" y="750" width="1600" height="150" fill="#0A0A0A" filter="url(#blur80)"/>
  <rect x="0" y="0" width="300" height="900" fill="#0A0A0A" filter="url(#blur120)"/>
</g>

<g id="floating_specular" opacity="0.5">
  <circle cx="200" cy="150" r="3" fill="#FFFFFF" filter="url(#glowHalo)">
    <animate attributeName="cy" values="150;170;150" dur="9s" repeatCount="indefinite"/>
    <animate attributeName="opacity" values="0.5;0.9;0.5" dur="6s" repeatCount="indefinite"/>
  </circle>
  <circle cx="350" cy="300" r="2" fill="#F5F5F5" filter="url(#glowHalo)">
    <animate attributeName="cx" values="350;370;350" dur="11s" repeatCount="indefinite"/>
    <animate attributeName="opacity" values="0.6;1;0.6" dur="7s" repeatCount="indefinite"/>
  </circle>
  <circle cx="100" cy="600" r="4" fill="#FFFFFF" filter="url(#glowHalo)">
    <animate attributeName="cy" values="600;580;600" dur="10s" repeatCount="indefinite"/>
    <animate attributeName="opacity" values="0.4;0.8;0.4" dur="8s" repeatCount="indefinite"/>
  </circle>
  <circle cx="500" cy="750" r="2.5" fill="#F5F5F5" filter="url(#glowHalo)">
    <animate attributeName="cx" values="500;480;500" dur="12s" repeatCount="indefinite"/>
    <animate attributeName="opacity" values="0.5;0.9;0.5" dur="9s" repeatCount="indefinite"/>
  </circle>
  <circle cx="600" cy="100" r="3.5" fill="#FFFFFF" filter="url(#glowHalo)">
    <animate attributeName="cy" values="100;120;100" dur="8s" repeatCount="indefinite"/>
    <animate attributeName="opacity" values="0.6;1;0.6" dur="5s" repeatCount="indefinite"/>
  </circle>
</g>

<g id="central_anchor" filter="url(#dropShadow)">
  <polygon points="1195,445 1205,445 1200,455" fill="#FFFFFF" opacity="0.95">
    <animateTransform attributeName="transform" type="rotate" from="0 1200 450" to="360 1200 450" dur="25s" repeatCount="indefinite"/>
  </polygon>
  <circle cx="1200" cy="450" r="4" fill="#0A0A0A" opacity="0.8"/>
</g>

<rect width="1600" height="900" fill="url(#vpGlow)" opacity="0.15" style="mix-blend-mode: overlay; pointer-events: none;">
  <animate attributeName="opacity" values="0.15;0.25;0.15" dur="20s" repeatCount="indefinite"/>
</rect>
</svg>