<?xml version="1.0" encoding="UTF-8"?>
<svg viewBox="0 0 1600 900" preserveAspectRatio="xMidYMid slice" xmlns="http://www.w3.org/2000/svg">
  <defs>
    <filter id="b160" x="-50%" y="-50%" width="200%" height="200%">
      <feGaussianBlur stdDeviation="160"/>
    </filter>
    <filter id="b120" x="-50%" y="-50%" width="200%" height="200%">
      <feGaussianBlur stdDeviation="120"/>
    </filter>
    <filter id="b80" x="-50%" y="-50%" width="200%" height="200%">
      <feGaussianBlur stdDeviation="80"/>
    </filter>
    <filter id="b40" x="-50%" y="-50%" width="200%" height="200%">
      <feGaussianBlur stdDeviation="40"/>
    </filter>

    <linearGradient id="skyGrad" x1="0" y1="0" x2="0" y2="1">
      <stop offset="0%" stop-color="#1A1025"/>
      <stop offset="0.3" stop-color="#6B4FBB"/>
      <stop offset="0.55" stop-color="#9D4E28"/>
      <stop offset="0.78" stop-color="#D48C3A"/>
      <stop offset="1" stop-color="#F5C97A"/>

      <animate attributeName="y1" values="0;0.04;0" dur="18s" repeatCount="indefinite"/>
      <animate attributeName="y2" values="1;0.96;1" dur="18s" repeatCount="indefinite"/>

      <animate attributeName="x1" values="0;0.02;0" dur="24s" repeatCount="indefinite"/>
      <animate attributeName="x2" values="0;-0.02;0" dur="24s" repeatCount="indefinite"/>
    </linearGradient>

    <radialGradient id="sunGrad" cx="40%" cy="35%" r="60%">
      <stop offset="0%" stop-color="#F5C97A" stop-opacity="0.9"/>
      <stop offset="40%" stop-color="#C9A574" stop-opacity="0.4"/>
      <stop offset="100%" stop-color="#C9A574" stop-opacity="0"/>
      <animate attributeName="cx" values="40%; 42%; 40%" dur="20s" repeatCount="indefinite"/>
      <animate attributeName="cy" values="35%; 38%; 35%" dur="22s" repeatCount="indefinite"/>
      <animate attributeName="r" values="60%; 65%; 60%" dur="12s" repeatCount="indefinite"/>
    </radialGradient>

    <radialGradient id="treeGlow" cx="50%" cy="50%" r="50%">
      <stop offset="0%" stop-color="#F5C97A" stop-opacity="1.0"/>
      <stop offset="30%" stop-color="#F5C97A" stop-opacity="0.7"/>
      <stop offset="100%" stop-color="#C9A574" stop-opacity="0"/>
    </radialGradient>

    <radialGradient id="haloGrad" cx="50%" cy="50%" r="50%">
      <stop offset="0%" stop-color="#F5C97A" stop-opacity="0.3"/>
      <stop offset="100%" stop-color="#6B4FBB" stop-opacity="0"/>
    </radialGradient>

    <linearGradient id="groundGrad" x1="0" y1="0" x2="0" y2="1">
      <stop offset="0%" stop-color="#3D2A1F" stop-opacity="1"/>
      <stop offset="100%" stop-color="#0A0503" stop-opacity="1"/>
    </linearGradient>

    <linearGradient id="grassGrad" x1="0" y1="0" x2="0" y2="1">
      <stop offset="0%" stop-color="#C9A574"/>
      <stop offset="100%" stop-color="#3D2A1F"/>
    </linearGradient>

    <path id="hill1" d="M -100 900 Q 400 680 900 780 T 1700 850 V 900 Z"/>
    <path id="hill2" d="M -100 900 Q 600 720 1200 780 T 1700 820 V 900 Z"/>
    <path id="hill3" d="M -100 900 Q 800 750 1300 810 T 1700 860 V 900 Z"/>

    <path id="treeTrunk" d="M -15 0 Q -18 -120 -10 -220 Q 2 -250 12 -220 Q 20 -120 15 0 Z"/>
    <path id="treeBranch" d="M -8 -150 C -60 -180 -120 -160 -180 -220 C -120 -200 -60 -200 -5 -170 Z"/>
    <path id="treeBranch2" d="M 8 -180 C 50 -210 100 -200 140 -240 C 100 -220 50 -230 5 -200 Z"/>
    <path id="treeBranch3" d="M -2 -240 C -40 -270 -80 -260 -110 -300 C -80 -290 -40 -290 0 -260 Z"/>

    <mask id="knightMask">
      <rect x="0" y="0" width="1600" height="900" fill="#fff"/>
      <ellipse cx="1200" cy="760" rx="400" ry="200" fill="#000" filter="url(#b40)"/>
    </mask>

    <g id="goldenParticle">
      <circle r="2.5" fill="#F5C97A" opacity="0.8">
        <animate attributeName="opacity" values="0;0.8;0" dur="5s" repeatCount="indefinite" calcMode="spline" keySplines="0.4 0 0.2 1; 0.4 0 0.2 1"/>
      </circle>
    </g>
    <g id="crossParticle">
      <path d="M 0 -2 L 0 2 M -2 0 L 2 0" stroke="#F5C97A" stroke-width="1.5" opacity="0.7">
        <animate attributeName="opacity" values="0;0.7;0" dur="6s" repeatCount="indefinite" calcMode="spline" keySplines="0.4 0 0.2 1; 0.4 0 0.2 1"/>
      </path>
    </g>
  </defs>

  <rect width="1600" height="900" fill="url(#skyGrad)"/>

  <circle cx="640" cy="450" r="500" fill="url(#sunGrad)" filter="url(#b160)">
    <animate attributeName="r" values="500; 550; 500" dur="20s" repeatCount="indefinite"/>
    <animate attributeName="cx" values="640; 660; 640" dur="25s" repeatCount="indefinite"/>
    <animate attributeName="cy" values="450; 430; 450" dur="18s" repeatCount="indefinite"/>
  </circle>

  <circle cx="500" cy="400" r="350" fill="url(#sunGrad)" filter="url(#b120)">
    <animate attributeName="r" values="350; 380; 350" dur="15s" repeatCount="indefinite"/>
  </circle>

  <rect width="1600" height="900" fill="#6B4FBB" opacity="0.15">
    <animate attributeName="opacity" values="0.15;0.2;0.15" dur="14s" repeatCount="indefinite"/>
  </rect>

  <rect x="0" y="0" width="1600" height="900" fill="url(#skyGrad)" opacity="0.3" style="mix-blend-mode: overlay;"/>

  <g opacity="0.6" filter="url(#b80)">
    <path d="M 200 700 Q 400 600 600 650 T 1000 620 T 1400 680" fill="none" stroke="#6B4FBB" stroke-width="80"/>
    <path d="M 0 750 Q 300 680 600 720 T 1200 700 T 1600 760" fill="none" stroke="#6B4FBB" stroke-width="60"/>
  </g>

  <g filter="url(#b80)">
    <use href="#hill1" fill="#2A1A12" transform="translate(0, -40)"/>
    <use href="#hill2" fill="#1E120A" transform="translate(100, 20)"/>
    <use href="#hill3" fill="#120A05" transform="translate(-50, 60)"/>
  </g>

  <ellipse cx="550" cy="700" rx="250" ry="70" fill="url(#treeGlow)" filter="url(#b120)" opacity="0.6">
    <animate attributeName="rx" values="250; 280; 250" dur="8s" repeatCount="indefinite"/>
    <animate attributeName="ry" values="70; 85; 70" dur="8s" repeatCount="indefinite"/>
  </ellipse>

  <ellipse cx="550" cy="700" rx="180" ry="50" fill="url(#treeGlow)" filter="url(#b80)" opacity="0.7">
    <animate attributeName="rx" values="180; 200; 180" dur="6s" repeatCount="indefinite"/>
    <animate attributeName="opacity" values="0.7;0.9;0.7" dur="6s" repeatCount="indefinite"/>
  </ellipse>

  <ellipse cx="550" cy="700" rx="400" ry="120" fill="url(#haloGrad)" filter="url(#b160)" opacity="0.5">
    <animate attributeName="rx" values="400; 450; 400" dur="12s" repeatCount="indefinite"/>
    <animate attributeName="opacity" values="0.5;0.3;0.5" dur="12s" repeatCount="indefinite"/>
  </ellipse>

  <ellipse cx="550" cy="700" rx="600" ry="180" fill="url(#haloGrad)" filter="url(#b160)" opacity="0.25">
    <animate attributeName="rx" values="600; 650; 600" dur="18s" repeatCount="indefinite"/>
  </ellipse>

  <circle cx="550" cy="700" r="8" fill="#F5C97A" filter="url(#b40)">
    <animate attributeName="r" values="8;12;8" dur="4s" repeatCount="indefinite"/>
    <animate attributeName="opacity" values="1;0.6;1" dur="4s" repeatCount="indefinite"/>
  </circle>

  <g transform="translate(550, 700)">
    <use href="#treeTrunk" fill="#3D2A1F"/>
    <use href="#treeBranch" fill="#3D2A1F"/>
    <use href="#treeBranch2" fill="#3D2A1F"/>
    <use href="#treeBranch3" fill="#3D2A1F"/>

    <circle cx="-15" cy="-80" r="20" fill="#F5C97A" filter="url(#b40)" opacity="0.6">
      <animate attributeName="r" values="20;25;20" dur="5s" repeatCount="indefinite"/>
    </circle>
    <circle cx="25" cy="-150" r="15" fill="#F5C97A" filter="url(#b40)" opacity="0.5">
      <animate attributeName="r" values="15;18;15" dur="4s" repeatCount="indefinite"/>
    </circle>
    <circle cx="-40" cy="-200" r="12" fill="#F5C97A" filter="url(#b40)" opacity="0.7">
      <animate attributeName="r" values="12;15;12" dur="3s" repeatCount="indefinite"/>
    </circle>
    <circle cx="10" cy="-240" r="18" fill="#F5C97A" filter="url(#b40)" opacity="0.4">
      <animate attributeName="r" values="18;22;18" dur="6s" repeatCount="indefinite"/>
    </circle>
    <circle cx="-80" cy="-180" r="14" fill="#F5C97A" filter="url(#b40)" opacity="0.5">
      <animate attributeName="r" values="14;17;14" dur="5s" repeatCount="indefinite"/>
    </circle>
    <circle cx="-110" cy="-260" r="10" fill="#F5C97A" filter="url(#b40)" opacity="0.6">
      <animate attributeName="r" values="10;13;10" dur="4s" repeatCount="indefinite"/>
    </circle>
  </g>

  <g filter="url(#b40)" opacity="0.8">
    <use href="#hill1" fill="url(#groundGrad)" transform="translate(0, 0) scale(1.1, 1)"/>
    <use href="#hill2" fill="#1E120A" transform="translate(50, 40) scale(1.05, 1)"/>
    <use href="#hill3" fill="#0A0503" transform="translate(-20, 80)"/>
  </g>

  <g filter="url(#b40)">
    <path d="M 0 900 L 0 780 Q 200 760 400 790 T 800 820 T 1200 780 T 1600 810 L 1600 900 Z" fill="#C9A574" opacity="0.4"/>
    <path d="M 0 900 L 0 820 Q 300 800 600 840 T 1100 860 T 1600 830 L 1600 900 Z" fill="#A67B50" opacity="0.5"/>
    <path d="M 0 900 L 0 860 Q 400 840 800 880 T 1600 860 L 1600 900 Z" fill="#3D2A1F" opacity="0.6"/>
  </g>

  <g opacity="0.5" filter="url(#b40)">
    <path d="M 100 900 Q 150 850 200 900" stroke="#C9A574" stroke-width="3" fill="none"/>
    <path d="M 300 900 Q 320 860 340 900" stroke="#C9A574" stroke-width="2" fill="none"/>
    <path d="M 500 900 Q 550 840 600 900" stroke="#C9A574" stroke-width="4" fill="none"/>
    <path d="M 700 900 Q 720 870 740 900" stroke="#C9A574" stroke-width="2" fill="none"/>
    <path d="M 900 900 Q 950 850 1000 900" stroke="#C9A574" stroke-width="3" fill="none"/>
    <path d="M 1200 900 Q 1230 860 1260 900" stroke="#C9A574" stroke-width="2" fill="none"/>
    <path d="M 1400 900 Q 1450 840 1500 900" stroke="#C9A574" stroke-width="4" fill="none"/>
  </g>

  <g opacity="0.7" filter="url(#b40)">
    <path d="M 50 900 Q 80 860 110 900" stroke="#F5C97A" stroke-width="2" fill="none"/>
    <path d="M 250 900 Q 280 870 310 900" stroke="#F5C97A" stroke-width="3" fill="none"/>
    <path d="M 450 900 Q 480 850 510 900" stroke="#F5C97A" stroke-width="2" fill="none"/>
    <path d="M 650 900 Q 700 860 750 900" stroke="#F5C97A" stroke-width="3" fill="none"/>
    <path d="M 850 900 Q 880 880 910 900" stroke="#F5C97A" stroke-width="2" fill="none"/>
    <path d="M 1050 900 Q 1100 850 1150 900" stroke="#F5C97A" stroke-width="3" fill="none"/>
    <path d="M 1300 900 Q 1330 870 1360 900" stroke="#F5C97A" stroke-width="2" fill="none"/>
    <path d="M 1500 900 Q 1540 860 1580 900" stroke="#F5C97A" stroke-width="3" fill="none"/>
  </g>

  <g mask="url(#knightMask)">
    <ellipse cx="1220" cy="780" rx="350" ry="150" fill="#F5C97A" filter="url(#b120)" opacity="0.2">
      <animate attributeName="opacity" values="0.2;0.3;0.2" dur="8s" repeatCount="indefinite"/>
    </ellipse>
    <ellipse cx="1220" cy="780" rx="200" ry="80" fill="#F5C97A" filter="url(#b80)" opacity="0.3">
      <animate attributeName="opacity" values="0.3;0.4;0.3" dur="6s" repeatCount="indefinite"/>
    </ellipse>
  </g>

  <g transform="translate(1150, 780) scale(0.7)" id="horseAndRider">
    <animateTransform attributeName="transform" type="translate" values="1150, 780; 1150, 778; 1150, 780" dur="3.5s" repeatCount="indefinite" calcMode="spline" keySplines="0.4 0 0.2 1; 0.4 0 0.2 1"/>
    <animateTransform attributeName="transform" type="scale" values="0.7; 0.702; 0.7" dur="3.5s" repeatCount="indefinite" additive="sum" calcMode="spline" keySplines="0.4 0 0.2 1; 0.4 0 0.2 1"/>

    <path d="M -20 80 L -25 120 L -45 200 L -35 200 L -15 120 L 10 120 L 35 200 L 45 200 L 20 120 L 15 80 Z" fill="#0A0503"/>
    <path d="M -20 80 Q -30 40 -20 0 L 20 0 Q 30 40 20 80 Z" fill="#0A0503"/>
    <path d="M -20 0 L -25 -30 L -35 -80 L -25 -120 L -15 -80 L -5 -30 L 0 0 Z" fill="#0A0503"/>
    <path d="M 20 0 L 25 -30 L 35 -80 L 25 -120 L 15 -80 L 5 -30 L 0 0 Z" fill="#0A0503"/>
    <path d="M -5 -30 L -10 -60 L -5 -90 L 5 -60 L 10 -30 Z" fill="#0A0503"/>

    <path d="M -15 -120 L -25 -160 L -15 -200 L -5 -160 Z" fill="#0A0503"/>
    <path d="M -25 -160 L -35 -180 L -25 -200 Z" fill="#0A0503"/>

    <path d="M -25 -200 L -15 -220 L 5 -210 L 15 -190 Z" fill="#0A0503"/>

    <path d="M -15 -200 L -15 -240 L -5 -250 L 15 -240 L 25 -200 Z" fill="#0A0503"/>
    <path d="M -25 -220 L -35 -250 L -25 -270 L -15 -250 Z" fill="#0A0503"/>

    <path d="M -35 -250 L -45 -280 L -55 -270 L -45 -240 Z" fill="#0A0503"/>

    <path d="M 5 -210 L 15 -240 L 35 -230 L 25 -200 Z" fill="#0A0503"/>
    <path d="M 15 -240 L 25 -280 L 35 -270 L 25 -230 Z" fill="#0A0503"/>

    <ellipse cx="0" cy="-40" rx="15" ry="30" fill="#0A0503"/>
    <path d="M -10 -60 L -20 -100 L -10 -120 L 0 -100 L 10 -120 L 20 -100 L 10 -60 Z" fill="#0A0503"/>

    <ellipse cx="0" cy="-160" rx="10" ry="15" fill="#0A0503"/>

    <animateTransform attributeName="transform" type="rotate" values="0 0 0; 1.5 0 0; 0 0 0" dur="3.5s" repeatCount="indefinite" additive="sum" calcMode="spline" keySplines="0.4 0 0.2 1; 0.4 0 0.2 1"/>
  </g>

  <path d="M 1150 780 Q 900 650 550 700" stroke="#F5C97A" stroke-width="2" fill="none" opacity="0.3" filter="url(#b40)">
    <animate attributeName="opacity" values="0.3;0.1;0.3" dur="8s" repeatCount="indefinite"/>
  </path>

  <g id="particleLayer1">
    <use href="#goldenParticle" x="600" y="800">
      <animateMotion path="M 0 0 Q -100 -200 -300 -400" dur="7s" repeatCount="indefinite" calcMode="spline" keySplines="0.4 0 0.2 1"/>
    </use>
    <use href="#goldenParticle" x="650" y="820">
      <animateMotion path="M 0 0 Q -50 -250 -250 -450" dur="9s" repeatCount="indefinite" calcMode="spline" keySplines="0.4 0 0.2 1"/>
    </use>
    <use href="#goldenParticle" x="700" y="780">
      <animateMotion path="M 0 0 Q -150 -150 -350 -350" dur="8s" repeatCount="indefinite" calcMode="spline" keySplines="0.4 0 0.2 1"/>
    </use>
    <use href="#goldenParticle" x="750" y="850">
      <animateMotion path="M 0 0 Q -80 -300 -280 -500" dur="10s" repeatCount="indefinite" calcMode="spline" keySplines="0.4 0 0.2 1"/>
    </use>
    <use href="#goldenParticle" x="800" y="760">
      <animateMotion path="M 0 0 Q -120 -180 -320 -380" dur="6s" repeatCount="indefinite" calcMode="spline" keySplines="0.4 0 0.2 1"/>
    </use>
    <use href="#goldenParticle" x="850" y="830">
      <animateMotion path="M 0 0 Q -60 -220 -260 -420" dur="11s" repeatCount="indefinite" calcMode="spline" keySplines="0.4 0 0.2 1"/>
    </use>
    <use href="#goldenParticle" x="900" y="790">
      <animateMotion path="M 0 0 Q -130 -170 -330 -370" dur="7.5s" repeatCount="indefinite" calcMode="spline" keySplines="0.4 0 0.2 1"/>
    </use>
    <use href="#goldenParticle" x="950" y="810">
      <animateMotion path="M 0 0 Q -90 -210 -290 -410" dur="9.5s" repeatCount="indefinite" calcMode="spline" keySplines="0.4 0 0.2 1"/>
    </use>
    <use href="#goldenParticle" x="1000" y="770">
      <animateMotion path="M 0 0 Q -140 -160 -340 -360" dur="8.5s" repeatCount="indefinite" calcMode="spline" keySplines="0.4 0 0.2 1"/>
    </use>
    <use href="#goldenParticle" x="1050" y="840">
      <animateMotion path="M 0 0 Q -70 -230 -270 -430" dur="10.5s" repeatCount="indefinite" calcMode="spline" keySplines="0.4 0 0.2 1"/>
    </use>
    <use href="#goldenParticle" x="1100" y="750">
      <animateMotion path="M 0 0 Q -150 -140 -350 -340" dur="6.5s" repeatCount="indefinite" calcMode="spline" keySplines="0.4 0 0.2 1"/>
    </use>
  </g>

  <g id="particleLayer2">
    <use href="#crossParticle" x="550" y="750">
      <animateMotion path="M 0 0 Q -50 -150 -150 -350" dur="12s" repeatCount="indefinite" calcMode="spline" keySplines="0.4 0 0.2 1"/>
      <animateTransform attributeName="transform" type="rotate" values="0; 180; 360" dur="12s" repeatCount="indefinite" additive="sum"/>
    </use>
    <use href="#crossParticle" x="620" y="820">
      <animateMotion path="M 0 0 Q -80 -100 -180 -300" dur="15s" repeatCount="indefinite" calcMode="spline" keySplines="0.4 0 0.2 1"/>
      <animateTransform attributeName="transform" type="rotate" values="0; -180; -360" dur="15s" repeatCount="indefinite" additive="sum"/>
    </use>
    <use href="#crossParticle" x="680" y="780">
      <animateMotion path="M 0 0 Q -30 -180 -130 -380" dur="10s" repeatCount="indefinite" calcMode="spline" keySplines="0.4 0 0.2 1"/>
      <animateTransform attributeName="transform" type="rotate" values="0; 90; 180; 270; 360" dur="10s" repeatCount="indefinite" additive="sum"/>
    </use>
    <use href="#crossParticle" x="720" y="860">
      <animateMotion path="M 0 0 Q -60 -120 -160 -320" dur="14s" repeatCount="indefinite" calcMode="spline" keySplines="0.4 0 0.2 1"/>
      <animateTransform attributeName="transform" type="rotate" values="0; -90; -180; -270; -360" dur="14s" repeatCount="indefinite" additive="sum"/>
    </use>
    <use href="#crossParticle" x="780" y="740">
      <animateMotion path="M 0 0 Q -100 -160 -200 -360" dur="11s" repeatCount="indefinite" calcMode="spline" keySplines="0.4 0 0.2 1"/>
      <animateTransform attributeName="transform" type="rotate" values="0; 120; 240; 360" dur="11s" repeatCount="indefinite" additive="sum"/>
    </use>
    <use href="#crossParticle" x="830" y="800">
      <animateMotion path="M 0 0 Q -40 -140 -140 -340" dur="13s" repeatCount="indefinite" calcMode="spline" keySplines="0.4 0 0.2 1"/>
      <animateTransform attributeName="transform" type="rotate" values="0; -120; -240; -360" dur="13s" repeatCount="indefinite" additive="sum"/>
    </use>
    <use href="#crossParticle" x="880" y="770">
      <animateMotion path="M 0 0 Q -70 -170 -170 -370" dur="9s" repeatCount="indefinite" calcMode="spline" keySplines="0.4 0 0.2 1"/>
      <animateTransform attributeName="transform" type="rotate" values="0; 150; 300; 360" dur="9s" repeatCount="indefinite" additive="sum"/>
    </use>
    <use href="#crossParticle" x="920" y="840">
      <animateMotion path="M 0 0 Q -20 -130 -120 -330" dur="16s" repeatCount="indefinite" calcMode="spline" keySplines="0.4 0 0.2 1"/>
      <animateTransform attributeName="transform" type="rotate" values="0; -150; -300; -360" dur="16s" repeatCount="indefinite" additive="sum"/>
    </use>
    <use href="#crossParticle" x="970" y="760">
      <animateMotion path="M 0 0 Q -90 -190 -190 -390" dur="10.5s" repeatCount="indefinite" calcMode="spline" keySplines="0.4 0 0.2 1"/>
      <animateTransform attributeName="transform" type="rotate" values="0; 180; 360" dur="10.5s" repeatCount="indefinite" additive="sum"/>
    </use>
    <use href="#crossParticle" x="1020" y="810">
      <animateMotion path="M 0 0 Q -50 -110 -150 -310" dur="12.5s" repeatCount="indefinite" calcMode="spline" keySplines="0.4 0 0.2 1"/>
      <animateTransform attributeName="transform" type="rotate" values="0; -180; -360" dur="12.5s" repeatCount="indefinite" additive="sum"/>
    </use>
  </g>

  <g id="particleLayer3">
    <line x1="580" y1="850" x2="550" y2="500" stroke="#F5C97A" stroke-width="1" opacity="0.4">
      <animate attributeName="opacity" values="0;0.4;0" dur="8s" repeatCount="indefinite"/>
      <animate attributeName="x1" values="580;560;580" dur="8s" repeatCount="indefinite"/>
      <animate attributeName="x2" values="550;530;550" dur="8s" repeatCount="indefinite"/>
    </line>
    <line x1="620" y1="860" x2="590" y2="480" stroke="#F5C97A" stroke-width="1" opacity="0.3">
      <animate attributeName="opacity" values="0;0.3;0" dur="10s" repeatCount="indefinite"/>
      <animate attributeName="x1" values="620;600;620" dur="10s" repeatCount="indefinite"/>
      <animate attributeName="x2" values="590;570;590" dur="10s" repeatCount="indefinite"/>
    </line>
    <line x1="680" y1="840" x2="650" y2="520" stroke="#F5C97A" stroke-width="1.5" opacity="0.5">
      <animate attributeName="opacity" values="0;0.5;0" dur="7s" repeatCount="indefinite"/>
      <animate attributeName="x1" values="680;660;680" dur="7s" repeatCount="indefinite"/>
      <animate attributeName="x2" values="650;630;650" dur="7s" repeatCount="indefinite"/>
    </line>
    <line x1="740" y1="870" x2="710" y2="450" stroke="#F5C97A" stroke-width="1" opacity="0.4">
      <animate attributeName="opacity" values="0;0.4;0" dur="12s" repeatCount="indefinite"/>
      <animate attributeName="x1" values="740;720;740" dur="12s" repeatCount="indefinite"/>
      <animate attributeName="x2" values="710;690;710" dur="12s" repeatCount="indefinite"/>
    </line>
    <line x1="790" y1="850" x2="760" y2="500" stroke="#F5C97A" stroke-width="1" opacity="0.3">
      <animate attributeName="opacity" values="0;0.3;0" dur="9s" repeatCount="indefinite"/>
      <animate attributeName="x1" values="790;770;790" dur="9s" repeatCount="indefinite"/>
      <animate attributeName="x2" values="760;740;760" dur="9s" repeatCount="indefinite"/>
    </line>
    <line x1="850" y1="860" x2="820" y2="480" stroke="#F5C97A" stroke-width="1.5" opacity="0.5">
      <animate attributeName="opacity" values="0;0.5;0" dur="11s" repeatCount="indefinite"/>
      <animate attributeName="x1" values="850;830;850" dur="11s" repeatCount="indefinite"/>
      <animate attributeName="x2" values="820;800;820" dur="11s" repeatCount="indefinite"/>
    </line>
    <line x1="900" y1="840" x2="870" y2="530" stroke="#F5C97A" stroke-width="1" opacity="0.4">
      <animate attributeName="opacity" values="0;0.4;0" dur="8s" repeatCount="indefinite"/>
      <animate attributeName="x1" values="900;880;900" dur="8s" repeatCount="indefinite"/>
      <animate attributeName="x2" values="870;850;870" dur="8s" repeatCount="indefinite"/>
    </line>
    <line x1="950" y1="830" x2="920" y2="510" stroke="#F5C97A" stroke-width="1" opacity="0.3">
      <animate attributeName="opacity" values="0;0.3;0" dur="10s" repeatCount="indefinite"/>
      <animate attributeName="x1" values="950;930;950" dur="10s" repeatCount="indefinite"/>
      <animate attributeName="x2" values="920;900;920" dur="10s" repeatCount="indefinite"/>
    </line>
    <line x1="1000" y1="850" x2="970" y2="490" stroke="#F5C97A" stroke-width="1.5" opacity="0.4">
      <animate attributeName="opacity" values="0;0.4;0" dur="7s" repeatCount="indefinite"/>
      <animate attributeName="x1" values="1000;980;1000" dur="7s" repeatCount="indefinite"/>
      <animate attributeName="x2" values="970;950;970" dur="7s" repeatCount="indefinite"/>
    </line>
    <line x1="1050" y1="860" x2="1020" y2="470" stroke="#F5C97A" stroke-width="1" opacity="0.5">
      <animate attributeName="opacity" values="0;0.5;0" dur="13s" repeatCount="indefinite"/>
      <animate attributeName="x1" values="1050;1030;1050" dur="13s" repeatCount="indefinite"/>
      <animate attributeName="x2" values="1020;1000;1020" dur="13s" repeatCount="indefinite"/>
    </line>
    <line x1="1100" y1="840" x2="1070" y2="500" stroke="#F5C97A" stroke-width="1" opacity="0.3">
      <animate attributeName="opacity" values="0;0.3;0" dur="9s" repeatCount="indefinite"/>
      <animate attributeName="x1" values="1100;1080;1100" dur="9s" repeatCount="indefinite"/>
      <animate attributeName="x2" values="1070;1050;1070" dur="9s" repeatCount="indefinite"/>
    </line>
  </g>

  <g id="distantParticles" opacity="0.6">
    <circle cx="450" cy="600" r="2" fill="#F5C97A">
      <animate attributeName="opacity" values="0;1;0" dur="4s" repeatCount="indefinite"/>
      <animate attributeName="cy" values="600;580;600" dur="4s" repeatCount="indefinite"/>
    </circle>
    <circle cx="500" cy="550" r="1.5" fill="#C9A574">
      <animate attributeName="opacity" values="0;1;0" dur="5s" repeatCount="indefinite"/>
      <animate attributeName="cy" values="550;530;550" dur="5s" repeatCount="indefinite"/>
    </circle>
    <circle cx="600" cy="650" r="2.5" fill="#F5C97A">
      <animate attributeName="opacity" values="0;1;0" dur="6s" repeatCount="indefinite"/>
      <animate attributeName="cx" values="600;580;600" dur="6s" repeatCount="indefinite"/>
    </circle>
    <circle cx="400" cy="700" r="1" fill="#C9A574">
      <animate attributeName="opacity" values="0;1;0" dur="3.5s" repeatCount="indefinite"/>
      <animate attributeName="cx" values="400;420;400" dur="3.5s" repeatCount="indefinite"/>
    </circle>
    <circle cx="550" cy="500" r="2" fill="#F5C97A">
      <animate attributeName="opacity" values="0;1;0" dur="7s" repeatCount="indefinite"/>
      <animate attributeName="cy" values="500;480;500" dur="7s" repeatCount="indefinite"/>
    </circle>
    <circle cx="350" cy="620" r="1.5" fill="#C9A574">
      <animate attributeName="opacity" values="0;1;0" dur="4.5s" repeatCount="indefinite"/>
      <animate attributeName="cy" values="620;600;620" dur="4.5s" repeatCount="indefinite"/>
    </circle>
    <circle cx="480" cy="680" r="2" fill="#F5C97A">
      <animate attributeName="opacity" values="0;1;0" dur="5.5s" repeatCount="indefinite"/>
      <animate attributeName="cx" values="480;500;480" dur="5.5s" repeatCount="indefinite"/>
    </circle>
    <circle cx="650" cy="580" r="1" fill="#C9A574">
      <animate attributeName="opacity" values="0;1;0" dur="3s" repeatCount="indefinite"/>
      <animate attributeName="cy" values="580;560;580" dur="3s" repeatCount="indefinite"/>
    </circle>
  </g>

  <g id="foregroundGrass" opacity="0.9">
    <path d="M 0 900 L 0 880 Q 30 850 60 880 T 120 890 T 180 870 T 240 900 Z" fill="#1E120A"/>
    <path d="M 1600 900 L 1600 870 Q 1550 840 1500 880 T 1400 860 T 1300 890 T 1200 900 Z" fill="#1E120A"/>
    <path d="M 100 900 L 120 860 L 140 900 Z" fill="#3D2A1F"/>
    <path d="M 150 900 L 165 870 L 180 900 Z" fill="#3D2A1F"/>
    <path d="M 1300 900 L 1320 850 L 1340 900 Z" fill="#3D2A1F"/>
    <path d="M 1380 900 L 1395 865 L 1410 900 Z" fill="#3D2A1F"/>
    <path d="M 1450 900 L 1470 855 L 1490 900 Z" fill="#3D2A1F"/>

    <path d="M 80 900 L 95 840 L 110 900 Z" fill="#0A0503"/>
    <path d="M 1420 900 L 1440 830 L 1460 900 Z" fill="#0A0503"/>
  </g>

  <rect width="1600" height="900" fill="#0A0503" opacity="0.15" style="mix-blend-mode: multiply;">
    <animate attributeName="opacity" values="0.15;0.1;0.15" dur="10s" repeatCount="indefinite"/>
  </rect>

  <g id="ambientDust">
    <circle cx="200" cy="200" r="1" fill="#F5C97A" opacity="0.3">
      <animate attributeName="cx" values="200;220;200" dur="15s" repeatCount="indefinite"/>
      <animate attributeName="cy" values="200;180;200" dur="15s" repeatCount="indefinite"/>
      <animate attributeName="opacity" values="0.3;0;0.3" dur="15s" repeatCount="indefinite"/>
    </circle>
    <circle cx="800" cy="300" r="1.5" fill="#C9A574" opacity="0.2">
      <animate attributeName="cx" values="800;780;800" dur="18s" repeatCount="indefinite"/>
      <animate attributeName="cy" values="300;320;300" dur="18s" repeatCount="indefinite"/>
      <animate attributeName="opacity" values="0.2;0;0.2" dur="18s" repeatCount="indefinite"/>
    </circle>
    <circle cx="1200" cy="150" r="1" fill="#F5C97A" opacity="0.25">
      <animate attributeName="cx" values="1200;1220;1200" dur="12s" repeatCount="indefinite"/>
      <animate attributeName="cy" values="150;130;150" dur="12s" repeatCount="indefinite"/>
      <animate attributeName="opacity" values="0.25;0;0.25" dur="12s" repeatCount="indefinite"/>
    </circle>
    <circle cx="400" cy="400" r="2" fill="#C9A574" opacity="0.15">
      <animate attributeName="cx" values="400;380;400" dur="20s" repeatCount="indefinite"/>
      <animate attributeName="cy" values="400;420;400" dur="20s" repeatCount="indefinite"/>
      <animate attributeName="opacity" values="0.15;0;0.15" dur="20s" repeatCount="indefinite"/>
    </circle>
    <circle cx="1000" cy="500" r="1" fill="#F5C97A" opacity="0.2">
      <animate attributeName="cx" values="1000;1020;1000" dur="14s" repeatCount="indefinite"/>
      <animate attributeName="cy" values="500;480;500" dur="14s" repeatCount="indefinite"/>
      <animate attributeName="opacity" values="0.2;0;0.2" dur="14s" repeatCount="indefinite"/>
    </circle>
  </g>

</svg>