<?xml version="1.0" encoding="UTF-8"?>
<svg viewBox="0 0 1600 900" preserveAspectRatio="xMidYMid slice" xmlns="http://www.w3.org/2000/svg">
<defs>
<linearGradient id="A" x1="0" y1="0" x2="1" y2="1">
<stop offset="0" stop-color="#FFADAD"><animate attributeName="stop-color" values="#FFADAD;#FF5D8F;#FFADAD" dur="7s" repeatCount="indefinite"/></stop>
<stop offset=".25" stop-color="#FFD6A5"><animate attributeName="stop-color" values="#FFD6A5;#FFADAD;#FFD6A5" dur="7s" repeatCount="indefinite"/></stop>
<stop offset=".5" stop-color="#CAFFBF"><animate attributeName="stop-color" values="#CAFFBF;#9BF6FF;#CAFFBF" dur="7s" repeatCount="indefinite"/></stop>
<stop offset=".75" stop-color="#9BF6FF"><animate attributeName="stop-color" values="#9BF6FF;#CAFFBF;#9BF6FF" dur="7s" repeatCount="indefinite"/></stop>
<stop offset="1" stop-color="#A0C4FF"/>
</linearGradient>
<radialGradient id="B" cx="50%" cy="50%" r="50%">
<stop offset="0" stop-color="#FFD60A" stop-opacity=".7"/>
<stop offset="100%" stop-color="#FFD60A" stop-opacity="0"/>
</radialGradient>
<linearGradient id="C" x1="0" y1="0" x2="0" y2="1">
<stop offset="0" stop-color="#40916C"/>
<stop offset="100%" stop-color="#2D6A4F"/>
</linearGradient>
<pattern id="D" x="0" y="0" width="30" height="30" patternUnits="userSpaceOnUse">
<circle cx="15" cy="15" r="4" fill="#FF5D8F" opacity=".4"/>
</pattern>
<filter id="E" x="-50%" y="-50%" width="200%" height="200%"><feGaussianBlur stdDeviation="4"/></filter>
<filter id="F" x="-50%" y="-50%" width="200%" height="200%"><feGaussianBlur stdDeviation="20"/></filter>
<path id="G" d="M0,-12L3,-3L12,0L3,3L0,12L-3,3L-12,0L-3,-3Z" fill="#FFF"/>
</defs>

<rect width="1600" height="900" fill="url(#A)"/>

<g transform="translate(1200,420)">
<g opacity=".25">
<animateTransform attributeName="transform" type="rotate" from="0" to="360" dur="22s" repeatCount="indefinite"/>
<path d="M0,0L-20,-900L20,-900Z" fill="#FFD6A5"/>
<path d="M0,0L-20,-900L20,-900Z" fill="#FFD6A5" transform="rotate(30)"/>
<path d="M0,0L-20,-900L20,-900Z" fill="#FFD6A5" transform="rotate(60)"/>
<path d="M0,0L-20,-900L20,-900Z" fill="#FFD6A5" transform="rotate(90)"/>
<path d="M0,0L-20,-900L20,-900Z" fill="#FFD6A5" transform="rotate(120)"/>
<path d="M0,0L-20,-900L20,-900Z" fill="#FFD6A5" transform="rotate(150)"/>
<path d="M0,0L-20,-900L20,-900Z" fill="#FFD6A5" transform="rotate(180)"/>
<path d="M0,0L-20,-900L20,-900Z" fill="#FFD6A5" transform="rotate(210)"/>
<path d="M0,0L-20,-900L20,-900Z" fill="#FFD6A5" transform="rotate(240)"/>
<path d="M0,0L-20,-900L20,-900Z" fill="#FFD6A5" transform="rotate(270)"/>
<path d="M0,0L-20,-900L20,-900Z" fill="#FFD6A5" transform="rotate(300)"/>
<path d="M0,0L-20,-900L20,-900Z" fill="#FFD6A5" transform="rotate(330)"/>
</g>
</g>

<g opacity=".2">
<rect width="1600" height="900" fill="url(#D)"/>
<animate attributeName="opacity" values=".2;.35;.2" dur="3s" repeatCount="indefinite"/>
</g>

<circle cx="1200" cy="420" r="400" fill="url(#B)" filter="url(#F)" opacity=".5">
<animate attributeName="opacity" values=".4;.7;.4" dur="4s" repeatCount="indefinite"/>
</circle>

<path d="M0,720C300,680 600,780 1600,720V900H0Z" fill="#CAFFBF"/>
<path d="M0,780C400,750 800,820 1600,780V900H0Z" fill="#9BF6FF" opacity=".6"/>

<g transform="translate(220,900)">
<g>
<animateTransform attributeName="transform" type="rotate" values="-3;3;-3" dur="5s" repeatCount="indefinite"/>
<path d="M0,0Q40,-250 0,-500" stroke="url(#C)" stroke-width="16" fill="none" stroke-linecap="round"/>
<g transform="translate(0,-500)">
<animateTransform attributeName="transform" type="rotate" values="-5;5;-5" dur="5s" repeatCount="indefinite"/>
<circle r="80" fill="#FFADAD"/>
<circle r="50" fill="#FFD6A5"/>
<g fill="#FF5D8F">
<circle cy="-80" r="28"/><circle cy="-80" r="28" transform="rotate(45)"/>
<circle cy="-80" r="28" transform="rotate(90)"/><circle cy="-80" r="28" transform="rotate(135)"/>
<circle cy="-80" r="28" transform="rotate(180)"/><circle cy="-80" r="28" transform="rotate(225)"/>
<circle cy="-80" r="28" transform="rotate(270)"/><circle cy="-80" r="28" transform="rotate(315)"/>
</g>
<circle r="30" fill="#FFD60A"/>
</g>
</g>
</g>

<g transform="translate(1400,900)">
<g>
<animateTransform attributeName="transform" type="rotate" values="2;-2;2" dur="6s" repeatCount="indefinite"/>
<path d="M0,0Q-30,-200-10,-420" stroke="url(#C)" stroke-width="14" fill="none" stroke-linecap="round"/>
<g transform="translate(-10,-420)">
<animateTransform attributeName="transform" type="rotate" values="4;-4;4" dur="6s" repeatCount="indefinite"/>
<circle r="70" fill="#9BF6FF"/>
<circle r="45" fill="#CAFFBF"/>
<g fill="#FFD6A5">
<circle cy="-70" r="24"/><circle cy="-70" r="24" transform="rotate(45)"/>
<circle cy="-70" r="24" transform="rotate(90)"/><circle cy="-70" r="24" transform="rotate(135)"/>
<circle cy="-70" r="24" transform="rotate(180)"/><circle cy="-70" r="24" transform="rotate(225)"/>
<circle cy="-70" r="24" transform="rotate(270)"/><circle cy="-70" r="24" transform="rotate(315)"/>
</g>
<circle r="25" fill="#FFADAD"/>
</g>
</g>
</g>

<g transform="translate(80,850)">
<g>
<animateTransform attributeName="transform" type="rotate" values="-5;5;-5" dur="4s" repeatCount="indefinite"/>
<path d="M0,0Q20,-100 10,-250" stroke="url(#C)" stroke-width="12" fill="none" stroke-linecap="round"/>
<g transform="translate(10,-250)">
<animateTransform attributeName="transform" type="rotate" values="-10;10;-10" dur="4s" repeatCount="indefinite"/>
<circle r="50" fill="#FFD6A5"/>
<circle r="30" fill="#FFF"/>
<g fill="#FFADAD">
<circle cy="-50" r="18"/><circle cy="-50" r="18" transform="rotate(60)"/>
<circle cy="-50" r="18" transform="rotate(120)"/><circle cy="-50" r="18" transform="rotate(180)"/>
<circle cy="-50" r="18" transform="rotate(240)"/><circle cy="-50" r="18" transform="rotate(300)"/>
</g>
<circle r="15" fill="#9BF6FF"/>
</g>
</g>
</g>

<g transform="translate(500,640)">
<g>
<animateTransform attributeName="transform" type="translate" values="0,0;0,-30;0,0" dur="1.5s" repeatCount="indefinite"/>
<g>
<animateTransform attributeName="transform" type="scale" values="1,1;1.05,0.95;1,1" additive="sum" dur="1.5s" repeatCount="indefinite"/>
<ellipse cx="0" cy="95" rx="60" ry="12" fill="#2D3436" opacity=".12">
<animate attributeName="rx" values="60;45;60" dur="1.5s" repeatCount="indefinite"/>
</ellipse>
<path d="M-65,20C-65,-70 65,-70 65,20C65,75 45,95 0,95C-45,95 -65,75 -65,20" fill="#2D3436"/>
<circle cx="-45" cy="-50" r="24" fill="#2D3436">
<animateTransform attributeName="transform" type="rotate" values="-15,-45,-50;10,-45,-50;-15,-45,-50" dur="2s" repeatCount="indefinite"/>
</circle>
<circle cx="45" cy="-50" r="24" fill="#2D3436">
<animateTransform attributeName="transform" type="rotate" values="15,45,-50;-5,45,-50;15,45,-50" dur="2s" repeatCount="indefinite"/>
</circle>
<g fill="#FFF">
<ellipse cx="-24" cy="-5" rx="20" ry="25"/>
<ellipse cx="24" cy="-5" rx="20" ry="25"/>
</g>
<g fill="#2D3436">
<circle cx="-20" cy="-5" r="10"><animate attributeName="cy" values="-5;-10;-5" dur="3s" repeatCount="indefinite"/></circle>
<circle cx="20" cy="-5" r="10"><animate attributeName="cy" values="-5;-10;-5" dur="3s" repeatCount="indefinite"/></circle>
</g>
<g fill="#2D3436">
<rect x="-44" y="-22" width="40" height="28" opacity="0"><animate attributeName="opacity" values="0;0;1;0;0" keyTimes="0;0.92;0.96;0.98;1" dur="3.3s" repeatCount="indefinite"/></rect>
<rect x="4" y="-22" width="40" height="28" opacity="0"><animate attributeName="opacity" values="0;0;1;0;0" keyTimes="0;0.92;0.96;0.98;1" dur="3.3s" repeatCount="indefinite"/></rect>
</g>
<ellipse cx="-42" cy="22" rx="14" ry="8" fill="#FFADAD" opacity=".5"/>
<ellipse cx="42" cy="22" rx="14" ry="8" fill="#FFADAD" opacity=".5"/>
<path d="M-14,35 Q0,45 14,35" stroke="#FFF" stroke-width="5" fill="none" stroke-linecap="round"/>
</g>
</g>
</g>

<g transform="translate(1050,920)">
<g>
<animateTransform attributeName="transform" type="rotate" values="-2;2;-2" dur="5.5s" repeatCount="indefinite"/>
<path d="M0,0Q-20,-150 0,-300" stroke="url(#C)" stroke-width="18" fill="none" stroke-linecap="round"/>
<g transform="translate(0,-300)">
<animateTransform attributeName="transform" type="rotate" values="-4;4;-4" dur="5.5s" repeatCount="indefinite"/>
<circle r="90" fill="#FFD6A5"/>
<circle r="60" fill="#FF5D8F"/>
<g fill="#FFD60A">
<circle cy="-90" r="32"/><circle cy="-90" r="32" transform="rotate(45)"/>
<circle cy="-90" r="32" transform="rotate(90)"/><circle cy="-90" r="32" transform="rotate(135)"/>
<circle cy="-90" r="32" transform="rotate(180)"/><circle cy="-90" r="32" transform="rotate(225)"/>
<circle cy="-90" r="32" transform="rotate(270)"/><circle cy="-90" r="32" transform="rotate(315)"/>
</g>
<circle r="35" fill="#FFF"/>
</g>
</g>
</g>

<g transform="translate(680,860)"><circle r="7" fill="#FFD60A"/><circle r="6" fill="#FFF" transform="translate(0,-10)"/><circle r="6" fill="#FFF" transform="rotate(72) translate(0,-10)"/><circle r="6" fill="#FFF" transform="rotate(144) translate(0,-10)"/><circle r="6" fill="#FFF" transform="rotate(216) translate(0,-10)"/><circle r="6" fill="#FFF" transform="rotate(288) translate(0,-10)"/></g>
<g transform="translate(780,840)"><circle r="6" fill="#FFD60A"/><circle r="5" fill="#FFF" transform="translate(0,-9)"/><circle r="5" fill="#FFF" transform="rotate(72) translate(0,-9)"/><circle r="5" fill="#FFF" transform="rotate(144) translate(0,-9)"/><circle r="5" fill="#FFF" transform="rotate(216) translate(0,-9)"/><circle r="5" fill="#FFF" transform="rotate(288) translate(0,-9)"/></g>

<g stroke="#FFF" stroke-width="3" stroke-linecap="round" opacity=".5">
<line x1="380" y1="620" x2="320" y2="610">
<animate attributeName="x2" values="320;270;320" dur="1.2s" repeatCount="indefinite"/>
<animate attributeName="opacity" values="0;.6;0" dur="1.2s" repeatCount="indefinite"/>
</line>
<line x1="370" y1="650" x2="310" y2="660">
<animate attributeName="x2" values="310;260;310" dur="1.5s" repeatCount="indefinite"/>
<animate attributeName="opacity" values="0;.5;0" dur="1.5s" repeatCount="indefinite"/>
</line>
</g>

<circle cx="300" cy="300" r="35" fill="#FFD60A" opacity=".2">
<animateTransform attributeName="transform" type="translate" values="0,0;0,-50;0,0" dur="4s" repeatCount="indefinite"/>
</circle>
<polygon points="0,-25 22,12 -22,12" fill="#FF5D8F" opacity=".25" transform="translate(850,250)">
<animateTransform attributeName="transform" type="rotate" from="0" to="360" dur="10s" repeatCount="indefinite"/>
</polygon>

<g>
<circle r="5" fill="#FFD60A" opacity="0"><animateMotion path="M450,700 Q550,500 650,300" dur="6s" repeatCount="indefinite"/><animate attributeName="opacity" values="0;1;0" dur="6s" repeatCount="indefinite"/></circle>
<circle r="4" fill="#FFADAD" opacity="0"><animateMotion path="M300,750 Q400,550 500,350" dur="7s" repeatCount="indefinite"/><animate attributeName="opacity" values="0;.8;0" dur="7s" repeatCount="indefinite"/></circle>
<circle r="6" fill="#9BF6FF" opacity="0"><animateMotion path="M600,800 Q700,600 800,400" dur="5s" repeatCount="indefinite"/><animate attributeName="opacity" values="0;1;0" dur="5s" repeatCount="indefinite"/></circle>
<circle r="4" fill="#CAFFBF" opacity="0"><animateMotion path="M200,650 Q300,450 400,250" dur="8s" repeatCount="indefinite"/><animate attributeName="opacity" values="0;.9;0" dur="8s" repeatCount="indefinite"/></circle>
</g>

<g>
<rect width="12" height="12" fill="#FF5D8F" x="200" y="400"><animateTransform attributeName="transform" type="translate" values="0,0;1400,-300" dur="5s" repeatCount="indefinite"/><animateTransform attributeName="transform" type="rotate" values="0;360" dur="2s" additive="sum" repeatCount="indefinite"/></rect>
<polygon points="0,-8 7,5 -7,5" fill="#FFD60A" transform="translate(400,500)"><animateTransform attributeName="transform" type="translate" values="0,0;1200,-400" dur="4s" repeatCount="indefinite"/><animateTransform attributeName="transform" type="rotate" values="0;-360" dur="3s" additive="sum" repeatCount="indefinite"/></polygon>
<rect width="12" height="12" fill="#9BF6FF" x="100" y="600"><animateTransform attributeName="transform" type="translate" values="0,0;1500,-200" dur="6s" repeatCount="indefinite"/><animateTransform attributeName="transform" type="rotate" values="0;360" dur="2.5s" additive="sum" repeatCount="indefinite"/></rect>
<polygon points="0,-8 7,5 -7,5" fill="#CAFFBF" transform="translate(600,300)"><animateTransform attributeName="transform" type="translate" values="0,0;1000,-500" dur="4.5s" repeatCount="indefinite"/><animateTransform attributeName="transform" type="rotate" values="0;360" dur="1.8s" additive="sum" repeatCount="indefinite"/></polygon>
</g>

<g transform="translate(540,520)"><use href="#G"><animateTransform attributeName="transform" type="scale" values="0;1;0" dur="2s" repeatCount="indefinite"/></use></g>
<g transform="translate(460,580)"><use href="#G" fill="#FFD60A"><animateTransform attributeName="transform" type="scale" values="0;1.2;0" dur="2.5s" repeatCount="indefinite"/></use></g>
<g transform="translate(580,480)"><use href="#G" fill="#9BF6FF"><animateTransform attributeName="transform" type="scale" values="0;0.8;0" dur="1.8s" repeatCount="indefinite"/></use></g>

<g stroke="#2D6A4F" stroke-width="5" fill="none" stroke-linecap="round">
<path d="M120,900Q130,830140,900"><animateTransform attributeName="transform" type="rotate" values="-6;6;-6" dur="2s" repeatCount="indefinite"/></path>
<path d="M150,900Q160,840170,900"><animateTransform attributeName="transform" type="rotate" values="5;-5;5" dur="2.3s" repeatCount="indefinite"/></path>
<path d="M950,900Q960,850970,900"><animateTransform attributeName="transform" type="rotate" values="-4;4;-4" dur="2.1s" repeatCount="indefinite"/></path>
</g>

<path d="M50,900 Q150,800 250,880 Q150,850 50,900" fill="#2D6A4F" opacity=".8"/>

</svg>