<svg xmlns="http://www.w3.org/2000/svg" viewBox="0 0 800 600">
  <defs>
    <radialGradient id="bgGrad" cx="50%" cy="50%" r="75%">
      <stop offset="0%" stop-color="#2a0038"/>
      <stop offset="50%" stop-color="#12011a"/>
      <stop offset="100%" stop-color="#05000a"/>
    </radialGradient>
    
    <filter id="glow" x="-50%" y="-50%" width="200%" height="200%">
      <feGaussianBlur in="SourceGraphic" stdDeviation="6" result="blur"/>
      <feMerge>
        <feMergeNode in="blur"/>
        <feMergeNode in="SourceGraphic"/>
      </feMerge>
    </filter>
    
    <filter id="glowStrong" x="-50%" y="-50%" width="200%" height="200%">
      <feGaussianBlur in="SourceGraphic" stdDeviation="12" result="blur"/>
      <feMerge>
        <feMergeNode in="blur"/>
        <feMergeNode in="SourceGraphic"/>
      </feMerge>
    </filter>
    
    <linearGradient id="barGrad" x1="0" y1="0" x2="0" y2="1">
      <stop offset="0%" stop-color="#00FFFF"/>
      <stop offset="100%" stop-color="#0088FF"/>
    </linearGradient>
    
    <linearGradient id="audio1" x1="0" y1="1" x2="0" y2="0">
      <stop offset="0%" stop-color="#FF0055"/>
      <stop offset="100%" stop-color="#FFAA00"/>
    </linearGradient>

    <polygon id="i1" points="0,-8 11,8 -11,8" fill="#FFFFFF"/>
    <circle id="i2" r="8" fill="#FFFFFF" fill-opacity="0.9"/>
    <rect id="i3" x="-8" y="-8" width="16" height="16" rx="2" fill="#FFFFFF" fill-opacity="0.9"/>
    <polygon id="i4" points="0,-10 7,-3 11,8 0,3 -11,8 -7,-3" fill="#FFFFFF" fill-opacity="0.9"/>
    <polygon id="i5" points="-9,2 -3,2 -1,9 1,2 9,2 3,-3 5,-9 0,-6 -5,-9 -3,-3" fill="#FFFFFF"/>
    <polygon id="i6" points="0,-8 9,0 0,8 -9,0" fill="#FFFFFF"/>
    <rect id="i7" x="-2" y="-8" width="4" height="16" rx="2" fill="#FFFFFF"/>
    <circle id="i8" r="5" stroke="#FFFFFF" stroke-width="3" fill="none"/>
    <polygon id="i9" points="-8,-9 8,-9 0,12" fill="#FFFFFF"/>
    <path id="i10" d="M-8,-4 L-2,-4 L-2,-9 L2,-9 L2,-4 L8,-4 L8,0 L2,0 L2,9 L-2,9 L-2,0 L-8,0 Z" fill="#FFFFFF"/>
    <polygon id="i11" points="-9,-10 -9,0 0,9 9,0 9,-10" fill="#FFFFFF"/>
    <circle id="i12" r="7" stroke="#FFFFFF" stroke-width="4" stroke-dasharray="14, 14" fill="none"/>
    <rect id="i13" x="-8" y="-8" width="16" height="16" transform="rotate(45)" fill="#FFFFFF"/>
    <rect id="i14" x="-5" y="-8" width="5" height="16" rx="2" fill="#FFFFFF"/>
    <polygon id="i15" points="-9,-9 9,-9 0,9" fill="#FFFFFF"/>
    <polygon id="i16" points="-5,-9 3,1 9,-2 0,9 -7,-1" fill="#FFFFFF"/>
    <circle id="i17" r="6" fill="#FFFFFF"/>
    <path id="i18" d="M0,-8 L0,8 M-7,-2 L7,2" stroke="#FFFFFF" stroke-width="4" stroke-linecap="round"/>
    <rect id="i19" x="-8" y="-8" width="16" height="16" rx="8" fill="#FFFFFF"/>
    <polygon id="i20" points="-10,0 -2,0 -5,-8 5,0 10,0 2,5 5,10 -5,5 -10,0" fill="#FFFFFF"/>
    <polygon id="i21" points="-7,-3 7,-3 4,-8 -4,-8" fill="#FFFFFF"/>
    <path id="i22" d="M-10,6 Q0,-10 10,6 Z" fill="#FFFFFF"/>
    <rect id="i23" x="-8" y="-3" width="16" height="6" rx="3" fill="#FFFFFF"/>
    <polygon id="i24" points="-8,0 -2,-10 4,0 10,-6 4,4 -2,10" fill="#FFFFFF"/>
    <circle id="i25" r="4" cx="-4" cy="0" fill="#FFFFFF"/>
    <use href="#i25" x="8"/>
  </defs>

  <rect width="800" height="600" fill="url(#bgGrad)"/>
  
  <g transform="translate(20, 20)">
    <rect x="0" y="0" width="760" height="560" rx="10" fill="#0d0d12" stroke="#1a1a25" stroke-width="4"/>
    
    <g fill="none" stroke="#00FFFF" stroke-width="1" opacity="0.2">
      <line x1="0" y1="40" x2="760" y2="40"/>
      <line x1="0" y1="460" x2="760" y2="460"/>
      <rect x="10" y="10" width="60" height="20" rx="4"/>
      <rect x="690" y="10" width="60" height="20" rx="4"/>
    </g>
    
    <g transform="translate(40, 80)">
      
      <g transform="translate(0, 0)">
        <rect width="120" height="120" rx="8" fill="#111118" stroke="#00FFFF" stroke-width="2" opacity="0.8"/>
        <rect width="120" height="4" fill="#00FFFF"/>
        <rect width="120" height="120" rx="8" fill="#1A1A25" transform="translate(0, 4)"/>
        <rect x="20" y="-12" width="80" height="24" rx="4" fill="#00FFFF" filter="url(#glow)"/>
        <rect x="24" y="-8" width="72" height="16" rx="2" fill="#00FFFF"/>
        <use href="#i1" x="60" y="64" filter="url(#glow)">
          <animateTransform attributeName="transform" type="translate" values="60,64; 60,48; 60,64" dur="0.4s" repeatCount="indefinite"/>
        </use>
      </g>
      
      <g transform="translate(130, 0)">
        <rect width="120" height="120" rx="8" fill="#111118" stroke="#FF0055" stroke-width="2" opacity="0.8"/>
        <rect width="120" height="4" fill="#FF0055"/>
        <rect width="120" height="120" rx="8" fill="#1A1A25" transform="translate(0, 4)"/>
        <circle cx="60" cy="64" r="40" fill="#FF0055" filter="url(#glowStrong)"/>
        <use href="#i2" x="60" y="64"/>
        <animateTransform attributeName="transform" type="translate" values="130,0; 130,-5; 130,0" dur="0.6s" repeatCount="indefinite"/>
      </g>
      
      <g transform="translate(260, 0)">
        <rect width="120" height="120" rx="8" fill="#111118" stroke="#00FF00" stroke-width="2" opacity="0.8"/>
        <rect width="4" height="120" fill="#00FF00"/>
        <rect width="120" height="120" rx="8" fill="#1A1A25" transform="translate(4, 0)"/>
        <rect x="20" y="20" width="80" height="80" rx="8" fill="#00FF00" filter="url(#glow)"/>
        <rect x="28" y="28" width="64" height="64" rx="4" fill="#111118"/>
        <use href="#i3" x="60" y="64">
          <animate attributeName="opacity" values="1;0.3;1" dur="1.2s" repeatCount="indefinite"/>
        </use>
      </g>
      
      <g transform="translate(390, 0)">
        <rect width="120" height="120" rx="8" fill="#111118" stroke="#FFAA00" stroke-width="2" opacity="0.8"/>
        <rect width="120" height="4" fill="#FFAA00"/>
        <rect width="120" height="120" rx="8" fill="#1A1A25" transform="translate(0, 4)"/>
        <polygon points="60,14 106,64 60,114 14,64" fill="#FFAA00" filter="url(#glowStrong)"/>
        <use href="#i4" x="60" y="64">
          <animateTransform attributeName="transform" type="rotate" values="0 60 64; 360 60 64" dur="4s" repeatCount="indefinite"/>
        </use>
      </g>
      
      <g transform="translate(520, 0)">
        <rect width="120" height="120" rx="8" fill="#111118" stroke="#00FFFF" stroke-width="2" opacity="0.8"/>
        <rect width="4" height="120" fill="#00FFFF"/>
        <rect width="120" height="120" rx="8" fill="#1A1A25" transform="translate(4, 0)"/>
        <circle cx="60" cy="64" r="40" fill="#00FFFF" filter="url(#glowStrong)"/>
        <use href="#i5" x="60" y="64">
          <animateTransform attributeName="transform" type="scale" values="1;1.4;1" dur="1.5s" repeatCount="indefinite"/>
        </use>
      </g>
      
      <g transform="translate(0, 130)">
        <rect width="120" height="120" rx="8" fill="#111118" stroke="#AA00FF" stroke-width="2" opacity="0.8"/>
        <rect width="120" height="4" fill="#AA00FF"/>
        <rect width="120" height="120" rx="8" fill="#1A1A25" transform="translate(0, 4)"/>
        <circle cx="60" cy="64" r="40" fill="#AA00FF" filter="url(#glowStrong)"/>
        <use href="#i6" x="60" y="64">
          <animateTransform attributeName="transform" type="rotate" values="0 60 64; 180 60 64; 360 60 64" dur="2s" repeatCount="indefinite"/>
        </use>
      </g>
      
      <g transform="translate(130, 130)">
        <rect width="120" height="120" rx="8" fill="#111118" stroke="#00FFFF" stroke-width="2" opacity="0.8"/>
        <rect width="120" height="4" fill="#00FFFF"/>
        <rect width="120" height="120" rx="8" fill="#1A1A25" transform="translate(0, 4)"/>
        <rect x="20" y="-12" width="80" height="24" rx="4" fill="#00FFFF" filter="url(#glow)"/>
        <rect x="24" y="-8" width="72" height="16" rx="2" fill="#00FFFF"/>
        <use href="#i7" x="60" y="64" filter="url(#glow)">
          <animateTransform attributeName="transform" type="rotate" values="0 60 64; 90 60 64; 180 60 64; 270 60 64; 360 60 64" dur="1.2s" repeatCount="indefinite" calcMode="discrete"/>
        </use>
      </g>
      
      <g transform="translate(260, 130)">
        <rect width="120" height="120" rx="8" fill="#111118" stroke="#FF0055" stroke-width="2" opacity="0.8"/>
        <rect width="4" height="120" fill="#FF0055"/>
        <rect width="120" height="120" rx="8" fill="#1A1A25" transform="translate(4, 0)"/>
        <rect x="20" y="20" width="80" height="80" rx="40" fill="#FF0055" filter="url(#glow)"/>
        <use href="#i8" x="60" y="64">
          <animateTransform attributeName="transform" type="scale" values="1;1.1;1" dur="0.8s" repeatCount="indefinite"/>
        </use>
      </g>
      
      <g transform="translate(390, 130)">
        <rect width="120" height="120" rx="8" fill="#111118" stroke="#FFAA00" stroke-width="2" opacity="0.8"/>
        <rect width="120" height="4" fill="#FFAA00"/>
        <rect width="120" height="120" rx="8" fill="#1A1A25" transform="translate(0, 4)"/>
        <rect x="20" y="20" width="80" height="80" rx="8" fill="#FFAA00" filter="url(#glow)"/>
        <use href="#i9" x="60" y="64">
          <animateTransform attributeName="transform" type="translate" values="60,64; 60,48; 60,64" dur="0.3s" repeatCount="indefinite"/>
        </use>
      </g>
      
      <g transform="translate(520, 130)">
        <rect width="120" height="120" rx="8" fill="#111118" stroke="#00FF00" stroke-width="2" opacity="0.8"/>
        <rect width="120" height="4" fill="#00FF00"/>
        <rect width="120" height="120" rx="8" fill="#1A1A25" transform="translate(0, 4)"/>
        <circle cx="60" cy="64" r="40" fill="#00FF00" filter="url(#glowStrong)"/>
        <use href="#i10" x="60" y="64">
          <animateTransform attributeName="transform" type="rotate" values="0 60 64; -90 60 64; 0 60 64" dur="1.5s" repeatCount="indefinite"/>
        </use>
      </g>
      
      <g transform="translate(0, 260)">
        <rect width="120" height="120" rx="8" fill="#111118" stroke="#00FFFF" stroke-width="2" opacity="0.8"/>
        <rect width="4" height="120" fill="#00FFFF"/>
        <rect width="120" height="120" rx="8" fill="#1A1A25" transform="translate(4, 0)"/>
        <polygon points="60,14 106,64 60,114 14,64" fill="#00FFFF" filter="url(#glowStrong)"/>
        <use href="#i11" x="60" y="64">
          <animateTransform attributeName="transform" type="translate" values="60,64; 60,-64" dur="2s" repeatCount="indefinite"/>
          <animate attributeName="opacity" values="1;0" dur="2s" repeatCount="indefinite"/>
        </use>
        <use href="#i11" x="60" y="64" opacity="0">
          <animateTransform attributeName="transform" type="translate" values="60,192; 60,64" dur="2s" repeatCount="indefinite"/>
          <animate attributeName="opacity" values="0;1;0" dur="2s" repeatCount="indefinite"/>
        </use>
      </g>
      
      <g transform="translate(130, 260)">
        <rect width="120" height="120" rx="8" fill="#111118" stroke="#FF0055" stroke-width="2" opacity="0.8"/>
        <rect width="120" height="4" fill="#FF0055"/>
        <rect width="120" height="120" rx="8" fill="#1A1A25" transform="translate(0, 4)"/>
        <circle cx="60" cy="64" r="40" fill="#FF0055" filter="url(#glowStrong)"/>
        <use href="#i12" x="60" y="64">
          <animateTransform attributeName="transform" type="rotate" values="0 60 64; 360 60 64" dur="1s" repeatCount="indefinite"/>
        </use>
      </g>
      
      <g transform="translate(260, 260)">
        <rect width="120" height="120" rx="8" fill="#111118" stroke="#FFAA00" stroke-width="2" opacity="0.8"/>
        <rect width="120" height="4" fill="#FFAA00"/>
        <rect width="120" height="120" rx="8" fill="#1A1A25" transform="translate(0, 4)"/>
        <rect x="20" y="20" width="80" height="80" rx="8" fill="#FFAA00" filter="url(#glow)"/>
        <rect x="28" y="28" width="64" height="64" rx="4" fill="#111118"/>
        <use href="#i13" x="60" y="64">
          <animateTransform attributeName="transform" type="rotate" values="0 60 64; 90 60 64; 180 60 64; 270 60 64; 360 60 64" dur="2s" repeatCount="indefinite" calcMode="discrete"/>
        </use>
      </g>
      
      <g transform="translate(390, 260)">
        <rect width="120" height="120" rx="8" fill="#111118" stroke="#00FF00" stroke-width="2" opacity="0.8"/>
        <rect width="4" height="120" fill="#00FF00"/>
        <rect width="120" height="120" rx="8" fill="#1A1A25" transform="translate(4, 0)"/>
        <circle cx="60" cy="64" r="40" fill="#00FF00" filter="url(#glowStrong)"/>
        <use href="#i14" x="60" y="64"/>
        <animateTransform attributeName="transform" type="translate" values="390,260; 390,-5; 390,260" dur="0.4s" repeatCount="indefinite"/>
      </g>
      
      <g transform="translate(520, 260)">
        <rect width="120" height="120" rx="8" fill="#111118" stroke="#AA00FF" stroke-width="2" opacity="0.8"/>
        <rect width="120" height="4" fill="#AA00FF"/>
        <rect width="120" height="120" rx="8" fill="#1A1A25" transform="translate(0, 4)"/>
        <rect x="20" y="20" width="80" height="80" rx="8" fill="#AA00FF" filter="url(#glow)"/>
        <use href="#i15" x="60" y="64">
          <animateTransform attributeName="transform" type="scale" values="1;0.8;1" dur="0.6s" repeatCount="indefinite"/>
        </use>
      </g>
      
      <g transform="translate(0, 390)">
        <rect width="120" height="120" rx="8" fill="#111118" stroke="#00FFFF" stroke-width="2" opacity="0.8"/>
        <rect width="120" height="4" fill="#00FFFF"/>
        <rect width="120" height="120" rx="8" fill="#1A1A25" transform="translate(0, 4)"/>
        <circle cx="60" cy="64" r="40" fill="#00FFFF" filter="url(#glowStrong)"/>
        <use href="#i16" x="60" y="64">
          <animateTransform attributeName="transform" type="rotate" values="0 60 64; 360 60 64" dur="3s" repeatCount="indefinite"/>
        </use>
      </g>
      
      <g transform="translate(130, 390)">
        <rect width="120" height="120" rx="8" fill="#111118" stroke="#FF0055" stroke-width="2" opacity="0.8"/>
        <rect width="4" height="120" fill="#FF0055"/>
        <rect width="120" height="120" rx="8" fill="#1A1A25" transform="translate(4, 0)"/>
        <rect x="20" y="20" width="80" height="80" rx="40" fill="#FF0055" filter="url(#glow)"/>
        <use href="#i17" x="60" y="64">
          <animate attributeName="r" values="6;2;6" dur="1s" repeatCount="indefinite"/>
        </use>
      </g>
      
      <g transform="translate(260, 390)">
        <rect width="120" height="120" rx="8" fill="#111118" stroke="#FFAA00" stroke-width="2" opacity="0.8"/>
        <rect width="120" height="4" fill="#FFAA00"/>
        <rect width="120" height="120" rx="8" fill="#1A1A25" transform="translate(0, 4)"/>
        <rect x="20" y="20" width="80" height="80" rx="8" fill="#FFAA00" filter="url(#glow)"/>
        <use href="#i18" x="60" y="64">
          <animateTransform attributeName="transform" type="rotate" values="45 60 64; 135 60 64; 225 60 64; 315 60 64; 405 60 64" dur="1s" repeatCount="indefinite" calcMode="discrete"/>
        </use>
      </g>
      
      <g transform="translate(390, 390)">
        <rect width="120" height="120" rx="8" fill="#111118" stroke="#00FF00" stroke-width="2" opacity="0.8"/>
        <rect width="120" height="4" fill="#00FF00"/>
        <rect width="120" height="120" rx="8" fill="#1A1A25" transform="translate(0, 4)"/>
        <circle cx="60" cy="64" r="40" fill="#00FF00" filter="url(#glowStrong)"/>
        <use href="#i19" x="60" y="64">
          <animateTransform attributeName="transform" type="scale" values="1;1.3;1" dur="1s" repeatCount="indefinite"/>
        </use>
      </g>
      
      <g transform="translate(520, 390)">
        <rect width="120" height="120" rx="8" fill="#111118" stroke="#AA00FF" stroke-width="2" opacity="0.8"/>
        <rect width="4" height="120" fill="#AA00FF"/>
        <rect width="120" height="120" rx="8" fill="#1A1A25" transform="translate(4, 0)"/>
        <rect x="20" y="-12" width="80" height="24" rx="4" fill="#AA00FF" filter="url(#glow)"/>
        <rect x="24" y="-8" width="72" height="16" rx="2" fill="#AA00FF"/>
        <use href="#i20" x="60" y="64" filter="url(#glow)">
          <animateTransform attributeName="transform" type="rotate" values="0 60 64; 72 60 64; 144 60 64; 216 60 64; 288 60 64; 360 60 64" dur="1.5s" repeatCount="indefinite" calcMode="discrete"/>
        </use>
      </g>
    </g>

    <g transform="translate(40, 500)">
      <rect width="760" height="60" rx="8" fill="#111118"/>
      <g transform="translate(20, 10)">
        <rect width="60" height="40" rx="4" fill="#00FFFF" filter="url(#glow)"/>
        <use href="#i21" x="30" y="20"/>
      </g>
      <g transform="translate(85, 10)">
        <rect width="60" height="40" rx="4" fill="#FF0055" filter="url(#glow)"/>
        <use href="#i22" x="30" y="20"/>
      </g>
      <g transform="translate(150, 10)">
        <rect width="60" height="40" rx="4" fill="#FFAA00" filter="url(#glow)"/>
        <use href="#i23" x="30" y="20"/>
      </g>
      <g transform="translate(215, 10)">
        <rect width="60" height="40" rx="4" fill="#00FF00" filter="url(#glow)"/>
        <use href="#i24" x="30" y="20"/>
      </g>
      <g transform="translate(280, 10)">
        <rect width="60" height="40" rx="4" fill="#AA00FF" filter="url(#glow)"/>
        <use href="#i25" x="26" y="20"/>
      </g>

      <g transform="translate(360, 10)">
        <rect width="120" height="40" rx="4" fill="none" stroke="#00FFFF" stroke-width="2" opacity="0.5"/>
        <rect width="20" height="40" fill="url(#barGrad)">
          <animate attributeName="width" values="20;100;20" dur="0.8s" repeatCount="indefinite"/>
        </rect>
        <rect width="120" height="4" fill="#00FFFF" y="18"/>
      </g>

      <g transform="translate(490, 10)">
        <rect width="120" height="40" rx="4" fill="none" stroke="#FF0055" stroke-width="2" opacity="0.5"/>
        <rect x="10" y="10" width="8" height="20" rx="2" fill="url(#audio1)">
          <animate attributeName="height" values="20;5;35;10;20" dur="0.6s" repeatCount="indefinite"/>
          <animate attributeName="y" values="10;25;2.5;17.5;10" dur="0.6s" repeatCount="indefinite"/>
        </rect>
        <rect x="24" y="10" width="8" height="20" rx="2" fill="url(#audio1)">
          <animate attributeName="height" values="15;30;5;20;15" dur="0.7s" repeatCount="indefinite"/>
          <animate attributeName="y" values="12.5;5;25;10;12.5" dur="0.7s" repeatCount="indefinite"/>
        </rect>
        <rect x="38" y="10" width="8" height="20" rx="2" fill="url(#audio1)">
          <animate attributeName="height" values="25;10;30;5;25" dur="0.5s" repeatCount="indefinite"/>
          <animate attributeName="y" values="7.5;17.5;5;25;7.5" dur="0.5s" repeatCount="indefinite"/>
        </rect>
        <rect x="52" y="10" width="8" height="20" rx="2" fill="url(#audio1)">
          <animate attributeName="height" values="10;25;15;30;10" dur="0.65s" repeatCount="indefinite"/>
          <animate attributeName="y" values="17.5;7.5;12.5;5;17.5" dur="0.65s" repeatCount="indefinite"/>
        </rect>
        <rect x="66" y="10" width="8" height="20" rx="2" fill="url(#audio1)">
          <animate attributeName="height" values="30;5;20;10;30" dur="0.75s" repeatCount="indefinite"/>
          <animate attributeName="y" values="5;22.5;10;17.5;5" dur="0.75s" repeatCount="indefinite"/>
        </rect>
        <rect x="80" y="10" width="8" height="20" rx="2" fill="url(#audio1)">
          <animate attributeName="height" values="12;28;8;22;12" dur="0.55s" repeatCount="indefinite"/>
          <animate attributeName="y" values="14;6;16;9;14" dur="0.55s" repeatCount="indefinite"/>
        </rect>
        <rect x="94" y="10" width="8" height="20" rx="2" fill="url(#audio1)">
          <animate attributeName="height" values="22;8;28;12;22" dur="0.85s" repeatCount="indefinite"/>
          <animate attributeName="y" values="9;16;6;14;9" dur="0.85s" repeatCount="indefinite"/>
        </rect>
      </g>

      <g transform="translate(620, 10)">
        <circle cx="20" cy="20" r="16" fill="#FF0055" filter="url(#glow)"/>
        <circle cx="20" cy="20" r="12" fill="#111118"/>
        <circle cx="20" cy="20" r="8" fill="#FF0055"/>
        <animateTransform attributeName="transform" type="translate" values="620,10; 620,-3; 620,10" dur="0.3s" repeatCount="indefinite"/>
      </g>
      <g transform="translate(660, 10)">
        <circle cx="20" cy="20" r="16" fill="#00FF00" filter="url(#glow)"/>
        <circle cx="20" cy="20" r="12" fill="#111118"/>
        <circle cx="20" cy="20" r="8" fill="#00FF00"/>
        <animateTransform attributeName="transform" type="translate" values="660,10; 660,-3; 660,10" dur="0.3s" begin="0.15s" repeatCount="indefinite"/>
      </g>
      <g transform="translate(700, 10)">
        <circle cx="20" cy="20" r="16" fill="#00FFFF" filter="url(#glow)"/>
        <circle cx="20" cy="20" r="12" fill="#111118"/>
        <circle cx="20" cy="20" r="8" fill="#00FFFF"/>
        <animateTransform attributeName="transform" type="translate" values="700,10; 700,-3; 700,10" dur="0.3s" begin="0.3s" repeatCount="indefinite"/>
      </g>
    </g>

    <g stroke="#00FFFF" stroke-width="2" filter="url(#glow)">
      <path d="M40,80 L560,80 L560,510 L40,510 Z" fill="none" stroke-dasharray="20, 10, 5, 10">
        <animate attributeName="stroke-dashoffset" values="0;45" dur="1s" repeatCount="indefinite"/>
      </path>
      <path d="M480,510 L480,560" fill="none"/>
      <path d="M560,510 L560,560" fill="none"/>
    </g>

  </g>
</svg>