<?xml version="1.0" encoding="UTF-8"?>
<svg xmlns="http://www.w3.org/2000/svg" viewBox="0 0 1600 900" preserveAspectRatio="xMidYMid slice" width="100%" height="100%">
<defs>
  <linearGradient id="sky" x1="0%" y1="0%" x2="100%" y2="100%">
    <stop offset="0%" stop-color="#FFD93D"><animate attributeName="stop-color" values="#FFD93D;#FF9F1C;#FFD93D" dur="6s" repeatCount="indefinite"/></stop>
    <stop offset="50%" stop-color="#FF6B6B"><animate attributeName="stop-color" values="#FF6B6B;#FF006E;#FF6B6B" dur="6s" repeatCount="indefinite"/></stop>
    <stop offset="100%" stop-color="#00F5FF"><animate attributeName="stop-color" values="#00F5FF;#FFD93D;#00F5FF" dur="6s" repeatCount="indefinite"/></stop>
  </linearGradient>
  <linearGradient id="lava" x1="0%" y1="0%" x2="0%" y2="100%">
    <stop offset="0%" stop-color="#FF006E"/>
    <stop offset="50%" stop-color="#FF6B6B"/>
    <stop offset="100%" stop-color="#FFD93D"/>
  </linearGradient>
  <radialGradient id="burst" cx="50%" cy="50%" r="50%">
    <stop offset="0%" stop-color="#FFD93D"/>
    <stop offset="40%" stop-color="#FF9F1C"/>
    <stop offset="100%" stop-color="#FF6B6B" stop-opacity="0"/>
  </radialGradient>
  <radialGradient id="glow" cx="50%" cy="50%" r="50%">
    <stop offset="0%" stop-color="#FF006E" stop-opacity="0.8"/>
    <stop offset="100%" stop-color="#FF006E" stop-opacity="0"/>
  </radialGradient>
  <filter id="b1" x="-50%" y="-50%" width="200%" height="200%"><feGaussianBlur stdDeviation="14"/></filter>
  <filter id="b2" x="-20%" y="-20%" width="140%" height="140%"><feGaussianBlur stdDeviation="5"/></filter>
  <filter id="b3" x="-20%" y="-20%" width="140%" height="140%"><feGaussianBlur stdDeviation="2"/></filter>
  <pattern id="chev" width="60" height="60" patternUnits="userSpaceOnUse" patternTransform="rotate(15)">
    <path d="M0,30 L30,0 L60,30" fill="none" stroke="#00F5FF" stroke-width="6" opacity="0.2"/>
  </pattern>
  <pattern id="dots" width="24" height="24" patternUnits="userSpaceOnUse">
    <circle cx="12" cy="12" r="2.5" fill="#2B2D42" opacity="0.12"/>
  </pattern>
</defs>

<rect width="1600" height="900" fill="url(#sky)"/>

<circle cx="450" cy="320" r="360" fill="url(#burst)" opacity="0.35">
  <animate attributeName="r" values="360;390;360" dur="5s" repeatCount="indefinite"/>
</circle>

<g transform="translate(1250,220)" opacity="0.35">
  <g>
    <animateTransform attributeName="transform" type="rotate" from="0" to="360" dur="18s" repeatCount="indefinite"/>
    <path d="M0,0L-28,-800L28,-800Z" fill="#FFD93D"/>
    <path d="M0,0L-28,-800L28,-800Z" fill="#FF9F1C" transform="rotate(45)"/>
    <path d="M0,0L-28,-800L28,-800Z" fill="#FF6B6B" transform="rotate(90)"/>
    <path d="M0,0L-28,-800L28,-800Z" fill="#FF006E" transform="rotate(135)"/>
    <path d="M0,0L-28,-800L28,-800Z" fill="#00F5FF" transform="rotate(180)"/>
    <path d="M0,0L-28,-800L28,-800Z" fill="#FFD93D" transform="rotate(225)"/>
    <path d="M0,0L-28,-800L28,-800Z" fill="#FF9F1C" transform="rotate(270)"/>
    <path d="M0,0L-28,-800L28,-800Z" fill="#FF6B6B" transform="rotate(315)"/>
  </g>
</g>

<rect width="1600" height="900" fill="url(#chev)">
  <animateTransform attributeName="transform" type="translate" from="0,0" to="60,0" dur="3s" repeatCount="indefinite"/>
</rect>

<rect width="1600" height="900" fill="url(#dots)" opacity="0.5">
  <animate attributeName="opacity" values="0.5;0.2;0.5" dur="4s" repeatCount="indefinite"/>
</rect>

<g fill="#FFF" opacity="0.65">
  <path d="M120,220 Q170,170 220,220 T320,220 T420,220 V270 H120 Z">
    <animateTransform attributeName="transform" type="translate" values="0,0; 40,0; 0,0" dur="11s" repeatCount="indefinite"/>
  </path>
  <path d="M1050,160 Q1100,110 1150,160 T1250,160 T1350,160 V210 H1050 Z">
    <animateTransform attributeName="transform" type="translate" values="0,0; -30,0; 0,0" dur="9s" repeatCount="indefinite"/>
  </path>
</g>

<circle cx="950" cy="360" r="260" fill="url(#glow)" filter="url(#b1)" opacity="0.6">
  <animate attributeName="r" values="260;290;260" dur="3s" repeatCount="indefinite"/>
</circle>

<path d="M680,900 C780,640 840,500 910,360 H990 C1060,500 1120,640 1260,900 Z" fill="#2B2D42"/>

<ellipse cx="950" cy="360" rx="85" ry="28" fill="#FF006E"/>

<g fill="none" stroke-linecap="round" filter="url(#b2)">
  <path d="M920,360 Q860,540 790,900" stroke="url(#lava)" stroke-width="32" stroke-dasharray="50 25">
    <animate attributeName="stroke-dashoffset" values="0;-75" dur="1s" repeatCount="indefinite"/>
  </path>
  <path d="M980,360 Q1040,540 1110,900" stroke="url(#lava)" stroke-width="32" stroke-dasharray="50 25">
    <animate attributeName="stroke-dashoffset" values="0;75" dur="1.1s" repeatCount="indefinite"/>
  </path>
  <path d="M950,360 Q930,600 910,900" stroke="#FFD93D" stroke-width="22" stroke-dasharray="35 18" opacity="0.9">
    <animate attributeName="stroke-dashoffset" values="0;-53" dur="0.8s" repeatCount="indefinite"/>
  </path>
</g>

<g transform="translate(950,310)">
  <circle r="95" fill="#FFD93D">
    <animateTransform attributeName="transform" type="scale" values="1;1.15;1" dur="2.5s" repeatCount="indefinite"/>
  </circle>
  <circle cx="-55" cy="25" r="65" fill="#FF9F1C">
    <animateTransform attributeName="transform" type="translate" values="0,0; -12,-10; 0,0" dur="3s" repeatCount="indefinite"/>
  </circle>
  <circle cx="55" cy="25" r="65" fill="#FF6B6B">
    <animateTransform attributeName="transform" type="translate" values="0,0; 12,-6; 0,0" dur="2.8s" repeatCount="indefinite"/>
  </circle>
  <circle cx="0" cy="-55" r="75" fill="#FF006E">
    <animateTransform attributeName="transform" type="scale" values="1;1.1;1" dur="2.2s" repeatCount="indefinite"/>
  </circle>
  <circle cx="-35" cy="-25" r="45" fill="#00F5FF" opacity="0.8"/>
</g>

<g transform="translate(950,350)" opacity="0">
  <ellipse rx="190" ry="55" fill="none" stroke="#00F5FF" stroke-width="7">
    <animateTransform attributeName="transform" type="scale" values="0.3;1.6" dur="2.5s" repeatCount="indefinite"/>
    <animate attributeName="opacity" values="1;0" dur="2.5s" repeatCount="indefinite"/>
  </ellipse>
  <ellipse rx="190" ry="55" fill="none" stroke="#FFD93D" stroke-width="5">
    <animateTransform attributeName="transform" type="scale" values="0.3;1.9" dur="2.5s" begin="0.8s" repeatCount="indefinite"/>
    <animate attributeName="opacity" values="1;0" dur="2.5s" begin="0.8s" repeatCount="indefinite"/>
  </ellipse>
</g>

<g>
  <g transform="translate(950,360)">
    <rect x="-6" y="-6" width="12" height="12" fill="#FF006E">
      <animateTransform attributeName="transform" type="translate" values="0,0; -220,-320" dur="2s" repeatCount="indefinite"/>
      <animateTransform attributeName="transform" type="rotate" values="0;360" dur="1.5s" additive="sum" repeatCount="indefinite"/>
      <animate attributeName="opacity" values="1;0" dur="2s" repeatCount="indefinite"/>
    </rect>
  </g>
  <g transform="translate(950,360)">
    <circle r="8" fill="#00F5FF">
      <animateTransform attributeName="transform" type="translate" values="0,0; 160,-260" dur="2.5s" repeatCount="indefinite"/>
      <animateTransform attributeName="transform" type="rotate" values="0;-360" dur="2s" additive="sum" repeatCount="indefinite"/>
      <animate attributeName="opacity" values="1;0" dur="2.5s" repeatCount="indefinite"/>
    </circle>
  </g>
  <g transform="translate(950,360)">
    <path d="M0,-8 L7,4 L-7,4 Z" fill="#FFD93D">
      <animateTransform attributeName="transform" type="translate" values="0,0; -120,-420" dur="3s" repeatCount="indefinite"/>
      <animateTransform attributeName="transform" type="rotate" values="0;720" dur="3s" additive="sum" repeatCount="indefinite"/>
      <animate attributeName="opacity" values="1;0" dur="3s" repeatCount="indefinite"/>
    </path>
  </g>
  <g transform="translate(950,360)">
    <rect x="-4" y="-10" width="8" height="20" fill="#FF6B6B" rx="2">
      <animateTransform attributeName="transform" type="translate" values="0,0; 260,-220" dur="2.2s" repeatCount="indefinite"/>
      <animateTransform attributeName="transform" type="rotate" values="0;180" dur="1s" additive="sum" repeatCount="indefinite"/>
      <animate attributeName="opacity" values="1;0" dur="2.2s" repeatCount="indefinite"/>
    </rect>
  </g>
</g>

<path d="M0,860 Q400,830 800,870 T1600,850 V900 H0 Z" fill="#FF9F1C"/>
<path d="M0,890 Q400,870 800,900 T1600,880 V900 H0 Z" fill="#FF006E"/>

<g transform="translate(260,840)">
  <g>
    <animateTransform attributeName="transform" type="translate" values="0,0; 0,-14; 0,0" dur="0.5s" repeatCount="indefinite"/>
    <g>
      <animateTransform attributeName="transform" type="scale" values="1,1; 1.06,0.94; 1,1" dur="0.5s" repeatCount="indefinite"/>
      <ellipse cx="0" cy="4" rx="32" ry="7" fill="#2B2D42" opacity="0.25"/>
      <circle cx="0" cy="-62" r="17" fill="#2B2D42"/>
      <path d="M-11,-48 L11,-48 L7,-16 L-7,-16 Z" fill="#2B2D42"/>
      <path d="M6,-16 L28,-6 L38,-22" stroke="#2B2D42" stroke-width="10" stroke-linecap="round" fill="none"/>
      <path d="M-6,-16 L-28,0 L-42,-6" stroke="#2B2D42" stroke-width="10" stroke-linecap="round" fill="none"/>
      <path d="M9,-42 L28,-58 L22,-74" stroke="#2B2D42" stroke-width="8" stroke-linecap="round" fill="none"/>
      <path d="M-9,-42 L-28,-28 L-38,-38" stroke="#2B2D42" stroke-width="8" stroke-linecap="round" fill="none"/>
    </g>
  </g>
</g>

<g stroke="#00F5FF" stroke-width="5" stroke-linecap="round" opacity="0.6" fill="none" filter="url(#b3)">
  <line x1="300" y1="820" x2="430" y2="820">
    <animate attributeName="x2" values="430;310;430" dur="0.6s" repeatCount="indefinite"/>
  </line>
  <line x1="310" y1="840" x2="410" y2="840">
    <animate attributeName="x2" values="410;300;410" dur="0.6s" repeatCount="indefinite"/>
  </line>
</g>

<g>
  <g transform="translate(920,370)">
    <rect x="-5" y="-5" width="10" height="10" fill="#FFD93D" rx="2">
      <animateTransform attributeName="transform" type="translate" values="0,0; -160,-220; -320,-120" dur="3s" repeatCount="indefinite"/>
      <animateTransform attributeName="transform" type="rotate" values="0;360" dur="2s" additive="sum" repeatCount="indefinite"/>
      <animate attributeName="opacity" values="1;0" dur="3s" repeatCount="indefinite"/>
    </rect>
  </g>
  <g transform="translate(980,370)">
    <circle r="7" fill="#FF006E">
      <animateTransform attributeName="transform" type="translate" values="0,0; 120,-270; 240,-170" dur="3.5s" repeatCount="indefinite"/>
      <animateTransform attributeName="transform" type="rotate" values="0;-360" dur="1.6s" additive="sum" repeatCount="indefinite"/>
      <animate attributeName="opacity" values="1;0" dur="3.5s" repeatCount="indefinite"/>
    </circle>
  </g>
  <g transform="translate(950,370)">
    <path d="M0,-6 L6,3 L-6,3 Z" fill="#00F5FF">
      <animateTransform attributeName="transform" type="translate" values="0,0; 60,-320; -60,-420" dur="4s" repeatCount="indefinite"/>
      <animateTransform attributeName="transform" type="rotate" values="0;720" dur="3s" additive="sum" repeatCount="indefinite"/>
      <animate attributeName="opacity" values="1;0" dur="4s" repeatCount="indefinite"/>
    </path>
  </g>
</g>

<g fill="#FFF">
  <path d="M1280,180 L1285,196 L1301,201 L1285,206 L1280,222 L1275,206 L1259,201 L1275,196 Z" opacity="0.9">
    <animateTransform attributeName="transform" type="scale" values="0;1;0" dur="2s" repeatCount="indefinite"/>
  </path>
  <path d="M1080,280 L1083,289 L1092,292 L1083,295 L1080,304 L1077,295 L1068,292 L1077,289 Z" opacity="0.8">
    <animateTransform attributeName="transform" type="scale" values="0;1.2;0" dur="2.5s" begin="0.5s" repeatCount="indefinite"/>
  </path>
</g>

<g>
  <path d="M720,820 L742,810 L737,838 Z" fill="#FF6B6B">
    <animateTransform attributeName="transform" type="translate" values="0,0; -60,-160" dur="2s" repeatCount="indefinite"/>
    <animateTransform attributeName="transform" type="rotate" values="0;360" dur="2s" additive="sum" repeatCount="indefinite"/>
  </path>
  <path d="M1120,860 L1142,850 L1137,880 Z" fill="#FFD93D">
    <animateTransform attributeName="transform" type="translate" values="0,0; 70,-220" dur="2.5s" repeatCount="indefinite"/>
    <animateTransform attributeName="transform" type="rotate" values="0;-360" dur="2.5s" additive="sum" repeatCount="indefinite"/>
  </path>
</g>

<g>
  <rect x="-8" y="-8" width="16" height="16" fill="#FF006E" transform="translate(1650,120)">
    <animateTransform attributeName="transform" type="translate" values="1650,120; -100,720" dur="4.5s" repeatCount="indefinite"/>
    <animateTransform attributeName="transform" type="rotate" values="0;720" additive="sum" dur="4.5s" repeatCount="indefinite"/>
  </rect>
  <circle r="9" fill="#00F5FF" transform="translate(1650,350)">
    <animateTransform attributeName="transform" type="translate" values="1650,350; -100,650" dur="5.5s" repeatCount="indefinite"/>
    <animateTransform attributeName="transform" type="rotate" values="0;-360" additive="sum" dur="5.5s" repeatCount="indefinite"/>
  </circle>
</g>
</svg>