<svg xmlns="http://www.w3.org/2000/svg" viewBox="0 0 800 600" width="100%" height="100%">
  <defs>
    <linearGradient id="bgGrad" x1="0" y1="0" x2="0" y2="1">
      <stop offset="0%" stop-color="#05050a"/>
      <stop offset="60%" stop-color="#12032b"/>
      <stop offset="100%" stop-color="#2a0015"/>
    </linearGradient>

    <radialGradient id="vignette" cx="50%" cy="50%" r="70%">
      <stop offset="40%" stop-color="#000000" stop-opacity="0"/>
      <stop offset="100%" stop-color="#000000" stop-opacity="0.95"/>
    </radialGradient>

    <filter id="neon-glow" x="-50%" y="-50%" width="200%" height="200%">
      <feGaussianBlur stdDeviation="4.5" result="blur" />
      <feColorMatrix in="blur" type="matrix" values="
        1 0 0 0 0
        0 1 0 0 0
        0 0 1 0 0
        0 0 0 22 -9" result="goo" />
      <feComposite in="SourceGraphic" in2="goo" operator="over" />
    </filter>

    <filter id="scan-blur" x="0%" y="-20%" width="100%" height="140%">
      <feGaussianBlur stdDeviation="0 12" />
    </filter>

    <!-- Base Reticle Geometry -->
    <g id="reticleBase" filter="url(#neon-glow)">
      <!-- Crosshair Arms -->
      <path d="M-140 0 L-30 0 M140 0 L30 0 M0 -140 L0 -30 M0 140 L0 30" stroke-width="8" stroke-linecap="round" fill="none" />
      <path d="M-180 0 L-120 0 M180 0 L120 0 M0 -180 L0 -120 M0 180 L0 120" stroke-width="3" stroke-linecap="round" fill="none" />
      
      <!-- Corner Brackets -->
      <path d="M-70 -70 L-30 -70 M-70 -70 L-70 -30 M70 -70 L110 -70 M70 -70 L70 -30 M-70 70 L-70 110 M-70 70 L-30 70 M70 70 L110 70 M70 70 L70 110" stroke-width="5" fill="none" />
      
      <!-- Inner Square -->
      <rect x="-25" y="-25" width="50" height="50" stroke-width="3" fill="none" />
      
      <!-- Center Dot -->
      <circle cx="0" cy="0" r="7" fill="currentColor" />
      
      <!-- Outer Decoration -->
      <circle cx="0" cy="0" r="160" stroke-width="2" stroke-dasharray="25 15" fill="none" />
      <circle cx="0" cy="0" r="100" stroke-width="1" stroke-dasharray="5 5" fill="none" />
    </g>

    <!-- Icon for the floating HUD element -->
    <g id="hudIcon" filter="url(#neon-glow)">
      <circle cx="0" cy="0" r="15" stroke-width="4" fill="none" />
      <circle cx="0" cy="0" r="6" fill="currentColor" />
      <path d="M0 -40 L0 -25 M0 25 L0 40 M-40 0 L-25 0 M25 0 L40 0" stroke-width="4" stroke-linecap="round" />
      <rect x="-3" y="-3" width="6" height="6" />
    </g>
  </defs>

  <!-- Background -->
  <rect width="800" height="600" fill="url(#bgGrad)" />

  <!-- Hexagonal Pattern Background (SVG Patterns are complex with rotation, using grouped hexagons instead) -->
  <g stroke="#5500aa" stroke-width="1.5" opacity="0.3" filter="url(#neon-glow)">
    <path d="M-50 -87 L50 -87 L100 0 L50 87 L-50 87 L-100 0 Z" fill="none" />
    <path d="M-50 -87 L50 -87 L100 0 L50 87 L-50 87 L-100 0 Z" fill="none" transform="translate(200,0)" />
    <path d="M-50 -87 L50 -87 L100 0 L50 87 L-50 87 L-100 0 Z" fill="none" transform="translate(-200,0)" />
    <path d="M-50 -87 L50 -87 L100 0 L50 87 L-50 87 L-100 0 Z" fill="none" transform="translate(100,173)" />
    <path d="M-50 -87 L50 -87 L100 0 L50 87 L-50 87 L-100 0 Z" fill="none" transform="translate(-100,173)" />
    <path d="M-50 -87 L50 -87 L100 0 L50 87 L-50 87 L-100 0 Z" fill="none" transform="translate(100,-173)" />
    <path d="M-50 -87 L50 -87 L100 0 L50 87 L-50 87 L-100 0 Z" fill="none" transform="translate(-100,-173)" />
    <path d="M-50 -87 L50 -87 L100 0 L50 87 L-50 87 L-100 0 Z" fill="none" transform="translate(200,173)" />
    <path d="M-50 -87 L50 -87 L100 0 L50 87 L-50 87 L-100 0 Z" fill="none" transform="translate(-200,173)" />
    <path d="M-50 -87 L50 -87 L100 0 L50 87 L-50 87 L-100 0 Z" fill="none" transform="translate(200,-173)" />
    <path d="M-50 -87 L50 -87 L100 0 L50 87 L-50 87 L-100 0 Z" fill="none" transform="translate(-200,-173)" />
    <path d="M-50 -87 L50 -87 L100 0 L50 87 L-50 87 L-100 0 Z" fill="none" transform="translate(400,0)" />
    <path d="M-50 -87 L50 -87 L100 0 L50 87 L-50 87 L-100 0 Z" fill="none" transform="translate(-400,0)" />
    <path d="M-50 -87 L50 -87 L100 0 L50 87 L-50 87 L-100 0 Z" fill="none" transform="translate(400,173)" />
    <path d="M-50 -87 L50 -87 L100 0 L50 87 L-50 87 L-100 0 Z" fill="none" transform="translate(-400,173)" />
    <path d="M-50 -87 L50 -87 L100 0 L50 87 L-50 87 L-100 0 Z" fill="none" transform="translate(400,-173)" />
    <path d="M-50 -87 L50 -87 L100 0 L50 87 L-50 87 L-100 0 Z" fill="none" transform="translate(-400,-173)" />
  </g>

  <!-- Scanning Overlay (Static structure, animated via SMIL) -->
  <g opacity="0.6" filter="url(#scan-blur)">
    <rect x="0" y="250" width="800" height="6" fill="#00f0ff" />
    <rect x="0" y="250" width="800" height="10" fill="#00f0ff" opacity="0.3" />
  </g>
  <rect x="0" y="0" width="4" height="600" fill="#00f0ff" opacity="0.6" filter="url(#neon-glow)">
    <animate attributeName="x" values="0;796;0" dur="5.5s" repeatCount="indefinite" />
  </rect>

  <!-- ================= RETICLE LAYERS ================= -->
  <g transform="translate(400, 300)">

    <!-- Layer 1: Massive Outermost Reticle -->
    <g color="#00f0ff" stroke="currentColor">
      <g>
        <use href="#reticleBase" />
        <animateTransform attributeName="transform" type="scale" values="3.5;3.6;3.5" dur="4s" repeatCount="indefinite" />
        <animateTransform attributeName="transform" type="rotate" values="0;360" dur="60s" repeatCount="indefinite" additive="sum" />
        <animate attributeName="opacity" values="0.3;0.5;0.3" dur="4s" repeatCount="indefinite" />
      </g>
    </g>

    <!-- Layer 2: Large Decorative Hexagons and Links -->
    <g color="#ff0099" stroke="currentColor" fill="none">
      <circle r="240" stroke-width="2" stroke-dasharray="40 20">
        <animateTransform attributeName="transform" type="rotate" values="0;360" dur="30s" repeatCount="indefinite" />
      </circle>
      <g>
        <path d="M0 -240 L0 -400 M0 240 L0 400 M-240 0 L-400 0 M240 0 L400 0" stroke-width="1.5" />
        <animateTransform attributeName="transform" type="rotate" values="0;360" dur="20s" repeatCount="indefinite" />
      </g>
      <g transform="scale(2.2)">
        <use href="#reticleBase" opacity="0" />
        <circle r="140" stroke-width="2">
           <animate attributeName="r" values="140;150;140" dur="4.5s" repeatCount="indefinite" />
        </circle>
      </g>
    </g>

    <!-- Layer 3: Large Offset Left -->
    <g color="#bd00ff" stroke="currentColor">
      <g>
        <use href="#reticleBase" />
        <animateTransform attributeName="transform" type="translate" values="-200 0;-180 20;-200 0" dur="6s" repeatCount="indefinite" />
        <animateTransform attributeName="transform" type="scale" values="1.8;1.9;1.8" dur="6s" repeatCount="indefinite" additive="sum" />
        <animateTransform attributeName="transform" type="rotate" values="0;-15;0" dur="6s" repeatCount="indefinite" additive="sum" />
      </g>
    </g>

    <!-- Layer 4: Large Offset Right -->
    <g color="#bd00ff" stroke="currentColor">
      <g>
        <use href="#reticleBase" />
        <animateTransform attributeName="transform" type="translate" values="200 0;180 -20;200 0" dur="5.5s" repeatCount="indefinite" />
        <animateTransform attributeName="transform" type="scale" values="1.8;1.9;1.8" dur="5.5s" repeatCount="indefinite" additive="sum" />
        <animateTransform attributeName="transform" type="rotate" values="0;15;0" dur="5.5s" repeatCount="indefinite" additive="sum" />
      </g>
    </g>

    <!-- Layer 5: Medium Moving Orbit -->
    <g color="#32cd32" stroke="currentColor">
      <g>
        <use href="#reticleBase" />
        <animateTransform attributeName="transform" type="translate" values="0 -150;0 150;0 -150" dur="8s" repeatCount="indefinite" />
        <animateTransform attributeName="transform" type="scale" values="1.2;1.4;1.2" dur="8s" repeatCount="indefinite" additive="sum" />
        <animateTransform attributeName="transform" type="rotate" values="360;0" dur="8s" repeatCount="indefinite" additive="sum" />
      </g>
    </g>

    <!-- Layer 6: Medium Inverse Orbit -->
    <g color="#00f0ff" stroke="currentColor">
      <g>
        <use href="#reticleBase" />
        <animateTransform attributeName="transform" type="translate" values="0 150;0 -150;0 150" dur="7s" repeatCount="indefinite" />
        <animateTransform attributeName="transform" type="scale" values="1.2;1.4;1.2" dur="7s" repeatCount="indefinite" additive="sum" />
        <animateTransform attributeName="transform" type="rotate" values="0;360" dur="7s" repeatCount="indefinite" additive="sum" />
      </g>
    </g>

    <!-- Layer 7: Small Diagonal Left -->
    <g color="#ff0099" stroke="currentColor">
      <g>
        <use href="#reticleBase" />
        <animateTransform attributeName="transform" type="translate" values="-100 -100;-80 -120;-100 -100" dur="3.5s" repeatCount="indefinite" />
        <animateTransform attributeName="transform" type="scale" values="0.8;0.7;0.8" dur="3.5s" repeatCount="indefinite" additive="sum" />
        <animateTransform attributeName="transform" type="rotate" values="45;100;45" dur="3.5s" repeatCount="indefinite" additive="sum" />
      </g>
    </g>

    <!-- Layer 8: Small Diagonal Right -->
    <g color="#32cd32" stroke="currentColor">
      <g>
        <use href="#reticleBase" />
        <animateTransform attributeName="transform" type="translate" values="100 100;120 80;100 100" dur="4s" repeatCount="indefinite" />
        <animateTransform attributeName="transform" type="scale" values="0.8;0.7;0.8" dur="4s" repeatCount="indefinite" additive="sum" />
        <animateTransform attributeName="transform" type="rotate" values="-45;-100;-45" dur="4s" repeatCount="indefinite" additive="sum" />
      </g>
    </g>

    <!-- Layer 9: Tiny Floating Elements -->
    <g color="#ffffff" stroke="currentColor">
      <g>
        <rect x="-6" y="-6" width="12" height="12" fill="none" stroke-width="2" />
        <rect x="-15" y="-15" width="30" height="30" fill="none" stroke-width="1" stroke-dasharray="4 4" />
        <circle r="3" fill="currentColor" />
        <animateTransform attributeName="transform" type="translate" values="150 -150;-150 150;150 -150" dur="10s" repeatCount="indefinite" />
        <animateTransform attributeName="transform" type="scale" values="0.5;1.2;0.5" dur="10s" repeatCount="indefinite" additive="sum" />
        <animate attributeName="opacity" values="0;1;0" dur="10s" repeatCount="indefinite" />
      </g>
      <g>
        <rect x="-4" y="-4" width="8" height="8" fill="none" stroke-width="2" />
        <circle r="2" fill="currentColor" />
        <animateTransform attributeName="transform" type="translate" values="-120 80;200 -180;-120 80" dur="13s" repeatCount="indefinite" />
        <animateTransform attributeName="transform" type="scale" values="0.3;0.8;0.3" dur="13s" repeatCount="indefinite" additive="sum" />
        <animate attributeName="opacity" values="0;0.8;0" dur="13s" repeatCount="indefinite" />
      </g>
    </g>

    <!-- Layer 10: Central Pulsating Hub -->
    <g color="#ffffff" stroke="currentColor">
      <g>
        <use href="#reticleBase" />
        <animateTransform attributeName="transform" type="scale" values="0.4;0.6;0.4" dur="1.5s" repeatCount="indefinite" />
        <animate attributeName="opacity" values="0.4;0.8;0.4" dur="1.5s" repeatCount="indefinite" />
      </g>
    </g>
    
    <!-- Floating HUD Icons -->
    <g color="#bd00ff">
      <g>
        <use href="#hudIcon" />
        <animateTransform attributeName="transform" type="translate" values="-250 -150;250 150;-250 -150" dur="18s" repeatCount="indefinite" />
      </g>
    </g>
    
    <g color="#00f0ff">
      <g>
        <use href="#hudIcon" />
        <animateTransform attributeName="transform" type="translate" values="300 -200;-300 200;300 -200" dur="22s" repeatCount="indefinite" />
      </g>
    </g>

  </g>

  <!-- Outer Vignette / Frame -->
  <rect x="0" y="0" width="800" height="600" fill="url(#vignette)" pointer-events="none" />
  
  <g stroke="#32cd32" stroke-width="2" pointer-events="none" opacity="0.8">
    <line x1="0" y1="30" x2="80" y2="30" />
    <line x1="30" y1="0" x2="30" y2="80" />
    <line x1="800" y1="30" x2="720" y2="30" />
    <line x1="770" y1="0" x2="770" y2="80" />
    <line x1="0" y1="570" x2="80" y2="570" />
    <line x1="30" y1="600" x2="30" y2="520" />
    <line x1="800" y1="570" x2="720" y2="570" />
    <line x1="770" y1="600" x2="770" y2="520" />
  </g>
</svg>