<?xml version="1.0" encoding="UTF-8"?>
<svg viewBox="0 0 1600 900" preserveAspectRatio="xMidYMid slice" xmlns="http://www.w3.org/2000/svg">
  <defs>
    <linearGradient id="sky" x1="0%" y1="0%" x2="100%" y2="100%">
      <stop offset="0%" stop-color="#E8DCC0"/>
      <stop offset="40%" stop-color="#D4C9A0"/>
      <stop offset="100%" stop-color="#2D5A3F"/>
      <animate attributeName="x1" values="0%;5%;0%" dur="20s" repeatCount="indefinite"/>
    </linearGradient>
    <linearGradient id="stalk" x1="0%" y1="0%" x2="100%" y2="0%">
      <stop offset="0%" stop-color="#E8DCC0" stop-opacity="0.9">
        <animate attributeName="stop-opacity" values="0.9;0.6;0.9" dur="10s" repeatCount="indefinite"/>
      </stop>
      <stop offset="25%" stop-color="#6B8E5C"/>
      <stop offset="100%" stop-color="#2D5A3F"/>
    </linearGradient>
    <linearGradient id="leaf" x1="0%" y1="0%" x2="100%" y2="100%">
      <stop offset="0%" stop-color="#8FA98F"/>
      <stop offset="100%" stop-color="#2D5A3F"/>
    </linearGradient>
    <radialGradient id="vignette" cx="50%" cy="50%" r="75%">
      <stop offset="50%" stop-color="#2D5A3F" stop-opacity="0"/>
      <stop offset="100%" stop-color="#2D5A3F" stop-opacity="0.5"/>
    </radialGradient>
    <filter id="b40"><feGaussianBlur stdDeviation="40"/></filter>
    <filter id="b80"><feGaussianBlur stdDeviation="80"/></filter>
    <filter id="b120"><feGaussianBlur stdDeviation="120"/></filter>
    <filter id="b160"><feGaussianBlur stdDeviation="160"/></filter>
    <filter id="glow">
      <feGaussianBlur stdDeviation="20" result="blur"/>
      <feMerge>
        <feMergeNode in="blur"/>
        <feMergeNode in="blur"/>
        <feMergeNode in="SourceGraphic"/>
      </feMerge>
    </filter>
    <filter id="shadow" x="-20%" y="-20%" width="140%" height="140%">
      <feDropShadow dx="12" dy="8" stdDeviation="20" flood-color="#2D5A3F" flood-opacity="0.35"/>
    </filter>
    <filter id="grain" x="0%" y="0%" width="100%" height="100%">
      <feTurbulence type="fractalNoise" baseFrequency="0.85" numOctaves="3" stitchTiles="stitch" result="noise"/>
      <feColorMatrix type="saturate" values="0" in="noise" result="gray"/>
      <feColorMatrix type="matrix" values="1 0 0 0 0  0 1 0 0 0  0 0 1 0 0  0 0 0 0.12 0" in="gray"/>
    </filter>
  </defs>

  <rect width="1600" height="900" fill="url(#sky)"/>

  <rect x="-200" y="0" width="1000" height="900" fill="#8FA98F" opacity="0.3" filter="url(#b160)">
    <animate attributeName="opacity" values="0.3;0.4;0.3" dur="18s" repeatCount="indefinite"/>
  </rect>

  <rect x="-100" y="100" width="800" height="700" fill="#D4C9A0" opacity="0.25" filter="url(#b120)">
    <animate attributeName="x" values="-100;-50;-100" dur="22s" repeatCount="indefinite"/>
  </rect>

  <path d="M-100,-100 L600,-100 L900,950 L-100,950 Z" fill="#E8DCC0" opacity="0.12" filter="url(#b40)">
    <animate attributeName="opacity" values="0.12;0.2;0.12" dur="12s" repeatCount="indefinite"/>
  </path>

  <path d="M-100,200 L400,100 L550,950 L-100,950 Z" fill="#E8DCC0" opacity="0.08" filter="url(#b80)">
    <animate attributeName="opacity" values="0.08;0.14;0.08" dur="16s" repeatCount="indefinite"/>
  </path>

  <g filter="url(#b80)" opacity="0.5">
    <rect x="1380" y="-50" width="90" height="1000" fill="#2D5A3F" rx="8"/>
    <rect x="1370" y="180" width="110" height="6" fill="#2D5A3F" opacity="0.4"/>
    <rect x="1370" y="420" width="110" height="6" fill="#2D5A3F" opacity="0.4"/>
    <rect x="1370" y="660" width="110" height="6" fill="#2D5A3F" opacity="0.4"/>
    <animateTransform attributeName="transform" type="translate" values="0,0; 12,0; 0,0" dur="20s" repeatCount="indefinite"/>
  </g>

  <g filter="url(#b40)" opacity="0.8">
    <rect x="1200" y="-30" width="130" height="960" fill="#2D5A3F" rx="8"/>
    <rect x="1190" y="240" width="150" height="10" fill="#2D5A3F" opacity="0.5"/>
    <rect x="1190" y="520" width="150" height="12" fill="#2D5A3F" opacity="0.5"/>
    <rect x="1190" y="780" width="150" height="10" fill="#2D5A3F" opacity="0.5"/>
    <animateTransform attributeName="transform" type="translate" values="0,0; -10,0; 0,0" dur="18s" repeatCount="indefinite"/>
  </g>

  <g filter="url(#shadow)">
    <rect x="980" y="-50" width="150" height="1000" fill="#2D5A3F" rx="10"/>
    <rect x="970" y="100" width="170" height="10" fill="#2D5A3F" opacity="0.4" rx="2"/>
    <rect x="970" y="320" width="170" height="12" fill="#2D5A3F" opacity="0.4" rx="2"/>
    <rect x="970" y="560" width="170" height="12" fill="#2D5A3F" opacity="0.4" rx="2"/>
    <rect x="970" y="800" width="170" height="10" fill="#2D5A3F" opacity="0.4" rx="2"/>
  </g>

  <rect x="980" y="-50" width="150" height="1000" fill="url(#stalk)" opacity="0.95" rx="10"/>

  <rect x="975" y="-50" width="20" height="1000" fill="#E8DCC0" opacity="0.65" filter="url(#glow)">
    <animate attributeName="opacity" values="0.5;0.75;0.5" dur="10s" repeatCount="indefinite"/>
  </rect>

  <rect x="1195" y="-30" width="16" height="960" fill="#D4C9A0" opacity="0.35" filter="url(#glow)">
    <animate attributeName="opacity" values="0.3;0.5;0.3" dur="14s" repeatCount="indefinite"/>
  </rect>

  <g transform="translate(1060,100)">
    <path d="M0,0 C-40,-30 -90,-50 -160,10 C-100,5 -40,10 0,0" fill="#6B8E5C" filter="url(#shadow)">
      <animateTransform attributeName="transform" type="rotate" values="0;-6;0" dur="9s" repeatCount="indefinite" additive="sum"/>
      <animateTransform attributeName="transform" type="translate" values="0,0; -8,4; 0,0" dur="11s" repeatCount="indefinite" additive="sum"/>
    </path>
    <path d="M5,8 C-30,30 -80,60 -130,100 C-70,70 -20,40 5,8" fill="#8FA98F" opacity="0.9">
      <animateTransform attributeName="transform" type="rotate" values="0;7;0" dur="10s" repeatCount="indefinite" additive="sum"/>
    </path>
  </g>

  <g transform="translate(1110,280)">
    <path d="M0,0 C-50,20 -110,50 -180,120 C-110,80 -50,40 0,0" fill="url(#leaf)" filter="url(#shadow)">
      <animateTransform attributeName="transform" type="rotate" values="0;5;0" dur="8s" repeatCount="indefinite" additive="sum"/>
      <animate attributeName="opacity" values="0.9;1;0.9" dur="14s" repeatCount="indefinite"/>
    </path>
  </g>

  <g transform="translate(1010,450)">
    <path d="M0,0 C-50,30 -110,70 -170,150 C-100,100 -40,50 0,0" fill="#6B8E5C">
      <animateTransform attributeName="transform" type="rotate" values="0;-8;0" dur="12s" repeatCount="indefinite" additive="sum"/>
      <animateTransform attributeName="transform" type="translate" values="0,0; 6,12; 0,0" dur="15s" repeatCount="indefinite" additive="sum"/>
    </path>
    <path d="M15,12 C-40,50 -90,110 -150,180 C-80,130 -20,70 15,12" fill="#2D5A3F" opacity="0.75" filter="url(#shadow)">
      <animateTransform attributeName="transform" type="rotate" values="0;6;0" dur="11s" repeatCount="indefinite" additive="sum"/>
    </path>
  </g>

  <path d="M920,60 C860,40 810,30 760,80 C820,85 870,75 920,60" fill="#8FA98F" filter="url(#b40)" opacity="0.75">
    <animateTransform attributeName="transform" type="translate" values="0,0; -12,8; 0,0" dur="16s" repeatCount="indefinite" additive="sum"/>
    <animateTransform attributeName="transform" type="rotate" values="0;-3;0" dur="13s" repeatCount="indefinite" additive="sum"/>
  </path>

  <path d="M880,320 C820,360 760,420 700,480 C770,440 830,380 880,320" fill="#D4C9A0" opacity="0.45" filter="url(#b80)">
    <animateTransform attributeName="transform" type="translate" values="0,0; 18,-8; 0,0" dur="20s" repeatCount="indefinite" additive="sum"/>
    <animate attributeName="opacity" values="0.45;0.65;0.45" dur="10s" repeatCount="indefinite"/>
  </path>

  <path d="M1320,200 C1260,240 1190,290 1130,340 C1200,300 1270,250 1320,200" fill="#6B8E5C" opacity="0.8" filter="url(#shadow)">
    <animateTransform attributeName="transform" type="rotate" values="0;-5;0" dur="9s" repeatCount="indefinite" additive="sum"/>
  </path>

  <g transform="translate(1280,650)">
    <path d="M0,0 C-40,20 -90,60 -140,100 C-80,70 -30,30 0,0" fill="#6B8E5C" opacity="0.85">
      <animateTransform attributeName="transform" type="rotate" values="0;4;0" dur="10s" repeatCount="indefinite" additive="sum"/>
      <animateTransform attributeName="transform" type="translate" values="0,0; -5,8; 0,0" dur="14s" repeatCount="indefinite" additive="sum"/>
    </path>
    <path d="M10,10 C-30,50 -80,100 -120,140 C-60,100 -10,50 10,10" fill="#2D5A3F" opacity="0.6" filter="url(#b40)">
      <animateTransform attributeName="transform" type="rotate" values="0;-6;0" dur="11s" repeatCount="indefinite" additive="sum"/>
    </path>
  </g>

  <path d="M980,550 C920,600 870,640 840,680 C900,640 950,590 980,550" fill="#8FA98F" opacity="0.7">
    <animateTransform attributeName="transform" type="rotate" values="0;8;0" dur="8s" repeatCount="indefinite" additive="sum"/>
    <animate attributeName="opacity" values="0.7;0.9;0.7" dur="12s" repeatCount="indefinite"/>
  </path>

  <g transform="translate(720,120)">
    <path d="M0,0 C-40,30 -90,80 -120,160 C-70,110 -20,50 0,0" fill="#8FA98F" opacity="0.35" filter="url(#b80)">
      <animateTransform attributeName="transform" type="rotate" values="0;-4;0" dur="15s" repeatCount="indefinite" additive="sum"/>
      <animateTransform attributeName="transform" type="translate" values="0,0; 10,20; 0,0" dur="18s" repeatCount="indefinite" additive="sum"/>
    </path>
  </g>

  <rect x="0" y="720" width="1600" height="280" fill="#E8DCC0" opacity="0.18" filter="url(#b80)">
    <animate attributeName="opacity" values="0.18;0.28;0.18" dur="15s" repeatCount="indefinite"/>
  </rect>

  <circle cx="350" cy="180" r="3" fill="#E8DCC0" opacity="0.6" filter="url(#b40)">
    <animate attributeName="cy" values="180;160;180" dur="12s" repeatCount="indefinite"/>
    <animate attributeName="cx" values="350;370;350" dur="18s" repeatCount="indefinite"/>
  </circle>

  <circle cx="280" cy="450" r="4" fill="#D4C9A0" opacity="0.5" filter="url(#b40)">
    <animate attributeName="cy" values="450;420;450" dur="14s" repeatCount="indefinite"/>
    <animate attributeName="cx" values="280;260;280" dur="20s" repeatCount="indefinite"/>
  </circle>

  <circle cx="480" cy="720" r="2" fill="#E8DCC0" opacity="0.7" filter="url(#b40)">
    <animate attributeName="cy" values="720;670;720" dur="16s" repeatCount="indefinite"/>
    <animate attributeName="cx" values="480;500;480" dur="22s" repeatCount="indefinite"/>
  </circle>

  <circle cx="150" cy="300" r="3" fill="#E8DCC0" opacity="0.5" filter="url(#b40)">
    <animate attributeName="cy" values="300;270;300" dur="19s" repeatCount="indefinite"/>
    <animate attributeName="cx" values="150;170;150" dur="24s" repeatCount="indefinite"/>
  </circle>

  <circle cx="600" cy="600" r="2" fill="#D4C9A0" opacity="0.6" filter="url(#b40)">
    <animate attributeName="cy" values="600;550;600" dur="17s" repeatCount="indefinite"/>
    <animate attributeName="cx" values="600;580;600" dur="21s" repeatCount="indefinite"/>
  </circle>

  <circle cx="420" cy="80" r="2" fill="#E8DCC0" opacity="0.5" filter="url(#b40)">
    <animate attributeName="cy" values="80;60;80" dur="14s" repeatCount="indefinite"/>
    <animate attributeName="cx" values="420;440;420" dur="20s" repeatCount="indefinite"/>
  </circle>

  <circle cx="200" cy="750" r="3" fill="#D4C9A0" opacity="0.4" filter="url(#b40)">
    <animate attributeName="cy" values="750;700;750" dur="23s" repeatCount="indefinite"/>
    <animate attributeName="cx" values="200;220;200" dur="26s" repeatCount="indefinite"/>
  </circle>

  <rect width="1600" height="900" fill="url(#vignette)" opacity="0.8">
    <animate attributeName="opacity" values="0.7;0.9;0.7" dur="20s" repeatCount="indefinite"/>
  </rect>

  <rect width="1600" height="900" fill="#E8DCC0" filter="url(#grain)" opacity="0.25" pointer-events="none"/>

  <rect x="-200" y="0" width="700" height="900" fill="#D4C9A0" opacity="0.14" filter="url(#b160)">
    <animate attributeName="x" values="-200;-120;-200" dur="25s" repeatCount="indefinite"/>
  </rect>
</svg>