<?xml version="1.0" encoding="UTF-8"?>
<svg xmlns="http://www.w3.org/2000/svg" viewBox="0 0 1000 1000" preserveAspectRatio="xMidYMid meet">
  <defs>
    <!-- Halftone Dots Pattern -->
    <pattern id="halftone" width="12" height="12" patternUnits="userSpaceOnUse" patternTransform="rotate(45)">
      <circle cx="6" cy="6" r="4" fill="#000000"/>
    </pattern>

    <pattern id="halftoneSparse" width="20" height="20" patternUnits="userSpaceOnUse" patternTransform="rotate(45)">
      <circle cx="10" cy="10" r="5" fill="#000000"/>
    </pattern>

    <!-- Filters -->
    <filter id="dropShadow" x="-20%" y="-20%" width="140%" height="140%">
      <feDropShadow dx="12" dy="14" stdDeviation="10" flood-color="#000000" flood-opacity="0.5"/>
    </filter>

    <filter id="innerShadow">
      <feOffset dx="0" dy="0"/>
      <feGaussianBlur stdDeviation="4" result="offset-blur"/>
      <feComposite operator="out" in="SourceGraphic" in2="offset-blur" result="inverse"/>
      <feFlood flood-color="#000000" flood-opacity="0.25" result="color"/>
      <feComposite operator="in" in="color" in2="inverse" result="shadow"/>
      <feComposite operator="over" in="shadow" in2="SourceGraphic"/>
    </filter>

    <!-- Clip Paths -->
    <clipPath id="stickerClip">
      <path d="M 547 161 L 549 197 Q 559 195 570 193 L 566 161 L 594 174 Q 602 166 611 160 L 605 190 Q 615 192 626 195 L 635 168 L 657 188 Q 667 183 677 179 L 663 209 Q 673 214 683 219 L 702 197 L 716 222 Q 726 221 736 221 L 722 250 Q 732 254 742 258 L 766 242 L 774 270 Q 784 273 793 276 L 786 304 Q 795 309 804 314 L 830 304 L 832 333 Q 841 338 849 343 L 847 372 Q 855 378 863 384 L 886 381 L 881 409 Q 889 416 896 423 L 918 421 L 906 448 Q 913 456 919 464 L 940 466 L 923 490 Q 929 499 934 508 L 955 513 L 934 534 Q 939 544 943 554 L 963 562 L 939 579 Q 943 589 946 599 L 965 610 L 938 624 Q 941 634 943 645 L 961 658 L 932 669 Q 934 680 935 691 L 951 706 L 920 714 Q 921 725 921 736 L 935 753 L 903 758 Q 902 769 900 780 L 912 798 L 879 800 Q 876 811 872 821 L 882 840 L 848 839 Q 844 849 839 859 L 847 879 L 813 875 Q 807 884 801 893 L 806 914 L 773 907 Q 766 915 758 923 L 761 944 L 729 934 Q 721 941 712 948 L 712 969 L 682 956 Q 673 962 663 967 L 660 988 L 632 973 Q 622 977 612 981 L 607 1002 L 581 985 Q 571 988 560 990 L 553 1010 L 529 991 Q 519 993 508 994 L 499 1013 L 477 992 Q 467 993 456 993 L 445 1011 L 425 988 Q 415 988 405 987 L 391 1004 L 374 979 Q 364 977 354 975 L 338 990 L 324 963 Q 314 960 304 956 L 286 969 L 275 941 Q 265 936 256 931 L 236 942 L 228 913 Q 219 907 210 901 L 188 910 L 183 880 Q 174 873 166 866 L 143 873 L 141 842 Q 133 834 126 826 L 102 830 L 103 799 Q 96 790 90 781 L 66 782 L 70 751 Q 64 742 59 732 L 35 731 L 41 700 Q 37 690 33 679 L 10 676 L 20 646 Q 17 635 15 624 L -9 619 L 4 590 Q 2 579 1 568 L -23 561 L -6 534 Q -9 523 -11 512 L -35 503 L -15 478 Q -19 467 -22 456 L -45 445 L -23 422 Q -27 411 -30 400 L -52 387 L -28 366 Q -32 355 -34 344 L -55 329 L -29 310 Q -31 299 -32 288 L -51 271 L -24 254 Q -24 243 -24 232 L -41 213 L -13 198 Q -11 187 -9 176 L -24 155 L 5 143 Q 8 132 12 121 L -1 99 L 27 90 Q 32 79 37 69 L 27 46 L 54 40 Q 61 30 68 20 L 61 -3 L 88 5 Q 97 -3 106 -11 L 103 -35 L 129 -24 Q 139 -31 149 -38 L 149 -62 L 173 -48 Q 184 -54 195 -59 L 198 -83 L 220 -67 Q 231 -71 242 -75 L 248 -99 L 268 -81 Q 279 -84 290 -86 L 299 -110 L 316 -90 Q 327 -91 338 -91 L 350 -114 L 364 -92 Q 375 -92 386 -91 L 401 -113 L 412 -89 Q 423 -88 434 -86 L 451 -107 L 459 -82 Q 470 -80 481 -77 L 500 -97 L 505 -71 Q 516 -68 527 -64 L 547 -83 L 547 -58 Q 558 -53 569 -48 L 591 -65 L 591 -40 Q 602 -34 612 -28 L 636 -43 L 632 -17 Q 643 -10 653 -3 L 678 -15 L 671 10 Q 681 17 691 24 L 716 10 L 706 35 Q 715 42 724 50 L 749 37 L 737 62 Q 746 70 754 78 L 779 67 L 765 92 Q 773 101 780 110 L 805 101 L 789 125 Q 796 134 802 144 L 826 137 L 808 161 Q 814 171 820 181 L 843 176 L 823 200 Q 828 210 833 220 L 855 217 L 833 241 Q 838 251 842 262 L 863 261 L 839 284 Q 843 295 846 306 L 866 307 L 840 329 Q 843 340 845 351 L 864 354 L 836 374 Q 838 385 840 396 L 858 401 L 829 418 Q 830 429 831 440 L 848 447 L 817 462 Q 818 473 818 484 L 834 493 L 801 505 Q 801 516 800 527 L 814 538 L 780 547 Q 779 558 777 569 L 790 581 L 755 587 Q 753 598 750 609 L 761 622 L 725 625 Q 722 636 718 646 L 728 660 L 692 660 Q 688 670 683 680 L 691 695 L 655 692 Q 650 701 644 710 L 651 726 L 616 720 Q 610 729 604 737 L 609 754 L 575 745 Q 568 753 561 761 L 565 779 L 532 767 Q 525 774 517 781 L 519 799 L 487 785 Q 479 791 471 797 L 472 815 L 441 799 Q 432 804 424 809 L 423 827 L 394 809 Q 385 813 376 817 L 373 835 L 346 815 Q 337 818 328 820 L 323 838 L 298 816 Q 289 818 280 819 L 274 837 L 251 813 Q 242 814 233 814 L 226 832 L 205 806 Q 196 806 187 805 L 179 822 L 160 795 Q 151 794 142 792 L 133 808 L 116 780 Q 107 777 98 774 L 88 789 L 74 760 Q 65 756 56 751 L 45 765 L 33 735 Q 24 730 15 724 L 3 737 L -5 706 Q -14 700 -23 694 L -36 705 L -41 673 Q -50 666 -59 659 L -73 668 L -75 635 Q -84 627 -93 619 L -108 625 L -107 592 Q -116 583 -124 575 L -140 578 L -136 545 Q -144 536 -152 527 L -168 528 L -161 496 Q -168 486 -175 476 L -191 474 L -182 443 Q -188 433 -194 423 L -210 418 L -199 389 Q -204 378 -209 368 L -224 361 L -211 333 Q -215 322 -219 312 L -233 303 L -218 277 Q -221 266 -224 255 L -237 245 L -220 221 Q -222 210 -224 199 L -236 188 L -217 166 Q -218 155 -219 144 L -230 132 L -210 112 Q -210 101 -210 90 L -220 77 L -198 59 Q -197 48 -196 37 L -205 24 L -181 8 Q -179 -3 -177 -14 L -185 -28 L -160 -42 Q -157 -53 -154 -64 L -161 -78 L -135 -90 Q -131 -101 -127 -112 L -133 -127 L -106 -136 Q -101 -147 -96 -158 L -100 -174 L -72 -181 Q -66 -192 -60 -203 L -63 -219 L -34 -223 Q -27 -234 -20 -245 L -21 -262 L 9 -263 Q 16 -274 23 -285 L 21 -302 L 51 -299 Q 59 -310 67 -320 L 63 -337 L 93 -331 Q 101 -341 110 -350 L 104 -367 L 134 -358 Q 143 -367 152 -375 L 144 -392 L 174 -380 Q 184 -388 194 -395 L 184 -412 L 214 -397 Q 224 -404 234 -410 L 222 -427 L 253 -409 Q 263 -415 273 -420 L 260 -437 L 291 -417 Q 301 -422 311 -426 L 296 -443 L 328 -421 Q 338 -425 348 -428 L 331 -445 L 363 -421 Q 373 -424 383 -426 L 365 -443 L 397 -418 Q 407 -420 417 -421 L 397 -439 L 430 -413 Q 439 -414 449 -415 L 428 -433 L 461 -406 Q 471 -406 480 -406 L 458 -425 L 491 -397 Q 500 -397 510 -396 L 487 -416 L 520 -386 Q 529 -385 538 -383 L 515 -404 L 548 -373 Q 557 -371 566 -368 L 541 -390 L 574 -358 Q 583 -355 591 -351 L 566 -374 L 599 -341 Q 607 -337 615 -332 L 589 -356 L 622 -322 Q 630 -317 637 -312 L 611 -338 L 643 -303 Q 651 -297 658 -291 L 631 -318 L 663 -282 Q 670 -276 677 -269 L 649 -297 L 680 -260 Q 687 -253 693 -246 L 665 -274 L 695 -236 Q 701 -228 707 -221 L 678 -250 L 707 -211 Q 713 -203 718 -195 L 689 -225 L 717 -185 Q 722 -177 726 -168 L 697 -199 L 724 -158 Q 728 -149 732 -140 L 703 -172 L 728 -130 Q 732 -121 735 -111 L 706 -144 L 730 -101 Q 733 -91 736 -81 L 707 -115 L 729 -71 Q 731 -61 733 -51 L 705 -86 L 725 -41 Q 727 -31 728 -21 L 701 -57 L 719 -11 Q 720 -1 720 9 L 694 -26 L 710 21 Q 711 31 711 41 L 686 4 L 699 52 Q 699 62 698 72 L 674 33 L 685 82 Q 684 92 682 102 L 659 62 L 668 111 Q 666 121 663 131 L 641 90 L 648 140 Q 645 150 641 160 L 620 118 L 625 168 Q 621 178 617 188 L 597 145 L 600 196 Q 595 206 590 215 L 572 171 Z"/>
    </clipPath>

    <path id="boomText" d="M 240 480 C 320 420, 400 420, 500 460 C 600 500, 680 510, 760 480"/>
  </defs>

  <!-- Sticker Drop Shadow Layer (White Border + Shadow) -->
  <g filter="url(#dropShadow)">
    <path d="M 547 161 L 549 197 Q 559 195 570 193 L 566 161 L 594 174 Q 602 166 611 160 L 605 190 Q 615 192 626 195 L 635 168 L 657 188 Q 667 183 677 179 L 663 209 Q 673 214 683 219 L 702 197 L 716 222 Q 726 221 736 221 L 722 250 Q 732 254 742 258 L 766 242 L 774 270 Q 784 273 793 276 L 786 304 Q 795 309 804 314 L 830 304 L 832 333 Q 841 338 849 343 L 847 372 Q 855 378 863 384 L 886 381 L 881 409 Q 889 416 896 423 L 918 421 L 906 448 Q 913 456 919 464 L 940 466 L 923 490 Q 929 499 934 508 L 955 513 L 934 534 Q 939 544 943 554 L 963 562 L 939 579 Q 943 589 946 599 L 965 610 L 938 624 Q 941 634 943 645 L 961 658 L 932 669 Q 934 680 935 691 L 951 706 L 920 714 Q 921 725 921 736 L 935 753 L 903 758 Q 902 769 900 780 L 912 798 L 879 800 Q 876 811 872 821 L 882 840 L 848 839 Q 844 849 839 859 L 847 879 L 813 875 Q 807 884 801 893 L 806 914 L 773 907 Q 766 915 758 923 L 761 944 L 729 934 Q 721 941 712 948 L 712 969 L 682 956 Q 673 962 663 967 L 660 988 L 632 973 Q 622 977 612 981 L 607 1002 L 581 985 Q 571 988 560 990 L 553 1010 L 529 991 Q 519 993 508 994 L 499 1013 L 477 992 Q 467 993 456 993 L 445 1011 L 425 988 Q 415 988 405 987 L 391 1004 L 374 979 Q 364 977 354 975 L 338 990 L 324 963 Q 314 960 304 956 L 286 969 L 275 941 Q 265 936 256 931 L 236 942 L 228 913 Q 219 907 210 901 L 188 910 L 183 880 Q 174 873 166 866 L 143 873 L 141 842 Q 133 834 126 826 L 102 830 L 103 799 Q 96 790 90 781 L 66 782 L 70 751 Q 64 742 59 732 L 35 731 L 41 700 Q 37 690 33 679 L 10 676 L 20 646 Q 17 635 15 624 L -9 619 L 4 590 Q 2 579 1 568 L -23 561 L -6 534 Q -9 523 -11 512 L -35 503 L -15 478 Q -19 467 -22 456 L -45 445 L -23 422 Q -27 411 -30 400 L -52 387 L -28 366 Q -32 355 -34 344 L -55 329 L -29 310 Q -31 299 -32 288 L -51 271 L -24 254 Q -24 243 -24 232 L -41 213 L -13 198 Q -11 187 -9 176 L -24 155 L 5 143 Q 8 132 12 121 L -1 99 L 27 90 Q 32 79 37 69 L 27 46 L 54 40 Q 61 30 68 20 L 61 -3 L 88 5 Q 97 -3 106 -11 L 103 -35 L 129 -24 Q 139 -31 149 -38 L 149 -62 L 173 -48 Q 184 -54 195 -59 L 198 -83 L 220 -67 Q 231 -71 242 -75 L 248 -99 L 268 -81 Q 279 -84 290 -86 L 299 -110 L 316 -90 Q 327 -91 338 -91 L 350 -114 L 364 -92 Q 375 -92 386 -91 L 401 -113 L 412 -89 Q 423 -88 434 -86 L 451 -107 L 459 -82 Q 470 -80 481 -77 L 500 -97 L 505 -71 Q 516 -68 527 -64 L 547 -83 L 547 -58 Q 558 -53 569 -48 L 591 -65 L 591 -40 Q 602 -34 612 -28 L 636 -43 L 632 -17 Q 643 -10 653 -3 L 678 -15 L 671 10 Q 681 17 691 24 L 716 10 L 706 35 Q 715 42 724 50 L 749 37 L 737 62 Q 746 70 754 78 L 779 67 L 765 92 Q 773 101 780 110 L 805 101 L 789 125 Q 796 134 802 144 L 826 137 L 808 161 Q 814 171 820 181 L 843 176 L 823 200 Q 828 210 833 220 L 855 217 L 833 241 Q 838 251 842 262 L 863 261 L 839 284 Q 843 295 846 306 L 866 307 L 840 329 Q 843 340 845 351 L 864 354 L 836 374 Q 838 385 840 396 L 858 401 L 829 418 Q 830 429 831 440 L 848 447 L 817 462 Q 818 473 818 484 L 834 493 L 801 505 Q 801 516 800 527 L 814 538 L 780 547 Q 779 558 777 569 L 790 581 L 755 587 Q 753 598 750 609 L 761 622 L 725 625 Q 722 636 718 646 L 728 660 L 692 660 Q 688 670 683 680 L 691 695 L 655 692 Q 650 701 644 710 L 651 726 L 616 720 Q 610 729 604 737 L 609 754 L 575 745 Q 568 753 561 761 L 565 779 L 532 767 Q 525 774 517 781 L 519 799 L 487 785 Q 479 791 471 797 L 472 815 L 441 799 Q 432 804 424 809 L 423 827 L 394 809 Q 385 813 376 817 L 373 835 L 346 815 Q 337 818 328 820 L 323 838 L 298 816 Q 289 818 280 819 L 274 837 L 251 813 Q 242 814 233 814 L 226 832 L 205 806 Q 196 806 187 805 L 179 822 L 160 795 Q 151 794 142 792 L 133 808 L 116 780 Q 107 777 98 774 L 88 789 L 74 760 Q 65 756 56 751 L 45 765 L 33 735 Q 24 730 15 724 L 3 737 L -5 706 Q -14 700 -23 694 L -36 705 L -41 673 Q -50 666 -59 659 L -73 668 L -75 635 Q -84 627 -93 619 L -108 625 L -107 592 Q -116 583 -124 575 L -140 578 L -136 545 Q -144 536 -152 527 L -168 528 L -161 496 Q -168 486 -175 476 L -191 474 L -182 443 Q -188 433 -194 423 L -210 418 L -199 389 Q -204 378 -209 368 L -224 361 L -211 333 Q -215 322 -219 312 L -233 303 L -218 277 Q -221 266 -224 255 L -237 245 L -220 221 Q -222 210 -224 199 L -236 188 L -217 166 Q -218 155 -219 144 L -230 132 L -210 112 Q -210 101 -210 90 L -220 77 L -198 59 Q -197 48 -196 37 L -205 24 L -181 8 Q -179 -3 -177 -14 L -185 -28 L -160 -42 Q -157 -53 -154 -64 L -161 -78 L -135 -90 Q -131 -101 -127 -112 L -133 -127 L -106 -136 Q -101 -147 -96 -158 L -100 -174 L -72 -181 Q -66 -192 -60 -203 L -63 -219 L -34 -223 Q -27 -234 -20 -245 L -21 -262 L 9 -263 Q 16 -274 23 -285 L 21 -302 L 51 -299 Q 59 -310 67 -320 L 63 -337 L 93 -331 Q 101 -341 110 -350 L 104 -367 L 134 -358 Q 143 -367 152 -375 L 144 -392 L 174 -380 Q 184 -388 194 -395 L 184 -412 L 214 -397 Q 224 -404 234 -410 L 222 -427 L 253 -409 Q 263 -415 273 -420 L 260 -437 L 291 -417 Q 301 -422 311 -426 L 296 -443 L 328 -421 Q 338 -425 348 -428 L 331 -445 L 363 -421 Q 373 -424 383 -426 L 365 -443 L 397 -418 Q 407 -420 417 -421 L 397 -439 L 430 -413 Q 439 -414 449 -415 L 428 -433 L 461 -406 Q 471 -406 480 -406 L 458 -425 L 491 -397 Q 500 -397 510 -396 L 487 -416 L 520 -386 Q 529 -385 538 -383 L 515 -404 L 548 -373 Q 557 -371 566 -368 L 541 -390 L 574 -358 Q 583 -355 591 -351 L 566 -374 L 599 -341 Q 607 -337 615 -332 L 589 -356 L 622 -322 Q 630 -317 637 -312 L 611 -338 L 643 -303 Q 651 -297 658 -291 L 631 -318 L 663 -282 Q 670 -276 677 -269 L 649 -297 L 680 -260 Q 687 -253 693 -246 L 665 -274 L 695 -236 Q 701 -228 707 -221 L 678 -250 L 707 -211 Q 713 -203 718 -195 L 689 -225 L 717 -185 Q 722 -177 726 -168 L 697 -199 L 724 -158 Q 728 -149 732 -140 L 703 -172 L 728 -130 Q 732 -121 735 -111 L 706 -144 L 730 -101 Q 733 -91 736 -81 L 707 -115 L 729 -71 Q 731 -61 733 -51 L 705 -86 L 725 -41 Q 727 -31 728 -21 L 701 -57 L 719 -11 Q 720 -1 720 9 L 694 -26 L 710 21 Q 711 31 711 41 L 686 4 L 699 52 Q 699 62 698 72 L 674 33 L 685 82 Q 684 92 682 102 L 659 62 L 668 111 Q 666 121 663 131 L 641 90 L 648 140 Q 645 150 641 160 L 620 118 L 625 168 Q 621 178 617 188 L 597 145 L 600 196 Q 595 206 590 215 L 572 171 Z" fill="#ffffff" stroke="#ffffff" stroke-width="24" stroke-linejoin="round"/>
  </g>

  <!-- Sticker Inner Content -->
  <g clip-path="url(#stickerClip)">
    <!-- Background Base -->
    <rect x="-100" y="-100" width="1200" height="1200" fill="#ffcc00"/>
    
    <!-- Secondary Explosion Layer (Red) -->
    <path d="M 500 500 L 100 100 L 200 500 L 50 300 L 300 600 L 100 800 L 400 700 L 300 950 L 600 750 L 800 950 L 700 700 L 950 600 L 750 400 L 900 200 L 600 300 Z" fill="#ff3333" stroke="#000000" stroke-width="12"/>

    <!-- Primary Explosion Shape (Yellow) -->
    <path d="M 500 500 L 150 150 L 250 500 L 80 350 L 350 650 L 150 850 L 450 750 L 350 900 L 650 800 L 850 900 L 750 650 L 900 550 L 700 400 L 850 250 L 550 350 Z" fill="#ffdd00" stroke="#000000" stroke-width="16"/>

    <!-- Halftone Shading Overlay -->
    <g opacity="0.15">
      <rect x="-100" y="-100" width="1200" height="1200" fill="url(#halftone)"/>
    </g>
    <g opacity="0.1">
      <rect x="-100" y="-100" width="1200" height="1200" fill="url(#halftoneSparse)"/>
    </g>

    <!-- Action Lines -->
    <g stroke="#000000" stroke-width="8" stroke-linecap="round">
      <line x1="200" y1="200" x2="350" y2="350"/>
      <line x1="800" y1="200" x2="650" y2="350"/>
      <line x1="200" y1="800" x2="350" y2="650"/>
      <line x1="800" y1="800" x2="650" y2="650"/>
      <line x1="500" y1="100" x2="500" y2="300"/>
      <line x1="100" y1="500" x2="300" y2="500"/>
      <line x1="900" y1="500" x2="700" y2="500"/>
      <line x1="500" y1="900" x2="500" y2="700"/>
    </g>

    <!-- Dynamic Curved Speed Lines -->
    <g stroke="#000000" stroke-width="6" stroke-linecap="round" fill="none">
      <path d="M 120 120 Q 250 250 400 200"/>
      <path d="M 880 120 Q 750 250 600 200"/>
      <path d="M 120 880 Q 250 750 400 800"/>
      <path d="M 880 880 Q 750 750 600 800"/>
      <path d="M 500 50 Q 550 200 500 350"/>
      <path d="M 50 500 Q 200 550 350 500"/>
      <path d="M 950 500 Q 800 550 650 500"/>
      <path d="M 500 950 Q 550 800 500 650"/>
    </g>

    <!-- Starbursts -->
    <g fill="#ffffff" stroke="#000000" stroke-width="4">
      <path d="M 280 220 L 290 250 L 320 260 L 290 270 L 280 300 L 270 270 L 240 260 L 270 250 Z"/>
      <path d="M 720 220 L 730 250 L 760 260 L 730 270 L 720 300 L 710 270 L 680 260 L 710 250 Z"/>
      <path d="M 150 500 L 160 530 L 190 540 L 160 550 L 150 580 L 140 550 L 110 540 L 140 530 Z"/>
      <path d="M 850 500 L 860 530 L 890 540 L 860 550 L 850 580 L 840 550 L 810 540 L 840 530 Z"/>
      <path d="M 280 780 L 290 810 L 320 820 L 290 830 L 280 860 L 270 830 L 240 820 L 270 810 Z"/>
      <path d="M 720 780 L 730 810 L 760 820 L 730 830 L 720 860 L 710 830 L 680 820 L 710 810 Z"/>
    </g>

    <!-- Shadow Layer for 3D Text Effect -->
    <text font-family="Impact, Arial Black, sans-serif" font-weight="900" font-size="160" fill="#000000" stroke="none" text-anchor="middle">
      <textPath href="#boomText" startOffset="50%" dy="12">BOOM!</textPath>
    </text>

    <!-- Main Text -->
    <text font-family="Impact, Arial Black, sans-serif" font-weight="900" font-size="160" fill="#ffffff" stroke="#000000" stroke-width="10" text-anchor="middle">
      <textPath href="#boomText" startOffset="50%">BOOM!</textPath>
    </text>

    <!-- Exclamation Point (Separate for perfect placement and 3D effect) -->
    <!-- Shadow -->
    <g transform="translate(12, 12)">
      <text x="780" y="580" font-family="Impact, Arial Black, sans-serif" font-weight="900" font-size="220" fill="#000000" stroke="none" text-anchor="middle">!</text>
    </g>
    <!-- Main -->
    <text x="780" y="580" font-family="Impact, Arial Black, sans-serif" font-weight="900" font-size="220" fill="#ff3333" stroke="#000000" stroke-width="12" text-anchor="middle">!</text>

    <!-- Additional Pop Art Details / Accent Shapes -->
    <g fill="#00ccff" stroke="#000000" stroke-width="6">
      <circle cx="220" cy="450" r="25"/>
      <circle cx="780" cy="450" r="25"/>
      <circle cx="220" cy="550" r="15"/>
      <circle cx="780" cy="550" r="15"/>
    </g>

    <!-- Swoosh elements inside the explosion -->
    <path d="M 400 400 Q 450 420 480 380 Q 440 390 420 370 Z" fill="#ffffff" stroke="#000000" stroke-width="6"/>
    <path d="M 600 400 Q 550 420 520 380 Q 560 390 580 370 Z" fill="#ffffff" stroke="#000000" stroke-width="6"/>
  </g>
</svg>