<?xml version="1.0" encoding="UTF-8"?>
<svg xmlns="http://www.w3.org/2000/svg" viewBox="0 0 1600 900" preserveAspectRatio="xMidYMid slice">
<defs>
<linearGradient id="basketG" x1="0" y1="0" x2="0" y2="1">
<stop offset="0%" stop-color="#FFDAC1" stop-opacity="0.95"/>
<stop offset="100%" stop-color="#FFDAC1" stop-opacity="0.75"/>
</linearGradient>
<pattern id="check" x="0" y="0" width="80" height="80" patternUnits="userSpaceOnUse">
<rect width="80" height="80" fill="#B5EAD7" fill-opacity="0.85"/>
<rect x="0" y="0" width="40" height="40" fill="#FFDAC1" fill-opacity="0.9"/>
<rect x="40" y="40" width="40" height="40" fill="#FFDAC1" fill-opacity="0.9"/>
<rect x="40" y="0" width="40" height="40" fill="#FFB7B2" fill-opacity="0.8"/>
<rect x="0" y="40" width="40" height="40" fill="#FFB7B2" fill-opacity="0.8"/>
</pattern>
<pattern id="weave" x="0" y="0" width="28" height="18" patternUnits="userSpaceOnUse">
<rect width="28" height="18" fill="#FFDAC1" fill-opacity="0.25"/>
<path d="M0,9 h28 M14,0 v18" stroke="#B5EAD7" stroke-opacity="0.5" stroke-width="2" stroke-linecap="round"/>
<rect x="0" y="0" width="14" height="9" fill="#FFB7B2" fill-opacity="0.2"/>
<rect x="14" y="9" width="14" height="9" fill="#FFB7B2" fill-opacity="0.2"/>
</pattern>
<filter id="softShadow" x="-50%" y="-50%" width="200%" height="200%">
<feGaussianBlur stdDeviation="14"/>
</filter>
<filter id="fluff" x="-50%" y="-50%" width="200%" height="200%">
<feGaussianBlur stdDeviation="22"/>
</filter>
<filter id="glow" x="-50%" y="-50%" width="200%" height="200%">
<feGaussianBlur stdDeviation="8"/>
</filter>
</defs>

<rect width="1600" height="900" fill="#C7CEEA"/>
<circle cx="350" cy="280" r="420" fill="#FFB7B2" opacity="0.14" filter="url(#glow)">
<animate attributeName="r" values="420;450;420" dur="12s" repeatCount="indefinite"/>
</circle>
<circle cx="1300" cy="720" r="380" fill="#B5EAD7" opacity="0.14" filter="url(#glow)">
<animate attributeName="r" values="380;410;380" dur="14s" repeatCount="indefinite"/>
</circle>

<g opacity="0.65">
<path d="M180,220 Q230,160 310,195 Q370,150 450,195 Q520,170 570,230 Q620,290 540,320 Q450,340 360,320 Q240,330 180,270 Z" fill="#FFDAC1" filter="url(#fluff)">
<animateTransform attributeName="transform" type="translate" values="0,0; 50,0; 0,0" dur="10s" repeatCount="indefinite" calcMode="spline" keySplines="0.4 0 0.6 1;0.4 0 0.6 1"/>
</path>
<path d="M1050,180 Q1100,120 1180,155 Q1240,110 1320,155 Q1390,130 1440,190 Q1490,250 1410,280 Q1320,300 1230,280 Q1110,290 1050,230 Z" fill="#FFDAC1" filter="url(#fluff)">
<animateTransform attributeName="transform" type="translate" values="0,0; -40,0; 0,0" dur="12s" repeatCount="indefinite" calcMode="spline" keySplines="0.4 0 0.6 1;0.4 0 0.6 1"/>
</path>
<path d="M750,120 Q790,70 850,100 Q900,60 960,100 Q1010,80 1050,130 Q1090,180 1030,210 Q950,230 870,210 Q780,220 750,170 Z" fill="#FFDAC1" filter="url(#fluff)">
<animateTransform attributeName="transform" type="translate" values="0,0; 30,10; 0,0" dur="9s" repeatCount="indefinite" calcMode="spline" keySplines="0.4 0 0.6 1;0.4 0 0.6 1"/>
</path>
</g>

<ellipse cx="800" cy="690" rx="340" ry="90" fill="#FFDAC1" opacity="0.18" filter="url(#softShadow)">
<animate attributeName="rx" values="340;360;340" dur="6s" repeatCount="indefinite"/>
<animate attributeName="opacity" values="0.18;0.12;0.18" dur="6s" repeatCount="indefinite"/>
</ellipse>

<g transform="translate(800,620)">
<animateTransform attributeName="transform" type="translate" values="800,620; 800,610; 800,620" dur="6s" repeatCount="indefinite" calcMode="spline" keySplines="0.4 0 0.6 1;0.4 0 0.6 1"/>
<rect x="-320" y="-180" width="640" height="360" rx="40" fill="url(#check)" transform="rotate(-6)"/>
<rect x="-320" y="-180" width="640" height="360" rx="40" fill="#FFFFFF" opacity="0.12" filter="url(#glow)" transform="rotate(-6)"/>
</g>

<g transform="translate(800,520)">
<animateTransform attributeName="transform" type="translate" values="800,520; 800,508; 800,520" dur="5s" repeatCount="indefinite" calcMode="spline" keySplines="0.4 0 0.6 1;0.4 0 0.6 1"/>
<animateTransform attributeName="transform" type="rotate" values="-1 0 50; 1 0 50; -1 0 50" dur="7s" repeatCount="indefinite" additive="sum" calcMode="spline" keySplines="0.4 0 0.6 1;0.4 0 0.6 1"/>
<ellipse cx="0" cy="125" rx="130" ry="25" fill="#FFDAC1" opacity="0.22" filter="url(#softShadow)">
<animate attributeName="rx" values="130;145;130" dur="5s" repeatCount="indefinite"/>
<animate attributeName="opacity" values="0.22;0.15;0.22" dur="5s" repeatCount="indefinite"/>
</ellipse>
<path d="M-115,-25 C-115,35 -105,90 -95,115 C-55,140 55,140 95,115 C105,90 115,35 115,-25 C115,12 60,38 0,38 C-60,38 -115,12 -115,-25 Z" fill="url(#basketG)"/>
<path d="M-115,-25 C-115,35 -105,90 -95,115 C-55,140 55,140 95,115 C105,90 115,35 115,-25 C115,12 60,38 0,38 C-60,38 -115,12 -115,-25 Z" fill="url(#weave)" opacity="0.5"/>
<ellipse cx="0" cy="-25" rx="115" ry="28" fill="none" stroke="#FFB7B2" stroke-width="6" stroke-opacity="0.8"/>
<g transform="translate(0,-25)">
<g>
<animateTransform attributeName="transform" type="rotate" values="0 -110 0; -24 -110 0; 0 -110 0" dur="6s" repeatCount="indefinite" calcMode="spline" keySplines="0.4 0 0.6 1;0.4 0 0.6 1"/>
<ellipse cx="0" cy="0" rx="118" ry="30" fill="#FFDAC1" fill-opacity="0.95"/>
<ellipse cx="0" cy="0" rx="118" ry="30" fill="url(#weave)" opacity="0.5"/>
<ellipse cx="0" cy="0" rx="104" ry="20" fill="none" stroke="#FFB7B2" stroke-width="4" stroke-opacity="0.55"/>
<circle cx="0" cy="26" r="7" fill="#FFB7B2" fill-opacity="0.9"/>
</g>
</g>
<path d="M-100,-25 C-100,-130 100,-130 100,-25" fill="none" stroke="#FFDAC1" stroke-width="12" stroke-linecap="round"/>
</g>

<g transform="translate(670,700)">
<animateTransform attributeName="transform" type="translate" values="670,700; 670,685; 670,700" dur="4s" repeatCount="indefinite" calcMode="spline" keySplines="0.4 0 0.6 1;0.4 0 0.6 1"/>
<ellipse cx="0" cy="24" rx="42" ry="12" fill="#FFDAC1" opacity="0.22" filter="url(#softShadow)">
<animate attributeName="rx" values="42;48;42" dur="4s" repeatCount="indefinite"/>
<animate attributeName="opacity" values="0.22;0.12;0.22" dur="4s" repeatCount="indefinite"/>
</ellipse>
<g>
<animateTransform attributeName="transform" type="rotate" values="-4 0 0; 4 0 0; -4 0 0" dur="4s" repeatCount="indefinite" additive="sum" calcMode="spline" keySplines="0.4 0 0.6 1;0.4 0 0.6 1"/>
<ellipse cx="0" cy="10" rx="38" ry="14" fill="#B5EAD7" fill-opacity="0.9"/>
<rect x="-34" y="1" width="68" height="9" rx="3" fill="#FFFFFF" fill-opacity="0.45"/>
<ellipse cx="0" cy="-7" rx="38" ry="18" fill="#B5EAD7" fill-opacity="0.95"/>
<ellipse cx="-10" cy="-15" rx="14" ry="6" fill="#FFFFFF" fill-opacity="0.35"/>
</g>
</g>

<g transform="translate(930,680)">
<animateTransform attributeName="transform" type="translate" values="930,680; 930,665; 930,680" dur="5s" repeatCount="indefinite" calcMode="spline" keySplines="0.4 0 0.6 1;0.4 0 0.6 1"/>
<ellipse cx="0" cy="24" rx="42" ry="12" fill="#FFDAC1" opacity="0.22" filter="url(#softShadow)">
<animate attributeName="rx" values="42;48;42" dur="5s" repeatCount="indefinite"/>
<animate attributeName="opacity" values="0.22;0.12;0.22" dur="5s" repeatCount="indefinite"/>
</ellipse>
<g>
<animateTransform attributeName="transform" type="rotate" values="3 0 0; -3 0 0; 3 0 0" dur="5s" repeatCount="indefinite" additive="sum" calcMode="spline" keySplines="0.4 0 0.6 1;0.4 0 0.6 1"/>
<ellipse cx="0" cy="10" rx="38" ry="14" fill="#FFB7B2" fill-opacity="0.9"/>
<rect x="-34" y="1" width="68" height="9" rx="3" fill="#FFFFFF" fill-opacity="0.45"/>
<ellipse cx="0" cy="-7" rx="38" ry="18" fill="#FFB7B2" fill-opacity="0.95"/>
<ellipse cx="-10" cy="-15" rx="14" ry="6" fill="#FFFFFF" fill-opacity="0.35"/>
</g>
</g>

<g transform="translate(790,760)">
<animateTransform attributeName="transform" type="translate" values="790,760; 790,745; 790,760" dur="4.5s" repeatCount="indefinite" calcMode="spline" keySplines="0.4 0 0.6 1;0.4 0 0.6 1"/>
<ellipse cx="0" cy="24" rx="42" ry="12" fill="#FFDAC1" opacity="0.22" filter="url(#softShadow)">
<animate attributeName="rx" values="42;48;42" dur="4.5s" repeatCount="indefinite"/>
<animate attributeName="opacity" values="0.22;0.12;0.22" dur="4.5s" repeatCount="indefinite"/>
</ellipse>
<g>
<animateTransform attributeName="transform" type="rotate" values="-3 0 0; 3 0 0; -3 0 0" dur="4.5s" repeatCount="indefinite" additive="sum" calcMode="spline" keySplines="0.4 0 0.6 1;0.4 0 0.6 1"/>
<ellipse cx="0" cy="10" rx="38" ry="14" fill="#FFDAC1" fill-opacity="0.95"/>
<rect x="-34" y="1" width="68" height="9" rx="3" fill="#FFFFFF" fill-opacity="0.45"/>
<ellipse cx="0" cy="-7" rx="38" ry="18" fill="#FFDAC1" fill-opacity="0.95"/>
<ellipse cx="-10" cy="-15" rx="14" ry="6" fill="#FFFFFF" fill-opacity="0.35"/>
</g>
</g>

<g transform="translate(560,480)">
<animateTransform attributeName="transform" type="translate" values="560,480; 560,440; 560,480" dur="6s" repeatCount="indefinite" calcMode="spline" keySplines="0.4 0 0.6 1;0.4 0 0.6 1"/>
<path d="M0,-12 Q3,-3 12,0 Q3,3 0,12 Q-3,3 -12,0 Q-3,-3 0,-12 Z" fill="#FFDAC1" opacity="0.9">
<animate attributeName="opacity" values="0.9;0.2;0.9" dur="3s" repeatCount="indefinite"/>
</path>
</g>
<g transform="translate(1080,520)">
<animateTransform attributeName="transform" type="translate" values="1080,520; 1080,480; 1080,520" dur="7s" repeatCount="indefinite" calcMode="spline" keySplines="0.4 0 0.6 1;0.4 0 0.6 1"/>
<path d="M0,-10 Q2,-2 10,0 Q2,2 0,10 Q-2,2 -10,0 Q-2,-2 0,-10 Z" fill="#FFB7B2" opacity="0.9">
<animate attributeName="opacity" values="0.9;0.2;0.9" dur="4s" repeatCount="indefinite"/>
</path>
</g>
<g transform="translate(480,650)">
<animateTransform attributeName="transform" type="translate" values="480,650; 480,620; 480,650" dur="8s" repeatCount="indefinite" calcMode="spline" keySplines="0.4 0 0.6 1;0.4 0 0.6 1"/>
<path d="M0,-14 Q4,-4 14,0 Q4,4 0,14 Q-4,4 -14,0 Q-4,-4 0,-14 Z" fill="#B5EAD7" opacity="0.9">
<animate attributeName="opacity" values="0.9;0.2;0.9" dur="5s" repeatCount="indefinite"/>
</path>
</g>
<g transform="translate(1180,680)">
<animateTransform attributeName="transform" type="translate" values="1180,680; 1180,640; 1180,680" dur="9s" repeatCount="indefinite" calcMode="spline" keySplines="0.4 0 0.6 1;0.4 0 0.6 1"/>
<path d="M0,-11 Q3,-3 11,0 Q3,3 0,11 Q-3,3 -11,0 Q-3,-3 0,-11 Z" fill="#B5EAD7" opacity="0.9">
<animate attributeName="opacity" values="0.9;0.2;0.9" dur="3.5s" repeatCount="indefinite"/>
</path>
</g>
</svg>