<?xml version="1.0" encoding="UTF-8"?>
<svg xmlns="http://www.w3.org/2000/svg" viewBox="0 0 1600 900" preserveAspectRatio="xMidYMid slice" width="100%" height="100%">
  <defs>
    <!-- HALFTONE PATTERNS -->
    <pattern id="halftone-1" width="16" height="16" patternUnits="userSpaceOnUse" patternTransform="rotate(45)">
      <circle cx="8" cy="8" r="2.5" fill="#000000"/>
    </pattern>
    <pattern id="halftone-2" width="12" height="12" patternUnits="userSpaceOnUse" patternTransform="rotate(22.5)">
      <circle cx="6" cy="6" r="2" fill="#000000"/>
    </pattern>
    <pattern id="halftone-3" width="10" height="10" patternUnits="userSpaceOnUse">
      <circle cx="5" cy="5" r="1.5" fill="#000000"/>
    </pattern>
    
    <!-- GLOW FILTER -->
    <filter id="glow" x="-20%" y="-20%" width="140%" height="140%">
      <feGaussianBlur stdDeviation="4" result="blur"/>
      <feMerge>
        <feMergeNode in="blur"/>
        <feMergeNode in="SourceGraphic"/>
      </feMerge>
    </filter>
    
    <!-- DROP SHADOW -->
    <filter id="shadow" x="-30%" y="-30%" width="160%" height="160%">
      <feDropShadow dx="12" dy="12" stdDeviation="0" flood-color="#000000"/>
    </filter>
    
    <!-- RADIAL HALFTONE GRADIENTS FOR BEZELS -->
    <radialGradient id="grad-ring-1" cx="50%" cy="50%" r="50%">
      <stop offset="0%" stop-color="#ffffff"/>
      <stop offset="40%" stop-color="#FF007F"/>
      <stop offset="100%" stop-color="#00FFFF"/>
    </radialGradient>
    
    <radialGradient id="grad-ring-2" cx="50%" cy="50%" r="50%">
      <stop offset="0%" stop-color="#ffffff"/>
      <stop offset="50%" stop-color="#FFFF00"/>
      <stop offset="100%" stop-color="#FF2A2A"/>
    </radialGradient>
  </defs>

  <!-- BACKGROUND -->
  <g id="background">
    <rect width="1600" height="900" fill="#FFFF00"/>
    <rect width="1600" height="900" fill="url(#halftone-2)" opacity="0.15"/>
    
    <!-- BACKGROUND ACTION LINES (Comic style) -->
    <path d="M 0,0 L 600,900 M 1600,0 L 1000,900 M 0,900 L 400,0 M 1600,900 L 1200,0" stroke="#000000" stroke-width="6"/>
    <path d="M 0,450 L 1600,450 M 800,0 L 800,900" stroke="#000000" stroke-width="12"/>
    <path d="M 0,0 L 1600,900 M 1600,0 L 0,900" stroke="#FF007F" stroke-width="8"/>
    
    <!-- Background Stars -->
    <g id="bg-stars" fill="#000000">
      <polygon points="0,-30 9,-9 30,-9 13,6 19,27 0,15 -19,27 -13,6 -30,-9 -9,-9" transform="translate(200, 200) scale(0.6)"/>
      <polygon points="0,-30 9,-9 30,-9 13,6 19,27 0,15 -19,27 -13,6 -30,-9 -9,-9" transform="translate(1400, 200) scale(0.8)"/>
      <polygon points="0,-30 9,-9 30,-9 13,6 19,27 0,15 -19,27 -13,6 -30,-9 -9,-9" transform="translate(200, 700) scale(0.7)"/>
      <polygon points="0,-30 9,-9 30,-9 13,6 19,27 0,15 -19,27 -13,6 -30,-9 -9,-9" transform="translate(1400, 700) scale(0.5)"/>
    </g>
  </g>

  <!-- MAIN COMPASS GROUP -->
  <g id="compass-group" transform="translate(800, 450)">
    
    <!-- OUTER GLOWING RING -->
    <circle cx="0" cy="0" r="360" fill="#00FFFF" stroke="#000000" stroke-width="12" filter="url(#glow)">
      <animate attributeName="r" values="360;370;360" dur="2.5s" repeatCount="indefinite"/>
    </circle>
    
    <!-- HALFTONE RING 1 -->
    <circle cx="0" cy="0" r="340" fill="url(#halftone-1)" stroke="#000000" stroke-width="8">
      <animate attributeName="r" values="340;350;340" dur="3s" repeatCount="indefinite"/>
    </circle>
    
    <!-- SOLID BAND -->
    <circle cx="0" cy="0" r="320" fill="#FF007F" stroke="#000000" stroke-width="8"/>
    
    <!-- HALFTONE RING 2 -->
    <circle cx="0" cy="0" r="300" fill="url(#halftone-3)" stroke="#000000" stroke-width="6"/>
    
    <!-- SOLID BAND -->
    <circle cx="0" cy="0" r="280" fill="#FFFF00" stroke="#000000" stroke-width="6"/>
    
    <!-- DEGREE MARKS (TICKS) -->
    <g id="ticks" stroke="#000000" stroke-linecap="round">
      <!-- Major Ticks (Every 30 deg) -->
      <g stroke-width="10">
        <line y1="-265" y2="-245" transform="rotate(0)"/>
        <line y1="-265" y2="-245" transform="rotate(30)"/>
        <line y1="-265" y2="-245" transform="rotate(60)"/>
        <line y1="-265" y2="-245" transform="rotate(90)"/>
        <line y1="-265" y2="-245" transform="rotate(120)"/>
        <line y1="-265" y2="-245" transform="rotate(150)"/>
        <line y1="-265" y2="-245" transform="rotate(180)"/>
        <line y1="-265" y2="-245" transform="rotate(210)"/>
        <line y1="-265" y2="-245" transform="rotate(240)"/>
        <line y1="-265" y2="-245" transform="rotate(270)"/>
        <line y1="-265" y2="-245" transform="rotate(300)"/>
        <line y1="-265" y2="-245" transform="rotate(330)"/>
      </g>
      <!-- Minor Ticks (Every 10 deg) -->
      <g stroke-width="4" opacity="0.6">
        <line y1="-265" y2="-255" transform="rotate(10)"/>
        <line y1="-265" y2="-255" transform="rotate(20)"/>
        <line y1="-265" y2="-255" transform="rotate(40)"/>
        <line y1="-265" y2="-255" transform="rotate(50)"/>
        <line y1="-265" y2="-255" transform="rotate(70)"/>
        <line y1="-265" y2="-255" transform="rotate(80)"/>
        <line y1="-265" y2="-255" transform="rotate(100)"/>
        <line y1="-265" y2="-255" transform="rotate(110)"/>
        <line y1="-265" y2="-255" transform="rotate(130)"/>
        <line y1="-265" y2="-255" transform="rotate(140)"/>
        <line y1="-265" y2="-255" transform="rotate(160)"/>
        <line y1="-265" y2="-255" transform="rotate(170)"/>
        <line y1="-265" y2="-255" transform="rotate(190)"/>
        <line y1="-265" y2="-255" transform="rotate(200)"/>
        <line y1="-265" y2="-255" transform="rotate(220)"/>
        <line y1="-265" y2="-255" transform="rotate(230)"/>
        <line y1="-265" y2="-255" transform="rotate(250)"/>
        <line y1="-265" y2="-255" transform="rotate(260)"/>
        <line y1="-265" y2="-255" transform="rotate(280)"/>
        <line y1="-265" y2="-255" transform="rotate(290)"/>
        <line y1="-265" y2="-255" transform="rotate(310)"/>
        <line y1="-265" y2="-255" transform="rotate(320)"/>
        <line y1="-265" y2="-255" transform="rotate(340)"/>
        <line y1="-265" y2="-255" transform="rotate(350)"/>
      </g>
    </g>

    <!-- DEGREE NUMBERS -->
    <g font-family="Impact, 'Arial Black', sans-serif" font-size="22" fill="#000000" text-anchor="middle" dominant-baseline="middle">
      <text x="0" y="-230">N</text>
      <text x="115" y="-200">30</text>
      <text x="200" y="-115">60</text>
      <text x="230" y="0">E</text>
      <text x="200" y="115">120</text>
      <text x="115" y="200">150</text>
      <text x="0" y="230">S</text>
      <text x="-115" y="200">210</text>
      <text x="-200" y="115">240</text>
      <text x="-230" y="0">W</text>
      <text x="-200" y="-115">300</text>
      <text x="-115" y="-200">330</text>
    </g>

    <!-- GIANT N S E W LETTERS (Retro Pop Art Typography) -->
    <g id="giant-letters" font-family="Impact, 'Arial Black', sans-serif" font-weight="900" font-size="160" text-anchor="middle" dominant-baseline="central" stroke="#000000" stroke-width="8" stroke-linejoin="round" paint-order="stroke">
      <!-- NORTH -->
      <text x="0" y="-120" fill="#FF2A2A" filter="url(#shadow)">N
        <animate attributeName="fill" values="#FF2A2A;#FFFF00;#FF2A2A" dur="1.2s" repeatCount="indefinite"/>
      </text>
      <!-- EAST -->
      <text x="120" y="0" fill="#00FFFF" filter="url(#shadow)">E
        <animate attributeName="fill" values="#00FFFF;#FF007F;#00FFFF" dur="1.5s" repeatCount="indefinite"/>
      </text>
      <!-- SOUTH -->
      <text x="0" y="120" fill="#FFFF00" filter="url(#shadow)">S
        <animate attributeName="fill" values="#FFFF00;#00FFFF;#FFFF00" dur="1.8s" repeatCount="indefinite"/>
      </text>
      <!-- WEST -->
      <text x="-120" y="0" fill="#FF007F" filter="url(#shadow)">W
        <animate attributeName="fill" values="#FF007F;#FF2A2A;#FF007F" dur="1.4s" repeatCount="indefinite"/>
      </text>
    </g>

    <!-- ACTION LINES BEHIND NEEDLE -->
    <g id="action-lines" stroke="#000000" stroke-width="4" stroke-linecap="round">
      <line x1="0" y1="0" x2="250" y2="0" transform="rotate(15)"/>
      <line x1="0" y1="0" x2="250" y2="0" transform="rotate(30)"/>
      <line x1="0" y1="0" x2="250" y2="0" transform="rotate(-15)"/>
      <line x1="0" y1="0" x2="250" y2="0" transform="rotate(-30)"/>
      <line x1="0" y1="0" x2="250" y2="0" transform="rotate(105)"/>
      <line x1="0" y1="0" x2="250" y2="0" transform="rotate(120)"/>
      <line x1="0" y1="0" x2="250" y2="0" transform="rotate(195)"/>
      <line x1="0" y1="0" x2="250" y2="0" transform="rotate(210)"/>
      <line x1="0" y1="0" x2="250" y2="0" transform="rotate(285)"/>
      <line x1="0" y1="0" x2="250" y2="0" transform="rotate(300)"/>
      
      <animateTransform attributeName="transform" type="rotate" from="0 0 0" to="360 0 0" dur="10s" repeatCount="indefinite"/>
    </g>

    <!-- COMPASS NEEDLE (The Spinner) -->
    <g id="needle">
      <!-- Shadowed Back Needle -->
      <path d="M -10,0 L -2,-220 L 0,-260 L 2,-220 L 10,0 L 2,220 L 0,260 L -2,220 Z" fill="#000000" opacity="0.2" transform="translate(15, 15)"/>
      
      <!-- North Half (Red) -->
      <path d="M -10,0 L -2,-220 L 0,-260 L 2,-220 L 10,0 Z" fill="#FF2A2A" stroke="#000000" stroke-width="6" stroke-linejoin="round"/>
      <!-- South Half (Cyan) -->
      <path d="M -10,0 L -2,220 L 0,260 L 2,220 L 10,0 Z" fill="#00FFFF" stroke="#000000" stroke-width="6" stroke-linejoin="round"/>
      
      <!-- Center Cap -->
      <circle cx="0" cy="0" r="35" fill="#FFFF00" stroke="#000000" stroke-width="8"/>
      <circle cx="0" cy="0" r="15" fill="#FF007F" stroke="#000000" stroke-width="4"/>
      
      <!-- Needle Spin Animation -->
      <animateTransform attributeName="transform" type="rotate" values="0; 15; -15; 10; -5; 0; 0; 360" keyTimes="0; 0.1; 0.2; 0.3; 0.4; 0.5; 0.8; 1" dur="10s" repeatCount="indefinite"/>
    </g>
    
    <!-- FLOATING STARS AROUND THE COMPASS -->
    <g id="floating-stars" fill="#000000">
      <polygon points="0,-25 7,-7 25,-7 11,5 17,22 0,12 -17,22 -11,5 -25,-7 -7,-7" transform="translate(450, 0) scale(1.2)">
        <animateTransform attributeName="transform" type="rotate" from="0 450 0" to="360 450 0" dur="4s" repeatCount="indefinite"/>
        <animate attributeName="opacity" values="1;0.2;1" dur="2s" repeatCount="indefinite"/>
      </polygon>
      <polygon points="0,-25 7,-7 25,-7 11,5 17,22 0,12 -17,22 -11,5 -25,-7 -7,-7" transform="translate(-450, 0) scale(0.9)">
        <animateTransform attributeName="transform" type="rotate" from="0 -450 0" to="-360 -450 0" dur="5s" repeatCount="indefinite"/>
        <animate attributeName="opacity" values="1;0.2;1" dur="3s" repeatCount="indefinite"/>
      </polygon>
      <polygon points="0,-25 7,-7 25,-7 11,5 17,22 0,12 -17,22 -11,5 -25,-7 -7,-7" transform="translate(0, -450) scale(1)">
        <animateTransform attributeName="transform" type="rotate" from="0 0 -450" to="360 0 -450" dur="6s" repeatCount="indefinite"/>
        <animate attributeName="opacity" values="1;0.2;1" dur="2.5s" repeatCount="indefinite"/>
      </polygon>
      <polygon points="0,-25 7,-7 25,-7 11,5 17,22 0,12 -17,22 -11,5 -25,-7 -7,-7" transform="translate(0, 450) scale(1.1)">
        <animateTransform attributeName="transform" type="rotate" from="0 0 450" to="-360 0 450" dur="3.5s" repeatCount="indefinite"/>
        <animate attributeName="opacity" values="1;0.2;1" dur="1.8s" repeatCount="indefinite"/>
      </polygon>
    </g>

    <!-- COMIC BURST LINES (Radiating from behind the letters) -->
    <g id="comic-burst" stroke="#000000" stroke-width="8" stroke-linecap="round">
      <line x1="0" y1="-70" x2="0" y2="-110"/>
      <line x1="50" y1="-50" x2="80" y2="-80"/>
      <line x1="70" y1="0" x2="110" y2="0"/>
      <line x1="50" y1="50" x2="80" y2="80"/>
      <line x1="0" y1="70" x2="0" y2="110"/>
      <line x1="-50" y1="50" x2="-80" y2="80"/>
      <line x1="-70" y1="0" x2="-110" y2="0"/>
      <line x1="-50" y1="-50" x2="-80" y2="-80"/>
      
      <animateTransform attributeName="transform" type="scale" values="1;1.2;1" dur="1s" repeatCount="indefinite"/>
    </g>

    <!-- POP ART BANNER -->
    <g id="banner" transform="translate(0, 320)" filter="url(#shadow)">
      <rect x="-300" y="-40" width="600" height="80" rx="15" ry="15" fill="#FF2A2A" stroke="#000000" stroke-width="8"/>
      <text x="0" y="12" font-family="Impact, 'Arial Black', sans-serif" font-size="50" fill="#FFFF00" text-anchor="middle" dominant-baseline="central" stroke="#000000" stroke-width="4" paint-order="stroke">EXPLORE</text>
      
      <animateTransform attributeName="transform" type="translate" values="0,320; 0,310; 0,320" dur="3s" repeatCount="indefinite"/>
    </g>

  </g>

  <!-- FOREGROUND HALFTONE DOTS (Blinking / Shifting) -->
  <g id="foreground-halftones">
    <!-- Top Left -->
    <circle cx="200" cy="200" r="60" fill="url(#halftone-1)" opacity="0.8">
      <animate attributeName="opacity" values="0.8;0.2;0.8" dur="2s" repeatCount="indefinite"/>
      <animateTransform attributeName="transform" type="translate" values="0,0; 20,20; 0,0" dur="4s" repeatCount="indefinite"/>
    </circle>
    <!-- Bottom Right -->
    <circle cx="1400" cy="700" r="80" fill="url(#halftone-2)" opacity="0.6">
      <animate attributeName="opacity" values="0.6;0.1;0.6" dur="3s" repeatCount="indefinite"/>
      <animateTransform attributeName="transform" type="translate" values="0,0; -20,-20; 0,0" dur="5s" repeatCount="indefinite"/>
    </circle>
    <!-- Top Right -->
    <circle cx="1400" cy="200" r="50" fill="url(#halftone-3)" opacity="0.7">
      <animate attributeName="opacity" values="0.7;0.3;0.7" dur="2.5s" repeatCount="indefinite"/>
      <animateTransform attributeName="transform" type="translate" values="0,0; -30,10; 0,0" dur="3.5s" repeatCount="indefinite"/>
    </circle>
    <!-- Bottom Left -->
    <circle cx="200" cy="700" r="70" fill="url(#halftone-1)" opacity="0.5">
      <animate attributeName="opacity" values="0.5;0.1;0.5" dur="1.8s" repeatCount="indefinite"/>
      <animateTransform attributeName="transform" type="translate" values="0,0; 30,-10; 0,0" dur="4.2s" repeatCount="indefinite"/>
    </circle>
  </g>

  <!-- COMIC BURST SPEECH BUBBLE -->
  <g id="comic-burst" transform="translate(200, 700)">
    <path d="M -60,-60 L 0,-90 L 60,-60 L 90,0 L 60,60 L 0,90 L -60,60 L -90,0 Z" fill="#FFFF00" stroke="#000000" stroke-width="8" stroke-linejoin="round" filter="url(#shadow)">
      <animateTransform attributeName="transform" type="scale" values="1;1.15;1" dur="0.8s" repeatCount="indefinite"/>
    </path>
    <text x="0" y="8" font-family="Impact, 'Arial Black', sans-serif" font-size="40" fill="#FF2A2A" text-anchor="middle" dominant-baseline="central" stroke="#000000" stroke-width="3" paint-order="stroke">WOW!</text>
  </g>

  <g id="comic-burst-2" transform="translate(1400, 200)">
    <path d="M -50,-50 L 0,-80 L 50,-50 L 80,0 L 50,50 L 0,80 L -50,50 L -80,0 Z" fill="#00FFFF" stroke="#000000" stroke-width="8" stroke-linejoin="round" filter="url(#shadow)">
      <animateTransform attributeName="transform" type="scale" values="1;1.2;1" dur="1s" repeatCount="indefinite"/>
    </path>
    <text x="0" y="8" font-family="Impact, 'Arial Black', sans-serif" font-size="30" fill="#FF007F" text-anchor="middle" dominant-baseline="central" stroke="#000000" stroke-width="3" paint-order="stroke">POW!</text>
  </g>

</svg>