<?xml version="1.0" encoding="UTF-8"?>
<svg viewBox="0 0 1600 900" xmlns="http://www.w3.org/2000/svg">
<defs>
<radialGradient id="a" cx="50%" cy="40%" r="75%">
<stop offset="0%" stop-color="#0f2440"/>
<stop offset="100%" stop-color="#020305"/>
</radialGradient>
<linearGradient id="b" x1="0" y1="0" x2="0" y2="1">
<stop offset="0%" stop-color="#5c0a28"/>
<stop offset="100%" stop-color="#23040f"/>
</linearGradient>
<linearGradient id="c" x1="0" y1="0" x2="0" y2="1">
<stop offset="0%" stop-color="#0b3d2e"/>
<stop offset="100%" stop-color="#03140e"/>
</linearGradient>
<linearGradient id="d" x1="0" y1="0" x2="1" y2="1">
<stop offset="0%" stop-color="#8a6d1b"/>
<stop offset="50%" stop-color="#f2d56f"/>
<stop offset="100%" stop-color="#8a6d1b"/>
</linearGradient>
<filter id="g" x="-50%" y="-50%" width="200%" height="200%">
<feGaussianBlur stdDeviation="2" result="b"/>
<feMerge><feMergeNode in="b"/><feMergeNode in="SourceGraphic"/></feMerge>
</filter>
<clipPath id="w"><path d="M480 900 V380 A320 320 0 0 1 1120 380 V900 Z"/></clipPath>
</defs>
<rect width="1600" height="900" fill="url(#a)"/>
<g fill="#070d16">
<rect x="0" y="820" width="1600" height="80"/>
<rect x="0" y="0" width="1600" height="60"/>
</g>
<g transform="translate(180,0)">
<rect width="90" height="900" fill="#0a1628"/>
<line x1="25" y1="0" x2="25" y2="900" stroke="url(#d)" stroke-width="2"/>
<line x1="65" y1="0" x2="65" y2="900" stroke="url(#d)" stroke-width="2"/>
<rect x="0" y="180" width="90" height="12" fill="url(#d)"/>
<rect x="0" y="760" width="90" height="12" fill="url(#d)"/>
</g>
<g transform="translate(1330,0)">
<rect width="90" height="900" fill="#0a1628"/>
<line x1="25" y1="0" x2="25" y2="900" stroke="url(#d)" stroke-width="2"/>
<line x1="65" y1="0" x2="65" y2="900" stroke="url(#d)" stroke-width="2"/>
<rect x="0" y="180" width="90" height="12" fill="url(#d)"/>
<rect x="0" y="760" width="90" height="12" fill="url(#d)"/>
</g>
<path d="M320 200 L800 40 L1280 200" fill="none" stroke="url(#d)" stroke-width="4" filter="url(#g)" stroke-linecap="round">
<animate attributeName="stroke-opacity" values="0.55;1;0.55" dur="6s" repeatCount="indefinite"/>
</path>
<path d="M420 900 V300 A380 380 0 0 1 1180 300 V900 Z" fill="url(#b)" stroke="url(#d)" stroke-width="5" filter="url(#g)">
<animate attributeName="stroke-opacity" values="0.6;1;0.6" dur="7s" repeatCount="indefinite"/>
</path>
<path d="M480 900 V380 A320 320 0 0 1 1120 380 V900 Z" fill="url(#c)" stroke="url(#d)" stroke-width="3">
<animate attributeName="stroke-opacity" values="0.45;0.9;0.45" dur="7s" begin="1s" repeatCount="indefinite"/>
</path>
<g clip-path="url(#w)" stroke="url(#d)" stroke-width="2" opacity="0.7">
<line x1="800" y1="380" x2="800" y2="900"/>
<line x1="480" y1="470" x2="1120" y2="470"/>
<line x1="480" y1="580" x2="1120" y2="580"/>
<line x1="480" y1="690" x2="1120" y2="690"/>
<line x1="480" y1="800" x2="1120" y2="800"/>
</g>
<path d="M620 720 L800 540 L980 720 L800 900 Z" fill="none" stroke="url(#d)" stroke-width="3" filter="url(#g)">
<animate attributeName="stroke-opacity" values="0.5;1;0.5" dur="8s" repeatCount="indefinite"/>
</path>
<line x1="420" y1="780" x2="1180" y2="780" stroke="url(#d)" stroke-width="2" opacity="0.8"/>
<g transform="translate(800,40)" filter="url(#g)">
<line x1="0" y1="0" x2="0" y2="220" stroke="url(#d)" stroke-width="2"/>
<g>
<line x1="0" y1="220" x2="-130" y2="310" stroke="url(#d)" stroke-width="2"/>
<line x1="0" y1="220" x2="130" y2="310" stroke="url(#d)" stroke-width="2"/>
<line x1="0" y1="260" x2="-90" y2="330" stroke="url(#d)" stroke-width="1.5"/>
<line x1="0" y1="260" x2="90" y2="330" stroke="url(#d)" stroke-width="1.5"/>
<circle cx="0" cy="280" r="12" fill="url(#d)">
<animate attributeName="r" values="10;14;10" dur="3s" repeatCount="indefinite"/>
<animate attributeName="opacity" values="0.7;1;0.7" dur="3s" repeatCount="indefinite"/>
</circle>
<circle cx="-130" cy="310" r="4" fill="#f2d56f"><animate attributeName="opacity" values="0.3;1;0.3" dur="2.4s" repeatCount="indefinite"/></circle>
<circle cx="130" cy="310" r="4" fill="#f2d56f"><animate attributeName="opacity" values="0.3;1;0.3" dur="2.4s" begin="1.2s" repeatCount="indefinite"/></circle>
<circle cx="-90" cy="330" r="3" fill="#f2d56f"><animate attributeName="opacity" values="0.2;0.9;0.2" dur="3.2s" begin="0.6s" repeatCount="indefinite"/></circle>
<circle cx="90" cy="330" r="3" fill="#f2d56f"><animate attributeName="opacity" values="0.2;0.9;0.2" dur="3.2s" begin="1.8s" repeatCount="indefinite"/></circle>
<animateTransform attributeName="transform" type="translate" values="0,0;0,7;0,0" dur="6s" repeatCount="indefinite"/>
</g>
</g>
<g fill="#f2d56f">
<circle cx="260" cy="220" r="2" opacity="0.3"><animate attributeName="cy" values="220;230;220" dur="9s" repeatCount="indefinite"/><animate attributeName="opacity" values="0.2;0.6;0.2" dur="5s" repeatCount="indefinite"/></circle>
<circle cx="1340" cy="260" r="2" opacity="0.3"><animate attributeName="cy" values="260;250;260" dur="10s" repeatCount="indefinite"/><animate attributeName="opacity" values="0.2;0.6;0.2" dur="6s" repeatCount="indefinite"/></circle>
<circle cx="460" cy="170" r="1.5" opacity="0.25"><animate attributeName="cy" values="170;180;170" dur="8s" repeatCount="indefinite"/><animate attributeName="opacity" values="0.1;0.5;0.1" dur="4s" repeatCount="indefinite"/></circle>
<circle cx="1140" cy="200" r="1.5" opacity="0.25"><animate attributeName="cy" values="200;190;200" dur="11s" repeatCount="indefinite"/><animate attributeName="opacity" values="0.1;0.5;0.1" dur="4.5s" repeatCount="indefinite"/></circle>
</g>
</svg>