<?xml version="1.0" encoding="UTF-8"?>
<svg xmlns="http://www.w3.org/2000/svg" viewBox="0 0 1920 1080" preserveAspectRatio="xMidYMid slice">
<defs>
<linearGradient id="sky" x1="0" y1="0" x2="0" y2="1"><stop offset="0%" stop-color="#0b0416"/><stop offset="55%" stop-color="#1a0b2e"/><stop offset="100%" stop-color="#08192e"/></linearGradient>
<radialGradient id="moon" cx="50%" cy="50%" r="50%"><stop offset="0%" stop-color="#ff6b6b"/><stop offset="70%" stop-color="#9d2eff"/><stop offset="100%" stop-color="#1a0b2e" stop-opacity="0"/></radialGradient>
<linearGradient id="body" x1="0" y1="0" x2="1" y2="1"><stop offset="0%" stop-color="#2d1b4e"/><stop offset="100%" stop-color="#050817"/></linearGradient>
<linearGradient id="arm" x1="0" y1="0" x2="1" y2="1"><stop offset="0%" stop-color="#00f0ff"/><stop offset="100%" stop-color="#0b0f2b"/></linearGradient>
<radialGradient id="prop" cx="50%" cy="50%" r="50%"><stop offset="0%" stop-color="#00ffff"/><stop offset="60%" stop-color="#0088ff"/><stop offset="100%" stop-color="#0022aa" stop-opacity="0"/></radialGradient>
<linearGradient id="field" x1="0" y1="0" x2="0" y2="1"><stop offset="0%" stop-color="#05221a"/><stop offset="100%" stop-color="#010a07"/></linearGradient>
<filter id="glow" x="-50%" y="-50%" width="200%" height="200%"><feGaussianBlur stdDeviation="4" result="b"/><feMerge><feMergeNode in="b"/><feMergeNode in="SourceGraphic"/></feMerge></filter>
<filter id="strong" x="-50%" y="-50%" width="200%" height="200%"><feGaussianBlur stdDeviation="8"/></filter>
</defs>

<rect width="1920" height="1080" fill="url(#sky)"/>
<g fill="#fff" opacity=".5">
  <circle cx="200" cy="150" r="2"><animate attributeName="opacity" values=".2;1;.2" dur="3s" repeatCount="indefinite"/></circle>
  <circle cx="500" cy="80" r="1.5"><animate attributeName="opacity" values=".3;.9;.3" dur="4s" repeatCount="indefinite"/></circle>
  <circle cx="900" cy="120" r="2"><animate attributeName="opacity" values=".2;.8;.2" dur="2.5s" repeatCount="indefinite"/></circle>
  <circle cx="1400" cy="60" r="1.5"><animate attributeName="opacity" values=".4;1;.4" dur="5s" repeatCount="indefinite"/></circle>
  <circle cx="1700" cy="180" r="2"><animate attributeName="opacity" values=".2;1;.2" dur="3.5s" repeatCount="indefinite"/></circle>
  <circle cx="300" cy="250" r="1.5"><animate attributeName="opacity" values=".3;.8;.3" dur="4.2s" repeatCount="indefinite"/></circle>
  <circle cx="1600" cy="300" r="2"><animate attributeName="opacity" values=".2;.9;.2" dur="2.8s" repeatCount="indefinite"/></circle>
  <circle cx="1200" cy="200" r="1.5"><animate attributeName="opacity" values=".4;1;.4" dur="3.2s" repeatCount="indefinite"/></circle>
  <circle cx="800" cy="70" r="2"><animate attributeName="opacity" values=".2;.8;.2" dur="4.5s" repeatCount="indefinite"/></circle>
  <circle cx="1100" cy="260" r="1.5"><animate attributeName="opacity" values=".3;1;.3" dur="3.8s" repeatCount="indefinite"/></circle>
  <circle cx="100" cy="400" r="1.5"><animate attributeName="opacity" values=".2;.7;.2" dur="5.5s" repeatCount="indefinite"/></circle>
  <circle cx="1800" cy="400" r="2"><animate attributeName="opacity" values=".3;.9;.3" dur="4s" repeatCount="indefinite"/></circle>
  <circle cx="600" cy="150" r="1.5"><animate attributeName="opacity" values=".2;1;.2" dur="3.1s" repeatCount="indefinite"/></circle>
  <circle cx="1300" cy="100" r="2"><animate attributeName="opacity" values=".4;.8;.4" dur="2.6s" repeatCount="indefinite"/></circle>
  <circle cx="1500" cy="240" r="1.5"><animate attributeName="opacity" values=".3;1;.3" dur="4.8s" repeatCount="indefinite"/></circle>
</g>
<circle cx="1600" cy="200" r="70" fill="url(#moon)" opacity=".8" filter="url(#strong)"/>
<ellipse cx="960" cy="540" rx="900" ry="70" fill="#00ff88" opacity=".08" filter="url(#strong)"><animate attributeName="opacity" values=".08;.18;.08" dur="4s" repeatCount="indefinite"/></ellipse>

<path d="M960,540 L1920,1080 L0,1080 Z" fill="url(#field)"/>
<g stroke="#39ff14" stroke-width="2" fill="none" filter="url(#glow)" opacity=".7">
  <line x1="0" y1="1080" x2="960" y2="540"/>
  <line x1="160" y1="1080" x2="960" y2="540"/>
  <line x1="320" y1="1080" x2="960" y2="540"/>
  <line x1="480" y1="1080" x2="960" y2="540"/>
  <line x1="640" y1="1080" x2="960" y2="540"/>
  <line x1="800" y1="1080" x2="960" y2="540"/>
  <line x1="1120" y1="1080" x2="960" y2="540"/>
  <line x1="1280" y1="1080" x2="960" y2="540"/>
  <line x1="1440" y1="1080" x2="960" y2="540"/>
  <line x1="1600" y1="1080" x2="960" y2="540"/>
  <line x1="1760" y1="1080" x2="960" y2="540"/>
  <line x1="1920" y1="1080" x2="960" y2="540"/>
  <line x1="885" y1="580" x2="1035" y2="580"/>
  <line x1="810" y1="620" x2="1110" y2="620"/>
  <line x1="720" y1="670" x2="1200" y2="670"/>
  <line x1="613" y1="730" x2="1307" y2="730"/>
  <line x1="480" y1="800" x2="1440" y2="800"/>
  <line x1="320" y1="900" x2="1600" y2="900"/>
  <line x1="160" y1="1000" x2="1760" y2="1000"/>
  <animate attributeName="opacity" values=".6;.95;.6" dur="5s" repeatCount="indefinite"/>
</g>

<line x1="0" y1="540" x2="1920" y2="540" stroke="#00f0ff" stroke-width="2" opacity=".25" filter="url(#glow)">
  <animateTransform attributeName="transform" type="translate" values="0,0;0,540;0,0" dur="6s" repeatCount="indefinite"/>
</line>

<g>
  <animateTransform attributeName="transform" type="translate" values="0,0;0,-22;0,0" dur="4.5s" repeatCount="indefinite"/>
  <g stroke-linecap="round">
    <line x1="960" y1="420" x2="740" y2="300" stroke="url(#arm)" stroke-width="16"/>
    <line x1="960" y1="420" x2="1180" y2="300" stroke="url(#arm)" stroke-width="16"/>
    <line x1="960" y1="420" x2="740" y2="540" stroke="url(#arm)" stroke-width="16"/>
    <line x1="960" y1="420" x2="1180" y2="540" stroke="url(#arm)" stroke-width="16"/>
    <line x1="960" y1="420" x2="740" y2="300" stroke="#00f0ff" stroke-width="3" opacity=".6"/>
    <line x1="960" y1="420" x2="1180" y2="300" stroke="#00f0ff" stroke-width="3" opacity=".6"/>
    <line x1="960" y1="420" x2="740" y2="540" stroke="#00f0ff" stroke-width="3" opacity=".6"/>
    <line x1="960" y1="420" x2="1180" y2="540" stroke="#00f0ff" stroke-width="3" opacity=".6"/>
  </g>
  <ellipse cx="960" cy="420" rx="360" ry="250" fill="none" stroke="#00f0ff" stroke-width="1" opacity=".12" filter="url(#glow)">
    <animate attributeName="opacity" values=".12;.3;.12" dur="3s" repeatCount="indefinite"/>
  </ellipse>
  <g opacity=".25" stroke="#00f0ff" stroke-width="2" fill="none" filter="url(#glow)">
    <path d="M760,420 A200,140 0 0 1 1160,420"/>
    <path d="M760,420 A200,140 0 0 0 1160,420"/>
    <animateTransform attributeName="transform" type="rotate" from="0 960 420" to="360 960 420" dur="20s" repeatCount="indefinite"/>
  </g>
  <ellipse cx="960" cy="420" rx="105" ry="62" fill="url(#body)" stroke="#00f0ff" stroke-width="3" filter="url(#glow)"/>
  <path d="M920,420 L960,398 L1000,420 L1000,462 L960,484 L920,462 Z" fill="#00f0ff" opacity=".12" stroke="#00f0ff" stroke-width="1.5"/>
  <circle cx="960" cy="430" r="16" fill="#050817" stroke="#00f0ff" stroke-width="2"/>
  <circle cx="960" cy="430" r="8" fill="#00f0ff" filter="url(#glow)"><animate attributeName="opacity" values=".7;1;.7" dur="2s" repeatCount="indefinite"/></circle>
  <ellipse cx="960" cy="485" rx="58" ry="34" fill="#ffd600" stroke="#ff6b6b" stroke-width="2" opacity=".9" filter="url(#glow)"/>
  <ellipse cx="960" cy="485" rx="38" ry="20" fill="#ff6b6b" opacity=".25"/>
  <rect x="934" y="515" width="14" height="10" rx="3" fill="#0b0f2b" stroke="#00f0ff" stroke-width="1"/>
  <rect x="972" y="515" width="14" height="10" rx="3" fill="#0b0f2b" stroke="#00f0ff" stroke-width="1"/>
  <g fill="#80eaff" opacity=".6" filter="url(#glow)">
    <circle cx="941" cy="525" r="3"><animateTransform attributeName="transform" type="translate" values="0,0;-12,60;-24,120" dur="1.2s" repeatCount="indefinite"/><animate attributeName="opacity" values=".7;0;0" dur="1.2s" repeatCount="indefinite"/></circle>
    <circle cx="941" cy="525" r="3"><animateTransform attributeName="transform" type="translate" values="0,0;-8,50;-18,110" dur="1.4s" begin="0.3s" repeatCount="indefinite"/><animate attributeName="opacity" values=".7;0;0" dur="1.4s" begin="0.3s" repeatCount="indefinite"/></circle>
    <circle cx="941" cy="525" r="2.5"><animateTransform attributeName="transform" type="translate" values="0,0;-18,70;-30,140" dur="1.1s" begin="0.6s" repeatCount="indefinite"/><animate attributeName="opacity" values=".6;0;0" dur="1.1s" begin="0.6s" repeatCount="indefinite"/></circle>
    <circle cx="979" cy="525" r="3"><animateTransform attributeName="transform" type="translate" values="0,0;12,60;24,120" dur="1.2s" repeatCount="indefinite"/><animate attributeName="opacity" values=".7;0;0" dur="1.2s" repeatCount="indefinite"/></circle>
    <circle cx="979" cy="525" r="3"><animateTransform attributeName="transform" type="translate" values="0,0;8,50;18,110" dur="1.4s" begin="0.3s" repeatCount="indefinite"/><animate attributeName="opacity" values=".7;0;0" dur="1.4s" begin="0.3s" repeatCount="indefinite"/></circle>
    <circle cx="979" cy="525" r="2.5"><animateTransform attributeName="transform" type="translate" values="0,0;18,70;30,140" dur="1.1s" begin="0.6s" repeatCount="indefinite"/><animate attributeName="opacity" values=".6;0;0" dur="1.1s" begin="0.6s" repeatCount="indefinite"/></circle>
  </g>
  <g transform="translate(740,300)">
    <circle r="22" fill="#050817" stroke="#00c3ff" stroke-width="3"/>
    <ellipse rx="78" ry="20" fill="url(#prop)" opacity=".35" filter="url(#strong)"/>
    <g><animateTransform attributeName="transform" type="rotate" from="0 0 0" to="360 0 0" dur="0.08s" repeatCount="indefinite"/><ellipse rx="70" ry="10" fill="url(#prop)" filter="url(#glow)" opacity=".9"/><ellipse rx="70" ry="3" fill="#e0ffff" opacity=".7"/></g>
  </g>
  <g transform="translate(1180,300)">
    <circle r="22" fill="#050817" stroke="#00c3ff" stroke-width="3"/>
    <ellipse rx="78" ry="20" fill="url(#prop)" opacity=".35" filter="url(#strong)"/>
    <g><animateTransform attributeName="transform" type="rotate" from="0 0 0" to="360 0 0" dur="0.08s" repeatCount="indefinite"/><ellipse rx="70" ry="10" fill="url(#prop)" filter="url(#glow)" opacity=".9"/><ellipse rx="70" ry="3" fill="#e0ffff" opacity=".7"/></g>
  </g>
  <g transform="translate(740,540)">
    <circle r="22" fill="#050817" stroke="#00c3ff" stroke-width="3"/>
    <ellipse rx="78" ry="20" fill="url(#prop)" opacity=".35" filter="url(#strong)"/>
    <g><animateTransform attributeName="transform" type="rotate" from="0 0 0" to="360 0 0" dur="0.08s" repeatCount="indefinite"/><ellipse rx="70" ry="10" fill="url(#prop)" filter="url(#glow)" opacity=".9"/><ellipse rx="70" ry="3" fill="#e0ffff" opacity=".7"/></g>
  </g>
  <g transform="translate(1180,540)">
    <circle r="22" fill="#050817" stroke="#00c3ff" stroke-width="3"/>
    <ellipse rx="78" ry="20" fill="url(#prop)" opacity=".35" filter="url(#strong)"/>
    <g><animateTransform attributeName="transform" type="rotate" from="0 0 0" to="360 0 0" dur="0.08s" repeatCount="indefinite"/><ellipse rx="70" ry="10" fill="url(#prop)" filter="url(#glow)" opacity=".9"/><ellipse rx="70" ry="3" fill="#e0ffff" opacity=".7"/></g>
  </g>
</g>
</svg>