<?xml version="1.0" encoding="UTF-8"?>
<svg xmlns="http://www.w3.org/2000/svg" viewBox="0 0 1920 1080" width="1920" height="1080">
  <defs>
    <radialGradient id="bgGrad" cx="50%" cy="50%" r="75%">
      <stop offset="0%" stop-color="#1a0f3c"/>
      <stop offset="55%" stop-color="#0b0b1f"/>
      <stop offset="100%" stop-color="#050510"/>
    </radialGradient>
    <linearGradient id="frameGrad" x1="0%" y1="0%" x2="100%" y2="100%">
      <stop offset="0%" stop-color="#f9d423"/>
      <stop offset="50%" stop-color="#f2994a"/>
      <stop offset="100%" stop-color="#d4a017"/>
    </linearGradient>
    <radialGradient id="headGrad" cx="42%" cy="40%" r="70%">
      <stop offset="0%" stop-color="#ffffff"/>
      <stop offset="70%" stop-color="#f3e5d0"/>
      <stop offset="100%" stop-color="#d8b98a"/>
    </radialGradient>
    <linearGradient id="silverGrad" x1="0%" y1="0%" x2="0%" y2="100%">
      <stop offset="0%" stop-color="#ffffff"/>
      <stop offset="45%" stop-color="#90a4ae"/>
      <stop offset="100%" stop-color="#546e7a"/>
    </linearGradient>
    <filter id="neonGlow" x="-50%" y="-50%" width="200%" height="200%">
      <feGaussianBlur stdDeviation="5" result="blur"/>
      <feMerge>
        <feMergeNode in="blur"/>
        <feMergeNode in="blur"/>
        <feMergeNode in="SourceGraphic"/>
      </feMerge>
    </filter>
    <filter id="softGlow" x="-50%" y="-50%" width="200%" height="200%">
      <feGaussianBlur stdDeviation="10" result="blur"/>
      <feMerge>
        <feMergeNode in="blur"/>
        <feMergeNode in="SourceGraphic"/>
      </feMerge>
    </filter>
    <g id="jingle">
      <circle r="12" fill="url(#silverGrad)"/>
      <circle r="5" fill="#1a1a2e"/>
      <circle cx="-4" cy="-4" r="2.5" fill="#ffffff" opacity="0.8"/>
    </g>
    <g id="note-eighth">
      <ellipse cx="0" cy="0" rx="11" ry="9" fill="currentColor"/>
      <line x1="9" y1="-2" x2="9" y2="-55" stroke="currentColor" stroke-width="5" stroke-linecap="round"/>
      <path d="M9,-55 C28,-48 34,-32 30,-18 C26,-28 18,-35 9,-32 Z" fill="currentColor"/>
    </g>
    <g id="note-pair">
      <ellipse cx="0" cy="0" rx="11" ry="9" fill="currentColor"/>
      <ellipse cx="32" cy="8" rx="11" ry="9" fill="currentColor"/>
      <line x1="9" y1="-2" x2="9" y2="-55" stroke="currentColor" stroke-width="5" stroke-linecap="round"/>
      <line x1="41" y1="6" x2="41" y2="-47" stroke="currentColor" stroke-width="5" stroke-linecap="round"/>
      <path d="M9,-55 L41,-47 L41,-35 L9,-43 Z" fill="currentColor"/>
    </g>
  </defs>

  <rect width="1920" height="1080" fill="url(#bgGrad)"/>

  <g fill="#ffffff" opacity="0.25">
    <circle cx="180" cy="160" r="2"/>
    <circle cx="420" cy="120" r="1.5"/>
    <circle cx="1480" cy="140" r="2"/>
    <circle cx="1740" cy="220" r="1.5"/>
    <circle cx="160" cy="860" r="1.5"/>
    <circle cx="1760" cy="840" r="2"/>
    <circle cx="960" cy="90" r="1.5"/>
    <circle cx="960" cy="990" r="2"/>
  </g>

  <g filter="url(#neonGlow)" opacity="0.9">
    <path d="M 640 540 A 320 320 0 0 1 1280 540" fill="none" stroke="#ff00cc" stroke-width="6" stroke-linecap="round"/>
    <path d="M 600 540 A 360 360 0 0 1 1320 540" fill="none" stroke="#00ffff" stroke-width="4" stroke-linecap="round"/>
    <path d="M 560 540 A 400 400 0 0 1 1360 540" fill="none" stroke="#ccff00" stroke-width="5" stroke-linecap="round"/>
    <path d="M 520 540 A 440 440 0 0 1 1400 540" fill="none" stroke="#ff3366" stroke-width="3" stroke-linecap="round" stroke-dasharray="20 15"/>
    <path d="M 960 160 A 380 380 0 0 1 960 920" fill="none" stroke="#00ff99" stroke-width="4" stroke-linecap="round"/>
    <path d="M 960 120 A 420 420 0 0 0 960 960" fill="none" stroke="#ffcc00" stroke-width="3" stroke-linecap="round" stroke-dasharray="30 20"/>
  </g>

  <g transform="rotate(-6 960 540)">
    <circle cx="970" cy="550" r="225" fill="#000000" opacity="0.35" filter="url(#softGlow)"/>
    <circle cx="960" cy="540" r="220" fill="url(#frameGrad)"/>
    <circle cx="960" cy="540" r="216" fill="none" stroke="#ffffff" stroke-width="3" opacity="0.45"/>
    <circle cx="960" cy="540" r="192" fill="url(#headGrad)"/>
    <circle cx="960" cy="540" r="192" fill="none" stroke="#000000" stroke-width="2" opacity="0.08"/>
    <ellipse cx="900" cy="480" rx="95" ry="60" fill="#ffffff" opacity="0.12" transform="rotate(-25 900 480)"/>

    <use href="#jingle" x="1194" y="540"/>
    <use href="#jingle" x="1179.9" y="620"/>
    <use href="#jingle" x="1139.2" y="690.4"/>
    <use href="#jingle" x="1077" y="742.6"/>
    <use href="#jingle" x="1000.6" y="770.5"/>
    <use href="#jingle" x="919.4" y="770.5"/>
    <use href="#jingle" x="843" y="742.6"/>
    <use href="#jingle" x="780.8" y="690.4"/>
    <use href="#jingle" x="740.1" y="620"/>
    <use href="#jingle" x="726" y="540"/>
    <use href="#jingle" x="740.1" y="460"/>
    <use href="#jingle" x="780.8" y="389.6"/>
    <use href="#jingle" x="843" y="337.4"/>
    <use href="#jingle" x="919.4" y="309.5"/>
    <use href="#jingle" x="1000.6" y="309.5"/>
    <use href="#jingle" x="1077" y="337.4"/>
    <use href="#jingle" x="1139.2" y="389.6"/>
    <use href="#jingle" x="1179.9" y="460"/>
  </g>

  <g filter="url(#neonGlow)">
    <path d="M 760 360 Q 860 300 960 330" fill="none" stroke="#ff00cc" stroke-width="5" stroke-linecap="round"/>
    <path d="M 1160 360 Q 1060 300 960 330" fill="none" stroke="#00ffff" stroke-width="5" stroke-linecap="round"/>
    <path d="M 740 720 Q 850 780 960 750" fill="none" stroke="#ccff00" stroke-width="5" stroke-linecap="round"/>
    <path d="M 1180 720 Q 1070 780 960 750" fill="none" stroke="#ff3366" stroke-width="5" stroke-linecap="round"/>
    <line x1="720" y1="320" x2="620" y2="240" stroke="#00ff99" stroke-width="5" stroke-linecap="round"/>
    <line x1="1200" y1="320" x2="1300" y2="240" stroke="#ffcc00" stroke-width="5" stroke-linecap="round"/>
    <line x1="700" y1="760" x2="600" y2="840" stroke="#00ffff" stroke-width="5" stroke-linecap="round"/>
    <line x1="1220" y1="760" x2="1320" y2="840" stroke="#ff00cc" stroke-width="5" stroke-linecap="round"/>
  </g>

  <g filter="url(#neonGlow)">
    <use href="#note-eighth" transform="translate(420,400) scale(1.2) rotate(-20)" style="color:#ff00cc"/>
    <use href="#note-pair" transform="translate(1450,350) scale(1.4) rotate(15)" style="color:#00ffff"/>
    <use href="#note-eighth" transform="translate(1560,620) scale(1.1) rotate(30)" style="color:#ccff00"/>
    <use href="#note-pair" transform="translate(360,650) scale(1.3) rotate(-10)" style="color:#00ff99"/>
    <use href="#note-eighth" transform="translate(1300,780) scale(1.0) rotate(45)" style="color:#ff3366"/>
    <use href="#note-eighth" transform="translate(600,800) scale(1.1) rotate(-35)" style="color:#ffcc00"/>
  </g>

  <g fill="#ffffff" opacity="0.5">
    <circle cx="620" cy="240" r="5"/>
    <circle cx="1300" cy="240" r="5"/>
    <circle cx="600" cy="840" r="5"/>
    <circle cx="1320" cy="840" r="5"/>
    <circle cx="420" cy="400" r="4"/>
    <circle cx="1450" cy="350" r="4"/>
    <circle cx="1560" cy="620" r="4"/>
    <circle cx="360" cy="650" r="4"/>
  </g>
</svg>